<svg xmlns="http://www.w3.org/2000/svg" viewBox="0 0 519 210">
    <defs>
        <style>.cls-1{fill:#7d8b99;}.cls-2{fill:#4080ff;}</style>
    </defs>
    <g>
        <g>
            <polygon class="cls-1"
                     points="58 2 0 136 0 164 86 164 86 210 128 210 128 164 151 164 151 133 128 133 128 82 95 82 92 82 86 130 46 130 94 16 58 2"/>
            <polygon class="cls-1"
                     points="426 2 368 136 368 164 454 164 454 210 496 210 496 164 519 164 519 133 496 133 496 82 463 82 460 82 454 130 414 130 462 16 426 2"/>
            <path class="cls-2" d="M211,161s47,32,104-2l23,25s-31,26-72,26-50-6-77-22Z"/>
            <path class="cls-2"
                  d="M261,40c22.61,0,41,17.5,41,39s-18.39,39-41,39-41-17.5-41-39,18.39-39,41-39m0-40c-44.74,0-81,35.37-81,79s36.26,79,81,79,81-35.37,81-79S305.74,0,261,0Z"/>
            <polygon class="cls-2" points="322 32 323.38 31.27 341 22 341 0 259.75 0 305 31 322 32"/>
        </g>
    </g>
</svg>