<svg xmlns="http://www.w3.org/2000/svg" fill="#b6beca" fill-rule="evenodd" width="22.531" height="24.81" viewBox="0 0 23 25">
    <path d="M1005,1026l-8,8s-1.6,2.25,0,4a3.41,3.41,0,0,0,5,0l10-10a4.889,4.889,0,0,0,0-7s-3.21-3.1-8,0l-12,12a7.586,7.586,0,0,0,1,9s4.41,4.74,10,1l8-8s0.43-1.95-2-1l-7,7a5.779,5.779,0,0,1-7,0c-3.608-2.72-1-7-1-7l12-12s3.02-1.64,5,1c0,0,1.47,1.78-1,4l-9,9s-1.339,1.13-2,1c0,0-1.419-.54,0-2s7-7,7-7,1.75-2.35-1-2"
          transform="translate(-990.969 -1019.63)"/>
</svg>
