<svg xmlns="http://www.w3.org/2000/svg" height="39" width="41" viewBox="0 0 41 39">
    <defs>
        <style>.cls-1{fill:#3faaff;}.cls-2{fill:#d8e1f0;}.cls-3{fill:#fff;}.cls-4{fill:#f2f6fc;}.cls-5{fill:#ff45cc;}
        </style>
    </defs>
    <title>Ресурс 580</title>
    <g id="Слой_2" data-name="Слой 2">
        <g id="Слой_26" data-name="Слой 26">
            <circle class="cls-1" cx="20.5" cy="19.5" r="19.5"/>
            <rect class="cls-2" y="7" width="41" height="28" rx="4" ry="4"/>
            <rect class="cls-3" y="5" width="41" height="28" rx="4" ry="4"/>
            <rect class="cls-4" y="6" width="41" height="28" rx="4" ry="4"/>
            <path class="cls-5"
                  d="M20.5,16A3.78,3.78,0,0,1,24,20a3.78,3.78,0,0,1-3.5,4A3.78,3.78,0,0,1,17,20a3.78,3.78,0,0,1,3.5-4m0-2A5.77,5.77,0,0,0,15,20a5.77,5.77,0,0,0,5.5,6A5.77,5.77,0,0,0,26,20a5.77,5.77,0,0,0-5.5-6Z"/>
            <rect class="cls-5" x="25" y="19" width="8" height="2"/>
            <rect class="cls-5" x="29" y="17" width="2" height="6"/>
            <rect class="cls-5" x="10" y="19" width="6" height="2"/>
            <rect class="cls-5" x="7.64" y="17.54" width="6" height="2"
                  transform="translate(-9.77 12.21) rotate(-42.92)"/>
            <rect class="cls-5" x="7.54" y="20.36" width="6" height="2"
                  transform="translate(2.07 43.62) rotate(-132.92)"/>
        </g>
    </g>
</svg>