<svg xmlns="http://www.w3.org/2000/svg" viewBox="0 0 41 39" height="39" width="39" >
    <defs>
        <style>.cls-1{fill:#3faaff;}.cls-2{fill:#d8e1f0;}.cls-3{fill:#fff;}.cls-4{fill:#f2f6fc;}.cls-5{fill:#ff3fca;}</style>
    </defs>
    <g>
        <g>
            <circle fill="#3faaff" cx="20.5" cy="19.5" r="19.5"/>
            <rect class="cls-2" y="7" width="41" height="28" rx="4" ry="4"/>
            <rect class="cls-3" y="5" width="41" height="28" rx="4" ry="4"/>
            <rect class="cls-4" y="6" width="41" height="28" rx="4" ry="4"/>
            <path class="cls-5"
                  d="M0,11.68,15.45,24.21S18.18,26,20,26V24.21a5.67,5.67,0,0,1-3.64-1.79C14.55,20.63,0,9,0,9Z"/>
            <path class="cls-5"
                  d="M41,11.68,25.55,24.21S22.82,26,21,26V24.21a5.67,5.67,0,0,0,3.64-1.79C26.45,20.63,41,9,41,9Z"/>
            <rect class="cls-5" x="20" y="24" width="1" height="2"/>
            <path fill="#3faaff"
                  d="M34.5,23A2.5,2.5,0,1,1,32,25.5,2.5,2.5,0,0,1,34.5,23m0-2A4.5,4.5,0,1,0,39,25.5,4.5,4.5,0,0,0,34.5,21Z"/>
            <polygon fill="#3faaff" points="40 21 34.12 21.02 34 23 37 23 38 24 40 22 40 21"/>
            <path fill="#3faaff" d="M37.63,31.74a4.52,4.52,0,0,1-6.26,0l1.47-1.37a2.5,2.5,0,0,0,3.32,0Z"/>
        </g>
    </g>
</svg>