<?xml version="1.0" encoding="utf-8"?>
<!-- Generator: Adobe Illustrator 21.0.2, SVG Export Plug-In . SVG Version: 6.00 Build 0)  -->
<svg version="1.1" id="Layer_1" xmlns="http://www.w3.org/2000/svg" xmlns:xlink="http://www.w3.org/1999/xlink" x="0px" y="0px"
	 viewBox="0 0 25.6 30.2" style="enable-background:new 0 0 25.6 30.2;" xml:space="preserve">
<style type="text/css">
	.st0{fill:#253B80;}
	.st1{fill:#179BD7;}
	.st2{fill:#222D65;}
</style>
<path class="st0" d="M7.3,29.2l0.5-3.3l-1.2,0H1.1L4.9,1.3C4.9,1.2,5,1.1,5,1.1C5.1,1.1,5.2,1,5.2,1h9.4C17.7,1,19.9,1.7,21,3
	c0.5,0.6,0.9,1.2,1,1.9c0.2,0.7,0.2,1.6,0,2.6l0,0.1v0.7l0.5,0.3c0.4,0.2,0.8,0.5,1.1,0.8c0.5,0.5,0.7,1.2,0.9,1.9
	c0.1,0.8,0.1,1.7-0.1,2.8c-0.2,1.2-0.6,2.3-1.2,3.2c-0.5,0.8-1.1,1.5-1.8,2c-0.7,0.5-1.5,0.9-2.5,1.1c-0.9,0.2-1.9,0.4-3.1,0.4h-0.7
	c-0.5,0-1,0.2-1.4,0.5c-0.4,0.3-0.7,0.8-0.7,1.3l-0.1,0.3L12,28.8l0,0.2c0,0.1,0,0.1-0.1,0.1c0,0-0.1,0-0.1,0
	C11.8,29.2,7.3,29.2,7.3,29.2z"/>
<path class="st1" d="M23,7.7L23,7.7L23,7.7C23,7.8,23,8,23,8.2c-1.2,6.4-5.5,8.5-10.9,8.5H9.3c-0.7,0-1.2,0.5-1.3,1.1l0,0l0,0
	l-1.4,8.9l-0.4,2.5c-0.1,0.4,0.3,0.8,0.7,0.8h4.9c0.6,0,1.1-0.4,1.2-1l0-0.2l0.9-5.8l0.1-0.3c0.1-0.6,0.6-1,1.2-1h0.7
	c4.7,0,8.4-1.9,9.5-7.5c0.5-2.3,0.2-4.3-1-5.6C24,8.3,23.6,7.9,23,7.7z"/>
<path class="st2" d="M21.8,7.2C21.6,7.1,21.4,7,21.2,7c-0.2,0-0.4-0.1-0.6-0.1c-0.7-0.1-1.6-0.2-2.4-0.2h-7.4c-0.2,0-0.4,0-0.5,0.1
	C9.9,7,9.7,7.3,9.6,7.7L8,17.6l0,0.3c0.1-0.7,0.7-1.1,1.3-1.1h2.8c5.4,0,9.6-2.2,10.9-8.5C23,8,23,7.8,23,7.7
	c-0.3-0.2-0.7-0.3-1-0.4C21.9,7.2,21.8,7.2,21.8,7.2z"/>
<path class="st0" d="M9.6,7.7C9.7,7.3,9.9,7,10.3,6.8c0.2-0.1,0.3-0.1,0.5-0.1h7.4c0.9,0,1.7,0.1,2.4,0.2C20.8,6.9,21,7,21.2,7
	c0.2,0,0.4,0.1,0.6,0.2c0.1,0,0.2,0.1,0.3,0.1c0.4,0.1,0.7,0.3,1,0.4c0.4-2.3,0-3.9-1.3-5.4C20.4,0.7,17.9,0,14.6,0H5.2
	C4.6,0,4,0.5,3.9,1.1L0,25.9c-0.1,0.5,0.3,0.9,0.8,0.9h5.8L8,17.6L9.6,7.7z"/>
</svg>
