<svg xmlns="http://www.w3.org/2000/svg" viewBox="0 0 162 210">
  <defs>
    <style>.cls-1{fill:#ffffff;}</style>
  </defs>
  <g  >
    <g>
      <path class="cls-1" d="M31,161s47,32,104-2l23,25s-31,26-72,26-50-6-77-22Z"/>
      <path class="cls-1"
            d="M81,40c22.61,0,41,17.5,41,39s-18.39,39-41,39S40,100.5,40,79,58.39,40,81,40M81,0C36.26,0,0,35.37,0,79s36.26,79,81,79,81-35.37,81-79S125.74,0,81,0Z"/>
      <polygon class="cls-1" points="142 32 143.38 31.27 161 22 161 0 79.75 0 125 31 142 32"/>
    </g>
  </g>
</svg>
