<?xml version="1.0" encoding="utf-8"?>
<!-- Generator: Adobe Illustrator 21.0.2, SVG Export Plug-In . SVG Version: 6.00 Build 0)  -->
<svg version="1.1"
	 id="Слой_1" shape-rendering="geometricPrecision" image-rendering="optimizeQuality" text-rendering="geometricPrecision"
	 xmlns="http://www.w3.org/2000/svg" xmlns:xlink="http://www.w3.org/1999/xlink" x="0px" y="0px" viewBox="0 0 344.3 360.6"
	 style="enable-background:new 0 0 344.3 360.6;" xml:space="preserve">
<style type="text/css">
	.st0{fill:#FCB316;}
</style>
<path class="st0" d="M339.6,348c-1.6-4.4-4.5-7.4-6.6-11.3c-5.1-6.7-11.1-12.5-17.1-18.3c-2.1-0.7-3-2.7-5-3.5
	c-1.3-1.7-3.4-2.6-5.1-3.9c-3.4-2.6-7.1-4.8-10.9-7c-7.2-4.6-16.1-7.5-24.9-10.5c-9.5-2.3-19.5-4-29.9-5.4
	c-10.3-1.5-20.6-2.9-28.4-7c-4.5-1.3-7.8-3.8-11.7-5.8c-3.6-2.4-7.5-4.4-10.5-7.4c-3.7-2.2-6-5.9-8.9-8.9c-1-2-2.7-3.2-3.5-5.4
	c-1-0.4-1.3-1.6-1.9-2.3c-0.7-0.8-0.7-2.4-1.9-2.7c-0.6,4.1-0.4,9,0,13.2c0.5,1.8,0.7,4,1.2,5.8c0.3,1.6,1.8,4.2,1.2,5.4
	c-31.2-1.6-54-11.5-73.8-24.5c-9.8-6.5-18.2-14.4-26-22.9c-3.4-4.7-7.1-9.2-10.1-14.4c-3.1-5.1-5.7-10.9-8.5-16.3
	c-4.6-11.7-8.9-23.7-10.5-38.4c-2.1-13.7-1.6-31.2,1.5-43.9c1.1-7,3.4-12.9,5.4-19c1.3-2.8,2.7-5.6,3.9-8.5c1.7-2.4,2.6-5.7,4.7-7.8
	C68,66.6,76.5,58.6,85.2,50.9c9.4-6.9,20.1-12.5,33-15.9c12.4-2.8,29.3-3.3,42.7-0.4c27.2,5.6,47.7,17.8,64.9,33.4
	c17.4,15.3,30.8,34.7,40,58.3c9.5,22.4,12.8,57.3,4.3,82.7c-3.5-2-7-3.9-10.5-5.8c-4.2-1.2-8.3-2.6-13.2-3.1
	c-5.9-0.1-11.7,0-15.5,1.9c7.7-0.8,13.9,1.3,18.7,3.1c2.8,1.1,4.4,1.8,6.6,3.1c4.3,2.5,8.1,4.8,11.3,8.2c9.1,8,15.6,18.6,18.7,32.6
	c0,0.4,0.5,0.3,0.4-0.4c0.4-0.1,0.6-0.4,0.8-0.8c0.5-0.6,1.1-1.2,1.6-1.9c1-1.2,2-2.4,2.7-3.9c2.1-2.5,3.8-5.3,5.4-8.2
	c3.7-5.4,6.5-11.6,9.7-17.5c5.5-12.6,10-26.2,12.8-41.6c5.6-34.2-1.1-66.6-12.8-90.5c-12-24.1-28.8-43.4-50.5-57.9
	c-21.9-14.4-47.5-25-82.7-26c-0.2-0.7-0.5,0.1-1.2,0c-18.6-0.6-33.6,2-48.5,5.8c-6.9,2.3-14.1,4.3-20.2,7.4c-7,2.3-12.6,6.1-19,8.9
	c-2.3,2.2-5.8,3.3-8.2,5.4c-3.1,1.5-5.4,3.9-8.5,5.4c-5,4.4-10.3,8.3-15.2,12.8c-4.8,4.4-9,9.4-13.6,14c-0.7,1.6-1.9,2.7-3.1,3.9
	c-0.8,1.5-1.8,2.8-3.1,3.9c-0.5,1.8-2.1,2.5-2.7,4.3c-1.3,1-1.6,3-3.1,3.9c-1.3,3.2-3.6,5.5-5.1,8.5c-1.8,2.9-3.2,6.1-5,8.9
	c-2.8,6.5-5.8,12.8-8.1,19.8c-2.4,6.8-4.4,14-5.8,21.8c-1.5,7.3-2.9,16.8-2.7,24.5c-1,2.8-0.2,8,0,11.3c0,0.6-0.4,0.8-0.4,1.2
	c0,3.7,1,8.2,1.2,10.5c0.8,8.5,2.3,16.4,4.7,23.3c1.5,7.7,4.7,13.7,7,20.6c3.5,5.8,5.9,12.7,10.1,17.9c3.1,6.1,7.5,10.9,11.7,15.9
	c4.5,4.8,9,9.7,14.4,13.6c9.9,8.6,21.5,15.5,34.2,21.4c23.7,11.5,59.1,19,90.9,17.1c8.1-1.1,16.3-2.1,23.7-3.9
	c6.8-2.5,14.7-4,22.9-5c18.7-1.2,34.9,0.5,49.3,4.7c14.6,3.9,27.2,9.8,38.1,17.5c5.8,3.4,10.6,7.8,15.5,12c5,4.3,9,9.6,13.6,14.4
	c0.6,1.8,1.8,3.1,2.7,4.7c1.2,1.3,0.6,4.3,3.5,3.9c1.8-1.8-0.3-4.4-0.4-6.6C341.4,352.1,341,349.6,339.6,348L339.6,348z"/>
<path class="st0" d="M267,241.6c-0.4,0-0.5,0.3-0.8,0.4c-0.7,1.5-0.4,3.9,0,5.4c2.1,4.3,2.8,9.9,7.4,11.7c2.2-0.7,2-3.9,1.9-7
	c-1-3.8-2.4-7.2-4.7-9.7C269.2,241.8,268.1,240.8,267,241.6z M239.8,252.5c0-0.2-0.3-0.4-0.4,0c-3.8-0.5-5.1,1.6-7,3.1
	c-3.3,8.7,2,17.2,11.3,17.1c3.7-0.9,6-3.3,6.6-7.4C249.8,258,246.7,253.3,239.8,252.5L239.8,252.5z"/>
</svg>
