<svg  enable-background="new 0 0 511.34 511.34" height="25" viewBox="0 0 511.34 511.34" width="25"
     xmlns="http://www.w3.org/2000/svg">
    <path d="m362.337 165.326h-213.334c-11.598 0-21 9.402-21 21s9.402 21 21 21h213.334c11.598 0 21-9.402 21-21s-9.402-21-21-21z"/>
    <path d="m309.003 250.66h-160c-11.598 0-21 9.402-21 21s9.402 21 21 21h160c11.598 0 21-9.402 21-21s-9.402-21-21-21z"/>
    <path d="m488.555 61.337c-2.164-5.527-6.566-9.881-12.118-11.983-79.418-30.055-361.166-30.415-441.533 0-5.552 2.103-9.954 6.456-12.118 11.983-.931 2.376-22.786 59.435-22.786 167.656s21.855 165.28 22.785 167.656c2.164 5.527 6.566 9.88 12.117 11.982 1.785.677 44.063 16.27 151.77 21.189l54.95 49.451c7.986 7.187 20.109 7.188 28.096 0l54.95-49.451c107.706-4.92 149.984-20.513 151.77-21.189 5.551-2.103 9.953-6.455 12.117-11.982.93-2.376 22.785-59.436 22.785-167.656s-21.856-165.28-22.785-167.656zm-36.12 310.649c-17.266 4.434-59.828 13.118-137.04 16.193-4.896.195-9.569 2.096-13.212 5.374l-46.513 41.857-46.513-41.857c-3.643-3.278-8.316-5.179-13.212-5.374-77.212-3.075-119.771-11.759-137.037-16.193-22.613-78.058-22.488-208.356-.006-285.978 90.707-23.234 302.927-23.208 393.532-.001 22.517 77.742 22.58 208.032.001 285.979z"/>
</svg>