<svg xmlns="http://www.w3.org/2000/svg" width="17" height="15" viewBox="0 0 24 22" fill="#eba221" fill-rule="evenodd">
<defs>
  </defs>
  <path  d="M821.776,1636.5l2.83-5.51a1.683,1.683,0,0,1,1.415-.99,1.525,1.525,0,0,1,1.414.9l2.83,5.6,6.414,0.81a1.577,1.577,0,0,1,1.321,1.26,1.466,1.466,0,0,1-.566,1.35l-4.528,4.24,1.038,5.69s0.241,1.4-.472,1.89a2.534,2.534,0,0,1-1.981,0l-5.47-2.79-5.66,2.88a2.323,2.323,0,0,1-1.887-.09c-0.786-.52-0.377-1.89-0.377-1.89l1.038-5.69-5-4.78a1.488,1.488,0,0,1-.095-1.08,1.723,1.723,0,0,1,1.321-.99Z" transform="translate(-814 -1630)"/>
</svg>
