<svg xmlns="http://www.w3.org/2000/svg" width="22" height="22" viewBox="0 0 22 22"  fill="white">
    <g >
        <g>
            <path d="M11,7a4,4,0,1,1-4,4,4,4,0,0,1,4-4m0-2a6,6,0,1,0,6,6,6,6,0,0,0-6-6Z"/>
            <path d="M11,0a1,1,0,0,0-1,1V2a1,1,0,0,0,2,0V1a1,1,0,0,0-1-1Z"/>
            <path d="M11,19a1,1,0,0,0-1,1v1a1,1,0,0,0,2,0V20a1,1,0,0,0-1-1Z"/>
            <path d="M21,10H20a1,1,0,0,0,0,2h1a1,1,0,0,0,0-2Z"/>
            <path d="M2,10H1a1,1,0,0,0,0,2H2a1,1,0,0,0,0-2Z"/>
            <path d="M3.93,2.93a1,1,0,0,0-.71,1.71l.71.71A1,1,0,1,0,5.34,3.93l-.71-.71a1,1,0,0,0-.71-.29Z"/>
            <path d="M17.36,16.37a1,1,0,0,0-.71,1.71l.71.71a1,1,0,1,0,1.41-1.41l-.71-.71a1,1,0,0,0-.71-.29Z"/>
            <path d="M18.07,2.93a1,1,0,0,0-.71.29l-.71.71a1,1,0,0,0,1.41,1.41l.71-.71a1,1,0,0,0-.71-1.71Z"/>
            <path d="M4.64,16.37a1,1,0,0,0-.71.29l-.71.71a1,1,0,0,0,1.41,1.41l.71-.71a1,1,0,0,0-.71-1.71Z"/>
        </g>
    </g>
</svg>