<svg xmlns="http://www.w3.org/2000/svg" viewBox="0 0 41 39" width="41" height="39">
    <defs>
        <style>.cls-1{fill:#3faaff;}.cls-2{fill:#d8e1f0;}.cls-3{fill:#fff;}.cls-4{fill:#f2f6fc;}.cls-5{fill:#ff3fca;}
        </style>
    </defs>
    <g>
        <g>
            <circle class="cls-1" cx="20.5" cy="19.5" r="19.5"/>
            <rect class="cls-2" y="7" width="41" height="28" rx="4" ry="4"/>
            <rect class="cls-3" y="5" width="41" height="28" rx="4" ry="4"/>
            <rect class="cls-4" y="6" width="41" height="28" rx="4" ry="4"/>
            <path class="cls-5"
                  d="M20,16a9.35,9.35,0,0,1,7.55,3.88C26.26,21.37,23.48,24,20,24s-6.26-2.63-7.55-4.12A9.35,9.35,0,0,1,20,16m0-2a11.61,11.61,0,0,0-10,6s4,6,10,6,10-6,10-6a11.61,11.61,0,0,0-10-6Z"/>
            <circle class="cls-5" cx="20" cy="20" r="2"/>
        </g>
    </g>
</svg>