<svg xmlns="http://www.w3.org/2000/svg" viewBox="0 0 40.5 40.5" width="40.5" heght="40.5" fill="#ff3fca">
    <g>
        <g>
            <path d="M20.25,2A18.25,18.25,0,1,1,2,20.25,18.27,18.27,0,0,1,20.25,2m0-2A20.25,20.25,0,1,0,40.5,20.25,20.25,20.25,0,0,0,20.25,0Z"/>
            <circle class="cls-1" cx="20.5" cy="24.5" r="1"/>
            <path d="M20.5,23.5a1,1,0,1,0,1,1,1,1,0,0,0-1-1Z"/>
            <path class="cls-1" d="M20.5,20.5Z"/>
            <polygon points="21.5 13.5 19.5 13.5 19.5 21.5 21.5 21.5 21.5 13.5 21.5 13.5"/>
        </g>
    </g>
</svg>