<?xml version="1.0" encoding="utf-8"?>
<!-- Generator: Adobe Illustrator 21.0.2, SVG Export Plug-In . SVG Version: 6.00 Build 0)  -->
<svg version="1.1" id="Слой_1" xmlns="http://www.w3.org/2000/svg" xmlns:xlink="http://www.w3.org/1999/xlink" x="0px" y="0px"
	 viewBox="0 0 30.6 30.2" style="enable-background:new 0 0 30.6 30.2;" xml:space="preserve">
<style type="text/css">
	.st0{fill:#106DB3;}
</style>
<polygon class="st0" points="21.9,20.7 18.7,17.1 15,20.4 18.3,23.9 "/>
<polygon class="st0" points="19.4,14.5 16.1,10.9 12.4,14.1 15.7,17.8 "/>
<polygon class="st0" points="24.2,12 21.7,9.3 19,11.7 21.5,14.4 "/>
<polygon class="st0" points="26.5,12.2 28.3,10.6 26.7,8.8 24.9,10.4 "/>
<polygon class="st0" points="16.5,6.3 19,9 21.7,6.5 19.2,3.9 "/>
<polygon class="st0" points="9.9,8 13.1,11.6 16.8,8.4 13.5,4.8 "/>
<polygon class="st0" points="23.8,22.8 26.2,25.5 28.9,23.1 26.5,20.4 "/>
<polygon class="st0" points="27.2,15.7 28.8,17.5 30.6,15.9 29,14.1 "/>
<polygon class="st0" points="26.5,17.7 24.1,15 21.4,17.4 23.8,20.1 "/>
<polygon class="st0" points="24.2,6.8 26,5.2 24.3,3.4 22.5,5.1 "/>
<path class="st0" d="M18.2,26.7l-6-6.6l1.7-1.4L9.6,14l1.7-1.4L7,7.9L13.7,2l2.1,2.3l3.6-3.2l2.1,2.2L22.9,2l-1-0.5
	c-2.1-1-4.4-1.5-6.7-1.5C6.8,0,0,6.8,0,15.1c0,8.3,6.8,15.1,15.3,15.1c2.6,0,5.2-0.7,7.5-2c0.7-0.4,1.4-0.9,2-1.3l-3.1-3.5
	L18.2,26.7z"/>
</svg>
