<?xml version="1.0" encoding="utf-8"?>
<!-- Generator: Adobe Illustrator 21.0.2, SVG Export Plug-In . SVG Version: 6.00 Build 0)  -->
<svg version="1.1" id="Слой_1" xmlns="http://www.w3.org/2000/svg" xmlns:xlink="http://www.w3.org/1999/xlink" x="0px" y="0px"
	 viewBox="0 0 123.2 161.9" style="enable-background:new 0 0 123.2 161.9;" xml:space="preserve">
<style type="text/css">
	.st0{fill:#FFCE01;}
	.st1{fill:#D2AA07;}
	.st2{fill:#231F20;}
</style>
<g id="Слой_2">
	<g id="Слой_24">
		<path class="st0" d="M0,80.3c0-9.1,0.8-14.9,19.6-28.9C35.2,39.8,85.2,0,85.2,0v66.4h38v95.5H11.9C5.3,161.9,0,156.6,0,150
			c0,0,0,0,0,0L0,80.3z"/>
		<polygon class="st1" points="85.2,66.4 85.2,104.8 15.4,152.4 103.6,123.7 103.6,66.4 		"/>
		<path class="st2" d="M53.3,64.4c4.1-4.9,10-6.6,13.3-3.8s2.6,8.9-1.5,13.8s-10,6.6-13.3,3.8S49.2,69.3,53.3,64.4"/>
	</g>
</g>
</svg>
