<svg xmlns="http://www.w3.org/2000/svg" viewBox="0 0 404.2 161.92"><defs><style>.cls-1{fill:red;}.cls-2{fill:#ffce01;}.cls-3{fill:#d2aa07;}.cls-4{fill:#231f20;}</style></defs><title>Ресурс 579</title><g id="Слой_2" data-name="Слой 2"><g id="Слой_24" data-name="Слой 24"><path class="cls-1" d="M20.54,140V109.25L0,54.11H10.33L25.47,96.63,42.89,45.22h9.49L30,109.61V140Z"/><path d="M81.46,140H73.53a28.69,28.69,0,0,1-.84-4.8h-.6a13.44,13.44,0,0,1-11.29,5.64c-8.65,0-14.54-6.49-14.54-18.38,0-13,6.61-21.14,23.55-21.14h1.32v-3.6c0-7.93-2.64-11.29-7.93-11.29-4.8,0-8.89,2.52-12,5.29l-1.8-8.29a24.11,24.11,0,0,1,14.42-4.8c10.69,0,16.58,4.56,16.58,19.22v28.47A87,87,0,0,0,81.46,140ZM71.13,108.41H70c-11.65,0-14.18,5.17-14.18,13,0,7,2.28,11.53,7.09,11.53a10.33,10.33,0,0,0,8.17-4.81ZM101.4,140H92V79.34h9.37v5.29h.6a15.91,15.91,0,0,1,11.89-6c7.93,0,12.13,4.44,12.13,13.69V140h-9.49V93.15c0-4.57-2-6.13-5.65-6.13-4,0-7.33,3-9.49,6Zm33.88-28c0-22.46,8.41-33.4,20.54-33.4a13.86,13.86,0,0,1,7.69,2.28V54.11h9.37V140h-7l-.72-4.8h-.6c-2.64,3.36-6,5.64-10.93,5.64C141.76,140.84,135.27,130.75,135.27,112ZM163.5,89.19a9.14,9.14,0,0,0-7.09-2.88c-7.57,0-11.17,11.41-11.17,23.78,0,14.18,2.64,22.83,9.49,22.83a9.73,9.73,0,0,0,8.77-4.69Zm38.92,51.65c-12.49,0-20.18-10-20.18-28.59,0-19.46,5.41-33.64,18.26-33.64,10.09,0,16.7,7.57,16.7,28.11v5.17H192c0,13.69,3.84,20.9,11.29,20.9a19.74,19.74,0,0,0,11.53-4.08l2.16,7.21A22.79,22.79,0,0,1,202.43,140.84ZM192.1,104.2h15.5c0-10.33-1.68-17.9-7.09-17.9C194.74,86.3,192.69,93.39,192.1,104.2Zm65.83-24.75-11.29,28.35L259.24,140h-9.73l-9.37-25L231,140h-9.25l12.61-31.35L223,79.46h9.73l7.81,22,8.29-22Z"/><path class="cls-2" d="M281.05,80.32c0-9.09.76-14.86,19.59-28.92C316.23,39.76,366.2,0,366.2,0V66.38h38v95.54H292.92A11.91,11.91,0,0,1,281,150Z"/><polygon class="cls-3" points="366.2 66.38 366.2 104.84 296.37 152.41 384.65 123.69 384.65 66.38 366.2 66.38"/><path class="cls-4" d="M334.29,64.39c4.08-4.87,10-6.58,13.32-3.84s2.62,8.92-1.46,13.79-10,6.58-13.32,3.83-2.62-8.92,1.46-13.78"/></g></g></svg>