<?xml version="1.0" standalone="no"?>
  <!DOCTYPE svg PUBLIC "-//W3C//DTD SVG 1.1//EN" "http://www.w3.org/Graphics/SVG/1.1/DTD/svg11.dtd" >
  <svg>
  <metadata>
  Created by font-carrier
  </metadata>
  <defs>
  <font id="FiraSans-HairItalic" horiz-adv-x="1504" vert-adv-y="1504" >
    <font-face
      
      font-family="Fira Sans Hair"
      
      font-weight="400"
      
      font-stretch="normal"
      
      units-per-em="1000"
      
      ascent="935"
      
      descent="-265"
      
    />
      <missing-glyph />

      

      
      <glyph glyph-name="uni21" unicode="&#x21;" d="M103 197L170 681L184 681L117 197L103 197M86-7Q79-7 74.50-2.50Q70 2 70 9Q70 17 75 22Q80 27 87 27Q103 27 103 11Q103 3 98.50-2Q94-7 86-7Z"  horiz-adv-x="237" vert-adv-y="1000"  />

      
      <glyph glyph-name="uni22" unicode="&#x22;" d="M114 443L145 681L160 681L125 443L114 443M250 443L281 681L296 681L262 443L250 443Z"  horiz-adv-x="323" vert-adv-y="1000"  />

      
      <glyph glyph-name="uni23" unicode="&#x23;" d="M498 462L413 462L347 219L427 219L424 205L344 205L288 0L272 0L328 205L110 205L54 0L38 0L94 205L7 205L10 219L98 219L164 462L81 462L82 475L167 475L218 662L234 662L183 475L401 475L452 662L468 662L417 475L499 475L498 462M331 219L397 462L179 462L113 219L331 219Z"  horiz-adv-x="484" vert-adv-y="1000"  />

      
      <glyph glyph-name="uni24" unicode="&#x24;" d="M312 657Q267 657 231.50 645Q196 633 174.50 611.50Q153 590 142 563Q131 536 131 504Q131 454 165 422Q199 390 280 364Q363 336 402.50 296Q442 256 442 194Q442 156 430 122Q418 88 394 58.50Q370 29 326.50 10.50Q283-8 226-9L206-145L194-145L212-9Q104-8 32 68L41 77Q110 4 215 4Q273 4 316 20.50Q359 37 382.50 65.50Q406 94 417 126Q428 158 428 193Q428 250 391 287Q354 324 275 351Q189 380 153 414.50Q117 449 117 504Q117 574 166.50 621.50Q216 669 310 670L330 809L343 809L323 670Q372 668 407.50 651.50Q443 635 478 604L468 594Q402 657 312 657Z"  horiz-adv-x="525" vert-adv-y="1000"  />

      
      <glyph glyph-name="uni25" unicode="&#x25;" d="M664 693L108-6L119-13L675 686L664 693M212 363Q159 363 129.50 396Q100 429 100 486Q100 516 108 546.50Q116 577 133 606Q150 635 181 653.50Q212 672 253 672Q306 672 335.50 640Q365 608 365 551Q365 521 356.50 490Q348 459 331.50 429.50Q315 400 283.50 381.50Q252 363 212 363M212 375Q250 375 278.50 393Q307 411 322 439.50Q337 468 344 496.50Q351 525 351 551Q351 602 326 630.50Q301 659 253 659Q215 659 186 641.50Q157 624 142.50 596Q128 568 121 540Q114 512 114 485Q114 434 139 404.50Q164 375 212 375M521-9Q468-9 438.50 23.50Q409 56 409 113Q409 130 411.50 147Q414 164 419.50 182.50Q425 201 433.50 217.50Q442 234 454.50 249Q467 264 482 275Q497 286 518 292.50Q539 299 562 299Q615 299 644.50 267Q674 235 674 178Q674 148 666 117.50Q658 87 641 57.50Q624 28 593 9.50Q562-9 521-9M521 3Q559 3 588 21Q617 39 631.50 67.50Q646 96 653 124Q660 152 660 179Q660 230 635.50 258.50Q611 287 563 287Q532 287 507 275Q482 263 467 244.50Q452 226 442 201.50Q432 177 428 155Q424 133 424 112Q424 62 448.50 32.50Q473 3 521 3Z"  horiz-adv-x="754" vert-adv-y="1000"  />

      
      <glyph glyph-name="uni26" unicode="&#x26;" d="M354 691Q394 691 425 675.50Q456 660 474 631.50Q492 603 492 568Q492 507 451.50 463.50Q411 420 296 361L508 130Q530 162 549 199Q568 236 579.50 264Q591 292 606 335L619 331Q570 196 516 121L624 3L611-4L507 111Q412-9 275-9Q196-9 148.50 34.50Q101 78 101 147Q101 212 138.50 263.50Q176 315 274 364Q253 387 238 408Q223 429 212.50 450Q202 471 197 491.50Q192 512 192 534Q192 572 209 607Q226 642 264.50 666.50Q303 691 354 691M354 679Q283 679 245 634.50Q207 590 207 534Q207 494 225 456Q243 418 287 370Q400 427 438.50 468.50Q477 510 477 568Q477 601 461 626.50Q445 652 417 665.50Q389 679 354 679M283 355Q187 308 151.50 258.50Q116 209 116 146Q116 84 158.50 44Q201 4 275 4Q407 4 499 120L283 355Z"  horiz-adv-x="721" vert-adv-y="1000"  />

      
      <glyph glyph-name="uni27" unicode="&#x27;" d="M114 443L145 681L160 681L125 443L114 443Z"  horiz-adv-x="186" vert-adv-y="1000"  />

      
      <glyph glyph-name="uni28" unicode="&#x28;" d="M323 828L332 821Q269 744 228 683Q187 622 154 551Q121 480 106.50 402.50Q92 325 92 233Q92 179 99.50 131Q107 83 125 36.50Q143-10 158-40.50Q173-71 200-122L190-127Q161-76 145.50-44.50Q130-13 112 34Q94 81 86 129.50Q78 178 78 233Q78 327 93 405.50Q108 484 141.50 555.50Q175 627 217 689Q259 751 323 828Z"  horiz-adv-x="327" vert-adv-y="1000"  />

      
      <glyph glyph-name="uni29" unicode="&#x29;" d="M162 827Q190 776 205.50 745Q221 714 239 667Q257 620 265 571Q273 522 273 466Q273 373 258 294.50Q243 216 210 144.50Q177 73 135 11Q93-51 29-128L19-121Q83-44 124 17.50Q165 79 197.50 150Q230 221 244.50 298Q259 375 259 466Q259 521 251.50 569.50Q244 618 226.50 664Q209 710 194 741.50Q179 773 152 822L162 827Z"  horiz-adv-x="326" vert-adv-y="1000"  />

      
      <glyph glyph-name="uni2a" unicode="&#x2a;" d="M425 608L267 560L343 432L331 423L257 553L146 423L135 432L248 560L102 608L107 620L253 570L274 730L288 730L265 570L423 621L425 608Z"  horiz-adv-x="430" vert-adv-y="1000"  />

      
      <glyph glyph-name="uni2b" unicode="&#x2b;" d="M281 493L260 338L413 338L411 324L258 324L236 169L221 169L243 324L90 324L92 338L246 338L267 493L281 493Z"  horiz-adv-x="483" vert-adv-y="1000"  />

      
      <glyph glyph-name="uni2c" unicode="&#x2c;" d="M37 27Q53 27 53 11Q53 3 44-13L-12-122L-23-122L29-5Q19-2 19 9Q19 17 24.50 22Q30 27 37 27Z"  horiz-adv-x="144" vert-adv-y="1000"  />

      
      <glyph glyph-name="uni2d" unicode="&#x2d;" d="M87 306L89 319L327 319L326 306L87 306Z"  horiz-adv-x="400" vert-adv-y="1000"  />

      
      <glyph glyph-name="uni2e" unicode="&#x2e;" d="M37-7Q30-7 25.50-2.50Q21 2 21 9Q21 17 26 22Q31 27 39 27Q55 27 55 11Q55 3 50-2Q45-7 37-7Z"  horiz-adv-x="146" vert-adv-y="1000"  />

      
      <glyph glyph-name="uni2f" unicode="&#x2f;" d="M445 796L457 793L101-94L88-90L445 796Z"  horiz-adv-x="520" vert-adv-y="1000"  />

      
      <glyph glyph-name="uni30" unicode="&#x30;" d="M329 672Q278 672 235 643.50Q192 615 164 568.50Q136 522 116 461.50Q96 401 87.50 338Q79 275 79 211Q79 102 117.50 46.50Q156-9 230-9Q273-9 310 10.50Q347 30 374 64.50Q401 99 422 143.50Q443 188 455.50 240Q468 292 474.50 344.50Q481 397 481 450Q481 672 329 672M329 659Q466 659 466 451Q466 372 452 295.50Q438 219 411 152.50Q384 86 337 45Q290 4 230 4Q93 4 93 210Q93 290 107 366.50Q121 443 148.50 510Q176 577 223 618Q270 659 329 659Z"  horiz-adv-x="539" vert-adv-y="1000"  />

      
      <glyph glyph-name="uni31" unicode="&#x31;" d="M310 661L218 0L204 0L294 644L101 531L95 543L299 661L310 661Z"  horiz-adv-x="390" vert-adv-y="1000"  />

      
      <glyph glyph-name="uni32" unicode="&#x32;" d="M276 672Q345 672 385.50 631.50Q426 591 426 527Q426 496 421 471Q416 446 398 413Q380 380 356 348.50Q332 317 283 264.50Q234 212 179 157Q124 102 33 14L367 14L362 0L12 0L14 14Q106 103 164.50 161Q223 219 271 271Q319 323 343.50 355Q368 387 385 418.50Q402 450 407 473.50Q412 497 412 527Q412 586 375 622.50Q338 659 275 659Q224 659 183.50 638.50Q143 618 102 578L92 587Q121 616 148.50 634Q176 652 208 662Q240 672 276 672Z"  horiz-adv-x="464" vert-adv-y="1000"  />

      
      <glyph glyph-name="uni33" unicode="&#x33;" d="M274 672Q319 672 352 654.50Q385 637 402 606Q419 575 419 534Q419 467 376 413.50Q333 360 254 353Q316 350 353 313Q390 276 390 209Q390 179 382.50 149.50Q375 120 358.50 91Q342 62 317.50 40Q293 18 255.50 4.50Q218-9 173-9Q116-9 76 10.50Q36 30 4 73L15 81Q46 39 82.50 21.50Q119 4 173 4Q227 4 268 23.50Q309 43 331.50 75Q354 107 365 141Q376 175 376 210Q376 277 336 311.50Q296 346 225 346L188 346L191 359L226 359Q284 359 326 386.50Q368 414 386 452.50Q404 491 404 534Q404 563 395 586Q386 609 369.50 625.50Q353 642 328.50 650.50Q304 659 274 659Q185 659 105 590L97 600Q179 672 274 672Z"  horiz-adv-x="472" vert-adv-y="1000"  />

      
      <glyph glyph-name="uni34" unicode="&#x34;" d="M451 204L449 190L356 190L329 0L315 0L342 190L43 190L45 203L317 672L329 666L61 204L344 204L376 418L388 418L358 204L451 204Z"  horiz-adv-x="499" vert-adv-y="1000"  />

      
      <glyph glyph-name="uni35" unicode="&#x35;" d="M444 661L440 648L158 648L118 370Q181 412 252 412Q288 412 316.50 401Q345 390 364.50 369Q384 348 394.50 318Q405 288 405 250Q405 216 397.50 181.50Q390 147 373 112Q356 77 331 50.50Q306 24 266.50 7.50Q227-9 178-9Q76-9 18 65L29 73Q81 4 179 4Q224 4 261 19.50Q298 35 321.50 60.50Q345 86 361 119Q377 152 383.50 185Q390 218 390 250Q390 321 353 360.50Q316 400 251 400Q211 400 180.50 389.50Q150 379 115 356L103 356L145 661L444 661Z"  horiz-adv-x="472" vert-adv-y="1000"  />

      
      <glyph glyph-name="uni36" unicode="&#x36;" d="M358 659Q292 659 236.50 610Q181 561 146 481Q111 401 96 301Q186 425 303 425Q369 425 407.50 385Q446 345 446 268Q446 234 439.50 198Q433 162 417.50 124.50Q402 87 378.50 57.50Q355 28 318 9.50Q281-9 236-9Q153-9 114.50 48Q76 105 76 202Q76 284 95 366Q114 448 148.50 517Q183 586 238 629Q293 672 359 672Q417 672 460 635L451 625Q412 659 358 659M303 412Q190 412 94 280Q90 241 90 201Q90 109 125.50 56.50Q161 4 236 4Q279 4 314 22.50Q349 41 370 69.50Q391 98 405.50 134.50Q420 171 426 204Q432 237 432 267Q432 339 397.50 375.50Q363 412 303 412Z"  horiz-adv-x="510" vert-adv-y="1000"  />

      
      <glyph glyph-name="uni37" unicode="&#x37;" d="M444 661L442 649L72-5L59-1L426 648L95 648L97 661L444 661Z"  horiz-adv-x="433" vert-adv-y="1000"  />

      
      <glyph glyph-name="uni38" unicode="&#x38;" d="M316 342Q386 312 417 277.50Q448 243 448 187Q448 102 386 46.50Q324-9 227-9Q172-9 132 10Q92 29 71.50 63Q51 97 51 142Q51 294 236 363Q180 388 155 420Q130 452 130 502Q130 576 187 624Q244 672 319 672Q384 672 426 636Q468 600 468 536Q468 475 434.50 429.50Q401 384 316 342M144 502Q144 453 169 423Q194 393 255 368L303 348Q387 388 420.50 433Q454 478 454 537Q454 595 416.50 627Q379 659 319 659Q274 659 234 639.50Q194 620 169 583.50Q144 547 144 502M227 4Q286 4 333 26.50Q380 49 407 91Q434 133 434 188Q434 244 400.50 276.50Q367 309 288 341L251 357Q206 340 172.50 319.50Q139 299 119 278.50Q99 258 86.50 234Q74 210 70 188.50Q66 167 66 142Q66 78 109 41Q152 4 227 4Z"  horiz-adv-x="525" vert-adv-y="1000"  />

      
      <glyph glyph-name="uni39" unicode="&#x39;" d="M302 672Q457 672 457 482Q457 419 448 364Q439 309 414 249.50Q389 190 349 142.50Q309 95 242 53.50Q175 12 88-14L84-2Q153 19 208.50 49Q264 79 311.50 123Q359 167 390.50 230Q422 293 435 372Q354 258 235 258Q191 258 158 278Q125 298 106 336Q87 374 87 425Q87 457 94.50 490Q102 523 119 556Q136 589 160.50 614.50Q185 640 221.50 656Q258 672 302 672M236 271Q353 271 438 393Q443 438 443 481Q443 659 302 659Q260 659 225.50 643.50Q191 628 168.50 603.50Q146 579 130.50 547.50Q115 516 108.50 485Q102 454 102 424Q102 353 138 312Q174 271 236 271Z"  horiz-adv-x="505" vert-adv-y="1000"  />

      
      <glyph glyph-name="uni3a" unicode="&#x3a;" d="M96 414Q89 414 84.50 418.50Q80 423 80 429Q80 437 85 442Q90 447 98 447Q114 447 114 431Q114 424 109 419Q104 414 96 414M37-7Q30-7 25.50-2.50Q21 2 21 9Q21 17 26 22Q31 27 39 27Q55 27 55 11Q55 3 50-2Q45-7 37-7Z"  horiz-adv-x="146" vert-adv-y="1000"  />

      
      <glyph glyph-name="uni3b" unicode="&#x3b;" d="M96 414Q89 414 84.50 418.50Q80 423 80 429Q80 437 85 442Q90 447 98 447Q114 447 114 431Q114 424 109 419Q104 414 96 414M37 27Q53 27 53 11Q53 3 44-13L-12-122L-23-122L29-5Q19-2 19 9Q19 17 24.50 22Q30 27 37 27Z"  horiz-adv-x="146" vert-adv-y="1000"  />

      
      <glyph glyph-name="uni3c" unicode="&#x3c;" d="M439 497L443 485L109 333L399 177L392 165L93 328L94 338L439 497Z"  horiz-adv-x="494" vert-adv-y="1000"  />

      
      <glyph glyph-name="uni3d" unicode="&#x3d;" d="M102 401L104 415L424 415L423 401L102 401M79 247L81 260L402 260L400 247L79 247Z"  horiz-adv-x="483" vert-adv-y="1000"  />

      
      <glyph glyph-name="uni3e" unicode="&#x3e;" d="M123 497L423 338L422 328L76 165L72 177L406 333L115 485L123 497Z"  horiz-adv-x="495" vert-adv-y="1000"  />

      
      <glyph glyph-name="uni3f" unicode="&#x3f;" d="M293 691Q354 691 388 658.50Q422 626 422 578Q422 537 405.50 504Q389 471 363.50 451Q338 431 309 410.50Q280 390 255 373Q230 356 213.50 329Q197 302 197 269Q197 245 206 214L193 211Q183 243 183 269Q183 293 190.50 313.50Q198 334 211 349Q224 364 241 378Q258 392 276.50 404Q295 416 313.50 428.50Q332 441 349 456Q366 471 379 488Q392 505 400 528Q408 551 408 578Q408 621 377.50 649.50Q347 678 293 678Q259 678 230 669.50Q201 661 176 644.50Q151 628 122 601L113 609Q157 652 199 671.50Q241 691 293 691M187-8Q180-8 175.50-3.50Q171 1 171 8Q171 16 176 21Q181 26 189 26Q205 26 205 10Q205 2 200-3Q195-8 187-8Z"  horiz-adv-x="444" vert-adv-y="1000"  />

      
      <glyph glyph-name="uni40" unicode="&#x40;" d="M581 691Q666 691 733 665.50Q800 640 842 595Q884 550 906 490.50Q928 431 928 361Q928 301 915.50 242Q903 183 879.50 131Q856 79 814.50 46.50Q773 14 721 14Q672 14 646.50 49.50Q621 85 624 147Q559 16 455 16Q395 16 358 59Q321 102 321 181Q321 219 328.50 258.50Q336 298 354 337.50Q372 377 398.50 407.50Q425 438 465 457Q505 476 554 476Q617 476 675 443L639 180Q630 111 650 69Q670 27 720 27Q769 27 808 58.50Q847 90 869 140.50Q891 191 902 247.50Q913 304 913 360Q913 452 877 522.50Q841 593 765 635.50Q689 678 581 678Q484 678 402.50 645.50Q321 613 268 560.50Q215 508 178 441Q141 374 124.50 307Q108 240 108 176Q108 12 210-85Q312-182 472-182Q572-182 659-150L662-163Q571-195 472-195Q306-195 200-94.50Q94 6 94 176Q94 241 110.50 310Q127 379 165.50 448Q204 517 258.50 570.50Q313 624 397 657.50Q481 691 581 691M456 30Q508 30 551 67Q594 104 623 168L660 434Q610 463 555 463Q508 463 469.50 444Q431 425 407 395.50Q383 366 366 328Q349 290 342 252.50Q335 215 335 179Q335 106 368 68Q401 30 456 30Z"  horiz-adv-x="1020" vert-adv-y="1000"  />

      
      <glyph glyph-name="uni41" unicode="&#x41;" d="M475 0L432 207L110 207L9 0L-6 0L329 681L346 681L490 0L475 0M117 221L429 221L336 668L117 221Z"  horiz-adv-x="557" vert-adv-y="1000"  />

      
      <glyph glyph-name="uni42" unicode="&#x42;" d="M363 360Q430 355 471.50 318Q513 281 513 214Q513 172 500 135.50Q487 99 459 67.50Q431 36 379.50 18Q328 0 258 0L89 0L185 681L327 681Q421 681 472 644.50Q523 608 523 538Q523 490 501.50 451Q480 412 444 389Q408 366 363 360M197 667L155 367L331 367Q404 367 456 414.50Q508 462 508 538Q508 580 487.50 609.50Q467 639 426.50 653Q386 667 328 667L197 667M261 14Q326 14 374 30.50Q422 47 448 76.50Q474 106 486 140Q498 174 498 214Q498 281 453 317Q408 353 332 353L153 353L106 14L261 14Z"  horiz-adv-x="584" vert-adv-y="1000"  />

      
      <glyph glyph-name="uni43" unicode="&#x43;" d="M403 691Q438 691 467 683Q496 675 515 663Q534 651 553 633L544 623Q524 641 506.50 652Q489 663 463 670Q437 677 403 677Q356 677 315 662.50Q274 648 243.50 623Q213 598 188.50 564Q164 530 148 492.50Q132 455 121 413Q110 371 105.50 332.50Q101 294 101 256Q101 134 156 69.50Q211 5 305 5Q359 5 397.50 20.50Q436 36 472 63L481 52Q400-9 305-9Q204-9 145 59.50Q86 128 86 256Q86 312 96 369.50Q106 427 130 485.50Q154 544 189 589Q224 634 279.50 662.50Q335 691 403 691Z"  horiz-adv-x="535" vert-adv-y="1000"  />

      
      <glyph glyph-name="uni44" unicode="&#x44;" d="M299 681Q341 681 375.50 675Q410 669 444.50 652.50Q479 636 502.50 609Q526 582 540.50 537Q555 492 555 433Q555 369 544 309Q533 249 507 192Q481 135 442.50 93Q404 51 344 25.50Q284 0 210 0L89 0L185 681L299 681M297 667L197 667L106 14L211 14Q283 14 340 39Q397 64 434 104.50Q471 145 495.50 200.50Q520 256 530 314Q540 372 540 433Q540 481 531 519Q522 557 504 582Q486 607 464 624Q442 641 413.50 650.50Q385 660 357.50 663.50Q330 667 297 667Z"  horiz-adv-x="617" vert-adv-y="1000"  />

      
      <glyph glyph-name="uni45" unicode="&#x45;" d="M499 681L496 667L197 667L156 367L412 367L410 354L154 354L105 14L414 14L412 0L89 0L185 681L499 681Z"  horiz-adv-x="494" vert-adv-y="1000"  />

      
      <glyph glyph-name="uni46" unicode="&#x46;" d="M494 681L491 667L197 667L153 352L407 352L405 339L151 339L104 0L89 0L185 681L494 681Z"  horiz-adv-x="471" vert-adv-y="1000"  />

      
      <glyph glyph-name="uni47" unicode="&#x47;" d="M405 691Q494 691 563 633L553 624Q489 677 405 677Q361 677 322 664Q283 651 253 627.50Q223 604 197.50 572Q172 540 154.50 502.50Q137 465 125 423.50Q113 382 107 340Q101 298 101 257Q101 133 158 68.50Q215 4 317 4Q399 4 483 48L524 336L377 336L376 349L540 349L497 40Q406-9 317-9Q208-9 147 59.50Q86 128 86 258Q86 318 98.50 378.50Q111 439 137 495.50Q163 552 199.50 595.50Q236 639 289 665Q342 691 405 691Z"  horiz-adv-x="603" vert-adv-y="1000"  />

      
      <glyph glyph-name="uni48" unicode="&#x48;" d="M104 0L89 0L185 681L199 681L156 370L533 370L576 681L591 681L495 0L481 0L531 356L154 356L104 0Z"  horiz-adv-x="657" vert-adv-y="1000"  />

      
      <glyph glyph-name="uni49" unicode="&#x49;" d="M199 681L104 0L89 0L185 681L199 681Z"  horiz-adv-x="266" vert-adv-y="1000"  />

      
      <glyph glyph-name="uni4a" unicode="&#x4a;" d="M215 681L132 86Q122 11 92-26.50Q62-64-19-97L-23-85Q51-55 79.50-19Q108 17 118 88L201 681L215 681Z"  horiz-adv-x="276" vert-adv-y="1000"  />

      
      <glyph glyph-name="uni4b" unicode="&#x4b;" d="M89 1L185 681L199 681L104 1L89 1M445 0L158 366L524 681L542 681L176 366L463 0L445 0Z"  horiz-adv-x="508" vert-adv-y="1000"  />

      
      <glyph glyph-name="uni4c" unicode="&#x4c;" d="M199 681L106 14L394 14L390 0L89 0L185 681L199 681Z"  horiz-adv-x="449" vert-adv-y="1000"  />

      
      <glyph glyph-name="uni4d" unicode="&#x4d;" d="M661 681L643 0L629 0L638 349Q644 587 648 669L362 84L348 84L225 669Q221 648 148 356L58 0L44 0L215 681L237 681L357 101L639 681L661 681Z"  horiz-adv-x="760" vert-adv-y="1000"  />

      
      <glyph glyph-name="uni4e" unicode="&#x4e;" d="M592 681L496 0L478 0L195 666Q191 621 176 514L103 0L89 0L185 681L203 681L486 16Q496 97 507 178L578 681L592 681Z"  horiz-adv-x="658" vert-adv-y="1000"  />

      
      <glyph glyph-name="uni4f" unicode="&#x4f;" d="M404 691Q509 691 567.50 622.50Q626 554 626 428Q626 373 617 316.50Q608 260 584.50 200Q561 140 526 94.50Q491 49 434.50 20Q378-9 307-9Q203-9 144.50 60Q86 129 86 254Q86 308 96 364.50Q106 421 130 480.50Q154 540 189 586Q224 632 280 661.50Q336 691 404 691M515.50 649.50Q515.50 649.50 492.25 663.75Q469 678 403.50 678Q338 678 284.50 649Q231 620 197.50 575.50Q164 531 141.50 473Q119 415 110 360.50Q101 306 101 254Q101 134 155.50 69Q210 4 307 4Q364 4 412 24Q460 44 492 78Q524 112 548 154.50Q572 197 585.50 246Q599 295 605 340Q611 385 611 428Q611 508 586.50 564.50Q562 621 515.50 649.50Z"  horiz-adv-x="688" vert-adv-y="1000"  />

      
      <glyph glyph-name="uni50" unicode="&#x50;" d="M316 681Q423 681 476.50 642.50Q530 604 530 521Q530 474 516.50 434.50Q503 395 473.50 360Q444 325 388.50 305Q333 285 257 285L144 285L104 0L89 0L185 681L316 681M260 299Q331 299 383 317.50Q435 336 462.50 369Q490 402 502.50 439.50Q515 477 515 521Q515 560 502.50 588Q490 616 464.50 633.50Q439 651 402 659Q365 667 315 667L197 667L146 299L260 299Z"  horiz-adv-x="556" vert-adv-y="1000"  />

      
      <glyph glyph-name="uni51" unicode="&#x51;" d="M626 428Q626 378 618.50 326.50Q611 275 591.50 219.50Q572 164 543.50 120Q515 76 469 43Q423 10 366 0Q438-2 490-17Q542-32 578-67L567-78Q525-38 468-23.50Q411-9 311-9Q310-9 307-9Q203-9 144.50 60Q86 129 86 254Q86 308 96 364.50Q106 421 130 480.50Q154 540 189 586Q224 632 280 661.50Q336 691 404 691Q509 691 567.50 622.50Q626 554 626 428M101 254Q101 134 155.50 69Q210 4 307 4Q364 4 412 24Q460 44 492 78.50Q524 113 548 155.50Q572 198 585.50 247Q599 296 605 340.50Q611 385 611 428Q611 549 556.50 613.50Q502 678 403 678Q356 678 315 663Q274 648 243.50 622Q213 596 188.50 561.50Q164 527 148 488.50Q132 450 121 408.50Q110 367 105.50 328.50Q101 290 101 254Z"  horiz-adv-x="674" vert-adv-y="1000"  />

      
      <glyph glyph-name="uni52" unicode="&#x52;" d="M527 532Q527 482 507.50 439.50Q488 397 443.50 366.50Q399 336 337 329L483 0L466 0L322 328L320 328L150 328L104 0L89 0L185 681L332 681Q527 681 527 532M152 342L308 342Q360 342 400.50 358Q441 374 464.50 401.50Q488 429 500 462Q512 495 512 532Q512 598 469.50 632.50Q427 667 330 667L197 667L152 342Z"  horiz-adv-x="568" vert-adv-y="1000"  />

      
      <glyph glyph-name="uni53" unicode="&#x53;" d="M324 691Q426 691 493 623L483 614Q420 678 324 678Q233 678 184 631Q135 584 135 522Q135 465 168.50 434Q202 403 288 375Q376 346 415.50 307Q455 268 455 199Q455 165 442 130Q429 95 402.50 63Q376 31 329 11Q282-9 222-9Q158-9 113.50 11.50Q69 32 32 71L42 81Q77 43 118.50 23.50Q160 4 222 4Q280 4 324.50 23.50Q369 43 393 73.50Q417 104 428.50 136Q440 168 440 199Q440 262 403.50 298Q367 334 283 363Q192 393 156 426.50Q120 460 120 522Q120 552 132.50 581Q145 610 168.50 635Q192 660 232.50 675.50Q273 691 324 691Z"  horiz-adv-x="537" vert-adv-y="1000"  />

      
      <glyph glyph-name="uni54" unicode="&#x54;" d="M517 681L514 667L302 667L208 0L193 0L287 667L75 667L77 681L517 681Z"  horiz-adv-x="474" vert-adv-y="1000"  />

      
      <glyph glyph-name="uni55" unicode="&#x55;" d="M582 681L515 206Q502 107 444.50 49Q387-9 283-9Q178-9 136.50 49Q95 107 109 207L175 681L190 681L123 208Q110 113 147.50 58.50Q185 4 283 4Q381 4 434.50 59.50Q488 115 501 209L567 681L582 681Z"  horiz-adv-x="639" vert-adv-y="1000"  />

      
      <glyph glyph-name="uni56" unicode="&#x56;" d="M558 681L238 0L220 0L90 681L105 681L230 14L542 681L558 681Z"  horiz-adv-x="529" vert-adv-y="1000"  />

      
      <glyph glyph-name="uni57" unicode="&#x57;" d="M803 681L548 0L531 0L450 666L180 0L164 0L100 681L115 681L175 16L442 681L460 681L541 16L788 681L803 681Z"  horiz-adv-x="785" vert-adv-y="1000"  />

      
      <glyph glyph-name="uni58" unicode="&#x58;" d="M488 681L262 370L424 0L409 0L252 360L-3 0L-19 0L244 370L104 681L120 681L254 380L472 681L488 681Z"  horiz-adv-x="478" vert-adv-y="1000"  />

      
      <glyph glyph-name="uni59" unicode="&#x59;" d="M524 681L254 271L216 0L201 0L239 271L82 681L98 681L247 285L508 681L524 681Z"  horiz-adv-x="488" vert-adv-y="1000"  />

      
      <glyph glyph-name="uni5a" unicode="&#x5a;" d="M6 0L8 13L496 667L138 667L139 681L516 681L515 668L27 14L408 14L404 0L6 0Z"  horiz-adv-x="507" vert-adv-y="1000"  />

      
      <glyph glyph-name="uni5b" unicode="&#x5b;" d="M301 794L300 783L193 783L68-93L175-93L174-104L54-104L181 794L301 794Z"  horiz-adv-x="311" vert-adv-y="1000"  />

      
      <glyph glyph-name="uni5c" unicode="&#x5c;" d="M226 796L333-90L320-94L212 793L226 796Z"  horiz-adv-x="520" vert-adv-y="1000"  />

      
      <glyph glyph-name="uni5d" unicode="&#x5d;" d="M281 794L155-104L34-104L36-93L143-93L266 783L159 783L161 794L281 794Z"  horiz-adv-x="311" vert-adv-y="1000"  />

      
      <glyph glyph-name="uni5e" unicode="&#x5e;" d="M344 821L476 527L459 527L337 804L137 527L119 527L334 821L344 821Z"  horiz-adv-x="526" vert-adv-y="1000"  />

      
      <glyph glyph-name="uni5f" unicode="&#x5f;" d="M-3-95L-1-82L426-82L425-95L-3-95Z"  horiz-adv-x="520" vert-adv-y="1000"  />

      
      <glyph glyph-name="uni60" unicode="&#x60;" d="M106 755L265 666L259 657L98 740L106 755Z"  horiz-adv-x="237" vert-adv-y="1000"  />

      
      <glyph glyph-name="uni61" unicode="&#x61;" d="M331 528Q404 528 468 487L416 116Q407 73 413.50 43.50Q420 14 450 2L445-9Q413 3 404.50 31.50Q396 60 401 105Q369 50 324 20.50Q279-9 228-9Q191-9 161 5Q131 19 111 44.50Q91 70 80.50 106.50Q70 143 70 187Q70 232 78.50 277Q87 322 107 368Q127 414 156 449Q185 484 230.50 506Q276 528 331 528M332 516Q279 516 236 494.50Q193 473 165.50 439Q138 405 119 361Q100 317 92.50 273.50Q85 230 85 188Q85 103 122.50 53.50Q160 4 229 4Q334 4 404 129L454 481Q400 516 332 516Z"  horiz-adv-x="545" vert-adv-y="1000"  />

      
      <glyph glyph-name="uni62" unicode="&#x62;" d="M343 528Q380 528 408.50 515.50Q437 503 456 479Q475 455 485 420Q495 385 495 339Q495 296 487 251Q479 206 460.50 158.50Q442 111 414.50 74Q387 37 343.50 14Q300-9 247-9Q217-9 192-5.50Q167-2 143 5.50Q119 13 89 25L188 732L202 733L159 430Q242 528 343 528M343 515Q287 515 244 489Q201 463 157 412L105 34Q175 4 247 4Q297 4 338.50 27Q380 50 405.50 85.50Q431 121 448.50 166.50Q466 212 473.50 255.50Q481 299 481 339Q481 425 446 470Q411 515 343 515Z"  horiz-adv-x="564" vert-adv-y="1000"  />

      
      <glyph glyph-name="uni63" unicode="&#x63;" d="M319 528Q397 528 446 478L436 469Q390 516 319 516Q261 516 215 487Q169 458 141.50 411Q114 364 100 308.50Q86 253 86 196Q86 103 128.50 53.50Q171 4 245 4Q318 4 383 54L390 44Q324-9 244.50-9Q165-9 118.50 44.50Q72 98 72 196Q72 256 87 313.50Q102 371 131 420Q160 469 209 498.50Q258 528 319 528Z"  horiz-adv-x="466" vert-adv-y="1000"  />

      
      <glyph glyph-name="uni64" unicode="&#x64;" d="M499 734L513 732L411 0L399 0L416 137Q379 70 333 30.50Q287-9 223-9Q153-9 111.50 43Q70 95 70 187Q70 229 77.50 274Q85 319 103.50 365Q122 411 149 447Q176 483 218 505.50Q260 528 311 528Q350 528 381.50 513.50Q413 499 430 480Q447 461 458 436L499 734M312 516Q263 516 223.50 494Q184 472 159 437.50Q134 403 116.50 358.50Q99 314 92 271Q85 228 85 187Q85 100 122 52Q159 4 224 4Q287 4 332 45.50Q377 87 420 164L456 418Q414 516 312 516Z"  horiz-adv-x="568" vert-adv-y="1000"  />

      
      <glyph glyph-name="uni65" unicode="&#x65;" d="M468 412Q468 326 372 276Q276 226 85 216Q85 205 85 193Q85 100 126.50 52Q168 4 241 4Q287 4 322.50 17.50Q358 31 399 61L406 50Q365 20 326.50 5.50Q288-9 241-9Q161-9 115.50 43Q70 95 70 193Q70 227 76.50 263.50Q83 300 95.50 338Q108 376 129 410Q150 444 177.50 470.50Q205 497 244 512.50Q283 528 328 528Q391 528 429.50 497Q468 466 468 412M328 516Q281 516 241.50 497.50Q202 479 175.50 450Q149 421 129.50 382.50Q110 344 100 305.50Q90 267 86 228Q454 248 454 412Q454 460 420 488Q386 516 328 516Z"  horiz-adv-x="509" vert-adv-y="1000"  />

      
      <glyph glyph-name="uni66" unicode="&#x66;" d="M310 723Q260 723 227.50 696Q195 669 187 616L174 518L322 518L319 506L172 506L102 4Q93-58 76-95Q59-132 35.50-152Q12-172-32-193L-37-182Q3-162 25.50-143Q48-124 64-88.50Q80-53 88 5L158 506L67 506L69 518L160 518L174 618Q182 674 218.50 705Q255 736 309 736Q368 736 421 699L413 689Q363 723 310 723Z"  horiz-adv-x="304" vert-adv-y="1000"  />

      
      <glyph glyph-name="uni67" unicode="&#x67;" d="M332 528Q405 528 469 487L397-7Q370-194 210-194Q123-194 48-148L54-137Q128-182 211-182Q358-182 383-9L401 118Q369 61 324 30.50Q279 0 228 0Q155 0 113.50 54.50Q72 109 72 198Q72 241 80 285Q88 329 107.50 373.50Q127 418 156 452Q185 486 230.50 507Q276 528 332 528M332 516Q279 516 236 495.50Q193 475 165.50 442.50Q138 410 119.50 367Q101 324 93.50 282Q86 240 86 198Q86 114 124 63.50Q162 13 229 13Q334 13 405 142L454 481Q401 516 332 516Z"  horiz-adv-x="552" vert-adv-y="1000"  />

      
      <glyph glyph-name="uni68" unicode="&#x68;" d="M367 528Q435 528 463 486.50Q491 445 481 368L429 0L415 0L467 368Q487 516 366 516Q302 516 248 468Q194 420 143 321L98 0L84 0L187 732L201 734L147 349Q238 528 367 528Z"  horiz-adv-x="581" vert-adv-y="1000"  />

      
      <glyph glyph-name="uni69" unicode="&#x69;" d="M189 688Q176 688 176 701Q176 708 180 712.50Q184 717 191 717Q205 717 205 704Q205 697 200.50 692.50Q196 688 189 688M171 518L98 0L84 0L157 518L171 518Z"  horiz-adv-x="255" vert-adv-y="1000"  />

      
      <glyph glyph-name="uni6a" unicode="&#x6a;" d="M189 688Q176 688 176 701Q176 708 180 712.50Q184 717 191 717Q205 717 205 704Q205 697 200.50 692.50Q196 688 189 688M-34-193L-39-182Q1-163 23-143.50Q45-124 61.50-88.50Q78-53 86 5L158 518L172 518L99 4Q91-58 73.50-95Q56-132 32.50-152Q9-172-34-193Z"  horiz-adv-x="256" vert-adv-y="1000"  />

      
      <glyph glyph-name="uni6b" unicode="&#x6b;" d="M201 733L145 331Q175 396 211 440.50Q247 485 286 506.50Q325 528 367 528Q392 528 412 521Q432 514 446 500.50Q460 487 467.50 467.50Q475 448 475 425Q475 301 290 241L414 0L399 0L272 247Q460 305 460 424Q460 466 436.50 491Q413 516 366 516Q239 516 140 299L98 0L84 0L187 732L201 733Z"  horiz-adv-x="507" vert-adv-y="1000"  />

      
      <glyph glyph-name="uni6c" unicode="&#x6c;" d="M196 733L103 69Q94 4 149 4Q169 4 190 12L193 0Q170-9 148-9Q78-9 90 70L182 732L196 733Z"  horiz-adv-x="276" vert-adv-y="1000"  />

      
      <glyph glyph-name="uni6d" unicode="&#x6d;" d="M647 528Q705 528 730.50 486Q756 444 745 368L693 0L679 0L731 368Q741 440 719 478Q697 516 646 516Q533 516 441 324L396 0L382 0L433 368Q438 404 435 431.50Q432 459 421.50 478Q411 497 392.50 506.50Q374 516 348 516Q237 516 143 321L98 0L84 0L157 518L169 518L147 349Q232 528 349 528Q407 528 432.50 486Q458 444 447 368L445 355Q530 528 647 528Z"  horiz-adv-x="845" vert-adv-y="1000"  />

      
      <glyph glyph-name="uni6e" unicode="&#x6e;" d="M369 528Q434 528 462.50 486.50Q491 445 481 368L429 0L415 0L467 368Q477 440 452 478Q427 516 368 516Q303 516 248.50 468Q194 420 143 321L98 0L84 0L157 518L169 518L147 349Q239 528 369 528Z"  horiz-adv-x="581" vert-adv-y="1000"  />

      
      <glyph glyph-name="uni6f" unicode="&#x6f;" d="M243-9Q162-9 116.50 44.50Q71 98 71 194Q71 229 76.50 265.50Q82 302 93.50 340Q105 378 125 411.50Q145 445 171.50 471.50Q198 498 235.50 513Q273 528 318 528Q399 528 444.50 476Q490 424 490 328Q490 286 482.50 242.50Q475 199 456.50 153Q438 107 411 71.50Q384 36 340.50 13.50Q297-9 243-9M243 4Q294 4 335 25.50Q376 47 401.50 81Q427 115 444 159Q461 203 468 245Q475 287 475 327Q475 418 434 467Q393 516 318 516Q267 516 226 494Q185 472 159.50 438.50Q134 405 117 361Q100 317 93 275.50Q86 234 86 194Q86 103 127 53.50Q168 4 243 4Z"  horiz-adv-x="560" vert-adv-y="1000"  />

      
      <glyph glyph-name="uni70" unicode="&#x70;" d="M57-194L157 518L169 518L159 430Q242 528 344 528Q417 528 455.50 479.50Q494 431 494 339Q494 296 486.50 251Q479 206 460 158.50Q441 111 414 74Q387 37 343.50 14Q300-9 247-9Q168-9 101 21L71-193L57-194M246 4Q297 4 338 27Q379 50 405 85.50Q431 121 448.50 166.50Q466 212 473 255.50Q480 299 480 339Q480 425 445.50 470Q411 515 344 515Q288 515 244 489Q200 463 157 412L104 34Q168 4 246 4Z"  horiz-adv-x="563" vert-adv-y="1000"  />

      
      <glyph glyph-name="uni71" unicode="&#x71;" d="M360-194L402 105Q369 50 324 20.50Q279-9 228-9Q154-9 112 44Q70 97 70 187Q70 209 72 231Q74 253 78.50 277Q83 301 90 323.50Q97 346 106 368.50Q115 391 127.50 411Q140 431 155 449Q170 467 189 481.50Q208 496 229.50 506.50Q251 517 277 522.50Q303 528 331 528Q407 528 470 487L374-193L360-194M228 4Q333 4 405 129L455 481Q403 516 332 516Q279 516 235.50 494.50Q192 473 164.50 439Q137 405 118.50 361Q100 317 92.50 273.50Q85 230 85 188Q85 103 122.50 53.50Q160 4 228 4Z"  horiz-adv-x="553" vert-adv-y="1000"  />

      
      <glyph glyph-name="uni72" unicode="&#x72;" d="M331 528Q355 528 378 521L374 509Q354 516 331 516Q269 516 226 473Q183 430 146 334L98 0L84 0L157 518L169 518L148 366Q181 451 224.50 489.50Q268 528 331 528Z"  horiz-adv-x="362" vert-adv-y="1000"  />

      
      <glyph glyph-name="uni73" unicode="&#x73;" d="M259 528Q347 528 405 475L396 467Q340 515 259 515Q193 515 150 483.50Q107 452 107 399Q107 358 134.50 332Q162 306 237 282Q314 257 345.50 226Q377 195 377 142Q377 75 327.50 33Q278-9 193-9Q93-9 24 57L33 66Q66 35 102.50 19.50Q139 4 193 4Q267 4 315 40Q363 76 363 142Q363 174 350.50 196.50Q338 219 309.50 236.50Q281 254 230 270Q153 295 123 324Q93 353 93 399Q93 456 140.50 492Q188 528 259 528Z"  horiz-adv-x="459" vert-adv-y="1000"  />

      
      <glyph glyph-name="uni74" unicode="&#x74;" d="M163 506L108 116Q100 62 120 32.50Q140 3 187 3Q233 3 282 31L288 19Q236-9 185.50-9Q135-9 110.50 23.50Q86 56 94 115L148 506L62 506L64 518L150 518L172 651L183 652L164 518L309 518L305 506L163 506Z"  horiz-adv-x="323" vert-adv-y="1000"  />

      
      <glyph glyph-name="uni75" unicode="&#x75;" d="M218-9Q153-9 121.50 32Q90 73 100 150L152 518L166 518L114 150Q104 78 132 41Q160 4 220 4Q284 4 338.50 53Q393 102 431 191L477 518L491 518L418 0L407 0L429 165Q394 83 339 37Q284-9 218-9Z"  horiz-adv-x="575" vert-adv-y="1000"  />

      
      <glyph glyph-name="uni76" unicode="&#x76;" d="M453 518L199 0L180 0L62 518L77 518L191 12L437 518L453 518Z"  horiz-adv-x="442" vert-adv-y="1000"  />

      
      <glyph glyph-name="uni77" unicode="&#x77;" d="M677 518L467 0L449 0L374 504L158 0L139 0L72 518L86 518L150 14L367 518L384 518L459 13L663 518L677 518Z"  horiz-adv-x="677" vert-adv-y="1000"  />

      
      <glyph glyph-name="uni78" unicode="&#x78;" d="M419 518L225 278L372 0L357 0L215 269L1 0L-16 0L208 279L83 518L99 518L217 288L403 518L419 518Z"  horiz-adv-x="430" vert-adv-y="1000"  />

      
      <glyph glyph-name="uni79" unicode="&#x79;" d="M451 518L199-1Q155-92 115.50-131Q76-170-3-192L-5-181Q36-169 62.50-155.50Q89-142 110.50-118Q132-94 147-69.50Q162-45 185 0L178 0L62 518L77 518L190 10L435 518L451 518Z"  horiz-adv-x="440" vert-adv-y="1000"  />

      
      <glyph glyph-name="uni7a" unicode="&#x7a;" d="M409 518L407 506L17 13L329 13L326 0L-4 0L-2 12L388 505L96 505L98 518L409 518Z"  horiz-adv-x="410" vert-adv-y="1000"  />

      
      <glyph glyph-name="uni7b" unicode="&#x7b;" d="M316 814L316 803Q275 803 252.50 781Q230 759 223 712L184 435Q173 356 97 349Q171 342 160 262L120-15Q114-62 130-83.50Q146-105 187-105L186-116Q94-116 108-16L148 268Q151 294 143.50 311Q136 328 120 335Q104 342 80 342L82 356Q105 356 123.50 363.50Q142 371 154.50 388Q167 405 171 430L211 715Q225 814 316 814Z"  horiz-adv-x="327" vert-adv-y="1000"  />

      
      <glyph glyph-name="uni7c" unicode="&#x7c;" d="M291 801L165-98L151-98L277 801L291 801Z"  horiz-adv-x="416" vert-adv-y="1000"  />

      
      <glyph glyph-name="uni7d" unicode="&#x7d;" d="M36-116L37-105Q77-105 100-83Q123-61 129-14L168 263Q179 342 255 349Q181 356 193 436L232 713Q236 744 230.50 764Q225 784 209 793.50Q193 803 166 803L166 814Q209 814 230 789.50Q251 765 245 714L205 430Q199 392 217.50 374Q236 356 273 356L271 342Q247 342 229 334.50Q211 327 198 310Q185 293 181 268L142-17Q128-116 36-116Z"  horiz-adv-x="327" vert-adv-y="1000"  />

      
      <glyph glyph-name="uni7e" unicode="&#x7e;" d="M306 284Q281 284 236 311.50Q191 339 168 339Q145 339 127.50 328Q110 317 92 296L83 303Q124 353 168 353Q195 353 239.50 325.50Q284 298 306 298Q329 298 345.50 309Q362 320 381 341L390 335Q349 284 306 284Z"  horiz-adv-x="456" vert-adv-y="1000"  />

      
      <glyph glyph-name="unia1" unicode="&#xa1;" d="M145 413Q140 413 136.50 415Q133 417 131 421Q129 425 129 429Q129 434 131.50 438Q134 442 138 444.50Q142 447 147 447Q163 447 163 431Q163 423 158 418Q153 413 145 413M127 253L64-190L50-190L113 253L127 253Z"  horiz-adv-x="237" vert-adv-y="1000"  />

      
      <glyph glyph-name="unia2" unicode="&#xa2;" d="M319 528Q397 528 446 478L436 469Q390 516 319 516Q261 516 215 487Q169 458 141.50 411Q114 364 100 308.50Q86 253 86 196Q86 103 128.50 53.50Q171 4 245 4Q318 4 383 54L390 44Q324-9 245-9Q242-9 240-9L221-145L208-145L227-9Q155-3 113.50 50Q72 103 72 196Q72 254 86 310Q100 366 127.50 414.50Q155 463 201.50 494Q248 525 306 528L327 674L339 674L319 528Z"  horiz-adv-x="466" vert-adv-y="1000"  />

      
      <glyph glyph-name="unia3" unicode="&#xa3;" d="M355 672Q439 672 485 607L475 599Q433 659 355 659Q288 659 246.50 616Q205 573 195 505L175 361L389 361L387 348L174 348L143 129Q136 81 115.50 56Q95 31 53 14L395 14L391 0L29 0L31 13Q78 33 100.50 57.50Q123 82 129 129L160 348L99 348L101 361L162 361L182 506Q192 579 236.50 625.50Q281 672 355 672Z"  horiz-adv-x="495" vert-adv-y="1000"  />

      
      <glyph glyph-name="unia4" unicode="&#xa4;" d="M450 340Q450 263 401 213L480 135L471 126L391 204Q345 164 280 164Q215 164 169 204L89 126L80 135L159 213Q110 263 110 340Q110 414 157 464L80 543L89 552L166 474Q213 516 280 516Q348 516 394 474L471 552L480 543L403 465Q450 415 450 340M166.50 457Q166.50 457 145.25 434Q124 411 124 339.50Q124 268 167.50 222.50Q211 177 280 177Q350 177 393 222.50Q436 268 436 339.50Q436 411 393.50 457Q351 503 280 503Q209 503 166.50 457Z"  horiz-adv-x="560" vert-adv-y="1000"  />

      
      <glyph glyph-name="unia5" unicode="&#xa5;" d="M512 661L262 325L389 325L387 311L255 311L237 188L369 188L368 175L236 175L211 0L197 0L221 175L91 175L92 188L223 188L240 311L110 311L112 325L236 325L79 661L96 661L249 326L495 661L512 661Z"  horiz-adv-x="479" vert-adv-y="1000"  />

      
      <glyph glyph-name="unia6" unicode="&#xa6;" d="M291 801L241 443L227 443L277 801L291 801M215 262L166-98L152-98L201 262L215 262Z"  horiz-adv-x="416" vert-adv-y="1000"  />

      
      <glyph glyph-name="unia7" unicode="&#xa7;" d="M328 659Q257 659 220 625.50Q183 592 183 545Q183 505 209.50 480Q236 455 307 429Q375 404 404 373.50Q433 343 433 298Q433 253 409.50 220Q386 187 329 156Q378 124 378 68.50Q378 13 336-24.50Q294-62 215-62Q130-62 68-19L76-8Q130-49 215-49Q290-49 326.50-15.50Q363 18 363 68Q363 107 337 132.50Q311 158 244 182Q172 208 141.50 236Q111 264 111 310Q111 352 135.50 385.50Q160 419 221 454Q193 473 181 494.50Q169 516 169 546Q169 597 211 634Q253 671 328 671Q403 671 466 629L459 619Q400 659 328 659M418 298Q418 324 407.50 344.50Q397 365 371.50 383Q346 401 303 417Q258 433 232 448Q172 413 148.50 381.50Q125 350 125 310Q125 269 153 243Q181 217 250 193Q293 178 319 162Q376 193 397 225Q418 257 418 298Z"  horiz-adv-x="531" vert-adv-y="1000"  />

      
      <glyph glyph-name="unia8" unicode="&#xa8;" d="M104 675Q90 675 90 688Q90 692 92 695.50Q94 699 97.50 701Q101 703 106 703Q119 703 119 691Q119 684 115 679.50Q111 675 104 675M263 675Q249 675 249 688Q249 694 253.50 698.50Q258 703 265 703Q278 703 278 691Q278 684 274 679.50Q270 675 263 675Z"  horiz-adv-x="248" vert-adv-y="1000"  />

      
      <glyph glyph-name="unia9" unicode="&#xa9;" d="M430 717Q549 717 626.50 638.50Q704 560 704 435Q704 312 626.50 232.50Q549 153 430 153Q352 153 289.50 188Q227 223 191.50 288Q156 353 156 435Q156 558 233.50 637.50Q311 717 430 717M616.50 629.50Q616.50 629.50 580.25 666.75Q544 704 430.50 704Q317 704 244 628.50Q171 553 171 435Q171 315 243.50 240.50Q316 166 430 166Q543 166 616 241.50Q689 317 689 435Q689 555 616.50 629.50M429 605Q476 605 511 577L504 567Q472 591 429 591Q384 591 348.50 553.50Q313 516 313 437Q313 360 345.50 320Q378 280 429 280Q478 280 515 309L522 299Q484 267 428 267Q371 267 335 312Q299 357 299 437Q299 520 339 562.50Q379 605 429 605Z"  horiz-adv-x="810" vert-adv-y="1000"  />

      
      <glyph glyph-name="uniaa" unicode="&#xaa;" d="M221 277Q169 277 140.50 305Q112 333 112 379Q112 441 159.50 478Q207 515 290 515L388 515L394 563Q402 617 380.50 642.50Q359 668 304.50 668Q250 668 184 644L181 656Q249 681 305 681Q424 681 408 563L381 368Q374 340 378.50 318Q383 296 408 287L404 277Q378 285 371 303Q364 321 366 354Q309 277 221 277M221 290Q311 290 368 374L386 502L290 502Q211 502 168.50 469.50Q126 437 126 379Q126 338 151 314Q176 290 221 290M54 0L55 14L376 14L374 0L54 0Z"  horiz-adv-x="500" vert-adv-y="1000"  />

      
      <glyph glyph-name="uniab" unicode="&#xab;" d="M275 500L284 493L114 288L227 84L217 77L97 283L98 293L275 500M457 500L466 493L296 288L410 84L399 77L280 283L280 293L457 500Z"  horiz-adv-x="528" vert-adv-y="1000"  />

      
      <glyph glyph-name="uniac" unicode="&#xac;" d="M422 327L404 205L389 205L405 314L89 314L91 327L422 327Z"  horiz-adv-x="493" vert-adv-y="1000"  />

      
      <glyph glyph-name="uniad" unicode="&#xad;" d="M87 306L89 319L327 319L326 306L87 306Z"  horiz-adv-x="400" vert-adv-y="1000"  />

      
      <glyph glyph-name="uniae" unicode="&#xae;" d="M352 716Q446 716 507 655Q568 594 568 503Q568 443 542 393.50Q516 344 466 314.50Q416 285 352 285Q257 285 196 345.50Q135 406 135 498Q135 590 195 653Q255 716 352 716M352 297Q443 297 499 356.50Q555 416 555 503Q555 589 498 646.50Q441 704 352 704Q291 704 244 676Q197 648 173 601.50Q149 555 149 498Q149 412 206 354.50Q263 297 352 297M437 563Q437 531 419.50 513.50Q402 496 373 491L447 370L430 370L359 490L295 490L295 370L281 370L281 638L340 638Q437 638 437 563M295 625L295 503L359 503Q388 503 405.50 517.50Q423 532 423 563Q423 625 342 625L295 625Z"  horiz-adv-x="636" vert-adv-y="1000"  />

      
      <glyph glyph-name="uniaf" unicode="&#xaf;" d="M290 686L90 686L92 700L293 700L290 686Z"  horiz-adv-x="260" vert-adv-y="1000"  />

      
      <glyph glyph-name="unib0" unicode="&#xb0;" d="M242 415Q191 415 159.50 446Q128 477 128 531Q128 599 172.50 645Q217 691 277 691Q330 691 361 660Q392 629 392 576Q392 531 372.50 494Q353 457 318.50 436Q284 415 242 415M242 428Q302 428 340 470Q378 512 378 576Q378 623 351.50 650.50Q325 678 277 678Q221 678 182 636Q143 594 143 531Q143 512 147.50 496Q152 480 160.50 467.50Q169 455 181 446Q193 437 208.50 432.50Q224 428 242 428Z"  horiz-adv-x="520" vert-adv-y="1000"  />

      
      <glyph glyph-name="unib1" unicode="&#xb1;" d="M283 493L261 338L414 338L412 324L259 324L237 169L222 169L244 324L91 324L93 338L247 338L268 493L283 493M45 0L46 14L367 14L366 0L45 0Z"  horiz-adv-x="484" vert-adv-y="1000"  />

      
      <glyph glyph-name="unib2" unicode="&#xb2;" d="M264 736Q295 736 317 724Q339 712 349.50 692Q360 672 360 646Q360 630 356.50 614.50Q353 599 348 586Q343 573 332 556Q321 539 313 527.50Q305 516 288 497.50Q271 479 260.50 468Q250 457 227 436Q204 415 192 404Q180 393 153 369Q126 345 113 333L328 333L324 320L94 320L96 333Q109 345 134 368Q183 411 205.50 432Q228 453 261 487Q294 521 308.50 543Q323 565 334 592.50Q345 620 345 646Q345 682 324 702.50Q303 723 263 723Q204 723 152 673L143 681Q200 736 264 736Z"  horiz-adv-x="400" vert-adv-y="1000"  />

      
      <glyph glyph-name="unib3" unicode="&#xb3;" d="M268 737Q313 737 338.50 714Q364 691 364 651Q364 619 349 594Q334 569 310.50 555.50Q287 542 260 539Q299 537 323 515Q347 493 347 453Q347 393 307.50 353.50Q268 314 204 314Q134 314 94 366L104 373Q140 326 203 326Q234 326 258.50 336Q283 346 299.50 363.50Q316 381 324.50 404Q333 427 333 454Q333 493 308 512.50Q283 532 237 532L212 532L216 544L237 544Q283 544 316.50 573.50Q350 603 350 652Q350 669 344.50 682.50Q339 696 328.50 705.50Q318 715 302.50 720Q287 725 268 725Q210 725 158 683L151 693Q205 737 268 737Z"  horiz-adv-x="400" vert-adv-y="1000"  />

      
      <glyph glyph-name="unib4" unicode="&#xb4;" d="M271 755L276 740L91 657L87 667L271 755Z"  horiz-adv-x="240" vert-adv-y="1000"  />

      
      <glyph glyph-name="unib5" unicode="&#xb5;" d="M441 166Q428 81 444 0L432-3Q417 67 424 133Q339-9 220-9Q118-9 108 80Q96-19 90-62L71-191L57-192L157 518L171 518L118 138Q108 68 137 36Q166 4 220 4Q339 4 424 153L476 518L490 518L441 166Z"  horiz-adv-x="581" vert-adv-y="1000"  />

      
      <glyph glyph-name="unib6" unicode="&#xb6;" d="M395 681L567 681L444-191L430-194L551 668L406 668L286-191L271-194L342 309Q243 310 197.50 352.50Q152 395 152 466Q152 565 218.50 623Q285 681 395 681Z"  horiz-adv-x="685" vert-adv-y="1000"  />

      
      <glyph glyph-name="unib7" unicode="&#xb7;" d="M82 311Q74 311 70 315.50Q66 320 66 326Q66 334 71 339Q76 344 83 344Q99 344 99 328Q99 321 94 316Q89 311 82 311Z"  horiz-adv-x="146" vert-adv-y="1000"  />

      
      <glyph glyph-name="unib8" unicode="&#xb8;" d="M50 3L34-78Q77-80 97.50-94Q118-108 118-138Q118-169 94.50-188.50Q71-208 31-208Q-6-208-33-191L-26-180Q-3-195 31-195Q54-195 70.50-188Q87-181 95-168.50Q103-156 103-139Q103-112 84-100.50Q65-89 20-88L39 3L50 3Z"  horiz-adv-x="205" vert-adv-y="1000"  />

      
      <glyph glyph-name="unib9" unicode="&#xb9;" d="M302 730L245 320L231 320L287 714L165 646L159 657L291 730L302 730Z"  horiz-adv-x="400" vert-adv-y="1000"  />

      
      <glyph glyph-name="uniba" unicode="&#xba;" d="M309 681Q353 681 384.50 663.50Q416 646 432.50 611Q449 576 449 527Q449 423 396 350Q343 277 252 277Q208 277 176.50 295.50Q145 314 129 349Q113 384 113 433Q113 537 165.50 609Q218 681 309 681M309 668Q265 668 230 648.50Q195 629 173 596Q151 563 139 521.50Q127 480 127 433Q127 364 160 327Q193 290 253 290Q311 290 353 324Q395 358 415 411Q435 464 435 528Q435 596 402 632Q369 668 309 668M53 0L55 14L376 14L374 0L53 0Z"  horiz-adv-x="500" vert-adv-y="1000"  />

      
      <glyph glyph-name="unibb" unicode="&#xbb;" d="M137 500L255 293L255 283L78 77L69 84L239 288L127 493L137 500M319 500L438 293L437 283L260 77L251 84L421 288L309 493L319 500Z"  horiz-adv-x="526" vert-adv-y="1000"  />

      
      <glyph glyph-name="unibc" unicode="&#xbc;" d="M707 738L718 733L199-66L188-61L707 738M225 271L280 665L158 597L152 608L285 681L296 681L238 271L225 271M799 129L797 116L737 116L721 0L707 0L724 116L530 116L532 127L707 417L718 412L546 129L726 129L745 259L757 259L739 129L799 129Z"  horiz-adv-x="884" vert-adv-y="1000"  />

      
      <glyph glyph-name="unibd" unicode="&#xbd;" d="M707 738L718 733L199-66L188-61L707 738M296 681L238 271L225 271L280 665L158 597L152 608L285 681L296 681M703 416Q749 416 774 391Q799 366 799 325Q799 309 795.50 292.50Q792 276 782.50 258.50Q773 241 766 227.50Q759 214 741 193.50Q723 173 713 161.50Q703 150 677 126Q651 102 640 91.50Q629 81 596.50 52.50Q564 24 552 13L767 13L763 0L533 0L535 13Q548 25 573 47Q622 91 644.50 112Q667 133 700 167Q733 201 747.50 223Q762 245 773 272Q784 299 784 325Q784 349 775 366.50Q766 384 747.50 393.50Q729 403 702 403Q643 403 591 352L582 361Q639 416 703 416Z"  horiz-adv-x="884" vert-adv-y="1000"  />

      
      <glyph glyph-name="unibe" unicode="&#xbe;" d="M707 738L718 733L199-66L188-61L707 738M340 404Q340 344 301 304.50Q262 265 197 265Q127 265 87 317L97 323Q133 277 197 277Q257 277 291.50 313.50Q326 350 326 404Q326 444 301 463.50Q276 483 230 483L205 483L209 495L230 495Q276 495 309.50 524.50Q343 554 343 603Q343 637 321.50 656.50Q300 676 261 676Q203 676 152 634L144 644Q198 688 261 688Q291 688 313 677.50Q335 667 346 647.50Q357 628 357 602Q357 554 326.50 524.50Q296 495 253 490Q292 488 316 466Q340 444 340 404M799 129L797 116L737 116L721 0L707 0L724 116L530 116L532 127L707 417L718 412L546 129L726 129L745 259L757 259L739 129L799 129Z"  horiz-adv-x="884" vert-adv-y="1000"  />

      
      <glyph glyph-name="unibf" unicode="&#xbf;" d="M252 502Q257 502 260.50 500Q264 498 266 494.50Q268 491 268 487Q268 479 263 474Q258 469 250 469Q234 469 234 485Q234 493 239 497.50Q244 502 252 502M146-196Q105-196 75.50-180.50Q46-165 31.50-139.50Q17-114 17-83Q17-42 34-9Q51 24 76 44Q101 64 130 84.50Q159 105 184 122Q209 139 225.50 166Q242 193 242 226Q242 250 233 281L246 284Q256 252 256 226Q256 195 244 170.50Q232 146 212 128.50Q192 111 168 95Q144 79 120 62Q96 45 76 26Q56 7 44-21Q32-49 32-83Q32-126 62-154.50Q92-183 146-183Q196-183 235-165Q274-147 317-106L326-115Q282-157 240-176.50Q198-196 146-196Z"  horiz-adv-x="443" vert-adv-y="1000"  />

      
      <glyph glyph-name="unic0" unicode="&#xc0;" d="M440 776L435 767L272 838L280 853L440 776M475 0L432 207L110 207L9 0L-6 0L329 681L346 681L490 0L475 0M117 221L429 221L336 668L117 221Z"  horiz-adv-x="557" vert-adv-y="1000"  />

      
      <glyph glyph-name="unic1" unicode="&#xc1;" d="M443 838L260 767L255 776L437 853L443 838M475 0L432 207L110 207L9 0L-6 0L329 681L346 681L490 0L475 0M117 221L429 221L336 668L117 221Z"  horiz-adv-x="557" vert-adv-y="1000"  />

      
      <glyph glyph-name="unic2" unicode="&#xc2;" d="M358 846L235 768L228 777L354 862L362 862L466 776L458 768L358 846M475 0L432 207L110 207L9 0L-6 0L329 681L346 681L490 0L475 0M117 221L429 221L336 668L117 221Z"  horiz-adv-x="557" vert-adv-y="1000"  />

      
      <glyph glyph-name="unic3" unicode="&#xc3;" d="M355.50 829Q355.50 829 338.25 840Q321 851 303 851Q285 851 271 843Q257 835 238 815L229 822Q269 864 303 864Q323 864 358 842Q393 820 415 820Q446 820 480 860L489 854Q453 807 415 807Q390 807 355.50 829M475 0L432 207L110 207L9 0L-6 0L329 681L346 681L490 0L475 0M117 221L429 221L336 668L117 221Z"  horiz-adv-x="557" vert-adv-y="1000"  />

      
      <glyph glyph-name="unic4" unicode="&#xc4;" d="M276 801Q263 801 263 814Q263 820 267 824.50Q271 829 278 829Q291 829 291 817Q291 810 287 805.50Q283 801 276 801M435 801Q421 801 421 814Q421 820 425.50 824.50Q430 829 437 829Q450 829 450 817Q450 810 446 805.50Q442 801 435 801M475 0L432 207L110 207L9 0L-6 0L329 681L346 681L490 0L475 0M117 221L429 221L336 668L117 221Z"  horiz-adv-x="557" vert-adv-y="1000"  />

      
      <glyph glyph-name="unic5" unicode="&#xc5;" d="M353 775Q321 775 303.50 793.50Q286 812 289 842Q291 876 314 897.50Q337 919 371 919Q403 919 420 900.50Q437 882 435 852Q434 829 423 811.50Q412 794 394 784.50Q376 775 353 775M302 842Q300 816 313.50 801Q327 786 353 786Q383 786 401.50 805Q420 824 422 852Q423 865 420 875Q417 885 411 892.50Q405 900 394.50 904Q384 908 371 908Q351 908 336 899.50Q321 891 312.50 876Q304 861 302 842M475 0L432 207L110 207L9 0L-6 0L329 681L346 681L490 0L475 0M117 221L429 221L336 668L117 221Z"  horiz-adv-x="557" vert-adv-y="1000"  />

      
      <glyph glyph-name="unic6" unicode="&#xc6;" d="M709 667L360 667L397 367L660 367L658 354L398 354L440 14L673 14L671 0L427 0L403 200L100 200L-5 0L-21 0L338 681L712 681L709 667M402 213L346 669L107 213L402 213Z"  horiz-adv-x="753" vert-adv-y="1000"  />

      
      <glyph glyph-name="unic7" unicode="&#xc7;" d="M403 677Q348 677 301.50 658Q255 639 223 605.50Q191 572 166.50 530Q142 488 128 440Q114 392 107.50 346Q101 300 101 256Q101 134 156 69.50Q211 5 305 5Q359 5 397.50 20.50Q436 36 472 63L481 52Q402-9 308-9L295-78Q337-80 358-94Q379-108 379-138Q379-169 355.50-188.50Q332-208 292-208Q254-208 228-191L234-180Q257-195 292-195Q326-195 345-179.50Q364-164 364-139Q364-112 344.50-100.50Q325-89 281-88L297-9Q199-6 142.50 62.50Q86 131 86 256Q86 312 96 369.50Q106 427 130 485.50Q154 544 189 589Q224 634 279.50 662.50Q335 691 403 691Q438 691 467 683Q496 675 515 663Q534 651 553 633L544 623Q524 641 506.50 652Q489 663 463 670Q437 677 403 677Z"  horiz-adv-x="535" vert-adv-y="1000"  />

      
      <glyph glyph-name="unic8" unicode="&#xc8;" d="M287 853L448 776L442 767L279 838L287 853M499 681L496 667L197 667L156 367L412 367L410 354L154 354L105 14L414 14L412 0L89 0L185 681L499 681Z"  horiz-adv-x="494" vert-adv-y="1000"  />

      
      <glyph glyph-name="unic9" unicode="&#xc9;" d="M445 853L450 838L267 767L263 776L445 853M499 681L496 667L197 667L156 367L412 367L410 354L154 354L105 14L414 14L412 0L89 0L185 681L499 681Z"  horiz-adv-x="494" vert-adv-y="1000"  />

      
      <glyph glyph-name="unica" unicode="&#xca;" d="M242 768L236 777L362 862L370 862L473 776L465 768L365 846L242 768M499 681L496 667L197 667L156 367L412 367L410 354L154 354L105 14L414 14L412 0L89 0L185 681L499 681Z"  horiz-adv-x="494" vert-adv-y="1000"  />

      
      <glyph glyph-name="unicb" unicode="&#xcb;" d="M283 801Q270 801 270 814Q270 820 274 824.50Q278 829 285 829Q299 829 299 817Q299 810 294.50 805.50Q290 801 283 801M442 801Q429 801 429 814Q429 820 433 824.50Q437 829 444 829Q457 829 457 817Q457 810 453 805.50Q449 801 442 801M499 681L496 667L197 667L156 367L412 367L410 354L154 354L105 14L414 14L412 0L89 0L185 681L499 681Z"  horiz-adv-x="494" vert-adv-y="1000"  />

      
      <glyph glyph-name="unicc" unicode="&#xcc;" d="M134 853L295 776L289 767L127 838L134 853M199 681L104 0L89 0L185 681L199 681Z"  horiz-adv-x="266" vert-adv-y="1000"  />

      
      <glyph glyph-name="unicd" unicode="&#xcd;" d="M292 853L298 838L115 767L110 776L292 853M199 681L104 0L89 0L185 681L199 681Z"  horiz-adv-x="266" vert-adv-y="1000"  />

      
      <glyph glyph-name="unice" unicode="&#xce;" d="M90 768L83 777L209 862L217 862L321 776L313 768L212 846L90 768M199 681L104 0L89 0L185 681L199 681Z"  horiz-adv-x="266" vert-adv-y="1000"  />

      
      <glyph glyph-name="unicf" unicode="&#xcf;" d="M131 801Q117 801 117 814Q117 820 121.50 824.50Q126 829 133 829Q146 829 146 817Q146 810 142 805.50Q138 801 131 801M289 801Q276 801 276 814Q276 820 280.50 824.50Q285 829 292 829Q305 829 305 817Q305 810 300.50 805.50Q296 801 289 801M199 681L104 0L89 0L185 681L199 681Z"  horiz-adv-x="266" vert-adv-y="1000"  />

      
      <glyph glyph-name="unid0" unicode="&#xd0;" d="M301 681Q343 681 377.50 675Q412 669 446 652.50Q480 636 503.50 609Q527 582 541.50 537Q556 492 556 433Q556 369 545.50 309Q535 249 509 192Q483 135 444.50 93Q406 51 346 25.50Q286 0 211 0L91 0L139 346L50 346L52 360L141 360L186 681L301 681M213 14Q284 14 341.50 39Q399 64 435.50 104.50Q472 145 496.50 200.50Q521 256 531.50 314Q542 372 542 433Q542 490 528 533Q514 576 491.50 601Q469 626 436 641.50Q403 657 370.50 662Q338 667 298 667L199 667L156 360L352 360L351 346L154 346L107 14L213 14Z"  horiz-adv-x="618" vert-adv-y="1000"  />

      
      <glyph glyph-name="unid1" unicode="&#xd1;" d="M471 807Q446 807 411.50 829Q377 851 359 851Q347 851 336.50 847Q326 843 316.50 835.50Q307 828 294 815L285 822Q325 864 359 864Q379 864 414 842Q449 820 471 820Q502 820 536 860L545 854Q509 807 471 807M592 681L496 0L478 0L195 666Q191 621 176 514L103 0L89 0L185 681L203 681L486 16Q496 97 507 178L578 681L592 681Z"  horiz-adv-x="658" vert-adv-y="1000"  />

      
      <glyph glyph-name="unid2" unicode="&#xd2;" d="M344 853L505 776L500 767L337 838L344 853M404 691Q509 691 567.50 622.50Q626 554 626 428Q626 373 617 316.50Q608 260 584.50 200Q561 140 526 94.50Q491 49 434.50 20Q378-9 307-9Q203-9 144.50 60Q86 129 86 254Q86 308 96 364.50Q106 421 130 480.50Q154 540 189 586Q224 632 280 661.50Q336 691 404 691M515.50 649.50Q515.50 649.50 492.25 663.75Q469 678 403.50 678Q338 678 284.50 649Q231 620 197.50 575.50Q164 531 141.50 473Q119 415 110 360.50Q101 306 101 254Q101 134 155.50 69Q210 4 307 4Q364 4 412 24Q460 44 492 78Q524 112 548 154.50Q572 197 585.50 246Q599 295 605 340Q611 385 611 428Q611 508 586.50 564.50Q562 621 515.50 649.50Z"  horiz-adv-x="688" vert-adv-y="1000"  />

      
      <glyph glyph-name="unid3" unicode="&#xd3;" d="M502 853L508 838L325 767L320 776L502 853M404 691Q509 691 567.50 622.50Q626 554 626 428Q626 373 617 316.50Q608 260 584.50 200Q561 140 526 94.50Q491 49 434.50 20Q378-9 307-9Q203-9 144.50 60Q86 129 86 254Q86 308 96 364.50Q106 421 130 480.50Q154 540 189 586Q224 632 280 661.50Q336 691 404 691M515.50 649.50Q515.50 649.50 492.25 663.75Q469 678 403.50 678Q338 678 284.50 649Q231 620 197.50 575.50Q164 531 141.50 473Q119 415 110 360.50Q101 306 101 254Q101 134 155.50 69Q210 4 307 4Q364 4 412 24Q460 44 492 78Q524 112 548 154.50Q572 197 585.50 246Q599 295 605 340Q611 385 611 428Q611 508 586.50 564.50Q562 621 515.50 649.50Z"  horiz-adv-x="688" vert-adv-y="1000"  />

      
      <glyph glyph-name="unid4" unicode="&#xd4;" d="M300 768L293 777L419 862L427 862L531 776L523 768L422 846L300 768M404 691Q509 691 567.50 622.50Q626 554 626 428Q626 373 617 316.50Q608 260 584.50 200Q561 140 526 94.50Q491 49 434.50 20Q378-9 307-9Q203-9 144.50 60Q86 129 86 254Q86 308 96 364.50Q106 421 130 480.50Q154 540 189 586Q224 632 280 661.50Q336 691 404 691M403 678Q338 678 284.50 649Q231 620 197.50 575.50Q164 531 141.50 473Q119 415 110 360.50Q101 306 101 254Q101 134 155.50 69Q210 4 307 4Q364 4 412 24Q460 44 492 78Q524 112 548 154.50Q572 197 585.50 246Q599 295 605 340Q611 385 611 428Q611 549 556.50 613.50Q502 678 403 678Z"  horiz-adv-x="688" vert-adv-y="1000"  />

      
      <glyph glyph-name="unid5" unicode="&#xd5;" d="M480 807Q455 807 420.50 829Q386 851 368 851Q356 851 345 847Q334 843 325 835.50Q316 828 303 815L294 822Q334 864 368 864Q388 864 423 842Q458 820 480 820Q511 820 545 860L554 854Q518 807 480 807M404 691Q509 691 567.50 622.50Q626 554 626 428Q626 373 617 316.50Q608 260 584.50 200Q561 140 526 94.50Q491 49 434.50 20Q378-9 307-9Q203-9 144.50 60Q86 129 86 254Q86 308 96 364.50Q106 421 130 480.50Q154 540 189 586Q224 632 280 661.50Q336 691 404 691M403 678Q338 678 284.50 649Q231 620 197.50 575.50Q164 531 141.50 473Q119 415 110 360.50Q101 306 101 254Q101 134 155.50 69Q210 4 307 4Q364 4 412 24Q460 44 492 78Q524 112 548 154.50Q572 197 585.50 246Q599 295 605 340Q611 385 611 428Q611 549 556.50 613.50Q502 678 403 678Z"  horiz-adv-x="688" vert-adv-y="1000"  />

      
      <glyph glyph-name="unid6" unicode="&#xd6;" d="M341 801Q327 801 327 814Q327 820 331.50 824.50Q336 829 343 829Q356 829 356 817Q356 810 352 805.50Q348 801 341 801M500 801Q486 801 486 814Q486 820 490.50 824.50Q495 829 502 829Q515 829 515 817Q515 810 511 805.50Q507 801 500 801M404 691Q509 691 567.50 622.50Q626 554 626 428Q626 373 617 316.50Q608 260 584.50 200Q561 140 526 94.50Q491 49 434.50 20Q378-9 307-9Q203-9 144.50 60Q86 129 86 254Q86 308 96 364.50Q106 421 130 480.50Q154 540 189 586Q224 632 280 661.50Q336 691 404 691M515.50 649.50Q515.50 649.50 492.25 663.75Q469 678 403.50 678Q338 678 284.50 649Q231 620 197.50 575.50Q164 531 141.50 473Q119 415 110 360.50Q101 306 101 254Q101 134 155.50 69Q210 4 307 4Q364 4 412 24Q460 44 492 78Q524 112 548 154.50Q572 197 585.50 246Q599 295 605 340Q611 385 611 428Q611 508 586.50 564.50Q562 621 515.50 649.50Z"  horiz-adv-x="688" vert-adv-y="1000"  />

      
      <glyph glyph-name="unid7" unicode="&#xd7;" d="M397 450L407 441L258 308L370 174L359 165L247 298L99 165L89 174L239 308L126 441L138 450L249 317L397 450Z"  horiz-adv-x="483" vert-adv-y="1000"  />

      
      <glyph glyph-name="unid8" unicode="&#xd8;" d="M504 671Q563 644 594.50 582Q626 520 626 428Q626 373 617 316.50Q608 260 584.50 200Q561 140 526 94.50Q491 49 434.50 20Q378-9 307-9Q258-9 218 7L167-108L155-103L206 12Q148 40 117 101.50Q86 163 86 254Q86 308 96 364.50Q106 421 130 480.50Q154 540 189 586Q224 632 280 661.50Q336 691 404 691Q453 691 493 675L544 794L557 789L504 671M101 254Q101 168 129.50 109.50Q158 51 212 24L488 663Q450 678 403 678Q356 678 315 663Q274 648 243.50 622Q213 596 188.50 561.50Q164 527 148 488.50Q132 450 121 408.50Q110 367 105.50 328.50Q101 290 101 254M307 4Q364 4 412 24Q460 44 492 78.50Q524 113 548 155.50Q572 198 585.50 247Q599 296 605 340.50Q611 385 611 428Q611 606 498 659L222 20Q260 4 307 4Z"  horiz-adv-x="688" vert-adv-y="1000"  />

      
      <glyph glyph-name="unid9" unicode="&#xd9;" d="M321 853L482 776L476 767L313 838L321 853M582 681L515 206Q502 107 444.50 49Q387-9 283-9Q178-9 136.50 49Q95 107 109 207L175 681L190 681L123 208Q110 113 147.50 58.50Q185 4 283 4Q381 4 434.50 59.50Q488 115 501 209L567 681L582 681Z"  horiz-adv-x="639" vert-adv-y="1000"  />

      
      <glyph glyph-name="unida" unicode="&#xda;" d="M479 853L484 838L301 767L297 776L479 853M582 681L515 206Q502 107 444.50 49Q387-9 283-9Q178-9 136.50 49Q95 107 109 207L175 681L190 681L123 208Q110 113 147.50 58.50Q185 4 283 4Q381 4 434.50 59.50Q488 115 501 209L567 681L582 681Z"  horiz-adv-x="639" vert-adv-y="1000"  />

      
      <glyph glyph-name="unidb" unicode="&#xdb;" d="M276 768L270 777L396 862L404 862L507 776L499 768L399 846L276 768M582 681L515 206Q502 107 444.50 49Q387-9 283-9Q178-9 136.50 49Q95 107 109 207L175 681L190 681L123 208Q110 113 147.50 58.50Q185 4 283 4Q381 4 434.50 59.50Q488 115 501 209L567 681L582 681Z"  horiz-adv-x="639" vert-adv-y="1000"  />

      
      <glyph glyph-name="unidc" unicode="&#xdc;" d="M317 801Q304 801 304 814Q304 820 308 824.50Q312 829 319 829Q333 829 333 817Q333 810 328.50 805.50Q324 801 317 801M476 801Q463 801 463 814Q463 820 467 824.50Q471 829 478 829Q491 829 491 817Q491 810 487 805.50Q483 801 476 801M582 681L515 206Q502 107 444.50 49Q387-9 283-9Q178-9 136.50 49Q95 107 109 207L175 681L190 681L123 208Q110 113 147.50 58.50Q185 4 283 4Q381 4 434.50 59.50Q488 115 501 209L567 681L582 681Z"  horiz-adv-x="639" vert-adv-y="1000"  />

      
      <glyph glyph-name="unidd" unicode="&#xdd;" d="M401 853L407 838L224 767L220 776L401 853M524 681L254 271L216 0L201 0L239 271L82 681L98 681L247 285L508 681L524 681Z"  horiz-adv-x="488" vert-adv-y="1000"  />

      
      <glyph glyph-name="unide" unicode="&#xde;" d="M298 553Q406 553 458.50 513Q511 473 511 384Q511 348 503.50 316.50Q496 285 476.50 253.50Q457 222 427 199.50Q397 177 348.50 163.50Q300 150 238 150L125 150L104 0L89 0L185 681L199 681L181 553L298 553M240 163Q313 163 365 182Q417 201 444.50 234Q472 267 484.50 304Q497 341 497 383Q497 467 448 503Q399 539 297 539L179 539L127 163L240 163Z"  horiz-adv-x="556" vert-adv-y="1000"  />

      
      <glyph glyph-name="unidf" unicode="&#xdf;" d="M-34-193L-39-182Q1-162 23.50-143Q46-124 62-88.50Q78-53 86 5L162 541Q174 633 228.50 684Q283 735 359 735Q417 735 451.50 705.50Q486 676 486 629Q486 593 470.50 565Q455 537 433 519.50Q411 502 389.50 486.50Q368 471 352.50 452Q337 433 337 411Q337 390 353.50 370.50Q370 351 393.50 332.50Q417 314 441 292Q465 270 481.50 235Q498 200 497 156Q497 136 492 114Q487 92 474 69.50Q461 47 442.50 29.50Q424 12 395 1Q366-10 331-10Q270-10 225 17L231 28Q276 3 330 3Q363 3 390 13.50Q417 24 433.50 40.50Q450 57 462 77.50Q474 98 478.50 118Q483 138 483 156Q483 198 466.50 232Q450 266 426.50 287.50Q403 309 379.50 327Q356 345 339.50 366Q323 387 323 411Q323 432 334 450Q345 468 361.50 480Q378 492 397.50 507Q417 522 433.50 536.50Q450 551 460.50 575Q471 599 471 629Q471 671 441.50 696.50Q412 722 359 722Q288 722 237.50 674.50Q187 627 175 539L100 3Q91-58 74-95Q57-132 33-152Q9-172-34-193Z"  horiz-adv-x="572" vert-adv-y="1000"  />

      
      <glyph glyph-name="unie0" unicode="&#xe0;" d="M298 755L457 666L451 657L290 740L298 755M331 528Q404 528 468 487L416 116Q407 73 413.50 43.50Q420 14 450 2L445-9Q413 3 404.50 31.50Q396 60 401 105Q369 50 324 20.50Q279-9 228-9Q191-9 161 5Q131 19 111 44.50Q91 70 80.50 106.50Q70 143 70 187Q70 232 78.50 277Q87 322 107 368Q127 414 156 449Q185 484 230.50 506Q276 528 331 528M332 516Q279 516 236 494.50Q193 473 165.50 439Q138 405 119 361Q100 317 92.50 273.50Q85 230 85 188Q85 103 122.50 53.50Q160 4 229 4Q334 4 404 129L454 481Q400 516 332 516Z"  horiz-adv-x="545" vert-adv-y="1000"  />

      
      <glyph glyph-name="unie1" unicode="&#xe1;" d="M452 755L458 740L273 657L268 667L452 755M331 528Q404 528 468 487L416 116Q407 73 413.50 43.50Q420 14 450 2L445-9Q413 3 404.50 31.50Q396 60 401 105Q369 50 324 20.50Q279-9 228-9Q191-9 161 5Q131 19 111 44.50Q91 70 80.50 106.50Q70 143 70 187Q70 232 78.50 277Q87 322 107 368Q127 414 156 449Q185 484 230.50 506Q276 528 331 528M332 516Q279 516 236 494.50Q193 473 165.50 439Q138 405 119 361Q100 317 92.50 273.50Q85 230 85 188Q85 103 122.50 53.50Q160 4 229 4Q334 4 404 129L454 481Q400 516 332 516Z"  horiz-adv-x="545" vert-adv-y="1000"  />

      
      <glyph glyph-name="unie2" unicode="&#xe2;" d="M245 656L237 664L366 755L374 755L475 664L468 656L368 740L245 656M331 528Q404 528 468 487L416 116Q407 73 413.50 43.50Q420 14 450 2L445-9Q413 3 404.50 31.50Q396 60 401 105Q369 50 324 20.50Q279-9 228-9Q191-9 161 5Q131 19 111 44.50Q91 70 80.50 106.50Q70 143 70 187Q70 232 78.50 277Q87 322 107 368Q127 414 156 449Q185 484 230.50 506Q276 528 331 528M332 516Q279 516 236 494.50Q193 473 165.50 439Q138 405 119 361Q100 317 92.50 273.50Q85 230 85 188Q85 103 122.50 53.50Q160 4 229 4Q334 4 404 129L454 481Q400 516 332 516Z"  horiz-adv-x="545" vert-adv-y="1000"  />

      
      <glyph glyph-name="unie3" unicode="&#xe3;" d="M419 681Q395 681 360.50 703Q326 725 307.50 725Q289 725 275.50 717Q262 709 242 689L233 696Q273 738 308 738Q328 738 363 716Q398 694 419 694Q451 694 484 734L494 728Q458 681 419 681M331 528Q404 528 468 487L416 116Q407 73 413.50 43.50Q420 14 450 2L445-9Q413 3 404.50 31.50Q396 60 401 105Q369 50 324 20.50Q279-9 228-9Q191-9 161 5Q131 19 111 44.50Q91 70 80.50 106.50Q70 143 70 187Q70 232 78.50 277Q87 322 107 368Q127 414 156 449Q185 484 230.50 506Q276 528 331 528M332 516Q279 516 236 494.50Q193 473 165.50 439Q138 405 119 361Q100 317 92.50 273.50Q85 230 85 188Q85 103 122.50 53.50Q160 4 229 4Q334 4 404 129L454 481Q400 516 332 516Z"  horiz-adv-x="545" vert-adv-y="1000"  />

      
      <glyph glyph-name="unie4" unicode="&#xe4;" d="M280 675Q267 675 267 688Q267 694 271 698.50Q275 703 282 703Q296 703 296 691Q296 684 291.50 679.50Q287 675 280 675M439 675Q426 675 426 688Q426 694 430 698.50Q434 703 441 703Q455 703 455 691Q455 684 450.50 679.50Q446 675 439 675M331 528Q404 528 468 487L416 116Q407 73 413.50 43.50Q420 14 450 2L445-9Q413 3 404.50 31.50Q396 60 401 105Q369 50 324 20.50Q279-9 228-9Q191-9 161 5Q131 19 111 44.50Q91 70 80.50 106.50Q70 143 70 187Q70 232 78.50 277Q87 322 107 368Q127 414 156 449Q185 484 230.50 506Q276 528 331 528M332 516Q279 516 236 494.50Q193 473 165.50 439Q138 405 119 361Q100 317 92.50 273.50Q85 230 85 188Q85 103 122.50 53.50Q160 4 229 4Q334 4 404 129L454 481Q400 516 332 516Z"  horiz-adv-x="545" vert-adv-y="1000"  />

      
      <glyph glyph-name="unie5" unicode="&#xe5;" d="M375 793Q396 793 411 784.50Q426 776 433 761Q440 746 439 726Q436 692 413.50 670.50Q391 649 356 649Q335 649 320 657.50Q305 666 298 681Q291 696 292 716Q294 750 317 771.50Q340 793 375 793M374 782Q355 782 339.50 773.50Q324 765 315.50 750Q307 735 306 716Q303 690 316.50 675Q330 660 357 660Q377 660 392 669Q407 678 415.50 692.50Q424 707 425 726Q427 752 414 767Q401 782 374 782M331 528Q404 528 468 487L416 116Q407 73 413.50 43.50Q420 14 450 2L445-9Q413 3 404.50 31.50Q396 60 401 105Q369 50 324 20.50Q279-9 228-9Q191-9 161 5Q131 19 111 44.50Q91 70 80.50 106.50Q70 143 70 187Q70 232 78.50 277Q87 322 107 368Q127 414 156 449Q185 484 230.50 506Q276 528 331 528M332 516Q279 516 236 494.50Q193 473 165.50 439Q138 405 119 361Q100 317 92.50 273.50Q85 230 85 188Q85 103 122.50 53.50Q160 4 229 4Q334 4 404 129L454 481Q400 516 332 516Z"  horiz-adv-x="545" vert-adv-y="1000"  />

      
      <glyph glyph-name="unie6" unicode="&#xe6;" d="M285 528Q346 528 385.50 493.50Q425 459 429 395Q437 413 451.50 432Q466 451 490.50 474.50Q515 498 552.50 513Q590 528 634 528Q675 528 707 514.50Q739 501 757.50 474.50Q776 448 776 412Q776 326 679.50 276Q583 226 393 216Q391 172 399 135Q407 98 424.50 68Q442 38 474 21Q506 4 549 4Q594 4 629.50 17.50Q665 31 706 61L714 50Q673 20 634.50 5.50Q596-9 549-9Q486-9 445 22.50Q404 54 388 115Q338 49 288.50 20Q239-9 180-9Q115-9 79 26.50Q43 62 43 121Q43 157 55.50 188Q68 219 94 244Q120 269 165 283Q210 297 269 297L391 297Q404 348 419 379Q417 423 399 454.50Q381 486 351.50 501Q322 516 285 516Q221 516 135 482L131 494Q218 528 285 528M634 516Q584 516 542.50 495Q501 474 475.50 443.50Q450 413 431.50 372Q413 331 405 296.50Q397 262 393 228Q579 238 670 285.50Q761 333 761 411Q761 444 745.50 467.50Q730 491 701 503.50Q672 516 634 516M387 285L270 285Q159 285 108 239Q57 193 57 121Q57 67 89.50 35.50Q122 4 180 4Q239 4 287 33.50Q335 63 385 129Q370 197 387 285Z"  horiz-adv-x="817" vert-adv-y="1000"  />

      
      <glyph glyph-name="unie7" unicode="&#xe7;" d="M319 528Q397 528 446 478L436 469Q390 516 319 516Q261 516 215 487Q169 458 141.50 411Q114 364 100 308.50Q86 253 86 196Q86 103 128.50 53.50Q171 4 245 4Q318 4 383 54L390 44Q324-9 246-9L233-78Q275-80 296-94.50Q317-109 317-139Q317-170 293.50-189.50Q270-209 230-209Q192-209 166-191L172-181Q195-196 230-196Q253-196 269-189Q285-182 293.50-169Q302-156 302-139Q302-113 282.50-101.50Q263-90 219-89L235-9Q160-6 116 47.50Q72 101 72 196Q72 256 87 313.50Q102 371 131 420Q160 469 209 498.50Q258 528 319 528Z"  horiz-adv-x="466" vert-adv-y="1000"  />

      
      <glyph glyph-name="unie8" unicode="&#xe8;" d="M429 666L423 657L262 740L270 755L429 666M468 412Q468 326 372 276Q276 226 85 216Q85 205 85 193Q85 100 126.50 52Q168 4 241 4Q287 4 322.50 17.50Q358 31 399 61L406 50Q365 20 326.50 5.50Q288-9 241-9Q161-9 115.50 43Q70 95 70 193Q70 227 76.50 263.50Q83 300 95.50 338Q108 376 129 410Q150 444 177.50 470.50Q205 497 244 512.50Q283 528 328 528Q391 528 429.50 497Q468 466 468 412M328 516Q281 516 241.50 497.50Q202 479 175.50 450Q149 421 129.50 382.50Q110 344 100 305.50Q90 267 86 228Q454 248 454 412Q454 460 420 488Q386 516 328 516Z"  horiz-adv-x="509" vert-adv-y="1000"  />

      
      <glyph glyph-name="unie9" unicode="&#xe9;" d="M430 740L244 657L240 667L424 755L430 740M468 412Q468 326 372 276Q276 226 85 216Q85 205 85 193Q85 100 126.50 52Q168 4 241 4Q287 4 322.50 17.50Q358 31 399 61L406 50Q365 20 326.50 5.50Q288-9 241-9Q161-9 115.50 43Q70 95 70 193Q70 227 76.50 263.50Q83 300 95.50 338Q108 376 129 410Q150 444 177.50 470.50Q205 497 244 512.50Q283 528 328 528Q391 528 429.50 497Q468 466 468 412M328 516Q281 516 241.50 497.50Q202 479 175.50 450Q149 421 129.50 382.50Q110 344 100 305.50Q90 267 86 228Q454 248 454 412Q454 460 420 488Q386 516 328 516Z"  horiz-adv-x="509" vert-adv-y="1000"  />

      
      <glyph glyph-name="uniea" unicode="&#xea;" d="M340 740L217 656L209 664L338 755L346 755L447 664L440 656L340 740M468 412Q468 326 372 276Q276 226 85 216Q85 205 85 193Q85 100 126.50 52Q168 4 241 4Q287 4 322.50 17.50Q358 31 399 61L406 50Q365 20 326.50 5.50Q288-9 241-9Q161-9 115.50 43Q70 95 70 193Q70 227 76.50 263.50Q83 300 95.50 338Q108 376 129 410Q150 444 177.50 470.50Q205 497 244 512.50Q283 528 328 528Q391 528 429.50 497Q468 466 468 412M328 516Q281 516 241.50 497.50Q202 479 175.50 450Q149 421 129.50 382.50Q110 344 100 305.50Q90 267 86 228Q454 248 454 412Q454 460 420 488Q386 516 328 516Z"  horiz-adv-x="509" vert-adv-y="1000"  />

      
      <glyph glyph-name="unieb" unicode="&#xeb;" d="M252 675Q239 675 239 688Q239 694 243 698.50Q247 703 254 703Q268 703 268 691Q268 684 263.50 679.50Q259 675 252 675M411 675Q398 675 398 688Q398 694 402 698.50Q406 703 413 703Q426 703 426 691Q426 684 422 679.50Q418 675 411 675M468 412Q468 326 372 276Q276 226 85 216Q85 205 85 193Q85 100 126.50 52Q168 4 241 4Q287 4 322.50 17.50Q358 31 399 61L406 50Q365 20 326.50 5.50Q288-9 241-9Q161-9 115.50 43Q70 95 70 193Q70 227 76.50 263.50Q83 300 95.50 338Q108 376 129 410Q150 444 177.50 470.50Q205 497 244 512.50Q283 528 328 528Q391 528 429.50 497Q468 466 468 412M328 516Q281 516 241.50 497.50Q202 479 175.50 450Q149 421 129.50 382.50Q110 344 100 305.50Q90 267 86 228Q454 248 454 412Q454 460 420 488Q386 516 328 516Z"  horiz-adv-x="509" vert-adv-y="1000"  />

      
      <glyph glyph-name="uniec" unicode="&#xec;" d="M125 755L284 666L278 657L117 740L125 755M171 518L98 0L84 0L157 518L171 518Z"  horiz-adv-x="255" vert-adv-y="1000"  />

      
      <glyph glyph-name="unied" unicode="&#xed;" d="M280 755L285 740L100 657L96 667L280 755M171 518L98 0L84 0L157 518L171 518Z"  horiz-adv-x="255" vert-adv-y="1000"  />

      
      <glyph glyph-name="uniee" unicode="&#xee;" d="M72 656L64 664L193 755L201 755L303 664L295 656L195 740L72 656M171 518L98 0L84 0L157 518L171 518Z"  horiz-adv-x="255" vert-adv-y="1000"  />

      
      <glyph glyph-name="unief" unicode="&#xef;" d="M108 675Q94 675 94 688Q94 694 98.50 698.50Q103 703 110 703Q123 703 123 691Q123 684 119 679.50Q115 675 108 675M266 675Q253 675 253 688Q253 694 257.50 698.50Q262 703 269 703Q282 703 282 691Q282 684 277.50 679.50Q273 675 266 675M171 518L98 0L84 0L157 518L171 518Z"  horiz-adv-x="255" vert-adv-y="1000"  />

      
      <glyph glyph-name="unif0" unicode="&#xf0;" d="M360 667Q475 574 475 401Q475 357 470 314.50Q465 272 455.50 231Q446 190 431.50 154Q417 118 397 87.50Q377 57 352.50 35.50Q328 14 296.50 1.50Q265-11 229-11Q152-11 110 39.50Q68 90 68 175Q68 212 75 249.50Q82 287 99 325.50Q116 364 140.50 393.50Q165 423 203 441.50Q241 460 287 460Q395 460 459 353Q465 450 441.50 525.50Q418 601 351 658L252 570L241 574L342 665Q285 707 213 724L217 736Q292 719 351 674L426 743L435 735L360 667M229 3Q273 3 310 23.50Q347 44 372 77Q397 110 415.50 154Q434 198 444 243Q454 288 458 336Q391 446 288 446Q245 446 209 428.50Q173 411 150 383Q127 355 111 318.50Q95 282 88.50 246Q82 210 82 175Q82 95 120.50 49Q159 3 229 3Z"  horiz-adv-x="553" vert-adv-y="1000"  />

      
      <glyph glyph-name="unif1" unicode="&#xf1;" d="M412 681Q388 681 353 703Q318 725 300 725Q288 725 277.50 721Q267 717 257.50 709.50Q248 702 235 689L226 696Q266 738 300 738Q320 738 355 716Q390 694 412 694Q443 694 477 734L486 728Q450 681 412 681M369 528Q434 528 462.50 486.50Q491 445 481 368L429 0L415 0L467 368Q477 440 452 478Q427 516 368 516Q303 516 248.50 468Q194 420 143 321L98 0L84 0L157 518L169 518L147 349Q239 528 369 528Z"  horiz-adv-x="581" vert-adv-y="1000"  />

      
      <glyph glyph-name="unif2" unicode="&#xf2;" d="M278 755L437 666L432 657L270 740L278 755M243-9Q162-9 116.50 44.50Q71 98 71 194Q71 229 76.50 265.50Q82 302 93.50 340Q105 378 125 411.50Q145 445 171.50 471.50Q198 498 235.50 513Q273 528 318 528Q399 528 444.50 476Q490 424 490 328Q490 286 482.50 242.50Q475 199 456.50 153Q438 107 411 71.50Q384 36 340.50 13.50Q297-9 243-9M243 4Q294 4 335 25.50Q376 47 401.50 81Q427 115 444 159Q461 203 468 245Q475 287 475 327Q475 418 434 467Q393 516 318 516Q267 516 226 494Q185 472 159.50 438.50Q134 405 117 361Q100 317 93 275.50Q86 234 86 194Q86 103 127 53.50Q168 4 243 4Z"  horiz-adv-x="560" vert-adv-y="1000"  />

      
      <glyph glyph-name="unif3" unicode="&#xf3;" d="M433 755L438 740L253 657L249 667L433 755M243-9Q162-9 116.50 44.50Q71 98 71 194Q71 229 76.50 265.50Q82 302 93.50 340Q105 378 125 411.50Q145 445 171.50 471.50Q198 498 235.50 513Q273 528 318 528Q399 528 444.50 476Q490 424 490 328Q490 286 482.50 242.50Q475 199 456.50 153Q438 107 411 71.50Q384 36 340.50 13.50Q297-9 243-9M243 4Q294 4 335 25.50Q376 47 401.50 81Q427 115 444 159Q461 203 468 245Q475 287 475 327Q475 418 434 467Q393 516 318 516Q267 516 226 494Q185 472 159.50 438.50Q134 405 117 361Q100 317 93 275.50Q86 234 86 194Q86 103 127 53.50Q168 4 243 4Z"  horiz-adv-x="560" vert-adv-y="1000"  />

      
      <glyph glyph-name="unif4" unicode="&#xf4;" d="M225 656L218 664L346 755L354 755L456 664L448 656L349 740L225 656M243-9Q162-9 116.50 44.50Q71 98 71 194Q71 229 76.50 265.50Q82 302 93.50 340Q105 378 125 411.50Q145 445 171.50 471.50Q198 498 235.50 513Q273 528 318 528Q399 528 444.50 476Q490 424 490 328Q490 286 482.50 242.50Q475 199 456.50 153Q438 107 411 71.50Q384 36 340.50 13.50Q297-9 243-9M243 4Q294 4 335 25.50Q376 47 401.50 81Q427 115 444 159Q461 203 468 245Q475 287 475 327Q475 418 434 467Q393 516 318 516Q267 516 226 494Q185 472 159.50 438.50Q134 405 117 361Q100 317 93 275.50Q86 234 86 194Q86 103 127 53.50Q168 4 243 4Z"  horiz-adv-x="560" vert-adv-y="1000"  />

      
      <glyph glyph-name="unif5" unicode="&#xf5;" d="M400 681Q375 681 340.50 703Q306 725 288 725Q270 725 256 717Q242 709 223 689L214 696Q254 738 288 738Q308 738 343 716Q378 694 400 694Q431 694 465 734L474 728Q438 681 400 681M243-9Q162-9 116.50 44.50Q71 98 71 194Q71 229 76.50 265.50Q82 302 93.50 340Q105 378 125 411.50Q145 445 171.50 471.50Q198 498 235.50 513Q273 528 318 528Q399 528 444.50 476Q490 424 490 328Q490 286 482.50 242.50Q475 199 456.50 153Q438 107 411 71.50Q384 36 340.50 13.50Q297-9 243-9M243 4Q294 4 335 25.50Q376 47 401.50 81Q427 115 444 159Q461 203 468 245Q475 287 475 327Q475 418 434 467Q393 516 318 516Q267 516 226 494Q185 472 159.50 438.50Q134 405 117 361Q100 317 93 275.50Q86 234 86 194Q86 103 127 53.50Q168 4 243 4Z"  horiz-adv-x="560" vert-adv-y="1000"  />

      
      <glyph glyph-name="unif6" unicode="&#xf6;" d="M261 675Q247 675 247 688Q247 691 248.50 694Q250 697 251.50 699Q253 701 256 702Q259 703 263 703Q276 703 276 691Q276 684 272 679.50Q268 675 261 675M420 675Q406 675 406 688Q406 694 410.50 698.50Q415 703 422 703Q435 703 435 691Q435 684 431 679.50Q427 675 420 675M243-9Q162-9 116.50 44.50Q71 98 71 194Q71 229 76.50 265.50Q82 302 93.50 340Q105 378 125 411.50Q145 445 171.50 471.50Q198 498 235.50 513Q273 528 318 528Q399 528 444.50 476Q490 424 490 328Q490 286 482.50 242.50Q475 199 456.50 153Q438 107 411 71.50Q384 36 340.50 13.50Q297-9 243-9M243 4Q294 4 335 25.50Q376 47 401.50 81Q427 115 444 159Q461 203 468 245Q475 287 475 327Q475 418 434 467Q393 516 318 516Q267 516 226 494Q185 472 159.50 438.50Q134 405 117 361Q100 317 93 275.50Q86 234 86 194Q86 103 127 53.50Q168 4 243 4Z"  horiz-adv-x="560" vert-adv-y="1000"  />

      
      <glyph glyph-name="unif7" unicode="&#xf7;" d="M279 518Q272 518 267.50 522.50Q263 527 263 533Q263 541 268 546Q273 551 280 551Q296 551 296 535Q296 527 291 522.50Q286 518 279 518M90 324L92 338L412 338L411 324L90 324M222 111Q215 111 210.50 115.50Q206 120 206 126Q206 134 211 139Q216 144 224 144Q240 144 240 128Q240 120 235 115.50Q230 111 222 111Z"  horiz-adv-x="482" vert-adv-y="1000"  />

      
      <glyph glyph-name="unif8" unicode="&#xf8;" d="M405 508Q490 462 490 328Q490 286 482.50 242.50Q475 199 456.50 153Q438 107 411 71.50Q384 36 340.50 13.50Q297-9 243-9Q201-9 168 5L109-116L98-112L156 11Q71 59 71 194Q71 229 76.50 265.50Q82 302 93.50 340Q105 378 125 411.50Q145 445 171.50 471.50Q198 498 235.50 513Q273 528 318 528Q360 528 393 514L450 635L463 632L405 508M86 194Q86 67 163 23L388 502Q358 516 318 516Q267 516 226 494Q185 472 159.50 438.50Q134 405 117 361Q100 317 93 275.50Q86 234 86 194M243 4Q286 4 321.50 19Q357 34 381.50 60Q406 86 425 118Q444 150 454.50 187.50Q465 225 470 259.50Q475 294 475 327Q475 453 399 496L173 18Q204 4 243 4Z"  horiz-adv-x="560" vert-adv-y="1000"  />

      
      <glyph glyph-name="unif9" unicode="&#xf9;" d="M282 755L441 666L436 657L274 740L282 755M218-9Q153-9 121.50 32Q90 73 100 150L152 518L166 518L114 150Q104 78 132 41Q160 4 220 4Q284 4 338.50 53Q393 102 431 191L477 518L491 518L418 0L407 0L429 165Q394 83 339 37Q284-9 218-9Z"  horiz-adv-x="575" vert-adv-y="1000"  />

      
      <glyph glyph-name="unifa" unicode="&#xfa;" d="M437 755L442 740L257 657L253 667L437 755M218-9Q153-9 121.50 32Q90 73 100 150L152 518L166 518L114 150Q104 78 132 41Q160 4 220 4Q284 4 338.50 53Q393 102 431 191L477 518L491 518L418 0L407 0L429 165Q394 83 339 37Q284-9 218-9Z"  horiz-adv-x="575" vert-adv-y="1000"  />

      
      <glyph glyph-name="unifb" unicode="&#xfb;" d="M229 656L222 664L350 755L358 755L460 664L452 656L353 740L229 656M218-9Q153-9 121.50 32Q90 73 100 150L152 518L166 518L114 150Q104 78 132 41Q160 4 220 4Q284 4 338.50 53Q393 102 431 191L477 518L491 518L418 0L407 0L429 165Q394 83 339 37Q284-9 218-9Z"  horiz-adv-x="575" vert-adv-y="1000"  />

      
      <glyph glyph-name="unifc" unicode="&#xfc;" d="M265 675Q251 675 251 688Q251 694 255.50 698.50Q260 703 267 703Q280 703 280 691Q280 684 276 679.50Q272 675 265 675M424 675Q410 675 410 688Q410 694 414.50 698.50Q419 703 426 703Q439 703 439 691Q439 684 435 679.50Q431 675 424 675M218-9Q153-9 121.50 32Q90 73 100 150L152 518L166 518L114 150Q104 78 132 41Q160 4 220 4Q284 4 338.50 53Q393 102 431 191L477 518L491 518L418 0L407 0L429 165Q394 83 339 37Q284-9 218-9Z"  horiz-adv-x="575" vert-adv-y="1000"  />

      
      <glyph glyph-name="unifd" unicode="&#xfd;" d="M368 755L374 740L189 657L184 667L368 755M451 518L199-1Q155-92 115.50-131Q76-170-3-192L-5-181Q36-169 62.50-155.50Q89-142 110.50-118Q132-94 147-69.50Q162-45 185 0L178 0L62 518L77 518L190 10L435 518L451 518Z"  horiz-adv-x="440" vert-adv-y="1000"  />

      
      <glyph glyph-name="unife" unicode="&#xfe;" d="M343 528Q416 528 454.50 479.50Q493 431 493 339Q493 296 485.50 251Q478 206 459 158.50Q440 111 413 74Q386 37 342.50 14Q299-9 245-9Q173-9 101 22L71-192L57-194L187 732L201 733L159 431Q241 528 343 528M245 4Q296 4 337 27Q378 50 404 85.50Q430 121 447.50 167Q465 213 472 256Q479 299 479 340Q479 426 444.50 470.50Q410 515 343 515Q287 515 243.50 489.50Q200 464 156 413L103 34Q177 4 245 4Z"  horiz-adv-x="562" vert-adv-y="1000"  />

      
      <glyph glyph-name="uniff" unicode="&#xff;" d="M196 675Q183 675 183 688Q183 694 187.50 698.50Q192 703 199 703Q212 703 212 691Q212 684 207.50 679.50Q203 675 196 675M355 675Q342 675 342 688Q342 694 346 698.50Q350 703 357 703Q371 703 371 691Q371 684 366.50 679.50Q362 675 355 675M451 518L199-1Q155-92 115.50-131Q76-170-3-192L-5-181Q35-169 62-155.50Q89-142 110.50-118Q132-94 147-69.50Q162-45 185 0L178 0L62 518L77 518L190 10L435 518L451 518Z"  horiz-adv-x="440" vert-adv-y="1000"  />

      
      <glyph glyph-name="uni0100" unicode="&#x0100;" d="M458 826L456 812L256 812L258 826L458 826M475 0L432 207L110 207L9 0L-6 0L329 681L346 681L490 0L475 0M117 221L429 221L336 668L117 221Z"  horiz-adv-x="557" vert-adv-y="1000"  />

      
      <glyph glyph-name="uni0101" unicode="&#x0101;" d="M460 686L260 686L262 700L462 700L460 686M331 528Q404 528 468 487L416 116Q407 73 413.50 43.50Q420 14 450 2L445-9Q413 3 404.50 31.50Q396 60 401 105Q369 50 324 20.50Q279-9 228-9Q191-9 161 5Q131 19 111 44.50Q91 70 80.50 106.50Q70 143 70 187Q70 232 78.50 277Q87 322 107 368Q127 414 156 449Q185 484 230.50 506Q276 528 331 528M332 516Q279 516 236 494.50Q193 473 165.50 439Q138 405 119 361Q100 317 92.50 273.50Q85 230 85 188Q85 103 122.50 53.50Q160 4 229 4Q334 4 404 129L454 481Q400 516 332 516Z"  horiz-adv-x="545" vert-adv-y="1000"  />

      
      <glyph glyph-name="uni0102" unicode="&#x0102;" d="M347 772Q307 772 282 792.50Q257 813 253 842L263 844Q269 818 291 802Q313 786 347 786Q382 786 408.50 802Q435 818 449 845L459 841Q447 812 417.50 792Q388 772 347 772M475 0L432 207L110 207L9 0L-6 0L329 681L346 681L490 0L475 0M117 221L429 221L336 668L117 221Z"  horiz-adv-x="557" vert-adv-y="1000"  />

      
      <glyph glyph-name="uni0103" unicode="&#x0103;" d="M356 664Q339 664 324.50 668Q310 672 299.50 679Q289 686 281 696Q273 706 268.50 718Q264 730 263 744L274 746Q283 677 356 677Q430 677 459 746L470 743Q457 708 427 686Q397 664 356 664M331 528Q404 528 468 487L416 116Q407 73 413.50 43.50Q420 14 450 2L445-9Q413 3 404.50 31.50Q396 60 401 105Q369 50 324 20.50Q279-9 228-9Q191-9 161 5Q131 19 111 44.50Q91 70 80.50 106.50Q70 143 70 187Q70 232 78.50 277Q87 322 107 368Q127 414 156 449Q185 484 230.50 506Q276 528 331 528M332 516Q279 516 236 494.50Q193 473 165.50 439Q138 405 119 361Q100 317 92.50 273.50Q85 230 85 188Q85 103 122.50 53.50Q160 4 229 4Q334 4 404 129L454 481Q400 516 332 516Z"  horiz-adv-x="545" vert-adv-y="1000"  />

      
      <glyph glyph-name="uni0104" unicode="&#x0104;" d="M343-129Q343-185 406-185Q430-185 461-178L458-192Q429-199 405-199Q367-199 347-182Q327-165 327-134Q327-87 365.50-55Q404-23 474 4L432 207L110 207L9 0L-6 0L329 681L346 681L490 0Q441-19 410.50-36.50Q380-54 361.50-77.50Q343-101 343-129M117 221L429 221L336 668L117 221Z"  horiz-adv-x="557" vert-adv-y="1000"  />

      
      <glyph glyph-name="uni0105" unicode="&#x0105;" d="M416 116Q407 73 413.50 43.50Q420 14 450 2L445-9Q397-28 366.50-46Q336-64 317-87.50Q298-111 298-139Q298-195 362-195Q386-195 416-187L414-201Q384-209 360-209Q323-209 303-192Q283-175 283-144Q283-95 322.50-63Q362-31 434-4Q391 21 401 105Q369 50 324 20.50Q279-9 228-9Q191-9 161 5Q131 19 111 44.50Q91 70 80.50 106.50Q70 143 70 187Q70 232 78.50 277Q87 322 107 368Q127 414 156 449Q185 484 230.50 506Q276 528 331 528Q404 528 468 487L416 116M229 4Q334 4 404 129L454 481Q400 516 332 516Q279 516 236 494.50Q193 473 165.50 439Q138 405 119 361Q100 317 92.50 273.50Q85 230 85 188Q85 103 122.50 53.50Q160 4 229 4Z"  horiz-adv-x="545" vert-adv-y="1000"  />

      
      <glyph glyph-name="uni0106" unicode="&#x0106;" d="M502 853L507 838L324 767L320 776L502 853M403 691Q455 691 489.50 676Q524 661 553 633L544 623Q524 641 506.50 652Q489 663 463 670Q437 677 403 677Q356 677 315 662.50Q274 648 243.50 623Q213 598 188.50 564Q164 530 148 492.50Q132 455 121 413Q110 371 105.50 332.50Q101 294 101 256Q101 134 156 69.50Q211 5 305 5Q359 5 397.50 20.50Q436 36 472 63L481 52Q400-9 305-9Q204-9 145 59.50Q86 128 86 256Q86 312 96 369.50Q106 427 130 485.50Q154 544 189 589Q224 634 279.50 662.50Q335 691 403 691Z"  horiz-adv-x="535" vert-adv-y="1000"  />

      
      <glyph glyph-name="uni0107" unicode="&#x0107;" d="M429 755L434 740L249 657L245 667L429 755M319 528Q397 528 446 478L436 469Q390 516 319 516Q261 516 215 487Q169 458 141.50 411Q114 364 100 308.50Q86 253 86 196Q86 103 128.50 53.50Q171 4 245 4Q318 4 383 54L390 44Q324-9 245-9Q206-9 174 4Q142 17 119.50 43Q97 69 84.50 108Q72 147 72 196Q72 256 87 313.50Q102 371 131 420Q160 469 209 498.50Q258 528 319 528Z"  horiz-adv-x="466" vert-adv-y="1000"  />

      
      <glyph glyph-name="uni0108" unicode="&#x0108;" d="M299 768L293 777L419 862L427 862L530 776L522 768L422 846L299 768M403 691Q438 691 467 683Q496 675 515 663Q534 651 553 633L544 623Q524 641 506.50 652Q489 663 463 670Q437 677 403 677Q348 677 301.50 658Q255 639 223 605.50Q191 572 166.50 530Q142 488 128 440Q114 392 107.50 346Q101 300 101 256Q101 134 156 69.50Q211 5 305 5Q359 5 397.50 20.50Q436 36 472 63L481 52Q400-9 305-9Q204-9 145 59.50Q86 128 86 256Q86 312 96 369.50Q106 427 130 485.50Q154 544 189 589Q224 634 279.50 662.50Q335 691 403 691Z"  horiz-adv-x="535" vert-adv-y="1000"  />

      
      <glyph glyph-name="uni0109" unicode="&#x0109;" d="M221 656L213 664L342 755L350 755L452 664L444 656L344 740L221 656M319 528Q397 528 446 478L436 469Q390 516 319 516Q261 516 215 487Q169 458 141.50 411Q114 364 100 308.50Q86 253 86 196Q86 103 128.50 53.50Q171 4 245 4Q318 4 383 54L390 44Q324-9 245-9Q206-9 174 4Q142 17 119.50 43Q97 69 84.50 108Q72 147 72 196Q72 256 87 313.50Q102 371 131 420Q160 469 209 498.50Q258 528 319 528Z"  horiz-adv-x="466" vert-adv-y="1000"  />

      
      <glyph glyph-name="uni010A" unicode="&#x010A;" d="M422 814Q409 814 409 827Q409 834 413.50 838.50Q418 843 425 843Q438 843 438 830Q438 826 436 822.50Q434 819 430.50 816.50Q427 814 422 814M403 691Q455 691 489.50 676Q524 661 553 633L544 623Q524 641 506.50 652Q489 663 463 670Q437 677 403 677Q356 677 315 662.50Q274 648 243.50 623Q213 598 188.50 564Q164 530 148 492.50Q132 455 121 413Q110 371 105.50 332.50Q101 294 101 256Q101 134 156 69.50Q211 5 305 5Q359 5 397.50 20.50Q436 36 472 63L481 52Q400-9 305-9Q204-9 145 59.50Q86 128 86 256Q86 312 96 369.50Q106 427 130 485.50Q154 544 189 589Q224 634 279.50 662.50Q335 691 403 691Z"  horiz-adv-x="535" vert-adv-y="1000"  />

      
      <glyph glyph-name="uni010B" unicode="&#x010B;" d="M338 688Q325 688 325 701Q325 708 329 712.50Q333 717 340 717Q354 717 354 704Q354 697 349.50 692.50Q345 688 338 688M319 528Q397 528 446 478L436 469Q390 516 319 516Q261 516 215 487Q169 458 141.50 411Q114 364 100 308.50Q86 253 86 196Q86 103 128.50 53.50Q171 4 245 4Q318 4 383 54L390 44Q324-9 244.50-9Q165-9 118.50 44.50Q72 98 72 196Q72 256 87 313.50Q102 371 131 420Q160 469 209 498.50Q258 528 319 528Z"  horiz-adv-x="466" vert-adv-y="1000"  />

      
      <glyph glyph-name="uni010C" unicode="&#x010C;" d="M537 856L545 847L417 762L409 762L306 847L314 855L415 777L537 856M403 691Q455 691 489.50 676Q524 661 553 633L544 623Q524 641 506.50 652Q489 663 463 670Q437 677 403 677Q348 677 301.50 658Q255 639 223 605.50Q191 572 166.50 530Q142 488 128 440Q114 392 107.50 346Q101 300 101 256Q101 134 156 69.50Q211 5 305 5Q359 5 397.50 20.50Q436 36 472 63L481 52Q400-9 305-9Q204-9 145 59.50Q86 128 86 256Q86 312 96 369.50Q106 427 130 485.50Q154 544 189 589Q224 634 279.50 662.50Q335 691 403 691Z"  horiz-adv-x="535" vert-adv-y="1000"  />

      
      <glyph glyph-name="uni010D" unicode="&#x010D;" d="M456 743L463 735L335 644L327 644L225 735L233 743L332 659L456 743M319 528Q397 528 446 478L436 469Q390 516 319 516Q261 516 215 487Q169 458 141.50 411Q114 364 100 308.50Q86 253 86 196Q86 103 128.50 53.50Q171 4 245 4Q318 4 383 54L390 44Q324-9 244.50-9Q165-9 118.50 44.50Q72 98 72 196Q72 256 87 313.50Q102 371 131 420Q160 469 209 498.50Q258 528 319 528Z"  horiz-adv-x="466" vert-adv-y="1000"  />

      
      <glyph glyph-name="uni010E" unicode="&#x010E;" d="M487 856L494 847L367 762L359 762L256 847L264 855L365 777L487 856M299 681Q341 681 375.50 675Q410 669 444.50 652.50Q479 636 502.50 609Q526 582 540.50 537Q555 492 555 433Q555 369 544 309Q533 249 507 192Q481 135 442.50 93Q404 51 344 25.50Q284 0 210 0L89 0L185 681L299 681M297 667L197 667L106 14L211 14Q283 14 340 39Q397 64 434 104.50Q471 145 495.50 200.50Q520 256 530 314Q540 372 540 433Q540 481 531 519Q522 557 504 582Q486 607 464 624Q442 641 413.50 650.50Q385 660 357.50 663.50Q330 667 297 667Z"  horiz-adv-x="617" vert-adv-y="1000"  />

      
      <glyph glyph-name="uni010F" unicode="&#x010F;" d="M616 737L631 735L588 594L578 595L616 737M499 734L513 732L411 0L399 0L416 137Q379 70 333 30.50Q287-9 223-9Q153-9 111.50 43Q70 95 70 187Q70 229 77.50 274Q85 319 103.50 365Q122 411 149 447Q176 483 218 505.50Q260 528 311 528Q350 528 381.50 513.50Q413 499 430 480Q447 461 458 436L499 734M312 516Q263 516 223.50 494Q184 472 159 437.50Q134 403 116.50 358.50Q99 314 92 271Q85 228 85 187Q85 100 122 52Q159 4 224 4Q287 4 332 45.50Q377 87 420 164L456 418Q414 516 312 516Z"  horiz-adv-x="568" vert-adv-y="1000"  />

      
      <glyph glyph-name="uni0110" unicode="&#x0110;" d="M301 681Q343 681 377.50 675Q412 669 446 652.50Q480 636 503.50 609Q527 582 541.50 537Q556 492 556 433Q556 369 545.50 309Q535 249 509 192Q483 135 444.50 93Q406 51 346 25.50Q286 0 211 0L91 0L139 346L50 346L52 360L141 360L186 681L301 681M213 14Q284 14 341.50 39Q399 64 435.50 104.50Q472 145 496.50 200.50Q521 256 531.50 314Q542 372 542 433Q542 490 528 533Q514 576 491.50 601Q469 626 436 641.50Q403 657 370.50 662Q338 667 298 667L199 667L156 360L352 360L351 346L154 346L107 14L213 14Z"  horiz-adv-x="618" vert-adv-y="1000"  />

      
      <glyph glyph-name="uni0111" unicode="&#x0111;" d="M576 645L574 632L499 632L411 0L399 0L416 137Q379 70 333 30.50Q287-9 223-9Q153-9 111.50 43Q70 95 70 187Q70 229 77.50 274Q85 319 103.50 365Q122 411 149 447Q176 483 218 505.50Q260 528 311 528Q350 528 381.50 513.50Q413 499 430 480Q447 461 458 436L485 632L311 632L311 645L487 645L499 734L513 732L501 645L576 645M420 164L456 418Q414 516 312 516Q263 516 223.50 494Q184 472 159 437.50Q134 403 116.50 358.50Q99 314 92 271Q85 228 85 187Q85 100 122 52Q159 4 224 4Q287 4 332 45.50Q377 87 420 164Z"  horiz-adv-x="571" vert-adv-y="1000"  />

      
      <glyph glyph-name="uni0112" unicode="&#x0112;" d="M464 812L263 812L265 826L466 826L464 812M499 681L496 667L197 667L156 367L412 367L410 354L154 354L105 14L414 14L412 0L89 0L185 681L499 681Z"  horiz-adv-x="494" vert-adv-y="1000"  />

      
      <glyph glyph-name="uni0113" unicode="&#x0113;" d="M434 700L432 686L232 686L234 700L434 700M468 412Q468 326 372 276Q276 226 85 216Q85 205 85 193Q85 100 126.50 52Q168 4 241 4Q287 4 322.50 17.50Q358 31 399 61L406 50Q365 20 326.50 5.50Q288-9 241-9Q161-9 115.50 43Q70 95 70 193Q70 227 76.50 263.50Q83 300 95.50 338Q108 376 129 410Q150 444 177.50 470.50Q205 497 244 512.50Q283 528 328 528Q391 528 429.50 497Q468 466 468 412M328 516Q281 516 241.50 497.50Q202 479 175.50 450Q149 421 129.50 382.50Q110 344 100 305.50Q90 267 86 228Q454 248 454 412Q454 460 420 488Q386 516 328 516Z"  horiz-adv-x="509" vert-adv-y="1000"  />

      
      <glyph glyph-name="uni0114" unicode="&#x0114;" d="M355 772Q314 772 289 792.50Q264 813 260 842L270 844Q276 818 298 802Q320 786 355 786Q389 786 415.50 802Q442 818 456 845L466 841Q454 812 424.50 792Q395 772 355 772M499 681L496 667L197 667L156 367L412 367L410 354L154 354L105 14L414 14L412 0L89 0L185 681L499 681Z"  horiz-adv-x="494" vert-adv-y="1000"  />

      
      <glyph glyph-name="uni0115" unicode="&#x0115;" d="M328 664Q286 664 262 686Q238 708 235 744L246 746Q255 677 328 677Q402 677 431 746L441 743Q428 708 398.50 686Q369 664 328 664M468 412Q468 326 372 276Q276 226 85 216Q85 205 85 193Q85 100 126.50 52Q168 4 241 4Q287 4 322.50 17.50Q358 31 399 61L406 50Q365 20 326.50 5.50Q288-9 241-9Q161-9 115.50 43Q70 95 70 193Q70 227 76.50 263.50Q83 300 95.50 338Q108 376 129 410Q150 444 177.50 470.50Q205 497 244 512.50Q283 528 328 528Q391 528 429.50 497Q468 466 468 412M328 516Q281 516 241.50 497.50Q202 479 175.50 450Q149 421 129.50 382.50Q110 344 100 305.50Q90 267 86 228Q454 248 454 412Q454 460 420 488Q386 516 328 516Z"  horiz-adv-x="509" vert-adv-y="1000"  />

      
      <glyph glyph-name="uni0116" unicode="&#x0116;" d="M365 814Q352 814 352 827Q352 834 356.50 838.50Q361 843 368 843Q381 843 381 830Q381 826 379 822.50Q377 819 373.50 816.50Q370 814 365 814M499 681L496 667L197 667L156 367L412 367L410 354L154 354L105 14L414 14L412 0L89 0L185 681L499 681Z"  horiz-adv-x="494" vert-adv-y="1000"  />

      
      <glyph glyph-name="uni0117" unicode="&#x0117;" d="M334 688Q321 688 321 701Q321 708 325 712.50Q329 717 336 717Q349 717 349 704Q349 697 345 692.50Q341 688 334 688M468 412Q468 326 372 276Q276 226 85 216Q85 205 85 193Q85 100 126.50 52Q168 4 241 4Q272 4 299.50 11Q327 18 349.50 29.50Q372 41 399 61L406 50Q365 20 326.50 5.50Q288-9 241-9Q161-9 115.50 43Q70 95 70 193Q70 227 76.50 263.50Q83 300 95.50 338Q108 376 129 410Q150 444 177.50 470.50Q205 497 244 512.50Q283 528 328 528Q391 528 429.50 497Q468 466 468 412M328 516Q281 516 241.50 497.50Q202 479 175.50 450Q149 421 129.50 382.50Q110 344 100 305.50Q90 267 86 228Q454 248 454 412Q454 460 420 488Q386 516 328 516Z"  horiz-adv-x="509" vert-adv-y="1000"  />

      
      <glyph glyph-name="uni0118" unicode="&#x0118;" d="M496 667L197 667L156 367L412 367L410 354L154 354L105 14L414 14L412 0L385 0Q311-28 274.50-58Q238-88 238-129Q238-185 301-185Q325-185 356-178L353-192Q324-199 300-199Q262-199 242-182Q222-165 222-134Q222-88 258-57Q294-26 359 0L89 0L185 681L499 681L496 667Z"  horiz-adv-x="494" vert-adv-y="1000"  />

      
      <glyph glyph-name="uni0119" unicode="&#x0119;" d="M468 412Q468 326 372 276Q276 226 85 216Q85 205 85 193Q85 100 126.50 52Q168 4 241 4Q287 4 322.50 17.50Q358 31 399 61L406 50Q384 34 363.50 22.50Q343 11 321 3Q266-20 234.50-47Q203-74 203-113Q203-143 222.50-160Q242-177 276-177Q299-177 329-170L328-184Q299-191 275-191Q233-191 210.50-170Q188-149 188-113Q188-51 277-7Q260-9 241-9Q161-9 115.50 43Q70 95 70 193Q70 227 76.50 263.50Q83 300 95.50 338Q108 376 129 410Q150 444 177.50 470.50Q205 497 244 512.50Q283 528 328 528Q391 528 429.50 497Q468 466 468 412M328 516Q281 516 241.50 497.50Q202 479 175.50 450Q149 421 129.50 382.50Q110 344 100 305.50Q90 267 86 228Q454 248 454 412Q454 460 420 488Q386 516 328 516Z"  horiz-adv-x="509" vert-adv-y="1000"  />

      
      <glyph glyph-name="uni011A" unicode="&#x011A;" d="M480 856L488 847L360 762L352 762L249 847L257 855L358 777L480 856M499 681L496 667L197 667L156 367L412 367L410 354L154 354L105 14L414 14L412 0L89 0L185 681L499 681Z"  horiz-adv-x="494" vert-adv-y="1000"  />

      
      <glyph glyph-name="uni011B" unicode="&#x011B;" d="M330 644L322 644L220 735L228 743L328 659L451 743L459 735L330 644M468 412Q468 326 372 276Q276 226 85 216Q85 205 85 193Q85 100 126.50 52Q168 4 241 4Q287 4 322.50 17.50Q358 31 399 61L406 50Q365 20 326.50 5.50Q288-9 241-9Q161-9 115.50 43Q70 95 70 193Q70 227 76.50 263.50Q83 300 95.50 338Q108 376 129 410Q150 444 177.50 470.50Q205 497 244 512.50Q283 528 328 528Q391 528 429.50 497Q468 466 468 412M328 516Q281 516 241.50 497.50Q202 479 175.50 450Q149 421 129.50 382.50Q110 344 100 305.50Q90 267 86 228Q454 248 454 412Q454 460 420 488Q386 516 328 516Z"  horiz-adv-x="509" vert-adv-y="1000"  />

      
      <glyph glyph-name="uni011C" unicode="&#x011C;" d="M299 768L292 777L418 862L426 862L530 776L522 768L421 846L299 768M405 691Q494 691 563 633L553 624Q489 677 405 677Q361 677 322 664Q283 651 253 627.50Q223 604 197.50 572Q172 540 154.50 502.50Q137 465 125 423.50Q113 382 107 340Q101 298 101 257Q101 133 158 68.50Q215 4 317 4Q399 4 483 48L524 336L377 336L376 349L540 349L497 40Q406-9 317-9Q208-9 147 59.50Q86 128 86 258Q86 318 98.50 378.50Q111 439 137 495.50Q163 552 199.50 595.50Q236 639 289 665Q342 691 405 691Z"  horiz-adv-x="603" vert-adv-y="1000"  />

      
      <glyph glyph-name="uni011D" unicode="&#x011D;" d="M224 656L216 664L345 755L353 755L454 664L447 656L347 740L224 656M332 528Q405 528 469 487L397-7Q370-194 210-194Q123-194 48-148L54-137Q128-182 211-182Q358-182 383-9L401 118Q369 61 324 30.50Q279 0 228 0Q155 0 113.50 54.50Q72 109 72 198Q72 241 80 285Q88 329 107.50 373.50Q127 418 156 452Q185 486 230.50 507Q276 528 332 528M332 516Q279 516 236 495.50Q193 475 165.50 442.50Q138 410 119.50 367Q101 324 93.50 282Q86 240 86 198Q86 114 124 63.50Q162 13 229 13Q334 13 405 142L454 481Q401 516 332 516Z"  horiz-adv-x="552" vert-adv-y="1000"  />

      
      <glyph glyph-name="uni011E" unicode="&#x011E;" d="M411 772Q384 772 362.50 782.50Q341 793 330 808.50Q319 824 316 842L327 844Q333 818 355 802Q377 786 411 786Q446 786 472.50 802Q499 818 512 845L523 841Q511 812 481 792Q451 772 411 772M405 691Q494 691 563 633L553 624Q489 677 405 677Q361 677 322 664Q283 651 253 627.50Q223 604 197.50 572Q172 540 154.50 502.50Q137 465 125 423.50Q113 382 107 340Q101 298 101 257Q101 133 158 68.50Q215 4 317 4Q399 4 483 48L524 336L377 336L376 349L540 349L497 40Q406-9 317-9Q208-9 147 59.50Q86 128 86 258Q86 318 98.50 378.50Q111 439 137 495.50Q163 552 199.50 595.50Q236 639 289 665Q342 691 405 691Z"  horiz-adv-x="603" vert-adv-y="1000"  />

      
      <glyph glyph-name="uni011F" unicode="&#x011F;" d="M335 664Q293 664 269 686Q245 708 242 744L253 746Q262 677 335 677Q409 677 439 746L449 743Q440 720 424.50 702.50Q409 685 386 674.50Q363 664 335 664M332 528Q405 528 469 487L397-7Q370-194 210-194Q123-194 48-148L54-137Q128-182 211-182Q358-182 383-9L401 118Q369 61 324 30.50Q279 0 228 0Q155 0 113.50 54.50Q72 109 72 198Q72 241 80 285Q88 329 107.50 373.50Q127 418 156 452Q185 486 230.50 507Q276 528 332 528M332 516Q279 516 236 495.50Q193 475 165.50 442.50Q138 410 119.50 367Q101 324 93.50 282Q86 240 86 198Q86 114 124 63.50Q162 13 229 13Q334 13 405 142L454 481Q401 516 332 516Z"  horiz-adv-x="552" vert-adv-y="1000"  />

      
      <glyph glyph-name="uni0120" unicode="&#x0120;" d="M422 814Q409 814 409 827Q409 834 413 838.50Q417 843 424 843Q437 843 437 830Q437 823 433 818.50Q429 814 422 814M405 691Q494 691 563 633L553 624Q489 677 405 677Q361 677 322 664Q283 651 253 627.50Q223 604 197.50 572Q172 540 154.50 502.50Q137 465 125 423.50Q113 382 107 340Q101 298 101 257Q101 133 158 68.50Q215 4 317 4Q399 4 483 48L524 336L377 336L376 349L540 349L497 40Q406-9 317-9Q208-9 147 59.50Q86 128 86 258Q86 318 98.50 378.50Q111 439 137 495.50Q163 552 199.50 595.50Q236 639 289 665Q342 691 405 691Z"  horiz-adv-x="603" vert-adv-y="1000"  />

      
      <glyph glyph-name="uni0121" unicode="&#x0121;" d="M341 688Q328 688 328 701Q328 708 332 712.50Q336 717 343 717Q357 717 357 704Q357 697 352.50 692.50Q348 688 341 688M332 528Q405 528 469 487L397-7Q370-194 210-194Q123-194 48-148L54-137Q128-182 211-182Q358-182 383-9L401 118Q369 61 324 30.50Q279 0 228 0Q155 0 113.50 54.50Q72 109 72 198Q72 241 80 285Q88 329 107.50 373.50Q127 418 156 452Q185 486 230.50 507Q276 528 332 528M332 516Q279 516 236 495.50Q193 475 165.50 442.50Q138 410 119.50 367Q101 324 93.50 282Q86 240 86 198Q86 114 124 63.50Q162 13 229 13Q334 13 405 142L454 481Q401 516 332 516Z"  horiz-adv-x="552" vert-adv-y="1000"  />

      
      <glyph glyph-name="uni0122" unicode="&#x0122;" d="M405 691Q494 691 563 633L553 624Q489 677 405 677Q361 677 322 664Q283 651 253 627.50Q223 604 197.50 572Q172 540 154.50 502.50Q137 465 125 423.50Q113 382 107 340Q101 298 101 257Q101 133 158 68.50Q215 4 317 4Q399 4 483 48L524 336L377 336L376 349L540 349L497 40Q406-9 317-9Q208-9 147 59.50Q86 128 86 258Q86 318 98.50 378.50Q111 439 137 495.50Q163 552 199.50 595.50Q236 639 289 665Q342 691 405 691M293-100Q297-100 300.50-102Q304-104 306-107.50Q308-111 308-115Q308-124 295-147L251-250L241-250L285-132Q275-128 275-118Q275-113 277-109Q279-105 283-102.50Q287-100 293-100Z"  horiz-adv-x="603" vert-adv-y="1000"  />

      
      <glyph glyph-name="uni0123" unicode="&#x0123;" d="M323 595Q316 595 311.50 599.50Q307 604 307 610Q307 619 320 643L365 745L375 745L330 627Q341 623 341 613Q341 605 336 600Q331 595 323 595M332 528Q405 528 469 487L397-7Q370-194 210-194Q123-194 48-148L54-137Q128-182 211-182Q358-182 383-9L401 118Q369 61 324 30.50Q279 0 228 0Q155 0 113.50 54.50Q72 109 72 198Q72 241 80 285Q88 329 107.50 373.50Q127 418 156 452Q185 486 230.50 507Q276 528 332 528M332 516Q279 516 236 495.50Q193 475 165.50 442.50Q138 410 119.50 367Q101 324 93.50 282Q86 240 86 198Q86 114 124 63.50Q162 13 229 13Q334 13 405 142L454 481Q401 516 332 516Z"  horiz-adv-x="552" vert-adv-y="1000"  />

      
      <glyph glyph-name="uni0124" unicode="&#x0124;" d="M284 768L277 777L403 862L411 862L515 776L507 768L406 846L284 768M104 0L89 0L185 681L199 681L156 370L533 370L576 681L591 681L495 0L481 0L531 356L154 356L104 0Z"  horiz-adv-x="657" vert-adv-y="1000"  />

      
      <glyph glyph-name="uni0125" unicode="&#x0125;" d="M237 817L230 826L356 911L364 911L468 825L460 817L359 895L237 817M367 528Q435 528 463 486.50Q491 445 481 368L429 0L415 0L467 368Q487 516 366 516Q302 516 248 468Q194 420 143 321L98 0L84 0L187 732L201 734L147 349Q238 528 367 528Z"  horiz-adv-x="581" vert-adv-y="1000"  />

      
      <glyph glyph-name="uni0126" unicode="&#x0126;" d="M629 534L627 523L573 523L499 0L485 0L535 356L158 356L108 0L93 0L167 523L110 523L112 534L168 534L189 681L203 681L183 534L560 534L580 681L595 681L574 534L629 534M537 370L558 523L181 523L160 370L537 370Z"  horiz-adv-x="661" vert-adv-y="1000"  />

      
      <glyph glyph-name="uni0127" unicode="&#x0127;" d="M369 528Q415 528 443 509Q471 490 480.50 454.50Q490 419 483 368L431 0L417 0L469 368Q489 516 368 516Q304 516 250 468Q196 420 146 321L100 0L86 0L175 632L102 632L103 645L177 645L189 732L203 734L191 645L379 645L375 632L189 632L150 349Q240 528 369 528Z"  horiz-adv-x="583" vert-adv-y="1000"  />

      
      <glyph glyph-name="uni0128" unicode="&#x0128;" d="M269 807Q245 807 210.50 829Q176 851 158 851Q140 851 126 843Q112 835 93 815L84 822Q124 864 158 864Q178 864 213 842Q248 820 269 820Q301 820 335 860L344 854Q308 807 269 807M199 681L104 0L89 0L185 681L199 681Z"  horiz-adv-x="266" vert-adv-y="1000"  />

      
      <glyph glyph-name="uni0129" unicode="&#x0129;" d="M246 681Q222 681 187.50 703Q153 725 135 725Q122 725 111.50 721Q101 717 92 709.50Q83 702 70 689L61 696Q101 738 135 738Q155 738 190 716Q225 694 246 694Q278 694 312 734L321 728Q285 681 246 681M171 518L98 0L84 0L157 518L171 518Z"  horiz-adv-x="255" vert-adv-y="1000"  />

      
      <glyph glyph-name="uni012A" unicode="&#x012A;" d="M311 812L111 812L113 826L313 826L311 812M199 681L104 0L89 0L185 681L199 681Z"  horiz-adv-x="266" vert-adv-y="1000"  />

      
      </font>
</defs>
</svg>
