<?xml version="1.0" standalone="no"?>
  <!DOCTYPE svg PUBLIC "-//W3C//DTD SVG 1.1//EN" "http://www.w3.org/Graphics/SVG/1.1/DTD/svg11.dtd" >
  <svg>
  <metadata>
  Created by font-carrier
  </metadata>
  <defs>
  <font id="FiraSans-Thin" horiz-adv-x="1460" vert-adv-y="1460" >
    <font-face
      
      font-family="Fira Sans Thin"
      
      font-weight="400"
      
      font-stretch="normal"
      
      units-per-em="1000"
      
      ascent="935"
      
      descent="-265"
      
    />
      <missing-glyph />

      

      
      <glyph glyph-name="uni21" unicode="&#x21;" d="M129 681L129 202L108 202L108 681L129 681M119 38Q143 38 143 14Q143 5 136.50-1.50Q130-8 119-8Q109-8 102.50-1.50Q96 5 96 14Q96 38 119 38Z"  horiz-adv-x="238" vert-adv-y="1000"  />

      
      <glyph glyph-name="uni22" unicode="&#x22;" d="M86 441L83 681L106 681L103 441L86 441M224 441L221 681L244 681L241 441L224 441Z"  horiz-adv-x="327" vert-adv-y="1000"  />

      
      <glyph glyph-name="uni23" unicode="&#x23;" d="M473 460L390 460L359 220L436 220L436 200L356 200L330 0L308 0L334 200L120 200L93 0L71 0L98 200L15 200L15 220L100 220L132 460L52 460L52 479L135 479L159 662L181 662L157 479L371 479L395 662L417 662L393 479L473 479L473 460M337 220L368 460L154 460L122 220L337 220Z"  horiz-adv-x="488" vert-adv-y="1000"  />

      
      <glyph glyph-name="uni24" unicode="&#x24;" d="M454 177Q454 98 402.50 46.50Q351-5 267-10L267-146L248-146L248-10Q139-9 54 68L68 83Q149 11 250 11Q332 11 382 56Q432 101 432 176Q432 245 394 280.50Q356 316 259 347Q157 380 118 416Q79 452 79 517Q79 582 126 625Q173 668 249 670L249 811L269 811L269 670Q362 666 433 603L418 587Q351 650 256 650Q186 650 143.50 612.50Q101 575 101 517Q101 458 136.50 427Q172 396 267 367Q369 335 411.50 294.50Q454 254 454 177Z"  horiz-adv-x="523" vert-adv-y="1000"  />

      
      <glyph glyph-name="uni25" unicode="&#x25;" d="M606 695L624 684L163-15L144-4L606 695M198 673Q259 673 295.50 631.50Q332 590 332 519Q332 447 296 404Q260 361 198 361Q137 361 100 403Q63 445 63 516Q63 589 99 631Q135 673 198 673M198 654Q143 654 114.50 616Q86 578 86 516Q86 456 114.50 418Q143 380 198 380Q253 380 281.50 418.50Q310 457 310 519Q310 579 281 616.50Q252 654 198 654M562 302Q624 302 660.50 260.50Q697 219 697 148Q697 76 661 33Q625-10 562-10Q501-10 464.50 32.50Q428 75 428 145Q428 217 463.50 259.50Q499 302 562 302M645.50 246Q645.50 246 631.25 264.50Q617 283 562 283Q507 283 478.50 245Q450 207 450 145Q450 85 478.50 47Q507 9 562 9Q617 9 645.50 47.50Q674 86 674 148Q674 209 645.50 246Z"  horiz-adv-x="760" vert-adv-y="1000"  />

      
      <glyph glyph-name="uni26" unicode="&#x26;" d="M192 649.50Q192 649.50 214 670.75Q236 692 302 692Q368 692 409 651.50Q450 611 450 548Q450 490 411.50 450Q373 410 285 362L522 140Q570 235 593 354L615 348Q588 219 536 126L666 5L648-7L525 107Q440-10 300-10Q217-10 160.50 39.50Q104 89 104 165Q104 231 140.50 277Q177 323 252 365Q193 422 170.50 457.50Q148 493 148 544Q148 607 192 649.50M302 672Q244 672 207.50 635.50Q171 599 171 545Q171 500 189.50 467.50Q208 435 271 376Q354 420 391 458Q428 496 428 548Q428 605 392.50 638.50Q357 672 302 672M267 352Q196 313 161.50 269Q127 225 127 165Q127 98 175.50 54.50Q224 11 300 11Q432 11 510 121L267 352Z"  horiz-adv-x="715" vert-adv-y="1000"  />

      
      <glyph glyph-name="uni27" unicode="&#x27;" d="M86 441L83 681L106 681L103 441L86 441Z"  horiz-adv-x="189" vert-adv-y="1000"  />

      
      <glyph glyph-name="uni28" unicode="&#x28;" d="M241 829L256 820Q214 758 191.50 720Q169 682 142 622Q115 562 103 496Q91 430 91 350Q91 270 103 204Q115 138 142 78Q169 18 191.50-20Q214-58 256-120L241-129Q197-66 173-27Q149 12 121 72.50Q93 133 81 200.50Q69 268 69 350Q69 432 81 499.50Q93 567 121 627.50Q149 688 173 727Q197 766 241 829Z"  horiz-adv-x="325" vert-adv-y="1000"  />

      
      <glyph glyph-name="uni29" unicode="&#x29;" d="M84 829Q128 766 152 727Q176 688 204 627.50Q232 567 244 499.50Q256 432 256 350Q256 268 244 200.50Q232 133 204 72.50Q176 12 152-27Q128-66 84-129L69-120Q111-58 133.50-20Q156 18 183 78Q210 138 222 204Q234 270 234 350Q234 430 222 496Q210 562 183 622Q156 682 133.50 720Q111 758 69 820L84 829Z"  horiz-adv-x="325" vert-adv-y="1000"  />

      
      <glyph glyph-name="uni2a" unicode="&#x2a;" d="M382 603L230 557L325 429L307 416L216 546L124 416L106 429L202 556L49 603L56 623L207 572L205 732L227 732L226 572L376 623L382 603Z"  horiz-adv-x="432" vert-adv-y="1000"  />

      
      <glyph glyph-name="uni2b" unicode="&#x2b;" d="M254 496L254 341L407 341L407 320L254 320L254 165L232 165L232 320L78 320L78 341L232 341L232 496L254 496Z"  horiz-adv-x="485" vert-adv-y="1000"  />

      
      <glyph glyph-name="uni2c" unicode="&#x2c;" d="M81 38Q105 38 105 14Q105 5 96-17L52-130L35-130L73-6Q58-2 58 14Q58 38 81 38Z"  horiz-adv-x="163" vert-adv-y="1000"  />

      
      <glyph glyph-name="uni2d" unicode="&#x2d;" d="M78 302L78 323L321 323L321 302L78 302Z"  horiz-adv-x="399" vert-adv-y="1000"  />

      
      <glyph glyph-name="uni2e" unicode="&#x2e;" d="M81 38Q105 38 105 14Q105 5 98.50-1.50Q92-8 81-8Q71-8 64.50-1.50Q58 5 58 14Q58 38 81 38Z"  horiz-adv-x="163" vert-adv-y="1000"  />

      
      <glyph glyph-name="uni2f" unicode="&#x2f;" d="M366 798L386 792L154-95L134-89L366 798Z"  horiz-adv-x="520" vert-adv-y="1000"  />

      
      <glyph glyph-name="uni30" unicode="&#x30;" d="M271 673Q465 673 465 330Q465 161 415.50 75.50Q366-10 271-10Q175-10 125.50 76.50Q76 163 76 332Q76 673 271 673M271 652Q99 652 99 332Q99 11 271 11Q442 11 442 330Q442 652 271 652Z"  horiz-adv-x="541" vert-adv-y="1000"  />

      
      <glyph glyph-name="uni31" unicode="&#x31;" d="M260 661L260 0L238 0L238 635L64 525L53 542L242 661L260 661Z"  horiz-adv-x="393" vert-adv-y="1000"  />

      
      <glyph glyph-name="uni32" unicode="&#x32;" d="M221 673Q299 673 344.50 626Q390 579 390 506Q390 411 334.50 329.50Q279 248 83 31Q78 25 75 22L405 22L401 0L47 0L47 21Q253 247 310 330.50Q367 414 367 504Q367 571 327.50 611.50Q288 652 221 652Q127 652 60 572L43 583Q118 673 221 673Z"  horiz-adv-x="464" vert-adv-y="1000"  />

      
      <glyph glyph-name="uni33" unicode="&#x33;" d="M217 673Q294 673 339.50 628.50Q385 584 385 512Q385 442 346.50 400.50Q308 359 250 353Q316 351 359.50 306Q403 261 403 182Q403 97 349.50 43.50Q296-10 208-10Q101-10 28 73L43 85Q80 45 118.50 28Q157 11 208 11Q288 11 334 58Q380 105 380 181Q380 261 335 301.50Q290 342 212 342L174 342L177 362L211 362Q273 362 317.50 400Q362 438 362 511Q362 575 322.50 613.50Q283 652 216 652Q127 652 60 586L46 600Q118 673 217 673Z"  horiz-adv-x="474" vert-adv-y="1000"  />

      
      <glyph glyph-name="uni34" unicode="&#x34;" d="M463 207L463 187L370 187L370 0L348 0L348 187L51 187L51 205L257 673L276 665L75 207L348 207L351 418L370 418L370 207L463 207Z"  horiz-adv-x="503" vert-adv-y="1000"  />

      
      <glyph glyph-name="uni35" unicode="&#x35;" d="M393 661L389 641L109 641L109 376Q165 415 232 415Q317 415 365.50 361.50Q414 308 414 214Q414 114 361 52Q308-10 217-10Q113-10 43 65L59 79Q122 11 218 11Q298 11 344.50 66.50Q391 122 391 214Q391 301 348.50 347.50Q306 394 232 394Q166 394 105 354L87 354L87 661L393 661Z"  horiz-adv-x="474" vert-adv-y="1000"  />

      
      <glyph glyph-name="uni36" unicode="&#x36;" d="M283 427Q358 427 404.50 374.50Q451 322 451 222Q451 114 403 52Q355-10 274-10Q172-10 124 72.50Q76 155 76 288Q76 466 136 569.50Q196 673 303 673Q362 673 412 636L399 619Q357 652 302 652Q208 652 155 557Q102 462 99 310Q173 427 283 427M274 11Q348 11 388.50 68.50Q429 126 429 221Q429 312 389 359Q349 406 282 406Q170 406 99 278Q101 155 143.50 83Q186 11 274 11Z"  horiz-adv-x="513" vert-adv-y="1000"  />

      
      <glyph glyph-name="uni37" unicode="&#x37;" d="M389 661L389 643L114-6L93 2L365 641L38 641L38 661L389 661Z"  horiz-adv-x="432" vert-adv-y="1000"  />

      
      <glyph glyph-name="uni38" unicode="&#x38;" d="M308 345Q393 312 428 273Q463 234 463 167Q463 86 408 38Q353-10 263-10Q171-10 117 39Q63 88 63 168Q63 303 217 362Q150 390 121.50 424Q93 458 93 513Q93 585 143 629Q193 673 263 673Q335 673 384.50 630.50Q434 588 434 512Q434 457 404.50 418.50Q375 380 308 345M116 512Q116 462 143 431Q170 400 242 371L289 353Q354 386 383 422.50Q412 459 412 511Q412 578 370 615Q328 652 263 652Q200 652 158 614.50Q116 577 116 512M263 12Q343 12 391.50 53Q440 94 440 167Q440 232 404 267.50Q368 303 281 337L241 352Q159 322 122.50 278.50Q86 235 86 168Q86 94 134 53Q182 12 263 12Z"  horiz-adv-x="526" vert-adv-y="1000"  />

      
      <glyph glyph-name="uni39" unicode="&#x39;" d="M250 673Q437 673 437 397Q437 306 416.50 237.50Q396 169 354 121Q312 73 257.50 41.50Q203 10 126-15L119 3Q263 49 335.50 131.50Q408 214 415 365Q344 255 236 255Q160 255 110.50 310.50Q61 366 61 459Q61 557 113.50 615Q166 673 250 673M238 276Q342 276 415 394Q413 522 374.50 587Q336 652 250 652Q175 652 130 600.50Q85 549 85 458Q85 374 127 325Q169 276 238 276Z"  horiz-adv-x="508" vert-adv-y="1000"  />

      
      <glyph glyph-name="uni3a" unicode="&#x3a;" d="M81 453Q105 453 105 429Q105 420 98.50 413.50Q92 407 81 407Q71 407 64.50 413.50Q58 420 58 429Q58 453 81 453M81 38Q105 38 105 14Q105 5 98.50-1.50Q92-8 81-8Q71-8 64.50-1.50Q58 5 58 14Q58 38 81 38Z"  horiz-adv-x="163" vert-adv-y="1000"  />

      
      <glyph glyph-name="uni3b" unicode="&#x3b;" d="M81 453Q105 453 105 429Q105 420 98.50 413.50Q92 407 81 407Q71 407 64.50 413.50Q58 420 58 429Q58 453 81 453M81 38Q105 38 105 14Q105 5 96-17L52-130L35-130L73-6Q58-2 58 14Q58 38 81 38Z"  horiz-adv-x="163" vert-adv-y="1000"  />

      
      <glyph glyph-name="uni3c" unicode="&#x3c;" d="M406 503L415 484L104 333L415 178L406 159L79 325L79 341L406 503Z"  horiz-adv-x="495" vert-adv-y="1000"  />

      
      <glyph glyph-name="uni3d" unicode="&#x3d;" d="M78 399L78 420L407 420L407 399L78 399M78 241L78 262L407 262L407 241L78 241Z"  horiz-adv-x="485" vert-adv-y="1000"  />

      
      <glyph glyph-name="uni3e" unicode="&#x3e;" d="M88 503L415 341L415 325L88 159L79 178L390 333L79 484L88 503Z"  horiz-adv-x="495" vert-adv-y="1000"  />

      
      <glyph glyph-name="uni3f" unicode="&#x3f;" d="M232 691Q301 691 343 652Q385 613 385 555Q385 515 366 485Q347 455 320 436Q293 417 266 397.50Q239 378 220 346Q201 314 201 271L201 202L180 202L180 273Q180 312 193.50 342.50Q207 373 227 390Q247 407 271 425Q295 443 315 458Q335 473 348.50 498Q362 523 362 555Q362 607 326 639Q290 671 232 671Q182 671 145 652.50Q108 634 72 594L56 606Q129 691 232 691M169 14Q169 38 192 38Q215 38 215 14Q215-8 192-8Q182-8 175.50-1.50Q169 5 169 14Z"  horiz-adv-x="441" vert-adv-y="1000"  />

      
      <glyph glyph-name="uni40" unicode="&#x40;" d="M527 692Q622 692 698 661Q774 630 822 576.50Q870 523 895 454.50Q920 386 920 309Q920 152 872 83.50Q824 15 755 15Q708 15 677.50 47.50Q647 80 639 137Q591 17 488 17Q418 17 372 73Q326 129 326 232Q326 353 382 415Q438 477 523 477Q591 477 655 443L655 184Q655 111 681.50 72.50Q708 34 755 34Q816 34 856.50 96.50Q897 159 897 308Q897 462 799 566.50Q701 671 527 671Q349 671 236 546.50Q123 422 123 240Q123 48 234.50-64Q346-176 525-176Q624-176 709-144L715-164Q623-197 525-197Q338-197 219-79.50Q100 38 100 240Q100 430 219.50 561Q339 692 527 692M490 37Q540 37 578 73.50Q616 110 633 168L633 430Q579 456 524 456Q445 456 397 397.50Q349 339 349 232Q349 137 387.50 87Q426 37 490 37Z"  horiz-adv-x="1020" vert-adv-y="1000"  />

      
      <glyph glyph-name="uni41" unicode="&#x41;" d="M505 0L435 203L121 203L51 0L28 0L265 681L292 681L530 0L505 0M128 224L428 224L278 663L128 224Z"  horiz-adv-x="557" vert-adv-y="1000"  />

      
      <glyph glyph-name="uni42" unicode="&#x42;" d="M362 361Q433 357 479 312Q525 267 525 184Q525 94 465.50 47Q406 0 299 0L123 0L123 681L264 681Q373 681 431.50 638.50Q490 596 490 513Q490 448 455.50 409.50Q421 371 362 361M267 660L146 660L146 370L316 370Q384 370 425.50 409Q467 448 467 512Q467 660 267 660M300 21Q395 21 448.50 61.50Q502 102 502 184Q502 264 452.50 307Q403 350 321 350L146 350L146 21L300 21Z"  horiz-adv-x="587" vert-adv-y="1000"  />

      
      <glyph glyph-name="uni43" unicode="&#x43;" d="M344 691Q435 691 505 633L492 617Q425 670 346 670Q236 670 168.50 587.50Q101 505 101 340Q101 183 168 97.50Q235 12 342 12Q429 12 499 71L513 54Q438-10 342-10Q224-10 151 82Q78 174 78 340Q78 511 152 601Q226 691 344 691Z"  horiz-adv-x="538" vert-adv-y="1000"  />

      
      <glyph glyph-name="uni44" unicode="&#x44;" d="M245 681Q293 681 332 673.50Q371 666 411.50 644Q452 622 479.50 586Q507 550 524.50 489.50Q542 429 542 348Q542 266 524 203Q506 140 478 102Q450 64 410 40.50Q370 17 331.50 8.50Q293 0 249 0L123 0L123 681L245 681M243 660L146 660L146 21L250 21Q303 21 347.50 35.50Q392 50 432 84Q472 118 495 185.50Q518 253 518 348Q518 426 501.50 483.50Q485 541 460 574Q435 607 397 627Q359 647 323 653.50Q287 660 243 660Z"  horiz-adv-x="619" vert-adv-y="1000"  />

      
      <glyph glyph-name="uni45" unicode="&#x45;" d="M444 681L441 660L146 660L146 370L400 370L400 349L146 349L146 21L451 21L451 0L123 0L123 681L444 681Z"  horiz-adv-x="494" vert-adv-y="1000"  />

      
      <glyph glyph-name="uni46" unicode="&#x46;" d="M123 0L123 681L439 681L436 660L146 660L146 356L396 356L396 335L146 335L146 0L123 0Z"  horiz-adv-x="471" vert-adv-y="1000"  />

      
      <glyph glyph-name="uni47" unicode="&#x47;" d="M348 691Q441 691 516 632L503 616Q433 670 348 670Q247 670 174 588Q101 506 101 345Q101 182 168.50 97Q236 12 353 12Q439 12 510 53L510 333L365 333L362 354L533 354L533 41Q446-10 353-10Q227-10 152.50 81.50Q78 173 78 345Q78 512 158 601.50Q238 691 348 691Z"  horiz-adv-x="605" vert-adv-y="1000"  />

      
      <glyph glyph-name="uni48" unicode="&#x48;" d="M514 0L514 349L146 349L146 0L123 0L123 681L146 681L146 371L514 371L514 681L537 681L537 0L514 0Z"  horiz-adv-x="660" vert-adv-y="1000"  />

      
      <glyph glyph-name="uni49" unicode="&#x49;" d="M146 681L146 0L123 0L123 681L146 681Z"  horiz-adv-x="268" vert-adv-y="1000"  />

      
      <glyph glyph-name="uni4a" unicode="&#x4a;" d="M161 681L161 87Q161 10 135.50-27.50Q110-65 30-100L23-83Q92-51 115-16Q138 19 138 89L138 681L161 681Z"  horiz-adv-x="277" vert-adv-y="1000"  />

      
      <glyph glyph-name="uni4b" unicode="&#x4b;" d="M146 681L146 0L123 0L123 681L146 681M490 681L178 367L506 0L478 0L149 367L463 681L490 681Z"  horiz-adv-x="510" vert-adv-y="1000"  />

      
      <glyph glyph-name="uni4c" unicode="&#x4c;" d="M146 681L146 22L434 22L430 0L123 0L123 681L146 681Z"  horiz-adv-x="456" vert-adv-y="1000"  />

      
      <glyph glyph-name="uni4d" unicode="&#x4d;" d="M609 681L684 0L662 0L623 345Q617 398 605 511Q593 624 589 660L392 84L370 84L170 660Q168 633 155.50 521Q143 409 137 354L100 0L78 0L151 681L185 681L381 112L575 681L609 681Z"  horiz-adv-x="762" vert-adv-y="1000"  />

      
      <glyph glyph-name="uni4e" unicode="&#x4e;" d="M538 681L538 0L510 0L142 656Q145 604 145 477L145 0L123 0L123 681L152 681L519 26Q516 146 516 205L516 681L538 681Z"  horiz-adv-x="661" vert-adv-y="1000"  />

      
      <glyph glyph-name="uni4f" unicode="&#x4f;" d="M344 691Q467 691 539 600Q611 509 611 340Q611 175 540.50 82.50Q470-10 344-10Q223-10 150.50 82Q78 174 78 339Q78 504 151 597.50Q224 691 344 691M344 670Q233 670 167 583.50Q101 497 101 339Q101 183 167 97.50Q233 12 344 12Q460 12 524 96.50Q588 181 588 340Q588 500 522.50 585Q457 670 344 670Z"  horiz-adv-x="689" vert-adv-y="1000"  />

      
      <glyph glyph-name="uni50" unicode="&#x50;" d="M261 681Q380 681 440.50 633.50Q501 586 501 484Q501 282 256 282L146 282L146 0L123 0L123 681L261 681M258 303Q477 303 477 483Q477 577 423.50 618.50Q370 660 261 660L146 660L146 303L258 303Z"  horiz-adv-x="558" vert-adv-y="1000"  />

      
      <glyph glyph-name="uni51" unicode="&#x51;" d="M413 6Q557 2 630-62L614-81Q564-39 503.50-23.50Q443-8 344-8Q222-8 150 83Q78 174 78 339Q78 504 151 597.50Q224 691 344 691Q467 691 539 600Q611 509 611 340Q611 191 557.50 107.50Q504 24 413 6M101 339Q101 183 167 97.50Q233 12 344 12Q460 12 524 96.50Q588 181 588 340Q588 500 522.50 585Q457 670 344 670Q233 670 167 583.50Q101 497 101 339Z"  horiz-adv-x="689" vert-adv-y="1000"  />

      
      <glyph glyph-name="uni52" unicode="&#x52;" d="M501 0L313 324L146 324L146 0L123 0L123 681L272 681Q496 681 496 504Q496 355 337 327L528 0L501 0M146 345L287 345Q374 345 423.50 384.50Q473 424 473 504Q473 581 425.50 620.50Q378 660 269 660L146 660L146 345Z"  horiz-adv-x="572" vert-adv-y="1000"  />

      
      <glyph glyph-name="uni53" unicode="&#x53;" d="M265 691Q323 691 364 674Q405 657 445 622L430 605Q361 670 265 670Q192 670 147.50 632Q103 594 103 534Q103 473 140 440.50Q177 408 274 378Q379 346 422.50 304Q466 262 466 182Q466 97 408 43.50Q350-10 258-10Q144-10 54 72L69 87Q151 12 257 12Q341 12 392.50 58Q444 104 444 181Q444 253 405 290Q366 327 266 358Q161 391 120.50 428.50Q80 466 80 534Q80 602 131 646.50Q182 691 265 691Z"  horiz-adv-x="536" vert-adv-y="1000"  />

      
      <glyph glyph-name="uni54" unicode="&#x54;" d="M463 681L459 659L249 659L249 0L226 0L226 659L16 659L16 681L463 681Z"  horiz-adv-x="476" vert-adv-y="1000"  />

      
      <glyph glyph-name="uni55" unicode="&#x55;" d="M528 681L528 207Q528 108 477 49Q426-10 321-10Q215-10 164 49Q113 108 113 207L113 681L136 681L136 210Q136 117 180.50 64.50Q225 12 321 12Q416 12 460.50 65Q505 118 505 210L505 681L528 681Z"  horiz-adv-x="640" vert-adv-y="1000"  />

      
      <glyph glyph-name="uni56" unicode="&#x56;" d="M506 681L281 0L253 0L28 681L52 681L267 21L482 681L506 681Z"  horiz-adv-x="534" vert-adv-y="1000"  />

      
      <glyph glyph-name="uni57" unicode="&#x57;" d="M752 681L593 0L567 0L395 659L223 0L197 0L38 681L62 681L212 24L381 681L409 681L580 24L729 681L752 681Z"  horiz-adv-x="790" vert-adv-y="1000"  />

      
      <glyph glyph-name="uni58" unicode="&#x58;" d="M254 370L469 0L444 0L240 355L41 0L16 0L227 369L41 681L67 681L240 384L413 681L437 681L254 370Z"  horiz-adv-x="486" vert-adv-y="1000"  />

      
      <glyph glyph-name="uni59" unicode="&#x59;" d="M473 681L260 271L260 0L237 0L237 270L21 681L47 681L249 292L447 681L473 681Z"  horiz-adv-x="494" vert-adv-y="1000"  />

      
      <glyph glyph-name="uni5a" unicode="&#x5a;" d="M459 681L459 662L69 22L446 22L443 0L41 0L41 21L432 660L79 660L79 681L459 681Z"  horiz-adv-x="509" vert-adv-y="1000"  />

      
      <glyph glyph-name="uni5b" unicode="&#x5b;" d="M229 796L229 778L123 778L123-88L229-88L229-106L103-106L103 796L229 796Z"  horiz-adv-x="312" vert-adv-y="1000"  />

      
      <glyph glyph-name="uni5c" unicode="&#x5c;" d="M154 798L386-89L366-95L134 792L154 798Z"  horiz-adv-x="520" vert-adv-y="1000"  />

      
      <glyph glyph-name="uni5d" unicode="&#x5d;" d="M209 796L209-106L83-106L83-88L189-88L189 778L83 778L83 796L209 796Z"  horiz-adv-x="312" vert-adv-y="1000"  />

      
      <glyph glyph-name="uni5e" unicode="&#x5e;" d="M269 823L446 527L418 527L261 796L104 527L76 527L253 823L269 823Z"  horiz-adv-x="524" vert-adv-y="1000"  />

      
      <glyph glyph-name="uni5f" unicode="&#x5f;" d="M42-100L42-79L478-79L478-100L42-100Z"  horiz-adv-x="520" vert-adv-y="1000"  />

      
      <glyph glyph-name="uni60" unicode="&#x60;" d="M40 761L216 670L208 654L30 738L40 761Z"  horiz-adv-x="246" vert-adv-y="1000"  />

      
      <glyph glyph-name="uni61" unicode="&#x61;" d="M410 110Q410 59 420.50 37Q431 15 457 6L451-10Q420 0 406 22.50Q392 45 391 91Q334-10 222-10Q149-10 107.50 32Q66 74 66 144Q66 222 121 265Q176 308 270 308L388 308L388 370Q388 440 357.50 474.50Q327 509 255 509Q192 509 112 476L105 495Q187 529 255 529Q336 529 373 489.50Q410 450 410 372L410 110M222 11Q333 11 388 119L388 288L274 288Q187 288 138.50 251Q90 214 90 144Q90 82 125.50 46.50Q161 11 222 11Z"  horiz-adv-x="528" vert-adv-y="1000"  />

      
      <glyph glyph-name="uni62" unicode="&#x62;" d="M308 529Q397 529 444 460.50Q491 392 491 264Q491 135 442.50 62.50Q394-10 302-10Q201-10 139 81L137 0L118 0L118 733L140 736L140 436Q207 529 308 529M301 11Q382 11 425.50 77Q469 143 469 264Q469 384 428 446.50Q387 509 308 509Q254 509 215 484Q176 459 140 410L140 106Q204 11 301 11Z"  horiz-adv-x="569" vert-adv-y="1000"  />

      
      <glyph glyph-name="uni63" unicode="&#x63;" d="M283 529Q362 529 418 479L405 464Q354 509 284 509Q199 509 147.50 443Q96 377 96 257Q96 139 147.50 75Q199 11 283 11Q355 11 410 59L423 44Q362-10 284-10Q189-10 131 61Q73 132 73 257Q73 383 130 456Q187 529 283 529Z"  horiz-adv-x="464" vert-adv-y="1000"  />

      
      <glyph glyph-name="uni64" unicode="&#x64;" d="M434 736L456 733L456 0L437 0L434 89Q380-10 270-10Q182-10 130 61.50Q78 133 78 258Q78 380 132 454.50Q186 529 280 529Q379 529 434 446L434 736M271 11Q377 11 434 123L434 418Q376 509 281 509Q199 509 149.50 441Q100 373 101 258Q101 141 146.50 76Q192 11 271 11Z"  horiz-adv-x="574" vert-adv-y="1000"  />

      
      <glyph glyph-name="uni65" unicode="&#x65;" d="M461 284Q461 268 459 246L96 246Q100 130 149.50 70.50Q199 11 280 11Q358 11 427 68L439 51Q367-10 280-10Q185-10 129 60Q73 130 73 255Q73 382 127 455.50Q181 529 272 529Q365 529 413 463Q461 397 461 284M439 265L439 292Q439 391 397.50 450Q356 509 274 509Q196 509 147 446.50Q98 384 96 265L439 265Z"  horiz-adv-x="529" vert-adv-y="1000"  />

      
      <glyph glyph-name="uni66" unicode="&#x66;" d="M246 716Q143 716 143 614L143 519L290 519L286 499L143 499L143 0L121 0L121 499L31 499L31 519L121 519L121 617Q121 674 154.50 705.50Q188 737 244 737Q306 737 360 706L352 689Q300 716 246 716Z"  horiz-adv-x="307" vert-adv-y="1000"  />

      
      <glyph glyph-name="uni67" unicode="&#x67;" d="M463 550L471 526Q417 512 318 512Q422 476 422 356Q422 279 374.50 234.50Q327 190 245 190Q208 190 171 204Q119 175 119 129Q119 64 218 64L305 64Q377 64 417.50 31Q458-2 458-57Q458-197 251-197Q142-197 93-165Q44-133 44-58L66-58Q67-124 108.50-150Q150-176 251-176Q436-176 436-58Q436-11 401 16Q366 43 304 43L216 43Q158 43 127 66Q96 89 96 126Q96 176 153 212Q66 257 66 358Q66 435 114 482Q162 529 243 529Q314 529 358.50 531.50Q403 534 420 538Q437 542 463 550M244 509Q169 509 128.50 467.50Q88 426 88 358Q88 288 133 249Q178 210 245 210Q317 210 358 248.50Q399 287 399 356Q399 428 357.50 468.50Q316 509 244 509Z"  horiz-adv-x="488" vert-adv-y="1000"  />

      
      <glyph glyph-name="uni68" unicode="&#x68;" d="M330 529Q399 529 434 487.50Q469 446 469 369L469 0L447 0L447 367Q447 509 330 509Q222 509 140 384L140 0L118 0L118 733L140 736L140 414Q217 529 330 529Z"  horiz-adv-x="581" vert-adv-y="1000"  />

      
      <glyph glyph-name="uni69" unicode="&#x69;" d="M129 724Q150 724 150 704Q150 685 129 685Q120 685 114.50 690.50Q109 696 109 704Q109 712 114.50 718Q120 724 129 724M140 519L140 0L118 0L118 519L140 519Z"  horiz-adv-x="258" vert-adv-y="1000"  />

      
      <glyph glyph-name="uni6a" unicode="&#x6a;" d="M129 724Q150 724 150 704Q150 685 129 685Q120 685 114.50 690.50Q109 696 109 704Q109 712 114.50 718Q120 724 129 724M141 519L141 6Q141-56 127.50-94.50Q114-133 92.50-153Q71-173 28-195L22-178Q77-149 98-113Q119-77 119 7L119 519L141 519Z"  horiz-adv-x="258" vert-adv-y="1000"  />

      
      <glyph glyph-name="uni6b" unicode="&#x6b;" d="M140 736L140 0L118 0L118 733L140 736M420 519L174 284L445 0L418 0L146 284L392 519L420 519Z"  horiz-adv-x="463" vert-adv-y="1000"  />

      
      <glyph glyph-name="uni6c" unicode="&#x6c;" d="M185-10Q152-10 132.50 10.50Q113 31 113 72L113 733L135 736L135 73Q135 11 186 11Q207 11 226 19L232 0Q206-10 185-10Z"  horiz-adv-x="276" vert-adv-y="1000"  />

      
      <glyph glyph-name="uni6d" unicode="&#x6d;" d="M606 529Q668 529 701.50 487Q735 445 735 369L735 0L713 0L713 367Q713 509 606 509Q509 509 437 384L437 0L415 0L415 369Q415 509 308 509Q212 509 140 384L140 0L118 0L118 519L137 519L139 414Q208 529 309 529Q363 529 395 498Q427 467 435 410Q504 529 606 529Z"  horiz-adv-x="848" vert-adv-y="1000"  />

      
      <glyph glyph-name="uni6e" unicode="&#x6e;" d="M330 529Q469 529 469 369L469 0L447 0L447 367Q447 509 330 509Q222 509 140 384L140 0L118 0L118 519L137 519L139 413Q217 529 330 529Z"  horiz-adv-x="581" vert-adv-y="1000"  />

      
      <glyph glyph-name="uni6f" unicode="&#x6f;" d="M281 529Q377 529 432.50 459.50Q488 390 488 262Q488 134 432 62Q376-10 280-10Q183-10 128 61.50Q73 133 73 259Q73 386 129.50 457.50Q186 529 281 529M281 509Q195 509 145.50 444Q96 379 96 259Q96 141 144.50 76Q193 11 280 11Q366 11 415.50 76Q465 141 465 262Q465 380 416.50 444.50Q368 509 281 509Z"  horiz-adv-x="560" vert-adv-y="1000"  />

      
      <glyph glyph-name="uni70" unicode="&#x70;" d="M308 529Q397 529 444 460.50Q491 392 491 264Q491 135 442.50 62.50Q394-10 303-10Q202-10 140 80L140-192L118-196L118 519L137 519L139 434Q205 529 308 529M302 11Q383 11 426 77Q469 143 469 264Q469 384 428 446.50Q387 509 308 509Q254 509 215 484Q176 459 140 410L140 106Q206 11 302 11Z"  horiz-adv-x="569" vert-adv-y="1000"  />

      
      <glyph glyph-name="uni71" unicode="&#x71;" d="M437 519L456 519L456-196L434-192L434 88Q380-10 270-10Q182-10 130 61.50Q78 133 78 258Q78 380 132 454.50Q186 529 280 529Q379 529 435 446L437 519M271 11Q329 11 367 39Q405 67 434 121L434 418Q378 509 281 509Q199 509 149.50 441Q100 373 101 258Q101 141 146.50 76Q192 11 271 11Z"  horiz-adv-x="574" vert-adv-y="1000"  />

      
      <glyph glyph-name="uni72" unicode="&#x72;" d="M294 529Q321 529 345 523L340 504Q318 509 294 509Q237 509 201 469.50Q165 430 140 344L140 0L118 0L118 519L137 519L138 390Q160 462 197.50 495.50Q235 529 294 529Z"  horiz-adv-x="362" vert-adv-y="1000"  />

      
      <glyph glyph-name="uni73" unicode="&#x73;" d="M229 529Q315 529 383 474L370 458Q304 509 230 509Q171 509 132.50 479.50Q94 450 94 401Q94 356 125.50 331Q157 306 236 285Q326 260 361.50 228.50Q397 197 397 134Q397 70 350 30Q303-10 228-10Q131-10 53 56L66 71Q103 40 139.50 25.50Q176 11 228 11Q292 11 333 43.50Q374 76 374 134Q374 189 343 216Q312 243 226 267Q142 289 106.50 319Q71 349 71 401Q71 457 116.50 493Q162 529 229 529Z"  horiz-adv-x="460" vert-adv-y="1000"  />

      
      <glyph glyph-name="uni74" unicode="&#x74;" d="M315 37L325 20Q277-10 224-10Q171-10 141.50 22.50Q112 55 112 117L112 499L26 499L26 519L112 519L112 650L134 652L134 519L278 519L274 499L134 499L134 118Q134 11 226 11Q272 11 315 37Z"  horiz-adv-x="324" vert-adv-y="1000"  />

      
      <glyph glyph-name="uni75" unicode="&#x75;" d="M459 519L459 0L439 0L439 106Q375-10 259-10Q190-10 151.50 31Q113 72 113 149L113 519L135 519L135 151Q135 11 262 11Q368 11 437 133L437 519L459 519Z"  horiz-adv-x="576" vert-adv-y="1000"  />

      
      <glyph glyph-name="uni76" unicode="&#x76;" d="M424 519L243 0L214 0L23 519L48 519L228 19L400 519L424 519Z"  horiz-adv-x="447" vert-adv-y="1000"  />

      
      <glyph glyph-name="uni77" unicode="&#x77;" d="M647 519L511 0L482 0L341 497L200 0L171 0L33 519L57 519L186 21L328 519L355 519L496 21L624 519L647 519Z"  horiz-adv-x="680" vert-adv-y="1000"  />

      
      <glyph glyph-name="uni78" unicode="&#x78;" d="M229 279L415 0L389 0L215 265L43 0L18 0L202 278L43 519L69 519L216 292L364 519L390 519L229 279Z"  horiz-adv-x="433" vert-adv-y="1000"  />

      
      <glyph glyph-name="uni79" unicode="&#x79;" d="M421 519L240-1Q208-92 173-132Q138-172 59-195L56-177Q129-155 158.50-120Q188-85 219 0L211 0L23 519L47 519L225 17L396 519L421 519Z"  horiz-adv-x="444" vert-adv-y="1000"  />

      
      <glyph glyph-name="uni7a" unicode="&#x7a;" d="M374 519L374 501L59 21L366 21L364 0L31 0L31 18L346 499L58 499L58 519L374 519Z"  horiz-adv-x="410" vert-adv-y="1000"  />

      
      <glyph glyph-name="uni7b" unicode="&#x7b;" d="M244 818L244 800Q164 800 164 712L164 441Q164 396 146 375Q128 354 88 349Q128 344 146 323Q164 302 164 257L164-14Q164-102 244-102L244-120Q144-120 144-17L144 266Q144 338 64 338L64 360Q144 360 144 432L144 715Q144 818 244 818Z"  horiz-adv-x="328" vert-adv-y="1000"  />

      
      <glyph glyph-name="uni7c" unicode="&#x7c;" d="M217 801L217-98L195-98L195 801L217 801Z"  horiz-adv-x="413" vert-adv-y="1000"  />

      
      <glyph glyph-name="uni7d" unicode="&#x7d;" d="M84 818Q184 818 184 715L184 432Q184 360 264 360L264 338Q184 338 184 266L184-17Q184-120 84-120L84-102Q164-102 164-14L164 257Q164 302 182 323Q200 344 240 349Q200 354 182 375Q164 396 164 441L164 712Q164 800 84 800L84 818Z"  horiz-adv-x="328" vert-adv-y="1000"  />

      
      <glyph glyph-name="uni7e" unicode="&#x7e;" d="M305 280Q278 280 228 307.50Q178 335 155 335Q132 335 117.50 325Q103 315 86 293L71 302Q90 329 108.50 343Q127 357 155 357Q183 357 232.50 329.50Q282 302 305 302Q327 302 341 312Q355 322 371 343L386 335Q350 280 305 280Z"  horiz-adv-x="457" vert-adv-y="1000"  />

      
      <glyph glyph-name="unia1" unicode="&#xa1;" d="M119 453Q129 453 136 446Q143 439 143 430Q143 420 136 413Q129 406 119 406Q96 406 96 430Q96 453 119 453M130 252L130-192L109-192L109 252L130 252Z"  horiz-adv-x="238" vert-adv-y="1000"  />

      
      <glyph glyph-name="unia2" unicode="&#xa2;" d="M423 44Q365-7 291-10L291-146L271-146L271-10Q181-5 127 65.50Q73 136 73 257Q73 380 127 452Q181 524 273 529L273 676L292 676L292 529Q365 526 418 479L405 464Q354 509 284 509Q199 509 147.50 443Q96 377 96 257Q96 139 147.50 75Q199 11 283 11Q355 11 410 59L423 44Z"  horiz-adv-x="464" vert-adv-y="1000"  />

      
      <glyph glyph-name="unia3" unicode="&#xa3;" d="M167 137Q167 89 150.50 64Q134 39 95 21L434 21L431 0L63 0L63 21Q109 42 127 66Q145 90 145 135L145 343L83 343L83 364L145 364L145 505Q145 578 185 625.50Q225 673 300 673Q385 673 443 606L428 592Q376 652 300 652Q236 652 201.50 611Q167 570 167 505L167 364L384 364L384 343L167 343L167 137Z"  horiz-adv-x="498" vert-adv-y="1000"  />

      
      <glyph glyph-name="unia4" unicode="&#xa4;" d="M408 465Q453 415 453 340Q453 265 407 213L487 134L472 119L391 199Q347 161 280 161Q215 161 169 199L88 119L73 134L154 214Q108 265 108 340Q108 413 152 465L73 544L88 559L167 479Q213 520 280 520Q347 520 393 480L472 559L487 544L408 465M170 455.50Q170 455.50 150 433.25Q130 411 130 340Q130 269 170.50 225Q211 181 280 181Q351 181 391 225Q431 269 431 340Q431 411 391.50 455.50Q352 500 280 500Q210 500 170 455.50Z"  horiz-adv-x="560" vert-adv-y="1000"  />

      
      <glyph glyph-name="unia5" unicode="&#xa5;" d="M464 661L265 329L388 329L388 308L255 308L255 190L388 190L388 168L255 168L255 0L233 0L233 168L101 168L101 190L233 190L233 308L101 308L101 329L223 329L21 661L48 661L244 331L438 661L464 661Z"  horiz-adv-x="485" vert-adv-y="1000"  />

      
      <glyph glyph-name="unia6" unicode="&#xa6;" d="M217 801L217 443L195 443L195 801L217 801M217 262L217-98L195-98L195 262L217 262Z"  horiz-adv-x="413" vert-adv-y="1000"  />

      
      <glyph glyph-name="unia7" unicode="&#xa7;" d="M352 160Q409 127 409 62Q409 5 366-29.50Q323-64 257-64Q173-64 102-20L114-2Q176-43 257-43Q316-43 351-14Q386 15 386 61Q386 104 360.50 128Q335 152 257 178Q167 209 133 238Q99 267 99 322Q99 394 184 451Q152 469 139 491.50Q126 514 126 547Q126 603 168 637.50Q210 672 271 672Q348 672 417 629L405 612Q341 652 272 652Q218 652 183 622Q148 592 148 548Q148 505 175 481.50Q202 458 286 430Q367 402 399.50 370.50Q432 339 432 285Q432 209 352 160M122 322Q122 275 150.50 250Q179 225 263 196Q315 178 335 168Q410 215 410 284Q410 331 384 358Q358 385 280 411Q230 428 201 442Q122 390 122 322Z"  horiz-adv-x="532" vert-adv-y="1000"  />

      
      <glyph glyph-name="unia8" unicode="&#xa8;" d="M35.50 706Q35.50 706 38.25 709Q41 712 50 712Q59 712 64.50 706Q70 700 70 692Q70 673 50 673Q30 673 30 692Q30 700 35.50 706M216 712Q235 712 235 692Q235 673 216 673Q195 673 195 692Q195 712 216 712Z"  horiz-adv-x="265" vert-adv-y="1000"  />

      
      <glyph glyph-name="unia9" unicode="&#xa9;" d="M405 722Q526 722 604.50 642Q683 562 683 435Q683 310 604 229Q525 148 405 148Q284 148 205.50 228Q127 308 127 435Q127 560 206 641Q285 722 405 722M406 701Q294 701 221.50 626.50Q149 552 149 435Q149 317 221 243Q293 169 406 169Q517 169 589 243.50Q661 318 661 435Q661 553 589 627Q517 701 406 701M404 606Q454 606 491 577L480 562Q448 586 404 586Q361 586 328 550.50Q295 515 295 437Q295 360 325.50 322.50Q356 285 405 285Q454 285 490 314L500 297Q460 265 405 265Q345 265 308.50 310Q272 355 272 437Q272 521 312 563.50Q352 606 404 606Z"  horiz-adv-x="810" vert-adv-y="1000"  />

      
      <glyph glyph-name="uniaa" unicode="&#xaa;" d="M218 277Q159 277 125.50 308.50Q92 340 92 393Q92 452 136.50 484.50Q181 517 256 517L349 517L349 561Q349 613 325.50 637Q302 661 244 661Q195 661 131 637L124 656Q190 681 244 681Q310 681 340.50 652Q371 623 371 563L371 367Q371 330 379 314.50Q387 299 407 292L402 277Q353 290 352 349Q305 277 218 277M260 496Q192 496 154 470Q116 444 116 393Q116 348 143.50 322.50Q171 297 218 297Q303 297 349 377L349 496L260 496M91 21L420 21L420 0L91 0L91 21Z"  horiz-adv-x="500" vert-adv-y="1000"  />

      
      <glyph glyph-name="uniab" unicode="&#xab;" d="M240 503L255 494L115 288L255 83L240 74L89 281L89 295L240 503M429 503L444 494L304 288L444 83L429 74L278 281L278 295L429 503Z"  horiz-adv-x="533" vert-adv-y="1000"  />

      
      <glyph glyph-name="uniac" unicode="&#xac;" d="M417 331L417 198L394 198L394 309L78 309L78 331L417 331Z"  horiz-adv-x="495" vert-adv-y="1000"  />

      
      <glyph glyph-name="uniad" unicode="&#xad;" d="M78 302L78 323L321 323L321 302L78 302Z"  horiz-adv-x="399" vert-adv-y="1000"  />

      
      <glyph glyph-name="uniae" unicode="&#xae;" d="M159 656Q159 656 190.50 688.50Q222 721 318 721Q414 721 477.50 658.50Q541 596 541 502Q541 408 478 343Q415 278 318 278Q223 278 159.50 341Q96 404 96 498Q96 591 159 656M318 297Q405 297 463 356.50Q521 416 521 502Q521 588 463.50 645Q406 702 318 702Q231 702 173.50 643Q116 584 116 498Q116 412 174 354.50Q232 297 318 297M407 560Q407 503 344 490L418 369L391 369L322 487L267 487L267 369L245 369L245 638L305 638Q407 638 407 560M267 618L267 506L320 506Q385 506 385 560Q385 618 309 618L267 618Z"  horiz-adv-x="637" vert-adv-y="1000"  />

      
      <glyph glyph-name="uniaf" unicode="&#xaf;" d="M237 685L30 685L30 706L237 706L237 685Z"  horiz-adv-x="267" vert-adv-y="1000"  />

      
      <glyph glyph-name="unib0" unicode="&#xb0;" d="M219 411Q163 411 123.50 449.50Q84 488 84 552Q84 613 124 652Q164 691 219 691Q279 691 317 652.50Q355 614 355 551Q355 488 317 449.50Q279 411 219 411M219 432Q272 432 302.50 464.50Q333 497 333 551Q333 605 302.50 638Q272 671 219 671Q170 671 138.50 638Q107 605 107 552Q107 499 138.50 465.50Q170 432 219 432Z"  horiz-adv-x="520" vert-adv-y="1000"  />

      
      <glyph glyph-name="unib1" unicode="&#xb1;" d="M254 496L254 341L407 341L407 320L254 320L254 165L232 165L232 320L78 320L78 341L232 341L232 496L254 496M78 0L78 21L407 21L407 0L78 0Z"  horiz-adv-x="485" vert-adv-y="1000"  />

      
      <glyph glyph-name="unib2" unicode="&#xb2;" d="M198 738Q249 738 279 708.50Q309 679 309 633Q309 573 273 523Q237 473 111 343L321 343L317 322L84 322L84 342Q213 476 249.50 527Q286 578 286 632Q286 672 262.50 695Q239 718 198 718Q137 718 96 670L79 682Q128 738 198 738Z"  horiz-adv-x="400" vert-adv-y="1000"  />

      
      <glyph glyph-name="unib3" unicode="&#xb3;" d="M201 740Q252 740 283 712Q314 684 314 639Q314 597 289.50 571.50Q265 546 226 541Q269 539 296.50 511.50Q324 484 324 436Q324 382 288.50 348.50Q253 315 194 315Q123 315 75 368L90 379Q133 335 193 335Q245 335 273.50 362.50Q302 390 302 435Q302 530 197 530L172 530L175 549L195 549Q234 549 263 571.50Q292 594 292 638Q292 676 267 698Q242 720 200 720Q146 720 99 681L86 694Q138 740 201 740Z"  horiz-adv-x="400" vert-adv-y="1000"  />

      
      <glyph glyph-name="unib4" unicode="&#xb4;" d="M206 761L216 738L38 654L30 670L206 761Z"  horiz-adv-x="246" vert-adv-y="1000"  />

      
      <glyph glyph-name="unib5" unicode="&#xb5;" d="M485-3L465-5Q442 58 438 123Q370-10 258-10Q162-10 136 74Q140 3 140-64L140-192L118-194L118 519L140 519L140 142Q140 74 173 42.50Q206 11 258 11Q367 11 434 152L434 519L456 519L456 170Q456 78 485-3Z"  horiz-adv-x="582" vert-adv-y="1000"  />

      
      <glyph glyph-name="unib6" unicode="&#xb6;" d="M333 681L517 681L517-192L495-196L495 662L353 662L353-192L331-196L331 306Q218 308 167 360Q116 412 116 494Q116 583 173 632Q230 681 333 681Z"  horiz-adv-x="686" vert-adv-y="1000"  />

      
      <glyph glyph-name="unib7" unicode="&#xb7;" d="M81 350Q105 350 105 326Q105 317 98.50 310.50Q92 304 81 304Q71 304 64.50 310.50Q58 317 58 326Q58 350 81 350Z"  horiz-adv-x="163" vert-adv-y="1000"  />

      
      <glyph glyph-name="unib8" unicode="&#xb8;" d="M92 9L91-74Q182-79 182-140Q182-174 157.50-193Q133-212 98-212Q61-212 30-194L40-177Q63-192 98-192Q124-192 141.50-179Q159-166 159-140Q159-91 70-90L76 9L92 9Z"  horiz-adv-x="212" vert-adv-y="1000"  />

      
      <glyph glyph-name="unib9" unicode="&#xb9;" d="M241 732L241 322L219 322L219 707L109 642L98 658L224 732L241 732Z"  horiz-adv-x="400" vert-adv-y="1000"  />

      
      <glyph glyph-name="uniba" unicode="&#xba;" d="M249 681Q327 681 371.50 629Q416 577 416 481Q416 385 370.50 331Q325 277 248 277Q170 277 125.50 330.50Q81 384 81 479Q81 574 126.50 627.50Q172 681 249 681M355.50 614.50Q355.50 614.50 336.75 637.75Q318 661 250 661Q182 661 143 614Q104 567 104 479Q104 393 142.50 345Q181 297 248 297Q316 297 354.50 344.50Q393 392 393 481Q393 568 355.50 614.50M84 0L84 21L413 21L413 0L84 0Z"  horiz-adv-x="500" vert-adv-y="1000"  />

      
      <glyph glyph-name="unibb" unicode="&#xbb;" d="M104 503L255 295L255 281L104 74L89 83L230 288L90 494L104 503M284 503L435 295L435 281L284 74L269 83L410 288L270 494L284 503Z"  horiz-adv-x="524" vert-adv-y="1000"  />

      
      <glyph glyph-name="unibc" unicode="&#xbc;" d="M641 742L659 733L251-66L233-57L641 742M241 271L219 271L219 656L109 591L98 607L224 681L241 681L241 271M827 132L827 112L769 112L769 0L747 0L747 112L556 112L556 130L688 418L706 411L578 132L747 132L750 259L769 259L769 132L827 132Z"  horiz-adv-x="892" vert-adv-y="1000"  />

      
      <glyph glyph-name="unibd" unicode="&#xbd;" d="M641 742L659 733L251-66L233-57L641 742M241 681L241 271L219 271L219 656L109 591L98 607L224 681L241 681M690 416Q741 416 771 386.50Q801 357 801 311Q801 251 765 201Q729 151 603 21L813 21L809 0L576 0L576 20Q705 154 741.50 205Q778 256 778 310Q778 350 754.50 373Q731 396 690 396Q629 396 588 348L571 360Q620 416 690 416Z"  horiz-adv-x="892" vert-adv-y="1000"  />

      
      <glyph glyph-name="unibe" unicode="&#xbe;" d="M641 742L659 733L251-66L233-57L641 742M324 385Q324 331 288.50 297.50Q253 264 194 264Q123 264 75 317L90 328Q133 284 193 284Q245 284 273.50 311.50Q302 339 302 384Q302 479 197 479L172 479L175 498L195 498Q234 498 263 520.50Q292 543 292 587Q292 625 267 647Q242 669 200 669Q146 669 99 630L86 643Q138 689 201 689Q252 689 283 661Q314 633 314 588Q314 546 289.50 520.50Q265 495 226 490Q269 488 296.50 460.50Q324 433 324 385M827 132L827 112L769 112L769 0L747 0L747 112L556 112L556 130L688 418L706 411L578 132L747 132L750 259L769 259L769 132L827 132Z"  horiz-adv-x="892" vert-adv-y="1000"  />

      
      <glyph glyph-name="unibf" unicode="&#xbf;" d="M249 406Q238 406 231.50 413Q225 420 225 430Q225 439 231.50 446Q238 453 249 453Q259 453 265.50 446Q272 439 272 430Q272 420 265.50 413Q259 406 249 406M209-197Q141-197 98.50-159Q56-121 56-69Q56-29 75 1.50Q94 32 121 51Q148 70 174.50 89Q201 108 220 137.50Q239 167 239 206L239 252L261 252L261 204Q261 162 242.50 130.50Q224 99 197 80Q170 61 143 42.50Q116 24 97.50-4Q79-32 79-69Q79-115 115-145.50Q151-176 209-176Q259-176 296-158Q333-140 369-99L385-112Q310-197 209-197Z"  horiz-adv-x="441" vert-adv-y="1000"  />

      
      <glyph glyph-name="unic0" unicode="&#xc0;" d="M374 779L367 764L188 838L200 861L374 779M505 0L435 203L121 203L51 0L28 0L265 681L292 681L530 0L505 0M128 224L428 224L278 663L128 224Z"  horiz-adv-x="557" vert-adv-y="1000"  />

      
      <glyph glyph-name="unic1" unicode="&#xc1;" d="M371 838L192 764L185 779L360 861L371 838M505 0L435 203L121 203L51 0L28 0L265 681L292 681L530 0L505 0M128 224L428 224L278 663L128 224Z"  horiz-adv-x="557" vert-adv-y="1000"  />

      
      <glyph glyph-name="unic2" unicode="&#xc2;" d="M279 845L164 766L153 780L273 869L285 869L405 780L393 766L279 845M505 0L435 203L121 203L51 0L28 0L265 681L292 681L530 0L505 0M128 224L428 224L278 663L128 224Z"  horiz-adv-x="557" vert-adv-y="1000"  />

      
      <glyph glyph-name="unic3" unicode="&#xc3;" d="M220 847Q189 847 160 812L146 821Q180 867 220 867Q239 867 277.50 845.50Q316 824 337 824Q367 824 396 865L410 857Q381 804 337 804Q311 804 273 825.50Q235 847 220 847M505 0L435 203L121 203L51 0L28 0L265 681L292 681L530 0L505 0M128 224L428 224L278 663L128 224Z"  horiz-adv-x="557" vert-adv-y="1000"  />

      
      <glyph glyph-name="unic4" unicode="&#xc4;" d="M216 818Q216 799 196 799Q176 799 176 818Q176 826 181.50 832Q187 838 196 838Q205 838 210.50 832Q216 826 216 818M362 799Q341 799 341 818Q341 838 362 838Q381 838 381 818Q381 799 362 799M505 0L435 203L121 203L51 0L28 0L265 681L292 681L530 0L505 0M128 224L428 224L278 663L128 224Z"  horiz-adv-x="557" vert-adv-y="1000"  />

      
      <glyph glyph-name="unic5" unicode="&#xc5;" d="M337 791.50Q337 791.50 326 780.75Q315 770 279 770Q243 770 221.50 791.50Q200 813 200 848Q200 884 222 905.50Q244 927 279 927Q316 927 337.50 905.50Q359 884 359 849Q359 813 337 791.50M322.50 893Q322.50 893 314.75 901Q307 909 279 909Q251 909 236 893Q221 877 221 848Q221 820 236 804Q251 788 279 788Q307 788 322.50 804Q338 820 338 849Q338 877 322.50 893M505 0L435 203L121 203L51 0L28 0L265 681L292 681L530 0L505 0M128 224L428 224L278 663L128 224Z"  horiz-adv-x="557" vert-adv-y="1000"  />

      
      <glyph glyph-name="unic6" unicode="&#xc6;" d="M481 21L712 21L712 0L464 0L412 196L110 196L35 0L12 0L275 681L659 681L656 660L313 660L389 370L651 370L651 349L395 349L481 21M119 218L406 218L289 663L119 218Z"  horiz-adv-x="755" vert-adv-y="1000"  />

      
      <glyph glyph-name="unic7" unicode="&#xc7;" d="M342-74Q433-79 433-140Q433-174 408.50-193Q384-212 349-212Q312-212 281-194L291-177Q314-192 349-192Q375-192 392.50-179Q410-166 410-140Q410-91 321-90L326-10Q214-3 146 88.50Q78 180 78 340Q78 511 152 601Q226 691 344 691Q435 691 505 633L492 617Q425 670 346 670Q236 670 168.50 587.50Q101 505 101 340Q101 183 168 97.50Q235 12 342 12Q429 12 499 71L513 54Q438-10 343-10L342-74Z"  horiz-adv-x="538" vert-adv-y="1000"  />

      
      <glyph glyph-name="unic8" unicode="&#xc8;" d="M208 861L382 779L375 764L196 838L208 861M444 681L441 660L146 660L146 370L400 370L400 349L146 349L146 21L451 21L451 0L123 0L123 681L444 681Z"  horiz-adv-x="494" vert-adv-y="1000"  />

      
      <glyph glyph-name="unic9" unicode="&#xc9;" d="M368 861L379 838L200 764L193 779L368 861M444 681L441 660L146 660L146 370L400 370L400 349L146 349L146 21L451 21L451 0L123 0L123 681L444 681Z"  horiz-adv-x="494" vert-adv-y="1000"  />

      
      <glyph glyph-name="unica" unicode="&#xca;" d="M172 766L161 780L281 869L293 869L413 780L401 766L287 845L172 766M444 681L441 660L146 660L146 370L400 370L400 349L146 349L146 21L451 21L451 0L123 0L123 681L444 681Z"  horiz-adv-x="494" vert-adv-y="1000"  />

      
      <glyph glyph-name="unicb" unicode="&#xcb;" d="M189.50 832Q189.50 832 192.25 835Q195 838 204 838Q213 838 218.50 832Q224 826 224 818Q224 799 204 799Q184 799 184 818Q184 826 189.50 832M370 838Q389 838 389 818Q389 799 370 799Q349 799 349 818Q349 838 370 838M444 681L441 660L146 660L146 370L400 370L400 349L146 349L146 21L451 21L451 0L123 0L123 681L444 681Z"  horiz-adv-x="494" vert-adv-y="1000"  />

      
      <glyph glyph-name="unicc" unicode="&#xcc;" d="M55 861L229 779L222 764L43 838L55 861M146 681L146 0L123 0L123 681L146 681Z"  horiz-adv-x="268" vert-adv-y="1000"  />

      
      <glyph glyph-name="unicd" unicode="&#xcd;" d="M215 861L226 838L47 764L40 779L215 861M146 681L146 0L123 0L123 681L146 681Z"  horiz-adv-x="268" vert-adv-y="1000"  />

      
      <glyph glyph-name="unice" unicode="&#xce;" d="M19 766L8 780L128 869L140 869L260 780L248 766L134 845L19 766M146 681L146 0L123 0L123 681L146 681Z"  horiz-adv-x="268" vert-adv-y="1000"  />

      
      <glyph glyph-name="unicf" unicode="&#xcf;" d="M36.50 832Q36.50 832 39.25 835Q42 838 51 838Q60 838 65.50 832Q71 826 71 818Q71 799 51 799Q31 799 31 818Q31 826 36.50 832M217 838Q236 838 236 818Q236 799 217 799Q196 799 196 818Q196 838 217 838M146 681L146 0L123 0L123 681L146 681Z"  horiz-adv-x="268" vert-adv-y="1000"  />

      
      <glyph glyph-name="unid0" unicode="&#xd0;" d="M243 681Q291 681 330 673.50Q369 666 409.50 644Q450 622 477.50 586Q505 550 522.50 489.50Q540 429 540 348Q540 266 522 203Q504 140 476 102Q448 64 408 40.50Q368 17 329.50 8.50Q291 0 247 0L121 0L121 341L26 341L26 363L121 363L121 681L243 681M248 21Q301 21 345.50 35.50Q390 50 430 84Q470 118 493 185.50Q516 253 516 348Q516 426 499.50 483.50Q483 541 458 574Q433 607 395 627Q357 647 321 653.50Q285 660 241 660L144 660L144 363L335 363L335 341L144 341L144 21L248 21Z"  horiz-adv-x="617" vert-adv-y="1000"  />

      
      <glyph glyph-name="unid1" unicode="&#xd1;" d="M395 804Q369 804 331 825.50Q293 847 278 847Q247 847 218 812L204 821Q238 867 278 867Q297 867 335.50 845.50Q374 824 395 824Q425 824 454 865L468 857Q439 804 395 804M538 681L538 0L510 0L142 656Q145 604 145 477L145 0L123 0L123 681L152 681L519 26Q516 146 516 205L516 681L538 681Z"  horiz-adv-x="661" vert-adv-y="1000"  />

      
      <glyph glyph-name="unid2" unicode="&#xd2;" d="M266 861L440 779L433 764L254 838L266 861M344 691Q467 691 539 600Q611 509 611 340Q611 175 540.50 82.50Q470-10 344-10Q223-10 150.50 82Q78 174 78 339Q78 504 151 597.50Q224 691 344 691M344 670Q233 670 167 583.50Q101 497 101 339Q101 183 167 97.50Q233 12 344 12Q460 12 524 96.50Q588 181 588 340Q588 500 522.50 585Q457 670 344 670Z"  horiz-adv-x="689" vert-adv-y="1000"  />

      
      <glyph glyph-name="unid3" unicode="&#xd3;" d="M426 861L437 838L258 764L251 779L426 861M344 691Q467 691 539 600Q611 509 611 340Q611 175 540.50 82.50Q470-10 344-10Q223-10 150.50 82Q78 174 78 339Q78 504 151 597.50Q224 691 344 691M344 670Q233 670 167 583.50Q101 497 101 339Q101 183 167 97.50Q233 12 344 12Q460 12 524 96.50Q588 181 588 340Q588 500 522.50 585Q457 670 344 670Z"  horiz-adv-x="689" vert-adv-y="1000"  />

      
      <glyph glyph-name="unid4" unicode="&#xd4;" d="M230 766L219 780L339 869L351 869L471 780L459 766L345 845L230 766M344 691Q467 691 539 600Q611 509 611 340Q611 175 540.50 82.50Q470-10 344-10Q223-10 150.50 82Q78 174 78 339Q78 504 151 597.50Q224 691 344 691M344 670Q233 670 167 583.50Q101 497 101 339Q101 183 167 97.50Q233 12 344 12Q460 12 524 96.50Q588 181 588 340Q588 500 522.50 585Q457 670 344 670Z"  horiz-adv-x="689" vert-adv-y="1000"  />

      
      <glyph glyph-name="unid5" unicode="&#xd5;" d="M403 804Q377 804 339 825.50Q301 847 286 847Q255 847 226 812L212 821Q246 867 286 867Q305 867 343.50 845.50Q382 824 403 824Q433 824 462 865L476 857Q447 804 403 804M344 691Q467 691 539 600Q611 509 611 340Q611 175 540.50 82.50Q470-10 344-10Q223-10 150.50 82Q78 174 78 339Q78 504 151 597.50Q224 691 344 691M344 670Q233 670 167 583.50Q101 497 101 339Q101 183 167 97.50Q233 12 344 12Q460 12 524 96.50Q588 181 588 340Q588 500 522.50 585Q457 670 344 670Z"  horiz-adv-x="689" vert-adv-y="1000"  />

      
      <glyph glyph-name="unid6" unicode="&#xd6;" d="M247.50 832Q247.50 832 250.25 835Q253 838 262 838Q271 838 276.50 832Q282 826 282 818Q282 799 262 799Q242 799 242 818Q242 826 247.50 832M428 838Q447 838 447 818Q447 799 428 799Q407 799 407 818Q407 838 428 838M344 691Q467 691 539 600Q611 509 611 340Q611 175 540.50 82.50Q470-10 344-10Q223-10 150.50 82Q78 174 78 339Q78 504 151 597.50Q224 691 344 691M344 670Q233 670 167 583.50Q101 497 101 339Q101 183 167 97.50Q233 12 344 12Q460 12 524 96.50Q588 181 588 340Q588 500 522.50 585Q457 670 344 670Z"  horiz-adv-x="689" vert-adv-y="1000"  />

      
      <glyph glyph-name="unid7" unicode="&#xd7;" d="M371 455L387 440L257 308L387 175L371 160L243 293L114 160L98 175L226 307L98 440L114 455L241 321L371 455Z"  horiz-adv-x="485" vert-adv-y="1000"  />

      
      <glyph glyph-name="unid8" unicode="&#xd8;" d="M450 670Q527 636 569 552Q611 468 611 340Q611 175 540.50 82.50Q470-10 344-10Q296-10 255 5L224-111L201-104L237 12Q162 47 120 131Q78 215 78 339Q78 504 151 597.50Q224 691 344 691Q390 691 432 677L432 678L465 798L488 792L450 670M101 339Q101 222 139 144Q177 66 245 33L427 656Q388 670 344 670Q233 670 167 583.50Q101 497 101 339M344 12Q460 12 524 96.50Q588 181 588 340Q588 583 443 650L261 26Q301 12 344 12Z"  horiz-adv-x="689" vert-adv-y="1000"  />

      
      <glyph glyph-name="unid9" unicode="&#xd9;" d="M242 861L416 779L409 764L230 838L242 861M528 681L528 207Q528 108 477 49Q426-10 321-10Q215-10 164 49Q113 108 113 207L113 681L136 681L136 210Q136 117 180.50 64.50Q225 12 321 12Q416 12 460.50 65Q505 118 505 210L505 681L528 681Z"  horiz-adv-x="640" vert-adv-y="1000"  />

      
      <glyph glyph-name="unida" unicode="&#xda;" d="M402 861L413 838L234 764L227 779L402 861M528 681L528 207Q528 108 477 49Q426-10 321-10Q215-10 164 49Q113 108 113 207L113 681L136 681L136 210Q136 117 180.50 64.50Q225 12 321 12Q416 12 460.50 65Q505 118 505 210L505 681L528 681Z"  horiz-adv-x="640" vert-adv-y="1000"  />

      
      <glyph glyph-name="unidb" unicode="&#xdb;" d="M206 766L195 780L315 869L327 869L447 780L435 766L321 845L206 766M528 681L528 207Q528 108 477 49Q426-10 321-10Q215-10 164 49Q113 108 113 207L113 681L136 681L136 210Q136 117 180.50 64.50Q225 12 321 12Q416 12 460.50 65Q505 118 505 210L505 681L528 681Z"  horiz-adv-x="640" vert-adv-y="1000"  />

      
      <glyph glyph-name="unidc" unicode="&#xdc;" d="M223.50 832Q223.50 832 226.25 835Q229 838 238 838Q247 838 252.50 832Q258 826 258 818Q258 799 238 799Q218 799 218 818Q218 826 223.50 832M404 838Q423 838 423 818Q423 799 404 799Q383 799 383 818Q383 838 404 838M528 681L528 207Q528 108 477 49Q426-10 321-10Q215-10 164 49Q113 108 113 207L113 681L136 681L136 210Q136 117 180.50 64.50Q225 12 321 12Q416 12 460.50 65Q505 118 505 210L505 681L528 681Z"  horiz-adv-x="640" vert-adv-y="1000"  />

      
      <glyph glyph-name="unidd" unicode="&#xdd;" d="M328 861L339 838L160 764L153 779L328 861M473 681L260 271L260 0L237 0L237 270L21 681L47 681L249 292L447 681L473 681Z"  horiz-adv-x="494" vert-adv-y="1000"  />

      
      <glyph glyph-name="unide" unicode="&#xde;" d="M261 554Q380 554 440.50 506Q501 458 501 355Q501 147 256 147L146 147L146 0L123 0L123 681L146 681L146 554L261 554M258 168Q363 168 420 211Q477 254 477 355Q477 450 423.50 491.50Q370 533 261 533L146 533L146 168L258 168Z"  horiz-adv-x="558" vert-adv-y="1000"  />

      
      <glyph glyph-name="unidf" unicode="&#xdf;" d="M291 737Q357 737 398 701.50Q439 666 439 611Q439 581 426.50 556.50Q414 532 396 516.50Q378 501 360.50 487Q343 473 330.50 456.50Q318 440 318 421Q318 400 332.50 381.50Q347 363 369 350Q391 337 416 318Q441 299 463 278.50Q485 258 499.50 224Q514 190 514 148Q514 77 475 33.50Q436-10 369-10Q317-10 277 12L286 29Q320 11 368 11Q425 11 458.50 47.50Q492 84 492 148Q492 196 472 231.50Q452 267 423 288Q394 309 365 327.50Q336 346 316 369Q296 392 296 421Q296 447 315 469.50Q334 492 356 507Q378 522 397 549.50Q416 577 416 611Q416 658 382 687Q348 716 291 716Q223 716 181.50 670.50Q140 625 140 538L140 0L118 0L118 541Q118 634 166 685.50Q214 737 291 737Z"  horiz-adv-x="572" vert-adv-y="1000"  />

      
      <glyph glyph-name="unie0" unicode="&#xe0;" d="M348 670L340 654L162 738L172 761L348 670M410 110Q410 59 420.50 37Q431 15 457 6L451-10Q420 0 406 22.50Q392 45 391 91Q334-10 222-10Q149-10 107.50 32Q66 74 66 144Q66 222 121 265Q176 308 270 308L388 308L388 370Q388 440 357.50 474.50Q327 509 255 509Q192 509 112 476L105 495Q187 529 255 529Q336 529 373 489.50Q410 450 410 372L410 110M222 11Q333 11 388 119L388 288L274 288Q187 288 138.50 251Q90 214 90 144Q90 82 125.50 46.50Q161 11 222 11Z"  horiz-adv-x="528" vert-adv-y="1000"  />

      
      <glyph glyph-name="unie1" unicode="&#xe1;" d="M338 738L160 654L152 670L328 761L338 738M410 110Q410 59 420.50 37Q431 15 457 6L451-10Q420 0 406 22.50Q392 45 391 91Q334-10 222-10Q149-10 107.50 32Q66 74 66 144Q66 222 121 265Q176 308 270 308L388 308L388 370Q388 440 357.50 474.50Q327 509 255 509Q192 509 112 476L105 495Q187 529 255 529Q336 529 373 489.50Q410 450 410 372L410 110M222 11Q333 11 388 119L388 288L274 288Q187 288 138.50 251Q90 214 90 144Q90 82 125.50 46.50Q161 11 222 11Z"  horiz-adv-x="528" vert-adv-y="1000"  />

      
      <glyph glyph-name="unie2" unicode="&#xe2;" d="M254 738L139 654L128 667L248 762L260 762L380 667L368 654L254 738M410 110Q410 59 420.50 37Q431 15 457 6L451-10Q420 0 406 22.50Q392 45 391 91Q334-10 222-10Q149-10 107.50 32Q66 74 66 144Q66 222 121 265Q176 308 270 308L388 308L388 370Q388 440 357.50 474.50Q327 509 255 509Q192 509 112 476L105 495Q187 529 255 529Q336 529 373 489.50Q410 450 410 372L410 110M222 11Q333 11 388 119L388 288L274 288Q187 288 138.50 251Q90 214 90 144Q90 82 125.50 46.50Q161 11 222 11Z"  horiz-adv-x="528" vert-adv-y="1000"  />

      
      <glyph glyph-name="unie3" unicode="&#xe3;" d="M196 721Q165 721 136 686L122 695Q156 741 196 741Q215 741 253.50 719.50Q292 698 313 698Q343 698 372 739L386 731Q357 678 313 678Q287 678 249 699.50Q211 721 196 721M410 110Q410 59 420.50 37Q431 15 457 6L451-10Q420 0 406 22.50Q392 45 391 91Q334-10 222-10Q149-10 107.50 32Q66 74 66 144Q66 222 121 265Q176 308 270 308L388 308L388 370Q388 440 357.50 474.50Q327 509 255 509Q192 509 112 476L105 495Q187 529 255 529Q336 529 373 489.50Q410 450 410 372L410 110M222 11Q333 11 388 119L388 288L274 288Q187 288 138.50 251Q90 214 90 144Q90 82 125.50 46.50Q161 11 222 11Z"  horiz-adv-x="528" vert-adv-y="1000"  />

      
      <glyph glyph-name="unie4" unicode="&#xe4;" d="M191 692Q191 673 171 673Q151 673 151 692Q151 700 156.50 706Q162 712 171 712Q180 712 185.50 706Q191 700 191 692M337 673Q316 673 316 692Q316 712 337 712Q356 712 356 692Q356 673 337 673M410 110Q410 59 420.50 37Q431 15 457 6L451-10Q420 0 406 22.50Q392 45 391 91Q334-10 222-10Q149-10 107.50 32Q66 74 66 144Q66 222 121 265Q176 308 270 308L388 308L388 370Q388 440 357.50 474.50Q327 509 255 509Q192 509 112 476L105 495Q187 529 255 529Q336 529 373 489.50Q410 450 410 372L410 110M222 11Q333 11 388 119L388 288L274 288Q187 288 138.50 251Q90 214 90 144Q90 82 125.50 46.50Q161 11 222 11Z"  horiz-adv-x="528" vert-adv-y="1000"  />

      
      <glyph glyph-name="unie5" unicode="&#xe5;" d="M312 665.50Q312 665.50 301 654.75Q290 644 254 644Q218 644 196.50 665.50Q175 687 175 722Q175 758 197 779.50Q219 801 254 801Q291 801 312.50 779.50Q334 758 334 723Q334 687 312 665.50M297.50 767Q297.50 767 289.75 775Q282 783 254 783Q226 783 211 767Q196 751 196 722Q196 694 211 678Q226 662 254 662Q282 662 297.50 678Q313 694 313 723Q313 751 297.50 767M410 110Q410 59 420.50 37Q431 15 457 6L451-10Q420 0 406 22.50Q392 45 391 91Q334-10 222-10Q149-10 107.50 32Q66 74 66 144Q66 222 121 265Q176 308 270 308L388 308L388 370Q388 440 357.50 474.50Q327 509 255 509Q192 509 112 476L105 495Q187 529 255 529Q336 529 373 489.50Q410 450 410 372L410 110M222 11Q333 11 388 119L388 288L274 288Q187 288 138.50 251Q90 214 90 144Q90 82 125.50 46.50Q161 11 222 11Z"  horiz-adv-x="528" vert-adv-y="1000"  />

      
      <glyph glyph-name="unie6" unicode="&#xe6;" d="M776 284Q776 268 774 246L411 246Q415 130 464.50 70.50Q514 11 595 11Q673 11 742 68L754 51Q682-10 595-10Q465-10 414 111Q372 46 327 18Q282-10 222-10Q149-10 107.50 32Q66 74 66 144Q66 222 121 265Q176 308 270 308L388 308L388 370Q388 440 357.50 474.50Q327 509 255 509Q192 509 112 476L105 495Q187 529 255 529Q331 529 368.50 494Q406 459 410 389Q457 529 590 529Q682 529 729 463Q776 397 776 284M754 265L754 292Q754 391 713 450Q672 509 591 509Q512 509 462.50 446.50Q413 384 411 265L754 265M222 11Q279 11 321.50 39.50Q364 68 406 132Q388 185 388 255L388 288L274 288Q187 288 138.50 251Q90 214 90 144Q90 82 125.50 46.50Q161 11 222 11Z"  horiz-adv-x="844" vert-adv-y="1000"  />

      
      <glyph glyph-name="unie7" unicode="&#xe7;" d="M286-74Q377-79 377-140Q377-174 352.50-193Q328-212 293-212Q256-212 225-194L235-177Q258-192 293-192Q319-192 336.50-179Q354-166 354-140Q354-91 265-90L270-10Q180-4 126.50 66Q73 136 73 257Q73 383 130 456Q187 529 283 529Q362 529 418 479L405 464Q354 509 284 509Q199 509 147.50 443Q96 377 96 257Q96 139 147.50 75Q199 11 283 11Q355 11 410 59L423 44Q364-9 287-10L286-74Z"  horiz-adv-x="464" vert-adv-y="1000"  />

      
      <glyph glyph-name="unie8" unicode="&#xe8;" d="M369 670L361 654L183 738L193 761L369 670M461 284Q461 268 459 246L96 246Q100 130 149.50 70.50Q199 11 280 11Q358 11 427 68L439 51Q367-10 280-10Q185-10 129 60Q73 130 73 255Q73 382 127 455.50Q181 529 272 529Q365 529 413 463Q461 397 461 284M439 265L439 292Q439 391 397.50 450Q356 509 274 509Q196 509 147 446.50Q98 384 96 265L439 265Z"  horiz-adv-x="529" vert-adv-y="1000"  />

      
      <glyph glyph-name="unie9" unicode="&#xe9;" d="M359 738L181 654L173 670L349 761L359 738M461 284Q461 268 459 246L96 246Q100 130 149.50 70.50Q199 11 280 11Q358 11 427 68L439 51Q367-10 280-10Q185-10 129 60Q73 130 73 255Q73 382 127 455.50Q181 529 272 529Q365 529 413 463Q461 397 461 284M439 265L439 292Q439 391 397.50 450Q356 509 274 509Q196 509 147 446.50Q98 384 96 265L439 265Z"  horiz-adv-x="529" vert-adv-y="1000"  />

      
      <glyph glyph-name="uniea" unicode="&#xea;" d="M275 738L160 654L149 667L269 762L281 762L401 667L389 654L275 738M461 284Q461 268 459 246L96 246Q100 130 149.50 70.50Q199 11 280 11Q358 11 427 68L439 51Q367-10 280-10Q185-10 129 60Q73 130 73 255Q73 382 127 455.50Q181 529 272 529Q365 529 413 463Q461 397 461 284M439 265L439 292Q439 391 397.50 450Q356 509 274 509Q196 509 147 446.50Q98 384 96 265L439 265Z"  horiz-adv-x="529" vert-adv-y="1000"  />

      
      <glyph glyph-name="unieb" unicode="&#xeb;" d="M212 692Q212 673 192 673Q172 673 172 692Q172 700 177.50 706Q183 712 192 712Q201 712 206.50 706Q212 700 212 692M358 673Q337 673 337 692Q337 712 358 712Q377 712 377 692Q377 673 358 673M461 284Q461 268 459 246L96 246Q100 130 149.50 70.50Q199 11 280 11Q358 11 427 68L439 51Q367-10 280-10Q185-10 129 60Q73 130 73 255Q73 382 127 455.50Q181 529 272 529Q365 529 413 463Q461 397 461 284M439 265L439 292Q439 391 397.50 450Q356 509 274 509Q196 509 147 446.50Q98 384 96 265L439 265Z"  horiz-adv-x="529" vert-adv-y="1000"  />

      
      <glyph glyph-name="uniec" unicode="&#xec;" d="M47 761L223 670L215 654L37 738L47 761M140 519L140 0L118 0L118 519L140 519Z"  horiz-adv-x="258" vert-adv-y="1000"  />

      
      <glyph glyph-name="unied" unicode="&#xed;" d="M203 761L213 738L35 654L27 670L203 761M140 519L140 0L118 0L118 519L140 519Z"  horiz-adv-x="258" vert-adv-y="1000"  />

      
      <glyph glyph-name="uniee" unicode="&#xee;" d="M14 654L3 667L123 762L135 762L255 667L243 654L129 738L14 654M140 519L140 0L118 0L118 519L140 519Z"  horiz-adv-x="258" vert-adv-y="1000"  />

      
      <glyph glyph-name="unief" unicode="&#xef;" d="M31.50 706Q31.50 706 34.25 709Q37 712 46 712Q55 712 60.50 706Q66 700 66 692Q66 673 46 673Q26 673 26 692Q26 700 31.50 706M212 712Q231 712 231 692Q231 673 212 673Q191 673 191 692Q191 712 212 712M140 519L140 0L118 0L118 519L140 519Z"  horiz-adv-x="258" vert-adv-y="1000"  />

      
      <glyph glyph-name="unif0" unicode="&#xf0;" d="M307 666Q385 607 425 519.50Q465 432 465 301Q465 145 413 67.50Q361-10 268-10Q176-10 124.50 55Q73 120 73 230Q73 326 123.50 393.50Q174 461 260 461Q364 461 441 361Q428 546 292 651L210 566L191 573L278 662Q215 704 144 718L149 738Q228 720 292 676L358 746L373 734L307 666M268 11Q352 11 397 84.50Q442 158 442 303L442 334Q361 441 261 441Q185 441 140.50 380.50Q96 320 96 229Q96 127 141.50 69Q187 11 268 11Z"  horiz-adv-x="543" vert-adv-y="1000"  />

      
      <glyph glyph-name="unif1" unicode="&#xf1;" d="M238 721Q207 721 178 686L164 695Q198 741 238 741Q257 741 295.50 719.50Q334 698 355 698Q385 698 414 739L428 731Q399 678 355 678Q329 678 291 699.50Q253 721 238 721M330 529Q469 529 469 369L469 0L447 0L447 367Q447 509 330 509Q222 509 140 384L140 0L118 0L118 519L137 519L139 413Q217 529 330 529Z"  horiz-adv-x="581" vert-adv-y="1000"  />

      
      <glyph glyph-name="unif2" unicode="&#xf2;" d="M199 761L375 670L367 654L189 738L199 761M281 529Q377 529 432.50 459.50Q488 390 488 262Q488 134 432 62Q376-10 280-10Q183-10 128 61.50Q73 133 73 259Q73 386 129.50 457.50Q186 529 281 529M281 509Q195 509 145.50 444Q96 379 96 259Q96 141 144.50 76Q193 11 280 11Q366 11 415.50 76Q465 141 465 262Q465 380 416.50 444.50Q368 509 281 509Z"  horiz-adv-x="560" vert-adv-y="1000"  />

      
      <glyph glyph-name="unif3" unicode="&#xf3;" d="M355 761L365 738L187 654L179 670L355 761M281 529Q377 529 432.50 459.50Q488 390 488 262Q488 134 432 62Q376-10 280-10Q183-10 128 61.50Q73 133 73 259Q73 386 129.50 457.50Q186 529 281 529M281 509Q195 509 145.50 444Q96 379 96 259Q96 141 144.50 76Q193 11 280 11Q366 11 415.50 76Q465 141 465 262Q465 380 416.50 444.50Q368 509 281 509Z"  horiz-adv-x="560" vert-adv-y="1000"  />

      
      <glyph glyph-name="unif4" unicode="&#xf4;" d="M166 654L155 667L275 762L287 762L407 667L395 654L281 738L166 654M281 529Q377 529 432.50 459.50Q488 390 488 262Q488 134 432 62Q376-10 280-10Q183-10 128 61.50Q73 133 73 259Q73 386 129.50 457.50Q186 529 281 529M281 509Q195 509 145.50 444Q96 379 96 259Q96 141 144.50 76Q193 11 280 11Q366 11 415.50 76Q465 141 465 262Q465 380 416.50 444.50Q368 509 281 509Z"  horiz-adv-x="560" vert-adv-y="1000"  />

      
      <glyph glyph-name="unif5" unicode="&#xf5;" d="M340 678Q314 678 276 699.50Q238 721 223 721Q192 721 163 686L149 695Q183 741 223 741Q242 741 280.50 719.50Q319 698 340 698Q370 698 399 739L413 731Q384 678 340 678M281 529Q377 529 432.50 459.50Q488 390 488 262Q488 134 432 62Q376-10 280-10Q183-10 128 61.50Q73 133 73 259Q73 386 129.50 457.50Q186 529 281 529M281 509Q195 509 145.50 444Q96 379 96 259Q96 141 144.50 76Q193 11 280 11Q366 11 415.50 76Q465 141 465 262Q465 380 416.50 444.50Q368 509 281 509Z"  horiz-adv-x="560" vert-adv-y="1000"  />

      
      <glyph glyph-name="unif6" unicode="&#xf6;" d="M183.50 706Q183.50 706 186.25 709Q189 712 198 712Q207 712 212.50 706Q218 700 218 692Q218 673 198 673Q178 673 178 692Q178 700 183.50 706M364 712Q383 712 383 692Q383 673 364 673Q343 673 343 692Q343 712 364 712M281 529Q377 529 432.50 459.50Q488 390 488 262Q488 134 432 62Q376-10 280-10Q183-10 128 61.50Q73 133 73 259Q73 386 129.50 457.50Q186 529 281 529M281 509Q195 509 145.50 444Q96 379 96 259Q96 141 144.50 76Q193 11 280 11Q366 11 415.50 76Q465 141 465 262Q465 380 416.50 444.50Q368 509 281 509Z"  horiz-adv-x="560" vert-adv-y="1000"  />

      
      <glyph glyph-name="unif7" unicode="&#xf7;" d="M242 561Q266 561 266 537Q266 528 259.50 521.50Q253 515 242 515Q232 515 225.50 521.50Q219 528 219 537Q219 561 242 561M78 320L78 341L407 341L407 320L78 320M242 147Q266 147 266 123Q266 114 259.50 107.50Q253 101 242 101Q232 101 225.50 107.50Q219 114 219 123Q219 147 242 147Z"  horiz-adv-x="485" vert-adv-y="1000"  />

      
      <glyph glyph-name="unif8" unicode="&#xf8;" d="M374 508Q488 449 488 262Q488 134 432 62Q376-10 280-10Q239-10 206 3L164-118L145-113L187 11Q133 40 103 104Q73 168 73 259Q73 386 129.50 457.50Q186 529 281 529Q323 529 355 516L395 639L415 633L374 508M96 259Q96 87 195 32L349 497Q318 509 281 509Q195 509 145.50 444Q96 379 96 259M280 11Q366 11 415.50 76.50Q465 142 465 262Q465 434 367 488L213 23Q243 11 280 11Z"  horiz-adv-x="560" vert-adv-y="1000"  />

      
      <glyph glyph-name="unif9" unicode="&#xf9;" d="M205 761L381 670L373 654L195 738L205 761M459 519L459 0L439 0L439 106Q375-10 259-10Q190-10 151.50 31Q113 72 113 149L113 519L135 519L135 151Q135 11 262 11Q368 11 437 133L437 519L459 519Z"  horiz-adv-x="576" vert-adv-y="1000"  />

      
      <glyph glyph-name="unifa" unicode="&#xfa;" d="M361 761L371 738L193 654L185 670L361 761M459 519L459 0L439 0L439 106Q375-10 259-10Q190-10 151.50 31Q113 72 113 149L113 519L135 519L135 151Q135 11 262 11Q368 11 437 133L437 519L459 519Z"  horiz-adv-x="576" vert-adv-y="1000"  />

      
      <glyph glyph-name="unifb" unicode="&#xfb;" d="M172 654L161 667L281 762L293 762L413 667L401 654L287 738L172 654M459 519L459 0L439 0L439 106Q375-10 259-10Q190-10 151.50 31Q113 72 113 149L113 519L135 519L135 151Q135 11 262 11Q368 11 437 133L437 519L459 519Z"  horiz-adv-x="576" vert-adv-y="1000"  />

      
      <glyph glyph-name="unifc" unicode="&#xfc;" d="M189.50 706Q189.50 706 192.25 709Q195 712 204 712Q213 712 218.50 706Q224 700 224 692Q224 673 204 673Q184 673 184 692Q184 700 189.50 706M370 712Q389 712 389 692Q389 673 370 673Q349 673 349 692Q349 712 370 712M459 519L459 0L439 0L439 106Q375-10 259-10Q190-10 151.50 31Q113 72 113 149L113 519L135 519L135 151Q135 11 262 11Q368 11 437 133L437 519L459 519Z"  horiz-adv-x="576" vert-adv-y="1000"  />

      
      <glyph glyph-name="unifd" unicode="&#xfd;" d="M296 761L306 738L128 654L120 670L296 761M421 519L240-1Q208-92 173-132Q138-172 59-195L56-177Q129-155 158.50-120Q188-85 219 0L211 0L23 519L47 519L225 17L396 519L421 519Z"  horiz-adv-x="444" vert-adv-y="1000"  />

      
      <glyph glyph-name="unife" unicode="&#xfe;" d="M308 529Q397 529 444 460.50Q491 392 491 264Q491 135 442.50 62.50Q394-10 303-10Q202-10 140 80L140-192L118-196L118 733L140 736L140 435Q207 529 308 529M302 11Q383 11 426 77Q469 143 469 264Q469 384 428 446.50Q387 509 308 509Q254 509 215 484Q176 459 140 410L140 106Q206 11 302 11Z"  horiz-adv-x="569" vert-adv-y="1000"  />

      
      <glyph glyph-name="uniff" unicode="&#xff;" d="M124.50 706Q124.50 706 127.25 709Q130 712 139 712Q148 712 153.50 706Q159 700 159 692Q159 673 139 673Q119 673 119 692Q119 700 124.50 706M305 712Q324 712 324 692Q324 673 305 673Q284 673 284 692Q284 712 305 712M421 519L240-1Q208-92 173-132Q138-172 59-195L56-177Q129-155 158.50-120Q188-85 219 0L211 0L23 519L47 519L225 17L396 519L421 519Z"  horiz-adv-x="444" vert-adv-y="1000"  />

      
      <glyph glyph-name="uni0100" unicode="&#x0100;" d="M382 832L382 811L175 811L175 832L382 832M505 0L435 203L121 203L51 0L28 0L265 681L292 681L530 0L505 0M128 224L428 224L278 663L128 224Z"  horiz-adv-x="557" vert-adv-y="1000"  />

      
      <glyph glyph-name="uni0101" unicode="&#x0101;" d="M357 706L357 685L150 685L150 706L357 706M410 110Q410 59 420.50 37Q431 15 457 6L451-10Q420 0 406 22.50Q392 45 391 91Q334-10 222-10Q149-10 107.50 32Q66 74 66 144Q66 222 121 265Q176 308 270 308L388 308L388 370Q388 440 357.50 474.50Q327 509 255 509Q192 509 112 476L105 495Q187 529 255 529Q336 529 373 489.50Q410 450 410 372L410 110M222 11Q333 11 388 119L388 288L274 288Q187 288 138.50 251Q90 214 90 144Q90 82 125.50 46.50Q161 11 222 11Z"  horiz-adv-x="528" vert-adv-y="1000"  />

      
      <glyph glyph-name="uni0102" unicode="&#x0102;" d="M350.50 793Q350.50 793 335.75 782Q321 771 279 771Q237 771 208 793Q179 815 171 847L187 851Q210 792 279 792Q313 792 337.50 808.50Q362 825 371 851L387 847Q380 815 350.50 793M505 0L435 203L121 203L51 0L28 0L265 681L292 681L530 0L505 0M128 224L428 224L278 663L128 224Z"  horiz-adv-x="557" vert-adv-y="1000"  />

      
      <glyph glyph-name="uni0103" unicode="&#x0103;" d="M254 662Q212 662 183 686Q154 710 146 748L162 752Q182 684 254 684Q327 684 346 752L362 748Q355 710 326 686Q297 662 254 662M410 110Q410 59 420.50 37Q431 15 457 6L451-10Q420 0 406 22.50Q392 45 391 91Q334-10 222-10Q149-10 107.50 32Q66 74 66 144Q66 222 121 265Q176 308 270 308L388 308L388 370Q388 440 357.50 474.50Q327 509 255 509Q192 509 112 476L105 495Q187 529 255 529Q336 529 373 489.50Q410 450 410 372L410 110M222 11Q333 11 388 119L388 288L274 288Q187 288 138.50 251Q90 214 90 144Q90 82 125.50 46.50Q161 11 222 11Z"  horiz-adv-x="528" vert-adv-y="1000"  />

      
      <glyph glyph-name="uni0104" unicode="&#x0104;" d="M405-122Q405-181 475-181Q501-181 530-174L528-196Q500-203 474-203Q428-203 404.50-181Q381-159 381-123Q381-48 503 5L435 203L121 203L51 0L28 0L265 681L292 681L530 0Q468-27 436.50-54Q405-81 405-122M128 224L428 224L278 663L128 224Z"  horiz-adv-x="557" vert-adv-y="1000"  />

      
      <glyph glyph-name="uni0105" unicode="&#x0105;" d="M451-10Q389-37 357.50-64Q326-91 326-132Q326-191 396-191Q422-191 451-184L449-206Q421-213 395-213Q349-213 325.50-191Q302-169 302-133Q302-91 335-60Q368-29 432-2Q392 21 391 91Q334-10 222-10Q149-10 107.50 32Q66 74 66 144Q66 222 121 265Q176 308 270 308L388 308L388 370Q388 440 357.50 474.50Q327 509 255 509Q192 509 112 476L105 495Q187 529 255 529Q336 529 373 489.50Q410 450 410 372L410 110Q410 59 420.50 37Q431 15 457 6L451-10M222 11Q333 11 388 119L388 288L274 288Q187 288 138.50 251Q90 214 90 144Q90 82 125.50 46.50Q161 11 222 11Z"  horiz-adv-x="528" vert-adv-y="1000"  />

      
      <glyph glyph-name="uni0106" unicode="&#x0106;" d="M423 861L434 838L255 764L248 779L423 861M344 691Q435 691 505 633L492 617Q425 670 346 670Q236 670 168.50 587.50Q101 505 101 340Q101 183 168 97.50Q235 12 342 12Q429 12 499 71L513 54Q438-10 342-10Q224-10 151 82Q78 174 78 340Q78 511 152 601Q226 691 344 691Z"  horiz-adv-x="538" vert-adv-y="1000"  />

      
      <glyph glyph-name="uni0107" unicode="&#x0107;" d="M355 761L365 738L187 654L179 670L355 761M283 529Q362 529 418 479L405 464Q354 509 284 509Q199 509 147.50 443Q96 377 96 257Q96 139 147.50 75Q199 11 283 11Q355 11 410 59L423 44Q362-10 284-10Q189-10 131 61Q73 132 73 257Q73 383 130 456Q187 529 283 529Z"  horiz-adv-x="464" vert-adv-y="1000"  />

      
      <glyph glyph-name="uni0108" unicode="&#x0108;" d="M227 766L216 780L336 869L348 869L468 780L456 766L342 845L227 766M344 691Q435 691 505 633L492 617Q425 670 346 670Q236 670 168.50 587.50Q101 505 101 340Q101 183 168 97.50Q235 12 342 12Q429 12 499 71L513 54Q438-10 342-10Q224-10 151 82Q78 174 78 340Q78 511 152 601Q226 691 344 691Z"  horiz-adv-x="538" vert-adv-y="1000"  />

      
      <glyph glyph-name="uni0109" unicode="&#x0109;" d="M166 654L155 667L275 762L287 762L407 667L395 654L281 738L166 654M283 529Q362 529 418 479L405 464Q354 509 284 509Q199 509 147.50 443Q96 377 96 257Q96 139 147.50 75Q199 11 283 11Q355 11 410 59L423 44Q362-10 284-10Q189-10 131 61Q73 132 73 257Q73 383 130 456Q187 529 283 529Z"  horiz-adv-x="464" vert-adv-y="1000"  />

      
      <glyph glyph-name="uni010A" unicode="&#x010A;" d="M342 850Q363 850 363 830Q363 811 342 811Q333 811 327.50 816.50Q322 822 322 830Q322 838 327.50 844Q333 850 342 850M344 691Q435 691 505 633L492 617Q425 670 346 670Q236 670 168.50 587.50Q101 505 101 340Q101 183 168 97.50Q235 12 342 12Q429 12 499 71L513 54Q438-10 342-10Q224-10 151 82Q78 174 78 340Q78 511 152 601Q226 691 344 691Z"  horiz-adv-x="538" vert-adv-y="1000"  />

      
      <glyph glyph-name="uni010B" unicode="&#x010B;" d="M281 724Q302 724 302 704Q302 685 281 685Q272 685 266.50 690.50Q261 696 261 704Q261 712 266.50 718Q272 724 281 724M283 529Q362 529 418 479L405 464Q354 509 284 509Q199 509 147.50 443Q96 377 96 257Q96 139 147.50 75Q199 11 283 11Q355 11 410 59L423 44Q362-10 284-10Q189-10 131 61Q73 132 73 257Q73 383 130 456Q187 529 283 529Z"  horiz-adv-x="464" vert-adv-y="1000"  />

      
      <glyph glyph-name="uni010C" unicode="&#x010C;" d="M456 863L468 850L348 760L336 760L216 850L227 863L342 784L456 863M344 691Q435 691 505 633L492 617Q425 670 346 670Q236 670 168.50 587.50Q101 505 101 340Q101 183 168 97.50Q235 12 342 12Q429 12 499 71L513 54Q438-10 342-10Q224-10 151 82Q78 174 78 340Q78 511 152 601Q226 691 344 691Z"  horiz-adv-x="538" vert-adv-y="1000"  />

      
      <glyph glyph-name="uni010D" unicode="&#x010D;" d="M395 749L407 736L287 641L275 641L155 736L166 749L281 665L395 749M283 529Q362 529 418 479L405 464Q354 509 284 509Q199 509 147.50 443Q96 377 96 257Q96 139 147.50 75Q199 11 283 11Q355 11 410 59L423 44Q362-10 284-10Q189-10 131 61Q73 132 73 257Q73 383 130 456Q187 529 283 529Z"  horiz-adv-x="464" vert-adv-y="1000"  />

      
      <glyph glyph-name="uni010E" unicode="&#x010E;" d="M409 863L421 850L301 760L289 760L169 850L180 863L295 784L409 863M245 681Q293 681 332 673.50Q371 666 411.50 644Q452 622 479.50 586Q507 550 524.50 489.50Q542 429 542 348Q542 266 524 203Q506 140 478 102Q450 64 410 40.50Q370 17 331.50 8.50Q293 0 249 0L123 0L123 681L245 681M243 660L146 660L146 21L250 21Q303 21 347.50 35.50Q392 50 432 84Q472 118 495 185.50Q518 253 518 348Q518 426 501.50 483.50Q485 541 460 574Q435 607 397 627Q359 647 323 653.50Q287 660 243 660Z"  horiz-adv-x="619" vert-adv-y="1000"  />

      
      <glyph glyph-name="uni010F" unicode="&#x010F;" d="M434 446L434 736L456 733L456 0L437 0L434 89Q380-10 270-10Q182-10 130 61.50Q78 133 78 258Q78 380 132 454.50Q186 529 280 529Q379 529 434 446M549 735L573 733L546 588L531 591L549 735M271 11Q377 11 434 123L434 418Q376 509 281 509Q199 509 149.50 441Q100 373 101 258Q101 141 146.50 76Q192 11 271 11Z"  horiz-adv-x="574" vert-adv-y="1000"  />

      
      <glyph glyph-name="uni0110" unicode="&#x0110;" d="M243 681Q291 681 330 673.50Q369 666 409.50 644Q450 622 477.50 586Q505 550 522.50 489.50Q540 429 540 348Q540 266 522 203Q504 140 476 102Q448 64 408 40.50Q368 17 329.50 8.50Q291 0 247 0L121 0L121 341L26 341L26 363L121 363L121 681L243 681M248 21Q301 21 345.50 35.50Q390 50 430 84Q470 118 493 185.50Q516 253 516 348Q516 426 499.50 483.50Q483 541 458 574Q433 607 395 627Q357 647 321 653.50Q285 660 241 660L144 660L144 363L335 363L335 341L144 341L144 21L248 21Z"  horiz-adv-x="617" vert-adv-y="1000"  />

      
      <glyph glyph-name="uni0111" unicode="&#x0111;" d="M456 649L531 649L531 629L456 629L456 0L437 0L434 89Q380-10 270-10Q182-10 130 61.50Q78 133 78 258Q78 380 132 454.50Q186 529 280 529Q379 529 434 446L434 629L261 629L261 649L434 649L434 736L456 733L456 649M271 11Q377 11 434 123L434 418Q376 509 281 509Q199 509 149.50 441Q100 373 101 258Q101 141 146.50 76Q192 11 271 11Z"  horiz-adv-x="579" vert-adv-y="1000"  />

      
      <glyph glyph-name="uni0112" unicode="&#x0112;" d="M390 811L183 811L183 832L390 832L390 811M444 681L441 660L146 660L146 370L400 370L400 349L146 349L146 21L451 21L451 0L123 0L123 681L444 681Z"  horiz-adv-x="494" vert-adv-y="1000"  />

      
      <glyph glyph-name="uni0113" unicode="&#x0113;" d="M378 706L378 685L171 685L171 706L378 706M461 284Q461 268 459 246L96 246Q100 130 149.50 70.50Q199 11 280 11Q358 11 427 68L439 51Q367-10 280-10Q185-10 129 60Q73 130 73 255Q73 382 127 455.50Q181 529 272 529Q365 529 413 463Q461 397 461 284M439 265L439 292Q439 391 397.50 450Q356 509 274 509Q196 509 147 446.50Q98 384 96 265L439 265Z"  horiz-adv-x="529" vert-adv-y="1000"  />

      
      <glyph glyph-name="uni0114" unicode="&#x0114;" d="M358.50 793Q358.50 793 343.75 782Q329 771 287 771Q245 771 216 793Q187 815 179 847L195 851Q218 792 287 792Q321 792 345.50 808.50Q370 825 379 851L395 847Q388 815 358.50 793M444 681L441 660L146 660L146 370L400 370L400 349L146 349L146 21L451 21L451 0L123 0L123 681L444 681Z"  horiz-adv-x="494" vert-adv-y="1000"  />

      
      <glyph glyph-name="uni0115" unicode="&#x0115;" d="M275 662Q233 662 204 686Q175 710 167 748L183 752Q203 684 275 684Q348 684 367 752L383 748Q376 710 347 686Q318 662 275 662M461 284Q461 268 459 246L96 246Q100 130 149.50 70.50Q199 11 280 11Q358 11 427 68L439 51Q367-10 280-10Q185-10 129 60Q73 130 73 255Q73 382 127 455.50Q181 529 272 529Q365 529 413 463Q461 397 461 284M439 265L439 292Q439 391 397.50 450Q356 509 274 509Q196 509 147 446.50Q98 384 96 265L439 265Z"  horiz-adv-x="529" vert-adv-y="1000"  />

      
      <glyph glyph-name="uni0116" unicode="&#x0116;" d="M287 850Q308 850 308 830Q308 811 287 811Q278 811 272.50 816.50Q267 822 267 830Q267 838 272.50 844Q278 850 287 850M444 681L441 660L146 660L146 370L400 370L400 349L146 349L146 21L451 21L451 0L123 0L123 681L444 681Z"  horiz-adv-x="494" vert-adv-y="1000"  />

      
      <glyph glyph-name="uni0117" unicode="&#x0117;" d="M275 685Q266 685 260.50 690.50Q255 696 255 704Q255 712 260.50 718Q266 724 275 724Q296 724 296 704Q296 685 275 685M461 284Q461 268 459 246L96 246Q100 130 149.50 70.50Q199 11 280 11Q358 11 427 68L439 51Q367-10 280-10Q185-10 129 60Q73 130 73 255Q73 382 127 455.50Q181 529 272 529Q365 529 413 463Q461 397 461 284M439 265L439 292Q439 391 397.50 450Q356 509 274 509Q196 509 147 446.50Q98 384 96 265L439 265Z"  horiz-adv-x="529" vert-adv-y="1000"  />

      
      <glyph glyph-name="uni0118" unicode="&#x0118;" d="M146 21L451 21L451 0L424 0Q362-27 330.50-54Q299-81 299-122Q299-181 369-181Q395-181 424-174L422-196Q394-203 368-203Q322-203 298.50-181Q275-159 275-123Q275-51 386 0L123 0L123 681L444 681L441 660L146 660L146 370L400 370L400 349L146 349L146 21Z"  horiz-adv-x="494" vert-adv-y="1000"  />

      
      <glyph glyph-name="uni0119" unicode="&#x0119;" d="M461 284Q461 268 459 246L96 246Q100 130 149.50 70.50Q199 11 280 11Q358 11 427 68L439 51Q397 16 352 0Q296-25 266.50-51.50Q237-78 237-116Q237-144 256-160Q275-176 309-176Q333-176 362-169L360-191Q331-198 306-198Q260-198 236.50-175.50Q213-153 213-116Q213-54 299-9Q293-10 280-10Q185-10 129 60Q73 130 73 255Q73 382 127 455.50Q181 529 272 529Q365 529 413 463Q461 397 461 284M439 265L439 292Q439 391 397.50 450Q356 509 274 509Q196 509 147 446.50Q98 384 96 265L439 265Z"  horiz-adv-x="529" vert-adv-y="1000"  />

      
      <glyph glyph-name="uni011A" unicode="&#x011A;" d="M401 863L413 850L293 760L281 760L161 850L172 863L287 784L401 863M444 681L441 660L146 660L146 370L400 370L400 349L146 349L146 21L451 21L451 0L123 0L123 681L444 681Z"  horiz-adv-x="494" vert-adv-y="1000"  />

      
      <glyph glyph-name="uni011B" unicode="&#x011B;" d="M281 641L269 641L149 736L160 749L275 665L389 749L401 736L281 641M461 284Q461 268 459 246L96 246Q100 130 149.50 70.50Q199 11 280 11Q358 11 427 68L439 51Q367-10 280-10Q185-10 129 60Q73 130 73 255Q73 382 127 455.50Q181 529 272 529Q365 529 413 463Q461 397 461 284M439 265L439 292Q439 391 397.50 450Q356 509 274 509Q196 509 147 446.50Q98 384 96 265L439 265Z"  horiz-adv-x="529" vert-adv-y="1000"  />

      
      <glyph glyph-name="uni011C" unicode="&#x011C;" d="M231 766L220 780L340 869L352 869L472 780L460 766L346 845L231 766M348 691Q441 691 516 632L503 616Q433 670 348 670Q247 670 174 588Q101 506 101 345Q101 182 168.50 97Q236 12 353 12Q439 12 510 53L510 333L365 333L362 354L533 354L533 41Q446-10 353-10Q227-10 152.50 81.50Q78 173 78 345Q78 512 158 601.50Q238 691 348 691Z"  horiz-adv-x="605" vert-adv-y="1000"  />

      
      <glyph glyph-name="uni011D" unicode="&#x011D;" d="M130 654L119 667L239 762L251 762L371 667L359 654L245 738L130 654M463 550L471 526Q417 512 318 512Q422 476 422 356Q422 279 374.50 234.50Q327 190 245 190Q208 190 171 204Q119 175 119 129Q119 64 218 64L305 64Q377 64 417.50 31Q458-2 458-57Q458-197 251-197Q142-197 93-165Q44-133 44-58L66-58Q67-124 108.50-150Q150-176 251-176Q436-176 436-58Q436-11 401 16Q366 43 304 43L216 43Q158 43 127 66Q96 89 96 126Q96 176 153 212Q66 257 66 358Q66 435 114 482Q162 529 243 529Q314 529 358.50 531.50Q403 534 420 538Q437 542 463 550M244 509Q169 509 128.50 467.50Q88 426 88 358Q88 288 133 249Q178 210 245 210Q317 210 358 248.50Q399 287 399 356Q399 428 357.50 468.50Q316 509 244 509Z"  horiz-adv-x="488" vert-adv-y="1000"  />

      
      <glyph glyph-name="uni011E" unicode="&#x011E;" d="M417.50 793Q417.50 793 402.75 782Q388 771 346 771Q304 771 275 793Q246 815 238 847L254 851Q277 792 346 792Q380 792 404.50 808.50Q429 825 438 851L454 847Q447 815 417.50 793M348 691Q441 691 516 632L503 616Q433 670 348 670Q247 670 174 588Q101 506 101 345Q101 182 168.50 97Q236 12 353 12Q439 12 510 53L510 333L365 333L362 354L533 354L533 41Q446-10 353-10Q227-10 152.50 81.50Q78 173 78 345Q78 512 158 601.50Q238 691 348 691Z"  horiz-adv-x="605" vert-adv-y="1000"  />

      
      <glyph glyph-name="uni011F" unicode="&#x011F;" d="M245 662Q203 662 174 686Q145 710 137 748L153 752Q173 684 245 684Q318 684 337 752L353 748Q346 710 317 686Q288 662 245 662M463 550L471 526Q417 512 318 512Q422 476 422 356Q422 279 374.50 234.50Q327 190 245 190Q208 190 171 204Q119 175 119 129Q119 64 218 64L305 64Q377 64 417.50 31Q458-2 458-57Q458-197 251-197Q142-197 93-165Q44-133 44-58L66-58Q67-124 108.50-150Q150-176 251-176Q436-176 436-58Q436-11 401 16Q366 43 304 43L216 43Q158 43 127 66Q96 89 96 126Q96 176 153 212Q66 257 66 358Q66 435 114 482Q162 529 243 529Q314 529 358.50 531.50Q403 534 420 538Q437 542 463 550M244 509Q169 509 128.50 467.50Q88 426 88 358Q88 288 133 249Q178 210 245 210Q317 210 358 248.50Q399 287 399 356Q399 428 357.50 468.50Q316 509 244 509Z"  horiz-adv-x="488" vert-adv-y="1000"  />

      
      <glyph glyph-name="uni0120" unicode="&#x0120;" d="M346 850Q367 850 367 830Q367 811 346 811Q337 811 331.50 816.50Q326 822 326 830Q326 838 331.50 844Q337 850 346 850M348 691Q441 691 516 632L503 616Q433 670 348 670Q247 670 174 588Q101 506 101 345Q101 182 168.50 97Q236 12 353 12Q439 12 510 53L510 333L365 333L362 354L533 354L533 41Q446-10 353-10Q227-10 152.50 81.50Q78 173 78 345Q78 512 158 601.50Q238 691 348 691Z"  horiz-adv-x="605" vert-adv-y="1000"  />

      
      <glyph glyph-name="uni0121" unicode="&#x0121;" d="M245 724Q266 724 266 704Q266 685 245 685Q236 685 230.50 690.50Q225 696 225 704Q225 712 230.50 718Q236 724 245 724M463 550L471 526Q417 512 318 512Q422 476 422 356Q422 279 374.50 234.50Q327 190 245 190Q208 190 171 204Q119 175 119 129Q119 64 218 64L305 64Q377 64 417.50 31Q458-2 458-57Q458-197 251-197Q142-197 93-165Q44-133 44-58L66-58Q67-124 108.50-150Q150-176 251-176Q436-176 436-58Q436-11 401 16Q366 43 304 43L216 43Q158 43 127 66Q96 89 96 126Q96 176 153 212Q66 257 66 358Q66 435 114 482Q162 529 243 529Q314 529 358.50 531.50Q403 534 420 538Q437 542 463 550M244 509Q169 509 128.50 467.50Q88 426 88 358Q88 288 133 249Q178 210 245 210Q317 210 358 248.50Q399 287 399 356Q399 428 357.50 468.50Q316 509 244 509Z"  horiz-adv-x="488" vert-adv-y="1000"  />

      
      <glyph glyph-name="uni0122" unicode="&#x0122;" d="M348 691Q441 691 516 632L503 616Q433 670 348 670Q247 670 174 588Q101 506 101 345Q101 182 168.50 97Q236 12 353 12Q439 12 510 53L510 333L365 333L362 354L533 354L533 41Q446-10 353-10Q227-10 152.50 81.50Q78 173 78 345Q78 512 158 601.50Q238 691 348 691M335-96Q360-96 360-119Q360-133 346-162L311-258L296-258L327-142Q311-136 311-119Q311-109 318-102.50Q325-96 335-96Z"  horiz-adv-x="605" vert-adv-y="1000"  />

      
      <glyph glyph-name="uni0123" unicode="&#x0123;" d="M238 595Q213 595 213 618Q213 632 227 661L262 757L277 757L246 641Q262 635 262 618Q262 608 255 601.50Q248 595 238 595M463 550L471 526Q417 512 318 512Q422 476 422 356Q422 279 374.50 234.50Q327 190 245 190Q208 190 171 204Q119 175 119 129Q119 64 218 64L305 64Q377 64 417.50 31Q458-2 458-57Q458-197 251-197Q142-197 93-165Q44-133 44-58L66-58Q67-124 108.50-150Q150-176 251-176Q436-176 436-58Q436-11 401 16Q366 43 304 43L216 43Q158 43 127 66Q96 89 96 126Q96 176 153 212Q66 257 66 358Q66 435 114 482Q162 529 243 529Q314 529 358.50 531.50Q403 534 420 538Q437 542 463 550M244 509Q169 509 128.50 467.50Q88 426 88 358Q88 288 133 249Q178 210 245 210Q317 210 358 248.50Q399 287 399 356Q399 428 357.50 468.50Q316 509 244 509Z"  horiz-adv-x="488" vert-adv-y="1000"  />

      
      <glyph glyph-name="uni0124" unicode="&#x0124;" d="M213 766L202 780L322 869L334 869L454 780L442 766L328 845L213 766M514 0L514 349L146 349L146 0L123 0L123 681L146 681L146 371L514 371L514 681L537 681L537 0L514 0Z"  horiz-adv-x="660" vert-adv-y="1000"  />

      
      <glyph glyph-name="uni0125" unicode="&#x0125;" d="M295 896L180 817L169 831L289 920L301 920L421 831L409 817L295 896M330 529Q399 529 434 487.50Q469 446 469 369L469 0L447 0L447 367Q447 509 330 509Q222 509 140 384L140 0L118 0L118 733L140 736L140 414Q217 529 330 529Z"  horiz-adv-x="581" vert-adv-y="1000"  />

      
      <glyph glyph-name="uni0126" unicode="&#x0126;" d="M599 538L599 520L539 520L539 0L516 0L516 349L148 349L148 0L125 0L125 520L65 520L65 538L125 538L125 681L148 681L148 538L516 538L516 681L539 681L539 538L599 538M516 371L516 520L148 520L148 371L516 371Z"  horiz-adv-x="664" vert-adv-y="1000"  />

      
      <glyph glyph-name="uni0127" unicode="&#x0127;" d="M335 529Q404 529 439 487.50Q474 446 474 369L474 0L452 0L452 367Q452 509 335 509Q227 509 145 384L145 0L123 0L123 629L48 629L48 649L123 649L123 733L145 736L145 649L327 649L327 629L145 629L145 414Q222 529 335 529Z"  horiz-adv-x="586" vert-adv-y="1000"  />

      
      <glyph glyph-name="uni0128" unicode="&#x0128;" d="M192 804Q166 804 128 825.50Q90 847 75 847Q44 847 15 812L1 821Q35 867 75 867Q94 867 132.50 845.50Q171 824 192 824Q222 824 251 865L265 857Q236 804 192 804M146 681L146 0L123 0L123 681L146 681Z"  horiz-adv-x="268" vert-adv-y="1000"  />

      
      <glyph glyph-name="uni0129" unicode="&#x0129;" d="M188 678Q162 678 124 699.50Q86 721 71 721Q40 721 11 686L-3 695Q31 741 71 741Q90 741 128.50 719.50Q167 698 188 698Q218 698 247 739L261 731Q232 678 188 678M140 519L140 0L118 0L118 519L140 519Z"  horiz-adv-x="258" vert-adv-y="1000"  />

      
      <glyph glyph-name="uni012A" unicode="&#x012A;" d="M237 811L30 811L30 832L237 832L237 811M146 681L146 0L123 0L123 681L146 681Z"  horiz-adv-x="268" vert-adv-y="1000"  />

      
      <glyph glyph-name="uni012B" unicode="&#x012B;" d="M232 685L25 685L25 706L232 706L232 685M140 519L140 0L118 0L118 519L140 519Z"  horiz-adv-x="258" vert-adv-y="1000"  />

      
      <glyph glyph-name="uni012C" unicode="&#x012C;" d="M205.50 793Q205.50 793 190.75 782Q176 771 134 771Q92 771 63 793Q34 815 26 847L42 851Q65 792 134 792Q168 792 192.50 808.50Q217 825 226 851L242 847Q235 815 205.50 793M146 681L146 0L123 0L123 681L146 681Z"  horiz-adv-x="268" vert-adv-y="1000"  />

      
      <glyph glyph-name="uni012D" unicode="&#x012D;" d="M129 662Q87 662 58 686Q29 710 21 748L37 752Q57 684 129 684Q202 684 221 752L237 748Q230 710 201 686Q172 662 129 662M140 519L140 0L118 0L118 519L140 519Z"  horiz-adv-x="258" vert-adv-y="1000"  />

      
      <glyph glyph-name="uni012E" unicode="&#x012E;" d="M146 0Q84-27 52.50-54Q21-81 21-122Q21-181 91-181Q117-181 146-174L144-196Q116-203 90-203Q44-203 20.50-181Q-3-159-3-123Q-3-81 29-50.50Q61-20 123 7L123 681L146 681L146 0Z"  horiz-adv-x="268" vert-adv-y="1000"  />

      
      <glyph glyph-name="uni012F" unicode="&#x012F;" d="M129 724Q150 724 150 704Q150 685 129 685Q120 685 114.50 690.50Q109 696 109 704Q109 712 114.50 718Q120 724 129 724M118 7L118 519L140 519L140 0Q78-27 46.50-54Q15-81 15-122Q15-181 85-181Q111-181 140-174L138-196Q110-203 84-203Q38-203 14.50-181Q-9-159-9-123Q-9-46 118 7Z"  horiz-adv-x="258" vert-adv-y="1000"  />

      
      <glyph glyph-name="uni0130" unicode="&#x0130;" d="M134 850Q155 850 155 830Q155 811 134 811Q125 811 119.50 816.50Q114 822 114 830Q114 838 119.50 844Q125 850 134 850M146 681L146 0L123 0L123 681L146 681Z"  horiz-adv-x="268" vert-adv-y="1000"  />

      
      <glyph glyph-name="uni0131" unicode="&#x0131;" d="M140 519L140 0L118 0L118 519L140 519Z"  horiz-adv-x="258" vert-adv-y="1000"  />

      
      <glyph glyph-name="uni0132" unicode="&#x0132;" d="M146 681L146 0L123 0L123 681L146 681M429 681L429 87Q429 10 403.50-27.50Q378-65 298-100L291-83Q360-51 383-16Q406 19 406 89L406 681L429 681Z"  horiz-adv-x="545" vert-adv-y="1000"  />

      
      <glyph glyph-name="uni0133" unicode="&#x0133;" d="M129 724Q150 724 150 704Q150 685 129 685Q120 685 114.50 690.50Q109 696 109 704Q109 712 114.50 718Q120 724 129 724M387 724Q408 724 408 704Q408 685 387 685Q378 685 372.50 690.50Q367 696 367 704Q367 712 372.50 718Q378 724 387 724M140 519L140 0L118 0L118 519L140 519M399 519L399 6Q399-56 385.50-94.50Q372-133 350.50-153Q329-173 286-195L280-178Q335-149 356-113Q377-77 377 7L377 519L399 519Z"  horiz-adv-x="516" vert-adv-y="1000"  />

      
      <glyph glyph-name="uni0134" unicode="&#x0134;" d="M33 766L22 780L142 869L154 869L274 780L262 766L148 845L33 766M161 681L161 87Q161 10 135.50-27.50Q110-65 30-100L23-83Q92-51 115-16Q138 19 138 89L138 681L161 681Z"  horiz-adv-x="277" vert-adv-y="1000"  />

      
      <glyph glyph-name="uni0135" unicode="&#x0135;" d="M14 654L3 667L123 762L135 762L255 667L243 654L129 738L14 654M141 519L141 6Q141-56 127.50-94.50Q114-133 92.50-153Q71-173 28-195L22-178Q77-149 98-113Q119-77 119 7L119 519L141 519Z"  horiz-adv-x="258" vert-adv-y="1000"  />

      
      <glyph glyph-name="uni0136" unicode="&#x0136;" d="M146 681L146 0L123 0L123 681L146 681M490 681L178 367L506 0L478 0L149 367L463 681L490 681M293-96Q318-96 318-119Q318-133 304-162L269-258L254-258L285-142Q269-136 269-119Q269-109 276-102.50Q283-96 293-96Z"  horiz-adv-x="510" vert-adv-y="1000"  />

      
      <glyph glyph-name="uni0137" unicode="&#x0137;" d="M140 736L140 0L118 0L118 733L140 736M420 519L174 284L445 0L418 0L146 284L392 519L420 519M267-96Q292-96 292-119Q292-133 278-162L243-258L228-258L259-142Q243-136 243-119Q243-109 250-102.50Q257-96 267-96Z"  horiz-adv-x="463" vert-adv-y="1000"  />

      
      <glyph glyph-name="uni0138" unicode="&#x0138;" d="M140 519L140 0L118 0L118 519L140 519M420 519L173 274L445 0L417 0L145 274L392 519L420 519Z"  horiz-adv-x="462" vert-adv-y="1000"  />

      
      <glyph glyph-name="uni0139" unicode="&#x0139;" d="M216 861L227 838L48 764L41 779L216 861M146 681L146 22L434 22L430 0L123 0L123 681L146 681Z"  horiz-adv-x="456" vert-adv-y="1000"  />

      
      <glyph glyph-name="uni013A" unicode="&#x013A;" d="M205 913L216 890L37 816L30 831L205 913M185-10Q152-10 132.50 10.50Q113 31 113 72L113 733L135 736L135 73Q135 11 186 11Q207 11 226 19L232 0Q206-10 185-10Z"  horiz-adv-x="276" vert-adv-y="1000"  />

      
      <glyph glyph-name="uni013B" unicode="&#x013B;" d="M146 681L146 22L434 22L430 0L123 0L123 681L146 681M277-96Q302-96 302-119Q302-133 288-162L253-258L238-258L269-142Q253-136 253-119Q253-109 260-102.50Q267-96 277-96Z"  horiz-adv-x="456" vert-adv-y="1000"  />

      
      <glyph glyph-name="uni013C" unicode="&#x013C;" d="M185-10Q152-10 132.50 10.50Q113 31 113 72L113 733L135 736L135 73Q135 11 186 11Q207 11 226 19L232 0Q206-10 185-10M177-96Q202-96 202-119Q202-133 188-162L153-258L138-258L169-142Q153-136 153-119Q153-109 160-102.50Q167-96 177-96Z"  horiz-adv-x="276" vert-adv-y="1000"  />

      
      <glyph glyph-name="uni013D" unicode="&#x013D;" d="M235 537L262 682L238 684L220 540L235 537M146 681L146 22L434 22L430 0L123 0L123 681L146 681Z"  horiz-adv-x="456" vert-adv-y="1000"  />

      
      <glyph glyph-name="uni013E" unicode="&#x013E;" d="M185-10Q152-10 132.50 10.50Q113 31 113 72L113 733L135 736L135 73Q135 11 186 11Q207 11 226 19L232 0Q206-10 185-10M227 588L254 733L230 735L212 591L227 588Z"  horiz-adv-x="276" vert-adv-y="1000"  />

      
      <glyph glyph-name="uni013F" unicode="&#x013F;" d="M146 681L146 22L434 22L430 0L123 0L123 681L146 681M351 374Q372 374 372 354Q372 335 351 335Q342 335 336.50 340.50Q331 346 331 354Q331 362 336.50 368Q342 374 351 374Z"  horiz-adv-x="456" vert-adv-y="1000"  />

      
      <glyph glyph-name="uni0140" unicode="&#x0140;" d="M185-10Q152-10 132.50 10.50Q113 31 113 72L113 733L135 736L135 73Q135 11 186 11Q207 11 226 19L232 0Q206-10 185-10M260 395Q281 395 281 375Q281 356 260 356Q251 356 245.50 361.50Q240 367 240 375Q240 383 245.50 389Q251 395 260 395Z"  horiz-adv-x="276" vert-adv-y="1000"  />

      
      <glyph glyph-name="uni0141" unicode="&#x0141;" d="M151 22L439 22L435 0L128 0L128 308L54 262L45 279L128 330L128 681L151 681L151 344L351 470L361 453L151 322L151 22Z"  horiz-adv-x="461" vert-adv-y="1000"  />

      
      <glyph glyph-name="uni0142" unicode="&#x0142;" d="M193 11Q214 11 233 19L239 0Q213-10 192-10Q159-10 139.50 10.50Q120 31 120 72L120 346L55 306L45 321L120 368L120 733L142 736L142 382L247 447L257 431L142 360L142 73Q142 11 193 11Z"  horiz-adv-x="289" vert-adv-y="1000"  />

      
      <glyph glyph-name="uni0143" unicode="&#x0143;" d="M418 861L429 838L250 764L243 779L418 861M538 681L538 0L510 0L142 656Q145 604 145 477L145 0L123 0L123 681L152 681L519 26Q516 146 516 205L516 681L538 681Z"  horiz-adv-x="661" vert-adv-y="1000"  />

      
      <glyph glyph-name="uni0144" unicode="&#x0144;" d="M380 738L202 654L194 670L370 761L380 738M330 529Q469 529 469 369L469 0L447 0L447 367Q447 509 330 509Q222 509 140 384L140 0L118 0L118 519L137 519L139 413Q217 529 330 529Z"  horiz-adv-x="581" vert-adv-y="1000"  />

      
      <glyph glyph-name="uni0145" unicode="&#x0145;" d="M538 681L538 0L510 0L142 656Q145 604 145 477L145 0L123 0L123 681L152 681L519 26Q516 146 516 205L516 681L538 681M327-96Q352-96 352-119Q352-133 338-162L303-258L288-258L319-142Q303-136 303-119Q303-109 310-102.50Q317-96 327-96Z"  horiz-adv-x="661" vert-adv-y="1000"  />

      
      <glyph glyph-name="uni0146" unicode="&#x0146;" d="M330 529Q469 529 469 369L469 0L447 0L447 367Q447 509 330 509Q222 509 140 384L140 0L118 0L118 519L137 519L139 413Q217 529 330 529M287-96Q312-96 312-119Q312-133 298-162L263-258L248-258L279-142Q263-136 263-119Q263-109 270-102.50Q277-96 287-96Z"  horiz-adv-x="581" vert-adv-y="1000"  />

      
      <glyph glyph-name="uni0147" unicode="&#x0147;" d="M451 863L463 850L343 760L331 760L211 850L222 863L337 784L451 863M538 681L538 0L510 0L142 656Q145 604 145 477L145 0L123 0L123 681L152 681L519 26Q516 146 516 205L516 681L538 681Z"  horiz-adv-x="661" vert-adv-y="1000"  />

      
      <glyph glyph-name="uni0148" unicode="&#x0148;" d="M302 641L290 641L170 736L181 749L296 665L410 749L422 736L302 641M330 529Q469 529 469 369L469 0L447 0L447 367Q447 509 330 509Q222 509 140 384L140 0L118 0L118 519L137 519L139 413Q217 529 330 529Z"  horiz-adv-x="581" vert-adv-y="1000"  />

      
      <glyph glyph-name="uni0149" unicode="&#x0149;" d="M94 737Q119 737 119 713Q119 709 105 670L75 570L60 570L86 690Q70 695 70 713Q70 723 76.50 730Q83 737 94 737M389 529Q528 529 528 369L528 0L506 0L506 367Q506 509 389 509Q281 509 199 384L199 0L177 0L177 519L196 519L198 413Q276 529 389 529Z"  horiz-adv-x="641" vert-adv-y="1000"  />

      
      <glyph glyph-name="uni014A" unicode="&#x014A;" d="M516 681L538 681L538-86Q538-140 511-168.50Q484-197 440-197Q392-197 352-167L363-151Q397-176 440-176Q515-176 515-85L515 0L510 0L142 656Q145 604 145 477L145 0L123 0L123 681L152 681L519 26Q516 146 516 205L516 681Z"  horiz-adv-x="661" vert-adv-y="1000"  />

      
      <glyph glyph-name="uni014B" unicode="&#x014B;" d="M330 529Q469 529 469 369L469-86Q469-140 442-168.50Q415-197 371-197Q323-197 283-167L294-152Q328-177 371-177Q405-177 426-155Q447-133 447-86L447 367Q447 509 330 509Q222 509 140 384L140 0L118 0L118 519L137 519L139 413Q217 529 330 529Z"  horiz-adv-x="581" vert-adv-y="1000"  />

      
      <glyph glyph-name="uni014C" unicode="&#x014C;" d="M448 811L241 811L241 832L448 832L448 811M344 691Q467 691 539 600Q611 509 611 340Q611 175 540.50 82.50Q470-10 344-10Q223-10 150.50 82Q78 174 78 339Q78 504 151 597.50Q224 691 344 691M344 670Q233 670 167 583.50Q101 497 101 339Q101 183 167 97.50Q233 12 344 12Q460 12 524 96.50Q588 181 588 340Q588 500 522.50 585Q457 670 344 670Z"  horiz-adv-x="689" vert-adv-y="1000"  />

      
      <glyph glyph-name="uni014D" unicode="&#x014D;" d="M384 685L177 685L177 706L384 706L384 685M281 529Q377 529 432.50 459.50Q488 390 488 262Q488 134 432 62Q376-10 280-10Q183-10 128 61.50Q73 133 73 259Q73 386 129.50 457.50Q186 529 281 529M281 509Q195 509 145.50 444Q96 379 96 259Q96 141 144.50 76Q193 11 280 11Q366 11 415.50 76Q465 141 465 262Q465 380 416.50 444.50Q368 509 281 509Z"  horiz-adv-x="560" vert-adv-y="1000"  />

      
      <glyph glyph-name="uni014E" unicode="&#x014E;" d="M416.50 793Q416.50 793 401.75 782Q387 771 345 771Q303 771 274 793Q245 815 237 847L253 851Q276 792 345 792Q379 792 403.50 808.50Q428 825 437 851L453 847Q446 815 416.50 793M344 691Q467 691 539 600Q611 509 611 340Q611 175 540.50 82.50Q470-10 344-10Q223-10 150.50 82Q78 174 78 339Q78 504 151 597.50Q224 691 344 691M344 670Q233 670 167 583.50Q101 497 101 339Q101 183 167 97.50Q233 12 344 12Q460 12 524 96.50Q588 181 588 340Q588 500 522.50 585Q457 670 344 670Z"  horiz-adv-x="689" vert-adv-y="1000"  />

      
      <glyph glyph-name="uni014F" unicode="&#x014F;" d="M281 662Q239 662 210 686Q181 710 173 748L189 752Q209 684 281 684Q354 684 373 752L389 748Q382 710 353 686Q324 662 281 662M281 529Q377 529 432.50 459.50Q488 390 488 262Q488 134 432 62Q376-10 280-10Q183-10 128 61.50Q73 133 73 259Q73 386 129.50 457.50Q186 529 281 529M281 509Q195 509 145.50 444Q96 379 96 259Q96 141 144.50 76Q193 11 280 11Q366 11 415.50 76Q465 141 465 262Q465 380 416.50 444.50Q368 509 281 509Z"  horiz-adv-x="560" vert-adv-y="1000"  />

      
      <glyph glyph-name="uni0150" unicode="&#x0150;" d="M450 917L473 906L395 778L379 787L450 917M341 916L363 904L292 782L276 790L341 916M344 691Q467 691 539 600Q611 509 611 340Q611 175 540.50 82.50Q470-10 344-10Q223-10 150.50 82Q78 174 78 339Q78 504 151 597.50Q224 691 344 691M344 670Q233 670 167 583.50Q101 497 101 339Q101 183 167 97.50Q233 12 344 12Q460 12 524 96.50Q588 181 588 340Q588 500 522.50 585Q457 670 344 670Z"  horiz-adv-x="689" vert-adv-y="1000"  />

      
      <glyph glyph-name="uni0151" unicode="&#x0151;" d="M389 791L412 780L334 652L318 661L389 791M280 790L302 778L231 656L215 664L280 790M281 529Q377 529 432.50 459.50Q488 390 488 262Q488 134 432 62Q376-10 280-10Q183-10 128 61.50Q73 133 73 259Q73 386 129.50 457.50Q186 529 281 529M281 509Q195 509 145.50 444Q96 379 96 259Q96 141 144.50 76Q193 11 280 11Q366 11 415.50 76Q465 141 465 262Q465 380 416.50 444.50Q368 509 281 509Z"  horiz-adv-x="560" vert-adv-y="1000"  />

      
      <glyph glyph-name="uni0152" unicode="&#x0152;" d="M802 21L802 0L397 0Q368-10 332-10Q218-10 148 82Q78 174 78 339Q78 503 148.50 597Q219 691 332 691Q373 691 403 681L795 681L792 660L448 660Q582 586 588 370L751 370L751 349L588 349Q587 93 445 21L802 21M101 339Q101 184 165 98Q229 12 332 12Q442 12 503.50 99Q565 186 565 352Q565 503 501.50 586.50Q438 670 332 670Q229 670 165 583Q101 496 101 339Z"  horiz-adv-x="845" vert-adv-y="1000"  />

      
      <glyph glyph-name="uni0153" unicode="&#x0153;" d="M853 284Q853 268 851 246L488 246Q492 130 541.50 70.50Q591 11 672 11Q750 11 819 68L831 51Q759-10 672-10Q598-10 547 35Q496 80 476 159Q456 79 405 34.50Q354-10 280-10Q183-10 128 61.50Q73 133 73 259Q73 386 129.50 457.50Q186 529 281 529Q355 529 406 484.50Q457 440 477 360Q497 439 545.50 484Q594 529 664 529Q757 529 805 463Q853 397 853 284M280 11Q366 11 415.50 76.50Q465 142 465 262Q465 380 416.50 444.50Q368 509 281 509Q195 509 145.50 444Q96 379 96 259Q96 142 144.50 76.50Q193 11 280 11M831 265L831 292Q831 391 789.50 450Q748 509 666 509Q588 509 539 446.50Q490 384 488 265L831 265Z"  horiz-adv-x="921" vert-adv-y="1000"  />

      
      <glyph glyph-name="uni0154" unicode="&#x0154;" d="M376 838L197 764L190 779L365 861L376 838M501 0L313 324L146 324L146 0L123 0L123 681L272 681Q496 681 496 504Q496 355 337 327L528 0L501 0M146 345L287 345Q374 345 423.50 384.50Q473 424 473 504Q473 581 425.50 620.50Q378 660 269 660L146 660L146 345Z"  horiz-adv-x="572" vert-adv-y="1000"  />

      
      <glyph glyph-name="uni0155" unicode="&#x0155;" d="M313 738L135 654L127 670L303 761L313 738M294 529Q321 529 345 523L340 504Q318 509 294 509Q237 509 201 469.50Q165 430 140 344L140 0L118 0L118 519L137 519L138 390Q160 462 197.50 495.50Q235 529 294 529Z"  horiz-adv-x="362" vert-adv-y="1000"  />

      
      <glyph glyph-name="uni0156" unicode="&#x0156;" d="M337 327L528 0L501 0L313 324L146 324L146 0L123 0L123 681L272 681Q496 681 496 504Q496 355 337 327M146 345L287 345Q374 345 423.50 384.50Q473 424 473 504Q473 581 425.50 620.50Q378 660 269 660L146 660L146 345M302-96Q327-96 327-119Q327-133 313-162L278-258L263-258L294-142Q278-136 278-119Q278-109 285-102.50Q292-96 302-96Z"  horiz-adv-x="572" vert-adv-y="1000"  />

      
      <glyph glyph-name="uni0157" unicode="&#x0157;" d="M294 529Q321 529 345 523L340 504Q318 509 294 509Q237 509 201 469.50Q165 430 140 344L140 0L118 0L118 519L137 519L138 390Q160 462 197.50 495.50Q235 529 294 529M127-96Q152-96 152-119Q152-133 138-162L103-258L88-258L119-142Q103-136 103-119Q103-109 110-102.50Q117-96 127-96Z"  horiz-adv-x="362" vert-adv-y="1000"  />

      
      <glyph glyph-name="uni0158" unicode="&#x0158;" d="M290 760L278 760L158 850L169 863L284 784L398 863L410 850L290 760M501 0L313 324L146 324L146 0L123 0L123 681L272 681Q496 681 496 504Q496 355 337 327L528 0L501 0M146 345L287 345Q374 345 423.50 384.50Q473 424 473 504Q473 581 425.50 620.50Q378 660 269 660L146 660L146 345Z"  horiz-adv-x="572" vert-adv-y="1000"  />

      
      <glyph glyph-name="uni0159" unicode="&#x0159;" d="M235 641L223 641L103 736L114 749L229 665L343 749L355 736L235 641M138 390Q160 462 197.50 495.50Q235 529 294 529Q321 529 345 523L340 504Q318 509 294 509Q237 509 201 469.50Q165 430 140 344L140 0L118 0L118 519L137 519L138 390Z"  horiz-adv-x="362" vert-adv-y="1000"  />

      
      <glyph glyph-name="uni015A" unicode="&#x015A;" d="M350 861L361 838L182 764L175 779L350 861M265 691Q323 691 364 674Q405 657 445 622L430 605Q361 670 265 670Q192 670 147.50 632Q103 594 103 534Q103 473 140 440.50Q177 408 274 378Q379 346 422.50 304Q466 262 466 182Q466 97 408 43.50Q350-10 258-10Q144-10 54 72L69 87Q151 12 257 12Q341 12 392.50 58Q444 104 444 181Q444 253 405 290Q366 327 266 358Q161 391 120.50 428.50Q80 466 80 534Q80 602 131 646.50Q182 691 265 691Z"  horiz-adv-x="536" vert-adv-y="1000"  />

      
      </font>
</defs>
</svg>
