<?xml version="1.0" standalone="no"?>
  <!DOCTYPE svg PUBLIC "-//W3C//DTD SVG 1.1//EN" "http://www.w3.org/Graphics/SVG/1.1/DTD/svg11.dtd" >
  <svg>
  <metadata>
  Created by font-carrier
  </metadata>
  <defs>
  <font id="FiraSans-Four" horiz-adv-x="1460" vert-adv-y="1460" >
    <font-face
      
      font-family="Fira Sans Four"
      
      font-weight="400"
      
      font-stretch="normal"
      
      units-per-em="1000"
      
      ascent="935"
      
      descent="-265"
      
    />
      <missing-glyph />

      

      
      <glyph glyph-name="uni21" unicode="&#x21;" d="M119 680L119 189L115 189L115 680L119 680M109 4.50Q109 4.50 109 8.75Q109 13 117.50 13Q126 13 126 4.50Q126-4 117.50-4Q109-4 109 4.50Z"  horiz-adv-x="234" vert-adv-y="1000"  />

      
      <glyph glyph-name="uni22" unicode="&#x22;" d="M90 446L89 680L93 680L93 446L90 446M224 446L224 680L228 680L228 446L224 446Z"  horiz-adv-x="317" vert-adv-y="1000"  />

      
      <glyph glyph-name="uni23" unicode="&#x23;" d="M465 465L379 465L346 216L428 216L428 213L345 213L317 0L313 0L341 213L111 213L83 0L79 0L107 213L15 213L15 216L108 216L140 465L52 465L52 469L141 469L166 662L170 662L145 469L375 469L400 662L404 662L379 469L465 469L465 465M342 216L375 465L144 465L112 216L342 216Z"  horiz-adv-x="480" vert-adv-y="1000"  />

      
      <glyph glyph-name="uni24" unicode="&#x24;" d="M449 173Q449 93 396 42.50Q343-8 257-9L257-144L253-144L253-9Q191-9 147 10Q103 29 64 67L66 70Q106 33 148.50 14Q191-5 254-5Q296-5 331.50 8Q367 21 392 44.50Q417 68 431 101Q445 134 445 173Q445 248 403.50 286Q362 324 263 356Q211 373 178.50 388Q146 403 124.50 422Q103 441 94.50 464.50Q86 488 86 521Q86 585 133 627Q180 669 256 669L258 669L258 806L262 806L262 669Q299 669 330 660Q361 651 382 638.50Q403 626 425 607L423 603Q389 634 350 649.50Q311 665 256 665Q181 665 135.50 624Q90 583 90 520.50Q90 458 126.50 425Q163 392 264 360Q314 344 346.50 328.50Q379 313 403 291.50Q427 270 438 241.50Q449 213 449 173Z"  horiz-adv-x="528" vert-adv-y="1000"  />

      
      <glyph glyph-name="uni25" unicode="&#x25;" d="M602 690L605 689L149-10L145-8L602 690M194 670Q223 670 246.50 660Q270 650 286 631Q302 612 310.50 583.50Q319 555 319 520Q319 474 304.50 439Q290 404 261.50 384.50Q233 365 194 365Q136 365 102.50 406.50Q69 448 69 517Q69 565 83.50 599.50Q98 634 126.50 652Q155 670 194 670M194 667Q137 667 105 627.50Q73 588 73 517Q73 449 105.50 409Q138 369 194 369Q251 369 283 410Q315 451 315 520Q315 589 283 628Q251 667 194 667M552 296Q591 296 619 278Q647 260 662 226Q677 192 677 145Q677 75 644 33Q611-9 552-9Q494-9 460.50 32Q427 73 427 142Q427 215 460 255.50Q493 296 552 296M552 292Q495 292 463 252.50Q431 213 431 142Q431 75 463.50 35Q496-5 552-5Q609-5 641 35.50Q673 76 673 145Q673 215 641 253.50Q609 292 552 292Z"  horiz-adv-x="747" vert-adv-y="1000"  />

      
      <glyph glyph-name="uni26" unicode="&#x26;" d="M306 691Q368 691 406.50 651Q445 611 445 550Q445 524 436.50 501.50Q428 479 415.50 462.50Q403 446 379 427.50Q355 409 333.50 395.50Q312 382 275 361L531 118Q578 208 603 348L607 347Q581 206 533 116L655 1L652-2L531 113Q455-9 309-9Q225-9 171.50 38.50Q118 86 118 159Q118 227 154 273Q190 319 268 361Q206 420 184 457Q162 494 162 549Q162 589 180.50 622Q199 655 232 673Q265 691 306 691M306 687Q266 687 234 669.50Q202 652 184 620Q166 588 166 549Q166 495 187 459Q208 423 272 363Q318 390 343.50 406.50Q369 423 394.50 446Q420 469 430.50 494Q441 519 441 550Q441 610 403.50 648.50Q366 687 306 687M271 359Q220 331 188 303.50Q156 276 139 240Q122 204 122 159Q122 88 174 41.50Q226-5 309-5Q451-5 529 116L271 359Z"  horiz-adv-x="714" vert-adv-y="1000"  />

      
      <glyph glyph-name="uni27" unicode="&#x27;" d="M90 446L89 680L93 680L93 446L90 446Z"  horiz-adv-x="183" vert-adv-y="1000"  />

      
      <glyph glyph-name="uni28" unicode="&#x28;" d="M246 825L250 824Q215 773 197 744.50Q179 716 153.50 666.50Q128 617 115 575.50Q102 534 92.50 475Q83 416 83 350Q83 284 92.50 225Q102 166 115 124.50Q128 83 153.50 33.50Q179-16 197-44.50Q215-73 250-124L246-125Q212-75 193.50-46Q175-17 149.50 32.50Q124 82 111 124Q98 166 88.50 225Q79 284 79 350Q79 416 88.50 475Q98 534 111 576Q124 618 149.50 667.50Q175 717 193.50 746Q212 775 246 825Z"  horiz-adv-x="329" vert-adv-y="1000"  />

      
      <glyph glyph-name="uni29" unicode="&#x29;" d="M82 825Q117 775 135.50 746Q154 717 179.50 667.50Q205 618 217.50 576Q230 534 240 475Q250 416 250 350Q250 284 240 225Q230 166 217.50 124Q205 82 179.50 32.50Q154-17 135.50-46Q117-75 82-125L79-124Q114-73 131.50-44.50Q149-16 175 33.50Q201 83 213.50 124.50Q226 166 236 225Q246 284 246 350Q246 416 236 475Q226 534 213.50 575.50Q201 617 175 666.50Q149 716 131.50 744.50Q114 773 79 824L82 825Z"  horiz-adv-x="329" vert-adv-y="1000"  />

      
      <glyph glyph-name="uni2a" unicode="&#x2a;" d="M369 613L217 564L311 435L307 433L214 562L120 433L117 435L211 564L59 613L60 617L212 567L212 728L216 728L216 568L368 617L369 613Z"  horiz-adv-x="428" vert-adv-y="1000"  />

      
      <glyph glyph-name="uni2b" unicode="&#x2b;" d="M241 489L241 333L394 333L394 329L241 329L241 173L237 173L237 329L84 329L84 333L237 333L237 489L241 489Z"  horiz-adv-x="479" vert-adv-y="1000"  />

      
      <glyph glyph-name="uni2c" unicode="&#x2c;" d="M54 4Q54 13 62.50 13Q71 13 71 4Q71 1 68-7L31-111L27-111L60-4Q54-2 54 4Z"  horiz-adv-x="124" vert-adv-y="1000"  />

      
      <glyph glyph-name="uni2d" unicode="&#x2d;" d="M84 310L84 314L316 314L316 310L84 310Z"  horiz-adv-x="400" vert-adv-y="1000"  />

      
      <glyph glyph-name="uni2e" unicode="&#x2e;" d="M54 4.50Q54 4.50 54 8.75Q54 13 62.50 13Q71 13 71 4.50Q71-4 62.50-4Q54-4 54 4.50Z"  horiz-adv-x="124" vert-adv-y="1000"  />

      
      <glyph glyph-name="uni2f" unicode="&#x2f;" d="M374 794L378 793L146-92L142-91L374 794Z"  horiz-adv-x="520" vert-adv-y="1000"  />

      
      <glyph glyph-name="uni30" unicode="&#x30;" d="M80 331Q80 670 268.50 670Q457 670 457 331Q457-9 268.50-9Q80-9 80 331M453 331Q453 666 268.50 666Q84 666 84 331Q84-5 268.50-5Q453-5 453 331Z"  horiz-adv-x="537" vert-adv-y="1000"  />

      
      <glyph glyph-name="uni31" unicode="&#x31;" d="M246 660L246 0L242 0L242 656L61 539L59 543L243 660L246 660Z"  horiz-adv-x="386" vert-adv-y="1000"  />

      
      <glyph glyph-name="uni32" unicode="&#x32;" d="M220 670Q296 670 341 623Q386 576 386 507Q386 483 384 463Q382 443 372.50 418.50Q363 394 355.50 377Q348 360 326 328.50Q304 297 289.50 277.50Q275 258 238 214.50Q201 171 177.50 143.50Q154 116 101 56Q71 22 55 4L394 4L394 0L50 0L50 4Q61 17 83 41Q139 105 164 133.50Q189 162 227.50 208Q266 254 281 274Q296 294 319.50 326.50Q343 359 350.50 376Q358 393 367.50 418Q377 443 379.50 463Q382 483 382 507Q382 551 363 587Q344 623 306.50 644.50Q269 666 220 666Q167 666 129 645Q91 624 55 580L51 582Q88 627 127.50 648.50Q167 670 220 670Z"  horiz-adv-x="463" vert-adv-y="1000"  />

      
      <glyph glyph-name="uni33" unicode="&#x33;" d="M216 670Q253 670 283.50 658.50Q314 647 334 626Q354 605 365 576Q376 547 376 513Q376 463 355 426.50Q334 390 302.50 373Q271 356 233 353Q305 349 350 304.50Q395 260 395 178Q395 124 372 81Q349 38 307.50 14.50Q266-9 212-9Q154-9 113 10Q72 29 34 72L38 74Q75 31 115 13Q155-5 212-5Q292-5 341.50 46Q391 97 391 178Q391 262 342.50 306.50Q294 351 212 351L178 351L178 355L215 355Q280 355 326 395.50Q372 436 372 513Q372 582 330 624Q288 666 216 666Q124 666 56 597L53 599Q122 670 216 670Z"  horiz-adv-x="470" vert-adv-y="1000"  />

      
      <glyph glyph-name="uni34" unicode="&#x34;" d="M454 199L454 195L359 195L359 0L355 0L355 195L55 195L55 200L263 670L267 669L59 199L355 199L356 418L359 418L359 199L454 199Z"  horiz-adv-x="494" vert-adv-y="1000"  />

      
      <glyph glyph-name="uni35" unicode="&#x35;" d="M380 660L380 656L95 656L95 363Q153 410 227 410Q309 410 355 357.50Q401 305 401 213Q401 148 380 98.50Q359 49 315.50 20Q272-9 212-9Q111-9 49 63L53 65Q113-5 212-5Q300-5 348.50 55Q397 115 397 213Q397 303 352 354.50Q307 406 227 406Q199 406 176 400Q153 394 134.50 384.50Q116 375 95 359L91 359L91 660L380 660Z"  horiz-adv-x="470" vert-adv-y="1000"  />

      
      <glyph glyph-name="uni36" unicode="&#x36;" d="M275 423Q352 423 396.50 371.50Q441 320 441 222Q441 113 396.50 52Q352-9 270-9Q221-9 183.50 14Q146 37 123.50 78Q101 119 90.50 171.50Q80 224 80 287Q80 399 104 484.50Q128 570 178.50 620Q229 670 300 670Q356 670 400 635L398 632Q356 666 300 666Q231 666 181.50 616.50Q132 567 108 483.50Q84 400 84 291Q162 423 275 423M270-5Q324-5 361.50 22.50Q399 50 418 100.50Q437 151 437 222Q437 319 393.50 369Q350 419 275 419Q163 419 84 285Q84 223 94.50 172Q105 121 127 80.50Q149 40 185.50 17.50Q222-5 270-5Z"  horiz-adv-x="506" vert-adv-y="1000"  />

      
      <glyph glyph-name="uni37" unicode="&#x37;" d="M385 660L385 656L102-5L98-3L381 656L44 656L44 660L385 660Z"  horiz-adv-x="435" vert-adv-y="1000"  />

      
      <glyph glyph-name="uni38" unicode="&#x38;" d="M298 340Q384 305 419 267Q454 229 454 164Q454 87 402 39Q350-9 264-9Q174-9 121.50 39Q69 87 69 169Q69 238 108 284.50Q147 331 226 365Q157 392 128 427Q99 462 99 514Q99 583 146.50 626.50Q194 670 262 670Q332 670 379 628.50Q426 587 426 513Q426 455 397 415.50Q368 376 298 340M103 514Q103 459 135 425.50Q167 392 239 363L294 341Q363 378 392.50 416.50Q422 455 422 513Q422 585 376 625.50Q330 666 262 666Q196 666 149.50 624Q103 582 103 514M264-5Q349-5 399.50 42Q450 89 450 164Q450 200 440 226.50Q430 253 406 274.50Q382 296 351.50 312Q321 328 271 347L230 363Q150 329 111.50 282.50Q73 236 73 169Q73 89 124 42Q175-5 264-5Z"  horiz-adv-x="523" vert-adv-y="1000"  />

      
      <glyph glyph-name="uni39" unicode="&#x39;" d="M245 670Q340 670 382.50 599Q425 528 425 393Q425 304 405.50 236.50Q386 169 346 122Q306 75 253 43.50Q200 12 125-11L123-8Q197 16 249 46Q301 76 341 122Q381 168 400.50 233Q420 298 421 385Q352 260 233 260Q160 260 112.50 314.50Q65 369 65 460Q65 556 115 613Q165 670 245 670M233 264Q352 264 421 391Q421 526 379 596Q337 666 245 666Q194 666 154.50 641.50Q115 617 92 570Q69 523 69 460Q69 370 115 317Q161 264 233 264Z"  horiz-adv-x="500" vert-adv-y="1000"  />

      
      <glyph glyph-name="uni3a" unicode="&#x3a;" d="M54 431.50Q54 431.50 54 435.75Q54 440 62.50 440Q71 440 71 431.50Q71 423 62.50 423Q54 423 54 431.50M54 4.50Q54 4.50 54 8.75Q54 13 62.50 13Q71 13 71 4.50Q71-4 62.50-4Q54-4 54 4.50Z"  horiz-adv-x="124" vert-adv-y="1000"  />

      
      <glyph glyph-name="uni3b" unicode="&#x3b;" d="M54 431.50Q54 431.50 54 435.75Q54 440 62.50 440Q71 440 71 431.50Q71 423 62.50 423Q54 423 54 431.50M54 4Q54 13 62.50 13Q71 13 71 4Q71 1 68-7L31-111L27-111L60-4Q54-2 54 4Z"  horiz-adv-x="124" vert-adv-y="1000"  />

      
      <glyph glyph-name="uni3c" unicode="&#x3c;" d="M405 489L407 485L93 333L407 177L405 173L89 331L89 335L405 489Z"  horiz-adv-x="496" vert-adv-y="1000"  />

      
      <glyph glyph-name="uni3d" unicode="&#x3d;" d="M84 404L84 408L394 408L394 404L84 404M84 254L84 258L394 258L394 254L84 254Z"  horiz-adv-x="479" vert-adv-y="1000"  />

      
      <glyph glyph-name="uni3e" unicode="&#x3e;" d="M91 489L407 335L407 331L91 173L89 177L403 333L89 485L91 489Z"  horiz-adv-x="496" vert-adv-y="1000"  />

      
      <glyph glyph-name="uni3f" unicode="&#x3f;" d="M235 690Q297 690 338 652.50Q379 615 379 556Q379 522 365 495.50Q351 469 330.50 453.50Q310 438 286 419.50Q262 401 241.50 384Q221 367 207.50 338Q194 309 194 271L194 189L190 189L190 271Q190 304 200 330.50Q210 357 226.50 374.50Q243 392 262.50 406.50Q282 421 302 435Q322 449 338 465Q354 481 364.50 504Q375 527 375 556Q375 614 335.50 650Q296 686 235 686Q139 686 72 607L69 610Q137 690 235 690M183 4.50Q183 4.50 183 8.75Q183 13 192 13Q201 13 201 4.50Q201-4 192-4Q183-4 183 4.50Z"  horiz-adv-x="447" vert-adv-y="1000"  />

      
      <glyph glyph-name="uni40" unicode="&#x40;" d="M528 691Q622 691 697 659.50Q772 628 818 574.50Q864 521 888.50 453Q913 385 913 309Q913 253 906.50 207.50Q900 162 889 130.50Q878 99 863 76Q848 53 830 39.50Q812 26 793.50 20Q775 14 755 14Q722 14 697 31Q672 48 657.50 81Q643 114 641 160Q597 16 491 16Q420 16 376.50 71.50Q333 127 333 231Q333 352 387 413Q441 474 520 474Q586 474 644 442L644 176Q644 100 674 59Q704 18 755 18Q785 18 811 32Q837 46 860 77.50Q883 109 896 168Q909 227 909 309Q909 384 885 451.50Q861 519 815 572Q769 625 695 656Q621 687 528 687Q436 687 357 651Q278 615 225 554.50Q172 494 141.50 413Q111 332 111 244Q111 142 142.50 59.50Q174-23 230-77Q286-131 361.50-160Q437-189 526-189Q625-189 705-158L706-161Q625-192 526-192Q436-192 360-163Q284-134 227.50-79.50Q171-25 139 58Q107 141 107 244Q107 333 137.50 414.50Q168 496 222 557Q276 618 355.50 654.50Q435 691 528 691M640 169L641 169Q641 170 641 173L640 174L640 440Q585 470 520 470Q443 470 390 410Q337 350 337 231Q337 128 379.50 74Q422 20 491 20Q597 20 640 169Z"  horiz-adv-x="1020" vert-adv-y="1000"  />

      
      <glyph glyph-name="uni41" unicode="&#x41;" d="M518 0L442 212L113 212L38 0L34 0L275 680L279 680L522 0L518 0M115 216L441 216L277 676L115 216Z"  horiz-adv-x="556" vert-adv-y="1000"  />

      
      <glyph glyph-name="uni42" unicode="&#x42;" d="M339 360Q414 356 465.50 309.50Q517 263 517 183Q517 87 455.50 43.50Q394 0 288 0L129 0L129 680L264 680Q368 680 423.50 636.50Q479 593 479 513Q479 451 439 409.50Q399 368 339 360M265 676L133 676L133 362L312 362Q383 362 429 405.50Q475 449 475 513Q475 591 421 633.50Q367 676 265 676M289 4Q513 4 513 183Q513 237 487.50 277Q462 317 418 337.50Q374 358 317 358L133 358L133 4L289 4Z"  horiz-adv-x="582" vert-adv-y="1000"  />

      
      <glyph glyph-name="uni43" unicode="&#x43;" d="M342 690Q430 690 495 633L493 630Q428 686 342 686Q226 686 157 598.50Q88 511 88 339Q88 175 157 85Q226-5 341-5Q432-5 502 54L504 50Q434-9 341-9Q224-9 154 82Q84 173 84 339Q84 512 154.50 601Q225 690 342 690Z"  horiz-adv-x="530" vert-adv-y="1000"  />

      
      <glyph glyph-name="uni44" unicode="&#x44;" d="M235 680Q282 680 321.50 672.50Q361 665 400.50 643Q440 621 467.50 585.50Q495 550 512 489Q529 428 529 348Q529 267 512.50 204.50Q496 142 468.50 104Q441 66 402.50 42Q364 18 325 9Q286 0 242 0L129 0L129 680L235 680M235 676L133 676L133 4L242 4Q278 4 311 10.50Q344 17 376.50 31.50Q409 46 435.50 72.50Q462 99 482.50 136Q503 173 514 227Q525 281 525 348Q525 428 508 487.50Q491 547 464 582.50Q437 618 398 639.50Q359 661 320 668.50Q281 676 235 676Z"  horiz-adv-x="614" vert-adv-y="1000"  />

      
      <glyph glyph-name="uni45" unicode="&#x45;" d="M436 680L436 676L133 676L133 363L393 363L393 359L133 359L133 4L446 4L446 0L129 0L129 680L436 680Z"  horiz-adv-x="495" vert-adv-y="1000"  />

      
      <glyph glyph-name="uni46" unicode="&#x46;" d="M129 0L129 680L431 680L431 676L133 676L133 348L391 348L391 344L133 344L133 0L129 0Z"  horiz-adv-x="470" vert-adv-y="1000"  />

      
      <glyph glyph-name="uni47" unicode="&#x47;" d="M344 690Q428 690 502 635L499 631Q428 686 344 686Q295 686 250.50 665Q206 644 169.50 604Q133 564 110.50 497Q88 430 88 345Q88 176 159 85.50Q230-5 353-5Q439-5 516 41L516 339L366 339L366 343L520 343L520 39Q440-9 353-9Q228-9 156 82.50Q84 174 84 345Q84 431 106.50 498.50Q129 566 166.50 607Q204 648 249.50 669Q295 690 344 690Z"  horiz-adv-x="600" vert-adv-y="1000"  />

      
      <glyph glyph-name="uni48" unicode="&#x48;" d="M521 0L521 359L133 359L133 0L129 0L129 680L133 680L133 363L521 363L521 680L525 680L525 0L521 0Z"  horiz-adv-x="655" vert-adv-y="1000"  />

      
      <glyph glyph-name="uni49" unicode="&#x49;" d="M133 680L133 0L129 0L129 680L133 680Z"  horiz-adv-x="263" vert-adv-y="1000"  />

      
      <glyph glyph-name="uni4a" unicode="&#x4a;" d="M151 680L151 85Q151 13 127.50-24.50Q104-62 31-92L29-88Q101-59 124-22.50Q147 14 147 85L147 680L151 680Z"  horiz-adv-x="274" vert-adv-y="1000"  />

      
      <glyph glyph-name="uni4b" unicode="&#x4b;" d="M133 680L133 1L129 1L129 680L133 680M475 680L142 366L491 0L485 0L136 366L469 680L475 680Z"  horiz-adv-x="505" vert-adv-y="1000"  />

      
      <glyph glyph-name="uni4c" unicode="&#x4c;" d="M133 680L133 4L421 4L421 0L129 0L129 680L133 680Z"  horiz-adv-x="446" vert-adv-y="1000"  />

      
      <glyph glyph-name="uni4d" unicode="&#x4d;" d="M594 680L673 0L669 0L628 353Q621 409 607.50 523.50Q594 638 590 674L380 85L376 85L166 674Q165 658 160.50 620Q156 582 151 542Q146 502 140 449.50Q134 397 130 360L88 0L84 0L163 680L169 680L378 90L588 680L594 680Z"  horiz-adv-x="758" vert-adv-y="1000"  />

      
      <glyph glyph-name="uni4e" unicode="&#x4e;" d="M525 680L525 0L520 0L133 676Q133 644 133 565L133 0L129 0L129 680L135 680L522 4Q521 86 521 143L521 680L525 680Z"  horiz-adv-x="655" vert-adv-y="1000"  />

      
      <glyph glyph-name="uni4f" unicode="&#x4f;" d="M343 690Q465 690 534 598Q603 506 603 340Q603 174 535.50 82.50Q468-9 343-9Q223-9 153.50 83Q84 175 84 338Q84 501 155 595.50Q226 690 343 690M343 686Q227 686 157.50 592.50Q88 499 88 338Q88 177 156.50 86Q225-5 343-5Q425-5 482.50 36Q540 77 569.50 154Q599 231 599 340Q599 504 531 595Q463 686 343 686Z"  horiz-adv-x="687" vert-adv-y="1000"  />

      
      <glyph glyph-name="uni50" unicode="&#x50;" d="M253 680Q373 680 430.50 633.50Q488 587 488 485Q488 290 250 290L133 290L133 0L129 0L129 680L253 680M250 294Q484 294 484 485Q484 585 428 630.50Q372 676 253 676L133 676L133 294L250 294Z"  horiz-adv-x="553" vert-adv-y="1000"  />

      
      <glyph glyph-name="uni51" unicode="&#x51;" d="M377-6Q461-7 517-21Q573-35 617-71L614-74Q568-37 509.50-22.50Q451-8 350-9Q347-9 343-9Q223-9 153.50 83Q84 175 84 338Q84 501 155 595.50Q226 690 343 690Q465 690 534 598Q603 506 603 340Q603 289 596 244Q589 199 576 161.50Q563 124 544 94.50Q525 65 500 44Q475 23 444 10.50Q413-2 377-6M157.50 592.50Q157.50 592.50 122.75 545.75Q88 499 88 338Q88 177 156.50 86Q225-5 343-5Q425-5 482.50 36Q540 77 569.50 154Q599 231 599 340Q599 504 531 595Q463 686 343 686Q227 686 157.50 592.50Z"  horiz-adv-x="687" vert-adv-y="1000"  />

      
      <glyph glyph-name="uni52" unicode="&#x52;" d="M503 0L312 333L133 333L133 0L129 0L129 680L268 680Q345 680 394 658Q443 636 463 598.50Q483 561 483 506Q483 462 469 428.50Q455 395 430.50 375Q406 355 377 345Q348 335 316 333L508 0L503 0M133 337L304 337Q331 337 356 342.50Q381 348 404 361Q427 374 443.50 393.50Q460 413 469.50 441.50Q479 470 479 506Q479 589 430 632.50Q381 676 267 676L133 676L133 337Z"  horiz-adv-x="562" vert-adv-y="1000"  />

      
      <glyph glyph-name="uni53" unicode="&#x53;" d="M264 690Q322 690 362 673.50Q402 657 438 626L435 622Q401 654 361 670Q321 686 264 686Q187 686 139 643.50Q91 601 91 538Q91 472 128.50 438Q166 404 270 371Q374 338 417.50 297.50Q461 257 461 178Q461 95 405.50 43Q350-9 260-9Q195-9 149.50 11Q104 31 64 69L66 73Q107 34 151 14.50Q195-5 260-5Q348-5 402.50 46Q457 97 457 178Q457 255 414 294.50Q371 334 269 367Q197 390 159.50 411Q122 432 104.50 462Q87 492 87 538Q87 581 109 615.50Q131 650 171.50 670Q212 690 264 690Z"  horiz-adv-x="540" vert-adv-y="1000"  />

      
      <glyph glyph-name="uni54" unicode="&#x54;" d="M453 680L453 676L238 676L238 0L234 0L234 676L20 676L20 680L453 680Z"  horiz-adv-x="472" vert-adv-y="1000"  />

      
      <glyph glyph-name="uni55" unicode="&#x55;" d="M515 680L515 206Q515 107 467.50 49Q420-9 317-9Q213-9 166 49Q119 107 119 206L119 680L123 680L123 206Q123 108 169.50 51.50Q216-5 317-5Q418-5 464.50 52Q511 109 511 206L511 680L515 680Z"  horiz-adv-x="635" vert-adv-y="1000"  />

      
      <glyph glyph-name="uni56" unicode="&#x56;" d="M490 680L266 0L261 0L34 680L39 680L263 4L486 680L490 680Z"  horiz-adv-x="524" vert-adv-y="1000"  />

      
      <glyph glyph-name="uni57" unicode="&#x57;" d="M733 680L573 0L569 0L389 676L209 0L204 0L44 680L48 680L207 4L386 680L391 680L571 5L729 680L733 680Z"  horiz-adv-x="777" vert-adv-y="1000"  />

      
      <glyph glyph-name="uni58" unicode="&#x58;" d="M237 370L449 0L445 0L234 368L24 0L20 0L231 370L50 680L54 680L234 372L414 680L418 680L237 370Z"  horiz-adv-x="469" vert-adv-y="1000"  />

      
      <glyph glyph-name="uni59" unicode="&#x59;" d="M456 680L243 271L243 0L239 0L239 271L25 680L29 680L241 275L452 680L456 680Z"  horiz-adv-x="481" vert-adv-y="1000"  />

      
      <glyph glyph-name="uni5a" unicode="&#x5a;" d="M454 680L454 676L50 4L438 4L438 0L45 0L45 4L449 676L82 676L82 680L454 680Z"  horiz-adv-x="505" vert-adv-y="1000"  />

      
      <glyph glyph-name="uni5b" unicode="&#x5b;" d="M221 791L221 787L113 787L113-97L221-97L221-101L109-101L109 791L221 791Z"  horiz-adv-x="310" vert-adv-y="1000"  />

      
      <glyph glyph-name="uni5c" unicode="&#x5c;" d="M146 794L378-91L374-92L142 793L146 794Z"  horiz-adv-x="520" vert-adv-y="1000"  />

      
      <glyph glyph-name="uni5d" unicode="&#x5d;" d="M201 791L201-101L89-101L89-97L197-97L197 787L89 787L89 791L201 791Z"  horiz-adv-x="310" vert-adv-y="1000"  />

      
      <glyph glyph-name="uni5e" unicode="&#x5e;" d="M261 818L430 527L425 527L259 813L93 527L89 527L258 818L261 818Z"  horiz-adv-x="528" vert-adv-y="1000"  />

      
      <glyph glyph-name="uni5f" unicode="&#x5f;" d="M52-88L52-84L468-84L468-88L52-88Z"  horiz-adv-x="520" vert-adv-y="1000"  />

      
      <glyph glyph-name="uni60" unicode="&#x60;" d="M32 748L200 665L198 661L30 743L32 748Z"  horiz-adv-x="230" vert-adv-y="1000"  />

      
      <glyph glyph-name="uni61" unicode="&#x61;" d="M396 110Q396 54 407 29Q418 4 449-6L447-9Q416 1 404.50 25.50Q393 50 393 103Q338-9 220-9Q173-9 138.50 11Q104 31 87 65.50Q70 100 70 145Q70 220 123 262Q176 304 269 304L392 304L392 372Q392 446 360 484.50Q328 523 254 523Q189 523 108 490L106 493Q187 527 254 527Q305 527 337 508Q369 489 382.50 455.50Q396 422 396 372L396 110M220-5Q283-5 324 23.50Q365 52 392 110L392 301L269 301Q178 301 126 259.50Q74 218 74 145Q74 78 112.50 36.50Q151-5 220-5Z"  horiz-adv-x="524" vert-adv-y="1000"  />

      
      <glyph glyph-name="uni62" unicode="&#x62;" d="M304 527Q362 527 402.50 496Q443 465 463 406Q483 347 483 264Q483 136 436 63.50Q389-9 300-9Q197-9 128 97L128 0L124 0L124 730L128 731L128 423Q164 473 205.50 500Q247 527 304 527M300-5Q387-5 433 66Q479 137 479 264Q479 389 434.50 456Q390 523 304 523Q248 523 207 496.50Q166 470 128 418L128 102Q197-5 300-5Z"  horiz-adv-x="567" vert-adv-y="1000"  />

      
      <glyph glyph-name="uni63" unicode="&#x63;" d="M282 527Q357 527 411 477L408 475Q356 523 282 523Q190 523 136.50 452.50Q83 382 83 256Q83 134 138 64.50Q193-5 280-5Q357-5 412 46L415 44Q358-9 280-9Q191-9 135 61.50Q79 132 79 256Q79 383 133 455Q187 527 282 527Z"  horiz-adv-x="469" vert-adv-y="1000"  />

      
      <glyph glyph-name="uni64" unicode="&#x64;" d="M444 731L448 730L448 0L444 0L444 99Q416 48 376 19.50Q336-9 275-9Q187-9 135.50 61Q84 131 84 257Q84 378 137 452.50Q190 527 282 527Q341 527 381.50 498Q422 469 444 426L444 731M276-5Q336-5 375.50 24Q415 53 444 106L444 421Q421 465 380.50 494Q340 523 282 523Q192 523 140 450Q88 377 88 257Q88 133 138.50 64Q189-5 276-5Z"  horiz-adv-x="572" vert-adv-y="1000"  />

      
      <glyph glyph-name="uni65" unicode="&#x65;" d="M454 288Q454 266 453 251L83 251Q84 129 136 62Q188-5 276-5Q323-5 358 9Q393 23 429 54L431 50Q394 20 359 5.50Q324-9 276-9Q185-9 132 60Q79 129 79 253Q79 382 132 454.50Q185 527 276 527Q364 527 409 461.50Q454 396 454 288M449 255Q450 268 450 288Q450 394 406.50 458.50Q363 523 276 523Q187 523 135.50 452Q84 381 83 255L449 255Z"  horiz-adv-x="528" vert-adv-y="1000"  />

      
      <glyph glyph-name="uni66" unicode="&#x66;" d="M239 730Q190 730 160 701Q130 672 130 618L130 517L281 517L281 513L130 513L130 0L126 0L126 513L35 513L35 517L126 517L126 618Q126 673 157 703Q188 733 239 733Q298 733 350 701L348 697Q296 730 239 730Z"  horiz-adv-x="300" vert-adv-y="1000"  />

      
      <glyph glyph-name="uni67" unicode="&#x67;" d="M462 545L463 540Q406 524 277 524Q347 513 383 469Q419 425 419 356Q419 279 373 236.50Q327 194 249 194Q206 194 165 213Q109 179 109 128Q109 94 136.50 75.50Q164 57 217 57L308 57Q376 57 414.50 25.50Q453-6 453-59Q453-192 252-192Q182-192 139-179.50Q96-167 75-138Q54-109 54-60L58-60Q58-131 103-160Q148-189 252-189Q449-189 449-59Q449-42 444.50-27Q440-12 431.50 0.50Q423 13 411 22.50Q399 32 383.50 39Q368 46 348.50 49.50Q329 53 308 53L217 53Q162 53 133.50 72.50Q105 92 105 128Q105 177 161 215Q74 260 74 357Q74 434 121 480.50Q168 527 241 527Q314 527 360.50 530Q407 533 422 535.50Q437 538 462 545M241 523Q168 523 123 476.50Q78 430 78 357Q78 282 129.50 239.50Q181 197 249 197Q325 197 370 239Q415 281 415 356Q415 442 365 482.50Q315 523 241 523Z"  horiz-adv-x="487" vert-adv-y="1000"  />

      
      <glyph glyph-name="uni68" unicode="&#x68;" d="M326 527Q395 527 428 485.50Q461 444 461 368L461 0L457 0L457 368Q457 523 326 523Q206 523 128 387L128 0L124 0L124 730L128 731L128 393Q205 527 326 527Z"  horiz-adv-x="580" vert-adv-y="1000"  />

      
      <glyph glyph-name="uni69" unicode="&#x69;" d="M119 700.50Q119 700.50 119 704.25Q119 708 126.50 708Q134 708 134 700.50Q134 693 126.50 693Q119 693 119 700.50M128 517L128 0L124 0L124 517L128 517Z"  horiz-adv-x="253" vert-adv-y="1000"  />

      
      <glyph glyph-name="uni6a" unicode="&#x6a;" d="M119 700.50Q119 700.50 119 704.25Q119 708 126.50 708Q134 708 134 700.50Q134 693 126.50 693Q119 693 119 700.50M128 517L128 2Q128-58 117-94.50Q106-131 86.50-151Q67-171 29-191L27-188Q64-169 83.50-148.50Q103-128 113.50-92.50Q124-57 124 2L124 517L128 517Z"  horiz-adv-x="253" vert-adv-y="1000"  />

      
      <glyph glyph-name="uni6b" unicode="&#x6b;" d="M128 731L128 0L124 0L124 730L128 731M398 517L140 283L425 0L420 0L134 283L393 517L398 517Z"  horiz-adv-x="450" vert-adv-y="1000"  />

      
      <glyph glyph-name="uni6c" unicode="&#x6c;" d="M180-9Q150-9 134.50 10.50Q119 30 119 65L119 730L123 731L123 65Q123-5 180-5Q201-5 221 3L221-1Q202-9 180-9Z"  horiz-adv-x="275" vert-adv-y="1000"  />

      
      <glyph glyph-name="uni6d" unicode="&#x6d;" d="M601 527Q663 527 694.50 485Q726 443 726 368L726 0L722 0L722 368Q722 442 691.50 482.50Q661 523 601 523Q495 523 427 387L427 0L423 0L423 377Q423 444 392.50 483.50Q362 523 302 523Q196 523 128 387L128 0L124 0L124 517L128 517L128 394Q196 527 302 527Q359 527 391.50 491.50Q424 456 427 393Q494 527 601 527Z"  horiz-adv-x="845" vert-adv-y="1000"  />

      
      <glyph glyph-name="uni6e" unicode="&#x6e;" d="M326 527Q461 527 461 368L461 0L457 0L457 368Q457 523 326 523Q206 523 128 387L128 0L124 0L124 517L128 517L128 393Q205 527 326 527Z"  horiz-adv-x="580" vert-adv-y="1000"  />

      
      <glyph glyph-name="uni6f" unicode="&#x6f;" d="M133.50 456.50Q133.50 456.50 160.75 491.75Q188 527 280.50 527Q373 527 426.50 457Q480 387 480 262Q480 133 426 62Q372-9 279-9Q186-9 132.50 62Q79 133 79 258Q79 386 133.50 456.50M424 454Q424 454 398 488.50Q372 523 281 523Q190 523 136.50 453.50Q83 384 83 258Q83 134 135 64.50Q187-5 279-5Q371-5 423.50 65Q476 135 476 262Q476 385 424 454Z"  horiz-adv-x="559" vert-adv-y="1000"  />

      
      <glyph glyph-name="uni70" unicode="&#x70;" d="M306 527Q392 527 437.50 458.50Q483 390 483 264Q483 135 436.50 63Q390-9 302-9Q195-9 128 96L128-190L124-191L124 517L128 517L128 423Q151 455 175 477Q199 499 233 513Q267 527 306 527M302-5Q388-5 433.50 66Q479 137 479 264Q479 388 434.50 455.50Q390 523 306 523Q249 523 207.50 496.50Q166 470 128 418L128 102Q197-5 302-5Z"  horiz-adv-x="567" vert-adv-y="1000"  />

      
      <glyph glyph-name="uni71" unicode="&#x71;" d="M444 517L448 517L448-191L444-190L444 99Q426 66 405 44Q384 22 349.50 6.50Q315-9 272-9Q186-9 135 61.50Q84 132 84 257Q84 379 136.50 453Q189 527 281 527Q340 527 380.50 498Q421 469 444 427L444 517M272-5Q305-5 331.50 3Q358 11 378.50 27Q399 43 414.50 61.50Q430 80 444 106L444 421Q421 465 380 494Q339 523 281 523Q191 523 139.50 450Q88 377 88 257Q88 133 137.50 64Q187-5 272-5Z"  horiz-adv-x="572" vert-adv-y="1000"  />

      
      <glyph glyph-name="uni72" unicode="&#x72;" d="M290 527Q315 527 337 522L336 518Q315 523 290 523Q229 523 191 487Q153 451 128 366L128 0L124 0L124 517L128 517L128 377Q152 457 190.50 492Q229 527 290 527Z"  horiz-adv-x="361" vert-adv-y="1000"  />

      
      <glyph glyph-name="uni73" unicode="&#x73;" d="M224 527Q311 527 373 475L371 471Q310 523 225 523Q164 523 122.50 489.50Q81 456 81 405Q81 356 114.50 328Q148 300 232 277Q321 252 354.50 222Q388 192 388 130Q388 67 342.50 29Q297-9 227-9Q172-9 133 8Q94 25 59 57L62 60Q96 28 134 11.50Q172-5 227-5Q295-5 339.50 32Q384 69 384 130Q384 191 351 219.50Q318 248 230 273Q145 297 110.50 325.50Q76 354 76 405Q76 458 119 492.50Q162 527 224 527Z"  horiz-adv-x="457" vert-adv-y="1000"  />

      
      <glyph glyph-name="uni74" unicode="&#x74;" d="M313 23L315 19Q268-9 220-9Q171-9 143.50 23Q116 55 116 113L116 513L30 513L30 517L116 517L116 651L120 651L120 517L266 517L266 513L121 513L121 114Q121 57 147 26Q173-5 221-5Q270-5 313 23Z"  horiz-adv-x="322" vert-adv-y="1000"  />

      
      <glyph glyph-name="uni75" unicode="&#x75;" d="M451 517L451 0L447 0L447 115Q379-9 261-9Q217-9 185.50 9Q154 27 136.50 63Q119 99 119 150L119 517L123 517L123 150Q123 75 159.50 35Q196-5 261-5Q377-5 447 121L447 517L451 517Z"  horiz-adv-x="575" vert-adv-y="1000"  />

      
      <glyph glyph-name="uni76" unicode="&#x76;" d="M407 517L226 0L221 0L29 517L34 517L224 4L403 517L407 517Z"  horiz-adv-x="436" vert-adv-y="1000"  />

      
      <glyph glyph-name="uni77" unicode="&#x77;" d="M634 517L493 0L488 0L336 513L185 0L180 0L39 517L44 517L182 4L334 517L339 517L491 4L629 517L634 517Z"  horiz-adv-x="673" vert-adv-y="1000"  />

      
      <glyph glyph-name="uni78" unicode="&#x78;" d="M213 278L401 0L396 0L210 276L29 0L24 0L208 278L51 517L56 517L211 280L369 517L374 517L213 278Z"  horiz-adv-x="425" vert-adv-y="1000"  />

      
      <glyph glyph-name="uni79" unicode="&#x79;" d="M406 517L227 0Q211-48 199.50-74Q188-100 169-125Q150-150 125-164Q100-178 61-190L61-186Q99-175 123.50-161Q148-147 166-122.50Q184-98 195.50-72.50Q207-47 224 0L221 0L29 517L34 517L224 2L401 517L406 517Z"  horiz-adv-x="435" vert-adv-y="1000"  />

      
      <glyph glyph-name="uni7a" unicode="&#x7a;" d="M370 517L370 514L40 4L360 4L360 0L35 0L35 4L365 513L65 513L65 517L370 517Z"  horiz-adv-x="410" vert-adv-y="1000"  />

      
      <glyph glyph-name="uni7b" unicode="&#x7b;" d="M232 809L232 805Q154 805 154 713L154 428Q154 391 134 370.50Q114 350 78 349Q114 348 134 327.50Q154 307 154 270L154-15Q154-107 232-107L232-111Q150-111 150-16L150 271Q150 308 129.50 327.50Q109 347 74 347L74 351Q88 351 99.50 354Q111 357 120.50 363Q130 369 136.50 378Q143 387 146.50 399.50Q150 412 150 428L150 714Q150 809 232 809Z"  horiz-adv-x="326" vert-adv-y="1000"  />

      
      <glyph glyph-name="uni7c" unicode="&#x7c;" d="M212 800L212-97L208-97L208 800L212 800Z"  horiz-adv-x="419" vert-adv-y="1000"  />

      
      <glyph glyph-name="uni7d" unicode="&#x7d;" d="M94 809Q176 809 176 714L176 428Q176 390 196.50 370.50Q217 351 252 351L252 347Q239 347 227 344Q215 341 205.50 335Q196 329 189.50 320Q183 311 179.50 298.50Q176 286 176 271L176-16Q176-111 94-111L94-107Q172-107 172-15L172 270Q172 307 192 327.50Q212 348 248 349Q212 350 192 370.50Q172 391 172 428L172 713Q172 805 94 805L94 809Z"  horiz-adv-x="326" vert-adv-y="1000"  />

      
      <glyph glyph-name="uni7e" unicode="&#x7e;" d="M300 290Q276 290 228.50 317.50Q181 345 157 345Q117 345 87 302L84 303Q113 349 157 349Q181 349 228.50 321.50Q276 294 300 294Q342 294 367 337L371 336Q347 290 300 290Z"  horiz-adv-x="454" vert-adv-y="1000"  />

      
      <glyph glyph-name="unia1" unicode="&#xa1;" d="M109 431.50Q109 431.50 109 435.75Q109 440 117.50 440Q126 440 126 431.50Q126 423 117.50 423Q109 423 109 431.50M119 254L119-188L115-188L115 254L119 254Z"  horiz-adv-x="234" vert-adv-y="1000"  />

      
      <glyph glyph-name="unia2" unicode="&#xa2;" d="M415 44Q358-9 280-9L278-9L278-144L275-144L275-9Q187-7 133 63.50Q79 134 79 256Q79 383 132.50 454.50Q186 526 280 527L280 672L284 672L284 527Q358 527 411 477L408 475Q356 523 282 523Q190 523 136.50 452.50Q83 382 83 256Q83 134 138 64.50Q193-5 280-5Q357-5 412 46L415 44Z"  horiz-adv-x="469" vert-adv-y="1000"  />

      
      <glyph glyph-name="unia3" unicode="&#xa3;" d="M296 666Q226 666 189.50 621.50Q153 577 153 506L153 357L363 357L363 353L153 353L153 120Q153 72 135.50 46Q118 20 77 4L424 4L424 0L69 0L69 4Q112 21 130.50 46Q149 71 149 120L149 353L92 353L92 357L149 357L149 506Q149 579 186.50 624.50Q224 670 296 670Q376 670 429 609L425 606Q375 666 296 666Z"  horiz-adv-x="493" vert-adv-y="1000"  />

      
      <glyph glyph-name="unia4" unicode="&#xa4;" d="M445 339Q445 262 393 213L472 136L468 133L390 210Q344 169 279 169Q215 169 170 209L92 133L88 136L167 212Q113 261 113 339Q113 414 163 464L88 540L92 543L165 466Q212 511 279 511Q348 511 394 466L468 543L472 540L397 463Q445 414 445 339M117 339Q117 266 164 219.50Q211 173 279 173Q348 173 394.50 219.50Q441 266 441 339Q441 411 395.50 459Q350 507 279 507Q209 507 163 459Q117 411 117 339Z"  horiz-adv-x="560" vert-adv-y="1000"  />

      
      <glyph glyph-name="unia5" unicode="&#xa5;" d="M446 660L239 321L370 321L370 317L238 317L238 186L370 186L370 182L238 182L238 0L234 0L234 182L105 182L105 186L234 186L234 317L105 317L105 321L232 321L25 660L29 660L236 322L442 660L446 660Z"  horiz-adv-x="471" vert-adv-y="1000"  />

      
      <glyph glyph-name="unia6" unicode="&#xa6;" d="M212 800L212 443L208 443L208 800L212 800M212 262L212-97L208-97L208 262L212 262Z"  horiz-adv-x="419" vert-adv-y="1000"  />

      
      <glyph glyph-name="unia7" unicode="&#xa7;" d="M338 157Q371 139 385 117Q399 95 399 61Q399 7 360-26.50Q321-60 261-60Q176-60 114-18L117-15Q176-56 261-56Q320-56 357.50-24Q395 8 395 61Q395 107 366.50 133Q338 159 257 184Q174 210 141.50 239Q109 268 109 321Q109 361 131.50 392.50Q154 424 202 454Q191 459 182 465Q173 471 166 477Q159 483 153.50 489.50Q148 496 144.50 503Q141 510 138.50 518Q136 526 135 534Q134 542 134 551Q134 604 175 637Q216 670 272 670Q345 670 411 630L409 626Q345 666 272 666Q217 666 177.50 634Q138 602 138 552Q138 507 167.50 481Q197 455 281 426Q360 399 391 369Q422 339 422 284Q422 205 338 157M113 321Q113 270 144.50 242Q176 214 258 188Q306 173 334 159Q418 206 418 284Q418 338 388 367.50Q358 397 280 423Q233 438 205 452Q157 421 135 390.50Q113 360 113 321Z"  horiz-adv-x="531" vert-adv-y="1000"  />

      
      <glyph glyph-name="unia8" unicode="&#xa8;" d="M30 685.50Q30 685.50 30 689.25Q30 693 37.50 693Q45 693 45 685.50Q45 678 37.50 678Q30 678 30 685.50M181 685.50Q181 685.50 181 689.25Q181 693 188 693Q195 693 195 685.50Q195 678 188 678Q181 678 181 685.50Z"  horiz-adv-x="225" vert-adv-y="1000"  />

      
      <glyph glyph-name="unia9" unicode="&#xa9;" d="M405 712Q522 712 597.50 635Q673 558 673 435Q673 314 597.50 236Q522 158 405 158Q328 158 267 192.50Q206 227 171.50 290.50Q137 354 137 435Q137 556 212.50 634Q288 712 405 712M405 708Q290 708 215.50 631.50Q141 555 141 435Q141 314 215 238Q289 162 405 162Q520 162 594.50 238.50Q669 315 669 435Q669 556 595 632Q521 708 405 708M403 602Q449 602 481 576L479 573Q447 599 403 599Q355 599 318 558.50Q281 518 281 437Q281 357 314.50 315.50Q348 274 401 274Q454 274 490 304L492 301Q457 270 401 270Q347 270 312 312.50Q277 355 277 437Q277 480 288.50 513Q300 546 319 565Q338 584 359.50 593Q381 602 403 602Z"  horiz-adv-x="810" vert-adv-y="1000"  />

      
      <glyph glyph-name="uniaa" unicode="&#xaa;" d="M257 513L355 513L355 564Q355 619 329.50 647.50Q304 676 245 676Q193 676 128 651L127 655Q192 680 245 680Q306 680 332.50 650.50Q359 621 359 564L359 368Q359 326 368 307Q377 288 402 281L400 278Q375 286 365.50 304Q356 322 356 362Q312 278 218 278Q161 278 129 310Q97 342 97 394Q97 451 140 482Q183 513 257 513M218 282Q252 282 278 292Q304 302 322 320.50Q340 339 355 368L355 510L257 510Q184 510 143 479.50Q102 449 102 394Q102 344 132.50 313Q163 282 218 282M98 4L408 4L408 0L98 0L98 4Z"  horiz-adv-x="500" vert-adv-y="1000"  />

      
      <glyph glyph-name="uniab" unicode="&#xab;" d="M243 495L246 493L103 288L247 84L244 82L99 286L99 290L243 495M417 495L421 493L278 288L421 84L418 82L273 286L273 290L417 495Z"  horiz-adv-x="520" vert-adv-y="1000"  />

      
      <glyph glyph-name="uniac" unicode="&#xac;" d="M404 323L404 213L400 213L400 319L84 319L84 323L404 323Z"  horiz-adv-x="489" vert-adv-y="1000"  />

      
      <glyph glyph-name="uniad" unicode="&#xad;" d="M84 310L84 314L316 314L316 310L84 310Z"  horiz-adv-x="400" vert-adv-y="1000"  />

      
      <glyph glyph-name="uniae" unicode="&#xae;" d="M317 710Q410 710 468 651Q526 592 526 504Q526 413 470.50 352.50Q415 292 317 292Q224 292 166.50 351Q109 410 109 499Q109 590 164 650Q219 710 317 710M317 296Q414 296 468 355.50Q522 415 522 504Q522 591 465.50 649Q409 707 317 707Q220 707 166 647.50Q112 588 112 499Q112 412 168.50 354Q225 296 317 296M398 565Q398 532 379.50 514.50Q361 497 333 494L407 371L403 371L329 494L254 494L254 372L250 372L250 639L306 639Q398 639 398 565M254 498L324 498Q355 498 374.50 515Q394 532 394 565Q394 635 306 635L254 635L254 498Z"  horiz-adv-x="634" vert-adv-y="1000"  />

      
      <glyph glyph-name="uniaf" unicode="&#xaf;" d="M222 689L30 689L30 692L222 692L222 689Z"  horiz-adv-x="252" vert-adv-y="1000"  />

      
      <glyph glyph-name="unib0" unicode="&#xb0;" d="M220 420Q165 420 129.50 457.50Q94 495 94 556Q94 614 129.50 652Q165 690 220 690Q278 690 312.50 652.50Q347 615 347 555Q347 515 332 484.50Q317 454 288 437Q259 420 220 420M220 424Q277 424 310 459.50Q343 495 343 555Q343 613 310 649.50Q277 686 220 686Q167 686 132.50 649Q98 612 98 556Q98 497 132.50 460.50Q167 424 220 424Z"  horiz-adv-x="521" vert-adv-y="1000"  />

      
      <glyph glyph-name="unib1" unicode="&#xb1;" d="M241 489L241 333L394 333L394 329L241 329L241 173L237 173L237 329L84 329L84 333L237 333L237 489L241 489M84 0L84 4L394 4L394 0L84 0Z"  horiz-adv-x="479" vert-adv-y="1000"  />

      
      <glyph glyph-name="unib2" unicode="&#xb2;" d="M199 734Q232 734 255 720.50Q278 707 289.50 684.50Q301 662 301 633Q301 611 298 594Q295 577 283 554.50Q271 532 261 516Q251 500 221.50 465.50Q192 431 170 406.50Q148 382 97 327Q94 324 93 322L313 322L312 318L88 318L88 322Q132 370 153.50 393.50Q175 417 203 448.50Q231 480 242 496Q253 512 267 533Q281 554 285.50 568Q290 582 293.50 598.50Q297 615 297 633Q297 676 271.50 703.50Q246 731 199 731Q165 731 140 718Q115 705 92 678L88 680Q136 734 199 734Z"  horiz-adv-x="400" vert-adv-y="1000"  />

      
      <glyph glyph-name="unib3" unicode="&#xb3;" d="M201 735Q249 735 277.50 707.50Q306 680 306 636Q306 606 292.50 583.50Q279 561 258.50 550.50Q238 540 213 537Q243 536 266 524Q289 512 303.50 488Q318 464 318 430Q318 378 284.50 345Q251 312 198 312Q128 312 82 363L86 366Q102 348 118.50 337Q135 326 154 321Q173 316 198 316Q232 316 258.50 330.50Q285 345 299.50 370.50Q314 396 314 429Q314 481 283 508Q252 535 198 535L176 535L176 539L200 539Q226 539 249 549Q272 559 287 581.50Q302 604 302 636Q302 678 275 704.50Q248 731 201 731Q141 731 97 687L94 690Q141 735 201 735Z"  horiz-adv-x="400" vert-adv-y="1000"  />

      
      <glyph glyph-name="unib4" unicode="&#xb4;" d="M198 748L200 743L32 661L30 665L198 748Z"  horiz-adv-x="230" vert-adv-y="1000"  />

      
      <glyph glyph-name="unib5" unicode="&#xb5;" d="M477 1L473 0Q448 75 446 145Q418 74 369 32.50Q320-9 254-9Q143-9 128 100Q128 12 128-58L128-190L124-190L124 517L128 517L128 135Q128 62 162.50 28.50Q197-5 254-5Q298-5 336 15.50Q374 36 400.50 70Q427 104 446 151L446 152L446 517L450 517L450 161Q450 80 477 1Z"  horiz-adv-x="581" vert-adv-y="1000"  />

      
      <glyph glyph-name="unib6" unicode="&#xb6;" d="M341 680L495 680L495-190L491-191L491 676L344 676L344-190L340-191L340 311Q231 312 180 363.50Q129 415 129 496Q129 582 187 631Q245 680 341 680Z"  horiz-adv-x="683" vert-adv-y="1000"  />

      
      <glyph glyph-name="unib7" unicode="&#xb7;" d="M54 328.50Q54 328.50 54 332.75Q54 337 62.50 337Q71 337 71 328.50Q71 320 62.50 320Q54 320 54 328.50Z"  horiz-adv-x="124" vert-adv-y="1000"  />

      
      <glyph glyph-name="unib8" unicode="&#xb8;" d="M75-6L71-81Q161-83 161-141Q161-173 141-188Q121-203 92-203Q56-203 30-187L32-183Q57-199 92-199Q120-199 138.50-185Q157-171 157-141Q157-113 135.50-99Q114-85 67-85L72-6L75-6Z"  horiz-adv-x="191" vert-adv-y="1000"  />

      
      <glyph glyph-name="unib9" unicode="&#xb9;" d="M231 728L231 318L227 318L227 723L110 652L108 655L228 728L231 728Z"  horiz-adv-x="400" vert-adv-y="1000"  />

      
      <glyph glyph-name="uniba" unicode="&#xba;" d="M133 627Q133 627 155 653.50Q177 680 251 680Q325 680 368 627.50Q411 575 411 482Q411 385 367.50 331.50Q324 278 249 278Q174 278 131.50 331.50Q89 385 89 479Q89 574 133 627M364.50 624.50Q364.50 624.50 343.75 650.25Q323 676 250.50 676Q178 676 135.50 624.50Q93 573 93 479Q93 433 104 396Q115 359 135 334Q155 309 184 295.50Q213 282 249 282Q322 282 364 334.50Q406 387 406 482Q406 573 364.50 624.50M95 0L95 4L405 4L405 0L95 0Z"  horiz-adv-x="500" vert-adv-y="1000"  />

      
      <glyph glyph-name="unibb" unicode="&#xbb;" d="M103 495L247 290L247 286L102 82L99 84L243 288L100 493L103 495M271 495L415 290L415 286L270 82L267 84L411 288L268 493L271 495Z"  horiz-adv-x="514" vert-adv-y="1000"  />

      
      <glyph glyph-name="unibc" unicode="&#xbc;" d="M637 734L641 733L237-67L233-66L637 734M108 608L228 680L231 680L231 271L227 271L227 676L110 604L108 608M804 124L804 120L743 120L743 0L739 0L739 120L543 120L543 125L679 416L683 415L547 124L739 124L739 259L743 259L743 124L804 124Z"  horiz-adv-x="874" vert-adv-y="1000"  />

      
      <glyph glyph-name="unibd" unicode="&#xbd;" d="M637 734L641 733L237-67L233-66L637 734M231 680L231 271L227 271L227 676L110 604L108 608L228 680L231 680M673 416Q722 416 748.50 387.50Q775 359 775 315Q775 254 733 195Q703 152 567 4L787 4L786 0L562 0L562 4Q613 60 637 86Q661 112 690.50 146.50Q720 181 730.50 197.50Q741 214 753 236.50Q765 259 768 276Q771 293 771 314Q771 357 745.50 384.50Q720 412 673 412Q639 412 614 399Q589 386 566 360L562 362Q610 416 673 416Z"  horiz-adv-x="874" vert-adv-y="1000"  />

      
      <glyph glyph-name="unibe" unicode="&#xbe;" d="M637 734L641 733L237-67L233-66L637 734M318 382Q318 330 284.50 297.50Q251 265 198 265Q128 265 82 316L86 318Q109 291 135 280Q161 269 198 269Q232 269 258.50 283.50Q285 298 299.50 323.50Q314 349 314 381Q314 433 283 460.50Q252 488 198 488L176 488L176 492L200 492Q226 492 249 502Q272 512 287 534.50Q302 557 302 589Q302 631 275 657Q248 683 201 683Q141 683 97 640L94 642Q141 687 201 687Q249 687 277.50 660Q306 633 306 589Q306 544 279 518.50Q252 493 212 490Q259 488 288.50 460.50Q318 433 318 382M804 124L804 120L743 120L743 0L739 0L739 120L543 120L543 125L679 416L683 415L547 124L739 124L739 259L743 259L743 124L804 124Z"  horiz-adv-x="874" vert-adv-y="1000"  />

      
      <glyph glyph-name="unibf" unicode="&#xbf;" d="M264 431.50Q264 431.50 264 427.25Q264 423 255.50 423Q247 423 247 431.50Q247 440 255.50 440Q264 440 264 431.50M213-192Q172-192 139-175.50Q106-159 87.50-130.50Q69-102 69-68Q69-34 82.50-8Q96 18 116.50 34Q137 50 161 68.50Q185 87 205.50 104Q226 121 239.50 150Q253 179 253 216L253 255L257 255L257 216Q257 178 243.50 148.50Q230 119 209.50 102Q189 85 165 67Q141 49 120.50 33.50Q100 18 86.50-8.50Q73-35 73-68Q73-119 112.50-154Q152-189 213-189Q309-189 375-109L379-112Q310-192 213-192Z"  horiz-adv-x="447" vert-adv-y="1000"  />

      
      <glyph glyph-name="unic0" unicode="&#xc0;" d="M368 774L367 770L200 840L202 844L368 774M518 0L442 212L113 212L38 0L34 0L275 680L279 680L522 0L518 0M115 216L441 216L277 676L115 216Z"  horiz-adv-x="556" vert-adv-y="1000"  />

      
      <glyph glyph-name="unic1" unicode="&#xc1;" d="M360 840L193 770L191 774L358 844L360 840M518 0L442 212L113 212L38 0L34 0L275 680L279 680L522 0L518 0M115 216L441 216L277 676L115 216Z"  horiz-adv-x="556" vert-adv-y="1000"  />

      
      <glyph glyph-name="unic2" unicode="&#xc2;" d="M277 848L170 770L167 772L276 852L279 852L389 772L386 770L277 848M518 0L442 212L113 212L38 0L34 0L275 680L279 680L522 0L518 0M115 216L441 216L277 676L115 216Z"  horiz-adv-x="556" vert-adv-y="1000"  />

      
      <glyph glyph-name="unic3" unicode="&#xc3;" d="M220 855Q202 855 189 847Q176 839 158 820L155 822Q173 842 187 850.50Q201 859 220 859Q240 859 276 837Q312 815 333 815Q353 815 367 823.50Q381 832 397 852L400 851Q384 829 369.50 820Q355 811 333 811Q311 811 274.50 833Q238 855 220 855M518 0L442 212L113 212L38 0L34 0L275 680L279 680L522 0L518 0M115 216L441 216L277 676L115 216Z"  horiz-adv-x="556" vert-adv-y="1000"  />

      
      <glyph glyph-name="unic4" unicode="&#xc4;" d="M210 811.50Q210 811.50 210 807.75Q210 804 202.50 804Q195 804 195 811.50Q195 819 202.50 819Q210 819 210 811.50M360 811.50Q360 811.50 360 807.75Q360 804 352.50 804Q345 804 345 811.50Q345 819 352.50 819Q360 819 360 811.50M518 0L442 212L113 212L38 0L34 0L275 680L279 680L522 0L518 0M115 216L441 216L277 676L115 216Z"  horiz-adv-x="556" vert-adv-y="1000"  />

      
      <glyph glyph-name="unic5" unicode="&#xc5;" d="M278 780Q247 780 230 797.50Q213 815 213 844Q213 874 230.50 892Q248 910 278 910Q309 910 326 892.50Q343 875 343 845Q343 816 325.50 798Q308 780 278 780M278 906Q250 906 233.50 889Q217 872 217 844Q217 816 233 800Q249 784 278 784Q297 784 310.50 791.50Q324 799 331.50 813Q339 827 339 845Q339 874 323 890Q307 906 278 906M518 0L442 212L113 212L38 0L34 0L275 680L279 680L522 0L518 0M115 216L441 216L277 676L115 216Z"  horiz-adv-x="556" vert-adv-y="1000"  />

      
      <glyph glyph-name="unic6" unicode="&#xc6;" d="M467 4L701 4L701 0L463 0L409 204L103 204L24 0L20 0L283 680L646 680L646 676L290 676L372 363L637 363L637 359L373 359L467 4M105 208L408 208L285 676L105 208Z"  horiz-adv-x="751" vert-adv-y="1000"  />

      
      <glyph glyph-name="unic7" unicode="&#xc7;" d="M336-81Q426-83 426-141Q426-173 406-188Q386-203 356-203Q321-203 295-187L296-183Q321-199 356-199Q374-199 388-194Q402-189 412-175Q422-161 422-141Q422-113 400.50-99Q379-85 332-85L336-9Q221-7 152.50 84Q84 175 84 339Q84 512 154.50 601Q225 690 342 690Q430 690 495 633L493 630Q428 686 342 686Q226 686 157 598.50Q88 511 88 339Q88 175 157 85Q226-5 341-5Q432-5 502 54L504 50Q434-9 341-9L339-9L336-81Z"  horiz-adv-x="530" vert-adv-y="1000"  />

      
      <glyph glyph-name="unic8" unicode="&#xc8;" d="M208 844L375 774L373 770L206 840L208 844M436 680L436 676L133 676L133 363L393 363L393 359L133 359L133 4L446 4L446 0L129 0L129 680L436 680Z"  horiz-adv-x="495" vert-adv-y="1000"  />

      
      <glyph glyph-name="unic9" unicode="&#xc9;" d="M364 844L366 840L199 770L198 774L364 844M436 680L436 676L133 676L133 363L393 363L393 359L133 359L133 4L446 4L446 0L129 0L129 680L436 680Z"  horiz-adv-x="495" vert-adv-y="1000"  />

      
      <glyph glyph-name="unica" unicode="&#xca;" d="M176 770L174 772L282 852L285 852L395 772L392 770L283 848L176 770M436 680L436 676L133 676L133 363L393 363L393 359L133 359L133 4L446 4L446 0L129 0L129 680L436 680Z"  horiz-adv-x="495" vert-adv-y="1000"  />

      
      <glyph glyph-name="unicb" unicode="&#xcb;" d="M201 811.50Q201 811.50 201 815.25Q201 819 208.50 819Q216 819 216 811.50Q216 804 208.50 804Q201 804 201 811.50M352 811.50Q352 811.50 352 815.25Q352 819 359 819Q366 819 366 811.50Q366 804 359 804Q352 804 352 811.50M436 680L436 676L133 676L133 363L393 363L393 359L133 359L133 4L446 4L446 0L129 0L129 680L436 680Z"  horiz-adv-x="495" vert-adv-y="1000"  />

      
      <glyph glyph-name="unicc" unicode="&#xcc;" d="M55 844L222 774L220 770L53 840L55 844M133 680L133 0L129 0L129 680L133 680Z"  horiz-adv-x="263" vert-adv-y="1000"  />

      
      <glyph glyph-name="unicd" unicode="&#xcd;" d="M211 844L213 840L46 770L44 774L211 844M133 680L133 0L129 0L129 680L133 680Z"  horiz-adv-x="263" vert-adv-y="1000"  />

      
      <glyph glyph-name="unice" unicode="&#xce;" d="M24 770L21 772L129 852L132 852L242 772L239 770L130 848L24 770M133 680L133 0L129 0L129 680L133 680Z"  horiz-adv-x="263" vert-adv-y="1000"  />

      
      <glyph glyph-name="unicf" unicode="&#xcf;" d="M48 811.50Q48 811.50 48 815.25Q48 819 55.50 819Q63 819 63 811.50Q63 804 55.50 804Q48 804 48 811.50M199 811.50Q199 811.50 199 815.25Q199 819 206.50 819Q214 819 214 811.50Q214 804 206.50 804Q199 804 199 811.50M133 680L133 0L129 0L129 680L133 680Z"  horiz-adv-x="263" vert-adv-y="1000"  />

      
      <glyph glyph-name="unid0" unicode="&#xd0;" d="M229 680Q277 680 316 672.50Q355 665 395 643Q435 621 462 585.50Q489 550 506.50 489Q524 428 524 348Q524 280 512.50 225.50Q501 171 480 133.50Q459 96 432.50 69.50Q406 43 372.50 28Q339 13 306 6.50Q273 0 236 0L124 0L124 351L30 351L30 355L124 355L124 680L229 680M236 4Q281 4 319 13Q357 22 395 46Q433 70 460 107.50Q487 145 503.50 206.50Q520 268 520 348Q520 428 503 487.50Q486 547 459 582.50Q432 618 392.50 639.50Q353 661 314.50 668.50Q276 676 229 676L128 676L128 355L323 355L323 351L128 351L128 4L236 4Z"  horiz-adv-x="608" vert-adv-y="1000"  />

      
      <glyph glyph-name="unid1" unicode="&#xd1;" d="M387 811Q364 811 328 833Q292 855 274 855Q256 855 242.50 847Q229 839 212 820L208 822Q227 842 241 850.50Q255 859 274 859Q293 859 329 837Q365 815 387 815Q401 815 411.50 819Q422 823 431 831Q440 839 450 852L454 851Q437 829 422.50 820Q408 811 387 811M525 680L525 0L520 0L133 676Q133 644 133 565L133 0L129 0L129 680L135 680L522 4Q521 86 521 143L521 680L525 680Z"  horiz-adv-x="655" vert-adv-y="1000"  />

      
      <glyph glyph-name="unid2" unicode="&#xd2;" d="M268 844L434 774L433 770L266 840L268 844M343 690Q465 690 534 598Q603 506 603 340Q603 174 535.50 82.50Q468-9 343-9Q223-9 153.50 83Q84 175 84 338Q84 501 155 595.50Q226 690 343 690M343 686Q227 686 157.50 592.50Q88 499 88 338Q88 177 156.50 86Q225-5 343-5Q425-5 482.50 36Q540 77 569.50 154Q599 231 599 340Q599 504 531 595Q463 686 343 686Z"  horiz-adv-x="687" vert-adv-y="1000"  />

      
      <glyph glyph-name="unid3" unicode="&#xd3;" d="M424 844L426 840L259 770L257 774L424 844M343 690Q465 690 534 598Q603 506 603 340Q603 174 535.50 82.50Q468-9 343-9Q223-9 153.50 83Q84 175 84 338Q84 501 155 595.50Q226 690 343 690M343 686Q227 686 157.50 592.50Q88 499 88 338Q88 177 156.50 86Q225-5 343-5Q425-5 482.50 36Q540 77 569.50 154Q599 231 599 340Q599 504 531 595Q463 686 343 686Z"  horiz-adv-x="687" vert-adv-y="1000"  />

      
      <glyph glyph-name="unid4" unicode="&#xd4;" d="M236 770L233 772L342 852L345 852L455 772L452 770L343 848L236 770M343 690Q465 690 534 598Q603 506 603 340Q603 174 535.50 82.50Q468-9 343-9Q223-9 153.50 83Q84 175 84 338Q84 501 155 595.50Q226 690 343 690M343 686Q227 686 157.50 592.50Q88 499 88 338Q88 177 156.50 86Q225-5 343-5Q425-5 482.50 36Q540 77 569.50 154Q599 231 599 340Q599 504 531 595Q463 686 343 686Z"  horiz-adv-x="687" vert-adv-y="1000"  />

      
      <glyph glyph-name="unid5" unicode="&#xd5;" d="M399 811Q377 811 340.50 833Q304 855 286 855Q268 855 255 847Q242 839 224 820L221 822Q233 835 242.50 843Q252 851 262.50 855Q273 859 286 859Q306 859 342 837Q378 815 399 815Q419 815 433 823.50Q447 832 463 852L466 851Q450 829 435.50 820Q421 811 399 811M343 690Q465 690 534 598Q603 506 603 340Q603 174 535.50 82.50Q468-9 343-9Q223-9 153.50 83Q84 175 84 338Q84 501 155 595.50Q226 690 343 690M343 686Q227 686 157.50 592.50Q88 499 88 338Q88 177 156.50 86Q225-5 343-5Q425-5 482.50 36Q540 77 569.50 154Q599 231 599 340Q599 504 531 595Q463 686 343 686Z"  horiz-adv-x="687" vert-adv-y="1000"  />

      
      <glyph glyph-name="unid6" unicode="&#xd6;" d="M261 811.50Q261 811.50 261 815.25Q261 819 268.50 819Q276 819 276 811.50Q276 804 268.50 804Q261 804 261 811.50M411 811.50Q411 811.50 411 815.25Q411 819 418.50 819Q426 819 426 811.50Q426 804 418.50 804Q411 804 411 811.50M343 690Q465 690 534 598Q603 506 603 340Q603 174 535.50 82.50Q468-9 343-9Q223-9 153.50 83Q84 175 84 338Q84 501 155 595.50Q226 690 343 690M343 686Q227 686 157.50 592.50Q88 499 88 338Q88 177 156.50 86Q225-5 343-5Q425-5 482.50 36Q540 77 569.50 154Q599 231 599 340Q599 504 531 595Q463 686 343 686Z"  horiz-adv-x="687" vert-adv-y="1000"  />

      
      <glyph glyph-name="unid7" unicode="&#xd7;" d="M371 445L374 443L243 308L374 172L371 170L239 305L108 170L104 172L236 308L104 443L108 445L239 310L371 445Z"  horiz-adv-x="479" vert-adv-y="1000"  />

      
      <glyph glyph-name="unid8" unicode="&#xd8;" d="M442 671Q519 639 561 554Q603 469 603 340Q603 174 535.50 82.50Q468-9 343-9Q292-9 250 8L216-104L212-102L246 10Q169 42 126.50 127Q84 212 84 338Q84 501 155 595.50Q226 690 343 690Q395 690 438 673L472 788L476 787L442 671M88 338Q88 213 129.50 129.50Q171 46 247 13L438 669Q395 686 343 686Q227 686 157.50 592.50Q88 499 88 338M343-5Q425-5 482.50 36Q540 77 569.50 154Q599 231 599 340Q599 467 558 551Q517 635 441 667L250 12Q293-5 343-5Z"  horiz-adv-x="687" vert-adv-y="1000"  />

      
      <glyph glyph-name="unid9" unicode="&#xd9;" d="M241 844L408 774L406 770L239 840L241 844M515 680L515 206Q515 107 467.50 49Q420-9 317-9Q213-9 166 49Q119 107 119 206L119 680L123 680L123 206Q123 108 169.50 51.50Q216-5 317-5Q418-5 464.50 52Q511 109 511 206L511 680L515 680Z"  horiz-adv-x="635" vert-adv-y="1000"  />

      
      <glyph glyph-name="unida" unicode="&#xda;" d="M397 844L399 840L232 770L231 774L397 844M515 680L515 206Q515 107 467.50 49Q420-9 317-9Q213-9 166 49Q119 107 119 206L119 680L123 680L123 206Q123 108 169.50 51.50Q216-5 317-5Q418-5 464.50 52Q511 109 511 206L511 680L515 680Z"  horiz-adv-x="635" vert-adv-y="1000"  />

      
      <glyph glyph-name="unidb" unicode="&#xdb;" d="M210 770L207 772L315 852L318 852L428 772L425 770L316 848L210 770M515 680L515 206Q515 107 467.50 49Q420-9 317-9Q213-9 166 49Q119 107 119 206L119 680L123 680L123 206Q123 108 169.50 51.50Q216-5 317-5Q418-5 464.50 52Q511 109 511 206L511 680L515 680Z"  horiz-adv-x="635" vert-adv-y="1000"  />

      
      <glyph glyph-name="unidc" unicode="&#xdc;" d="M234 811.50Q234 811.50 234 815.25Q234 819 241.50 819Q249 819 249 811.50Q249 804 241.50 804Q234 804 234 811.50M385 811.50Q385 811.50 385 815.25Q385 819 392.50 819Q400 819 400 811.50Q400 804 392.50 804Q385 804 385 811.50M515 680L515 206Q515 107 467.50 49Q420-9 317-9Q213-9 166 49Q119 107 119 206L119 680L123 680L123 206Q123 108 169.50 51.50Q216-5 317-5Q418-5 464.50 52Q511 109 511 206L511 680L515 680Z"  horiz-adv-x="635" vert-adv-y="1000"  />

      
      <glyph glyph-name="unidd" unicode="&#xdd;" d="M321 844L323 840L156 770L154 774L321 844M456 680L243 271L243 0L239 0L239 271L25 680L29 680L241 275L452 680L456 680Z"  horiz-adv-x="481" vert-adv-y="1000"  />

      
      <glyph glyph-name="unide" unicode="&#xde;" d="M253 550Q373 550 430.50 503Q488 456 488 351Q488 153 250 153L133 153L133 0L129 0L129 680L133 680L133 550L253 550M250 157Q484 157 484 351Q484 454 428 500.50Q372 547 253 547L133 547L133 157L250 157Z"  horiz-adv-x="553" vert-adv-y="1000"  />

      
      <glyph glyph-name="unidf" unicode="&#xdf;" d="M289 733Q354 733 392 699Q430 665 430 612Q430 582 417.50 558Q405 534 387.50 518Q370 502 352.50 487.50Q335 473 322.50 456.50Q310 440 310 421Q310 399 324.50 380Q339 361 361 347.50Q383 334 408 315Q433 296 455 276Q477 256 491.50 221Q506 186 506 143Q506 74 469.50 32Q433-10 370-10Q317-10 279 13L281 16Q318-6 370-6Q431-6 466.50 35Q502 76 502 143Q502 186 487.50 220Q473 254 451 274.50Q429 295 403.50 313.50Q378 332 356.50 345.50Q335 359 320.50 378.50Q306 398 306 421Q306 440 318.50 457Q331 474 348.50 488.50Q366 503 383.50 519Q401 535 413.50 559Q426 583 426 612Q426 663 389.50 696.50Q353 730 289 730Q242 730 206 708Q170 686 149 643Q128 600 128 541L128 0L124 0L124 541Q124 631 169.50 682Q215 733 289 733Z"  horiz-adv-x="570" vert-adv-y="1000"  />

      
      <glyph glyph-name="unie0" unicode="&#xe0;" d="M340 665L338 661L170 743L172 748L340 665M396 110Q396 54 407 29Q418 4 449-6L447-9Q416 1 404.50 25.50Q393 50 393 103Q338-9 220-9Q173-9 138.50 11Q104 31 87 65.50Q70 100 70 145Q70 220 123 262Q176 304 269 304L392 304L392 372Q392 446 360 484.50Q328 523 254 523Q189 523 108 490L106 493Q187 527 254 527Q305 527 337 508Q369 489 382.50 455.50Q396 422 396 372L396 110M220-5Q283-5 324 23.50Q365 52 392 110L392 301L269 301Q178 301 126 259.50Q74 218 74 145Q74 78 112.50 36.50Q151-5 220-5Z"  horiz-adv-x="524" vert-adv-y="1000"  />

      
      <glyph glyph-name="unie1" unicode="&#xe1;" d="M330 743L162 661L160 665L328 748L330 743M396 110Q396 54 407 29Q418 4 449-6L447-9Q416 1 404.50 25.50Q393 50 393 103Q338-9 220-9Q173-9 138.50 11Q104 31 87 65.50Q70 100 70 145Q70 220 123 262Q176 304 269 304L392 304L392 372Q392 446 360 484.50Q328 523 254 523Q189 523 108 490L106 493Q187 527 254 527Q305 527 337 508Q369 489 382.50 455.50Q396 422 396 372L396 110M220-5Q283-5 324 23.50Q365 52 392 110L392 301L269 301Q178 301 126 259.50Q74 218 74 145Q74 78 112.50 36.50Q151-5 220-5Z"  horiz-adv-x="524" vert-adv-y="1000"  />

      
      <glyph glyph-name="unie2" unicode="&#xe2;" d="M251 742L143 659L140 662L250 747L253 747L361 662L358 659L251 742M396 110Q396 54 407 29Q418 4 449-6L447-9Q416 1 404.50 25.50Q393 50 393 103Q338-9 220-9Q173-9 138.50 11Q104 31 87 65.50Q70 100 70 145Q70 220 123 262Q176 304 269 304L392 304L392 372Q392 446 360 484.50Q328 523 254 523Q189 523 108 490L106 493Q187 527 254 527Q305 527 337 508Q369 489 382.50 455.50Q396 422 396 372L396 110M220-5Q283-5 324 23.50Q365 52 392 110L392 301L269 301Q178 301 126 259.50Q74 218 74 145Q74 78 112.50 36.50Q151-5 220-5Z"  horiz-adv-x="524" vert-adv-y="1000"  />

      
      <glyph glyph-name="unie3" unicode="&#xe3;" d="M195 729Q177 729 164 721Q151 713 133 694L130 696Q148 716 162 724.50Q176 733 195 733Q215 733 251 711Q287 689 308 689Q329 689 343 697.50Q357 706 372 726L375 725Q367 714 360 706.50Q353 699 345 694.50Q337 690 328 687.50Q319 685 308 685Q286 685 249.50 707Q213 729 195 729M397 110Q397 54 407.50 29Q418 4 449-6L447-9Q416 1 404.50 25.50Q393 50 393 103Q338-9 220-9Q149-9 109.50 33.50Q70 76 70 145Q70 220 123 262Q176 304 269 304L392 304L392 372Q392 446 360 484.50Q328 523 254 523Q189 523 108 490L106 493Q187 527 254 527Q305 527 337 508Q369 489 383 455.50Q397 422 397 372L397 110M220-5Q283-5 324 23.50Q365 52 392 110L392 301L270 301Q178 301 126 259.50Q74 218 74 145Q74 78 112.50 36.50Q151-5 220-5Z"  horiz-adv-x="524" vert-adv-y="1000"  />

      
      <glyph glyph-name="unie4" unicode="&#xe4;" d="M182 685.50Q182 685.50 182 681.75Q182 678 174.50 678Q167 678 167 685.50Q167 693 174.50 693Q182 693 182 685.50M333 685.50Q333 685.50 333 681.75Q333 678 325.50 678Q318 678 318 685.50Q318 693 325.50 693Q333 693 333 685.50M396 110Q396 54 407 29Q418 4 449-6L447-9Q416 1 404.50 25.50Q393 50 393 103Q338-9 220-9Q173-9 138.50 11Q104 31 87 65.50Q70 100 70 145Q70 220 123 262Q176 304 269 304L392 304L392 372Q392 446 360 484.50Q328 523 254 523Q189 523 108 490L106 493Q187 527 254 527Q305 527 337 508Q369 489 382.50 455.50Q396 422 396 372L396 110M220-5Q283-5 324 23.50Q365 52 392 110L392 301L269 301Q178 301 126 259.50Q74 218 74 145Q74 78 112.50 36.50Q151-5 220-5Z"  horiz-adv-x="524" vert-adv-y="1000"  />

      
      <glyph glyph-name="unie5" unicode="&#xe5;" d="M250 654Q230 654 215.50 662Q201 670 193.50 684.50Q186 699 186 718Q186 748 203.50 766Q221 784 250 784Q281 784 298 766.50Q315 749 315 719Q315 690 297.50 672Q280 654 250 654M250 780Q222 780 206 763Q190 746 190 718Q190 700 197 686.50Q204 673 217.50 665.50Q231 658 250 658Q278 658 294.50 675Q311 692 311 719Q311 748 295 764Q279 780 250 780M396 110Q396 54 407 29Q418 4 449-6L447-9Q416 1 404.50 25.50Q393 50 393 103Q338-9 220-9Q173-9 138.50 11Q104 31 87 65.50Q70 100 70 145Q70 220 123 262Q176 304 269 304L392 304L392 372Q392 446 360 484.50Q328 523 254 523Q189 523 107 489L106 493Q187 527 254 527Q305 527 337 508Q369 489 382.50 455.50Q396 422 396 372L396 110M220-5Q283-5 324 23.50Q365 52 392 110L392 301L269 301Q178 301 126 259.50Q74 218 74 145Q74 78 112.50 36.50Q151-5 220-5Z"  horiz-adv-x="524" vert-adv-y="1000"  />

      
      <glyph glyph-name="unie6" unicode="&#xe6;" d="M767 288Q767 266 766 251L397 251Q397 129 449 62Q501-5 590-5Q636-5 671 9Q706 23 742 54L744 50Q720 30 698.50 18Q677 6 649.50-1.50Q622-9 590-9Q499-9 445.50 60Q392 129 392 253L392 301L269 301Q178 301 126 259.50Q74 218 74 145Q74 78 112.50 36.50Q151-5 220-5Q284-5 327 26Q370 57 411 127L412 122Q371 52 327.50 21.50Q284-9 220-9Q149-9 109.50 33.50Q70 76 70 145Q70 220 123 262Q176 304 269 304L392 304L392 372Q392 446 360 484.50Q328 523 254 523Q189 523 107 490L106 493Q187 527 254 527Q305 527 337 508Q369 489 382.50 455.50Q396 422 396 372L396 317Q409 417 460 472Q511 527 589 527Q649 527 689.50 495Q730 463 748.50 410.50Q767 358 767 288M762 255Q763 268 763 288Q763 394 719.50 458.50Q676 523 589 523Q501 523 449 452Q397 381 397 255L762 255Z"  horiz-adv-x="841" vert-adv-y="1000"  />

      
      <glyph glyph-name="unie7" unicode="&#xe7;" d="M275-82Q365-84 365-142Q365-173 345-188.50Q325-204 296-204Q260-204 234-188L236-184Q261-200 296-200Q324-200 342.50-186Q361-172 361-142Q361-114 339.50-100Q318-86 271-86L275-9Q188-7 133.50 63Q79 133 79 256Q79 383 133 455Q187 527 282 527Q357 527 411 477L408 475Q356 523 282 523Q190 523 136.50 452.50Q83 382 83 256Q83 134 138 64.50Q193-5 280-5Q357-5 412 46L415 44Q358-9 280-9L279-9L275-82Z"  horiz-adv-x="469" vert-adv-y="1000"  />

      
      <glyph glyph-name="unie8" unicode="&#xe8;" d="M365 665L364 661L196 743L198 748L365 665M454 288Q454 266 453 251L83 251Q84 129 136 62Q188-5 276-5Q323-5 358 9Q393 23 429 54L431 50Q394 20 359 5.50Q324-9 276-9Q185-9 132 60Q79 129 79 253Q79 382 132 454.50Q185 527 276 527Q364 527 409 461.50Q454 396 454 288M449 255Q450 268 450 288Q450 394 406.50 458.50Q363 523 276 523Q187 523 135.50 452Q84 381 83 255L449 255Z"  horiz-adv-x="528" vert-adv-y="1000"  />

      
      <glyph glyph-name="unie9" unicode="&#xe9;" d="M355 743L187 661L186 665L353 748L355 743M454 288Q454 266 453 251L83 251Q84 129 136 62Q188-5 276-5Q323-5 358 9Q393 23 429 54L431 50Q394 20 359 5.50Q324-9 276-9Q185-9 132 60Q79 129 79 253Q79 382 132 454.50Q185 527 276 527Q364 527 409 461.50Q454 396 454 288M449 255Q450 268 450 288Q450 394 406.50 458.50Q363 523 276 523Q187 523 135.50 452Q84 381 83 255L449 255Z"  horiz-adv-x="528" vert-adv-y="1000"  />

      
      <glyph glyph-name="uniea" unicode="&#xea;" d="M277 742L168 659L165 662L275 747L278 747L386 662L384 659L277 742M454 288Q454 266 453 251L83 251Q84 129 136 62Q188-5 276-5Q323-5 358 9Q393 23 429 54L431 50Q394 20 359 5.50Q324-9 276-9Q185-9 132 60Q79 129 79 253Q79 382 132 454.50Q185 527 276 527Q364 527 409 461.50Q454 396 454 288M449 255Q450 268 450 288Q450 394 406.50 458.50Q363 523 276 523Q187 523 135.50 452Q84 381 83 255L449 255Z"  horiz-adv-x="528" vert-adv-y="1000"  />

      
      <glyph glyph-name="unieb" unicode="&#xeb;" d="M207 685.50Q207 685.50 207 681.75Q207 678 200 678Q193 678 193 685.50Q193 693 200 693Q207 693 207 685.50M358 685.50Q358 685.50 358 681.75Q358 678 350.50 678Q343 678 343 685.50Q343 693 350.50 693Q358 693 358 685.50M454 288Q454 266 453 251L83 251Q84 129 136 62Q188-5 276-5Q323-5 358 9Q393 23 429 54L431 50Q394 20 359 5.50Q324-9 276-9Q185-9 132 60Q79 129 79 253Q79 382 132 454.50Q185 527 276 527Q364 527 409 461.50Q454 396 454 288M449 255Q450 268 450 288Q450 394 406.50 458.50Q363 523 276 523Q187 523 135.50 452Q84 381 83 255L449 255Z"  horiz-adv-x="528" vert-adv-y="1000"  />

      
      <glyph glyph-name="uniec" unicode="&#xec;" d="M48 748L216 665L214 661L46 743L48 748M128 517L128 0L124 0L124 517L128 517Z"  horiz-adv-x="253" vert-adv-y="1000"  />

      
      <glyph glyph-name="unied" unicode="&#xed;" d="M204 748L206 743L38 661L36 665L204 748M128 517L128 0L124 0L124 517L128 517Z"  horiz-adv-x="253" vert-adv-y="1000"  />

      
      <glyph glyph-name="uniee" unicode="&#xee;" d="M18 659L16 662L126 747L129 747L237 662L234 659L127 742L18 659M128 517L128 0L124 0L124 517L128 517Z"  horiz-adv-x="253" vert-adv-y="1000"  />

      
      <glyph glyph-name="unief" unicode="&#xef;" d="M43 685.50Q43 685.50 43 689.25Q43 693 50.50 693Q58 693 58 685.50Q58 678 50.50 678Q43 678 43 685.50M194 685.50Q194 685.50 194 689.25Q194 693 201 693Q208 693 208 685.50Q208 678 201 678Q194 678 194 685.50M128 517L128 0L124 0L124 517L128 517Z"  horiz-adv-x="253" vert-adv-y="1000"  />

      
      <glyph glyph-name="unif0" unicode="&#xf0;" d="M299 669Q456 557 456 320Q456-9 264-9Q179-9 129 56Q79 121 79 228Q79 325 128 391Q177 457 260 457Q373 457 452 339Q446 558 297 666L209 575L205 577L294 669Q232 711 151 731L152 734Q235 715 296 671L359 738L362 736L299 669M264-5Q452-5 452 320Q452 329 452 334Q371 454 260 454Q179 454 131 389Q83 324 83 228Q83 122 132 58.50Q181-5 264-5Z"  horiz-adv-x="540" vert-adv-y="1000"  />

      
      <glyph glyph-name="unif1" unicode="&#xf1;" d="M240 729Q222 729 208.50 721Q195 713 178 694L175 696Q193 716 207 724.50Q221 733 240 733Q259 733 295 711Q331 689 353 689Q373 689 387 697.50Q401 706 417 726L420 725Q404 703 389 694Q374 685 353 685Q331 685 294.50 707Q258 729 240 729M326 527Q461 527 461 368L461 0L457 0L457 368Q457 523 326 523Q206 523 128 387L128 0L124 0L124 517L128 517L128 393Q205 527 326 527Z"  horiz-adv-x="580" vert-adv-y="1000"  />

      
      <glyph glyph-name="unif2" unicode="&#xf2;" d="M202 748L370 665L368 661L200 743L202 748M133.50 456.50Q133.50 456.50 160.75 491.75Q188 527 280.50 527Q373 527 426.50 457Q480 387 480 262Q480 133 426 62Q372-9 279-9Q186-9 132.50 62Q79 133 79 258Q79 386 133.50 456.50M424 454Q424 454 398 488.50Q372 523 281 523Q190 523 136.50 453.50Q83 384 83 258Q83 134 135 64.50Q187-5 279-5Q371-5 423.50 65Q476 135 476 262Q476 385 424 454Z"  horiz-adv-x="559" vert-adv-y="1000"  />

      
      <glyph glyph-name="unif3" unicode="&#xf3;" d="M358 748L360 743L191 661L190 665L358 748M133.50 456.50Q133.50 456.50 160.75 491.75Q188 527 280.50 527Q373 527 426.50 457Q480 387 480 262Q480 133 426 62Q372-9 279-9Q186-9 132.50 62Q79 133 79 258Q79 386 133.50 456.50M424 454Q424 454 398 488.50Q372 523 281 523Q190 523 136.50 453.50Q83 384 83 258Q83 134 135 64.50Q187-5 279-5Q371-5 423.50 65Q476 135 476 262Q476 385 424 454Z"  horiz-adv-x="559" vert-adv-y="1000"  />

      
      <glyph glyph-name="unif4" unicode="&#xf4;" d="M172 659L169 662L279 747L282 747L391 662L388 659L281 742L172 659M133.50 456.50Q133.50 456.50 160.75 491.75Q188 527 280.50 527Q373 527 426.50 457Q480 387 480 262Q480 133 426 62Q372-9 279-9Q186-9 132.50 62Q79 133 79 258Q79 386 133.50 456.50M424 454Q424 454 398 488.50Q372 523 281 523Q190 523 136.50 453.50Q83 384 83 258Q83 134 135 64.50Q187-5 279-5Q371-5 423.50 65Q476 135 476 262Q476 385 424 454Z"  horiz-adv-x="559" vert-adv-y="1000"  />

      
      <glyph glyph-name="unif5" unicode="&#xf5;" d="M338 685Q316 685 279.50 707Q243 729 225 729Q213 729 202.50 725Q192 721 183.50 714Q175 707 163 694L160 696Q178 716 192 724.50Q206 733 225 733Q244 733 280 711Q316 689 338 689Q358 689 372 697.50Q386 706 402 726L405 725Q389 703 374 694Q359 685 338 685M281 527Q342 527 387 496Q432 465 456 405Q480 345 480 262Q480 133 426 62Q372-9 279-9Q186-9 132.50 62Q79 133 79 258Q79 386 133.50 456.50Q188 527 281 527M424 454Q424 454 398 488.50Q372 523 281 523Q190 523 136.50 453.50Q83 384 83 258Q83 134 135 64.50Q187-5 279-5Q371-5 423.50 65Q476 135 476 262Q476 385 424 454Z"  horiz-adv-x="559" vert-adv-y="1000"  />

      
      <glyph glyph-name="unif6" unicode="&#xf6;" d="M197 685.50Q197 685.50 197 689.25Q197 693 204.50 693Q212 693 212 685.50Q212 678 204.50 678Q197 678 197 685.50M347 685.50Q347 685.50 347 689.25Q347 693 354.50 693Q362 693 362 685.50Q362 678 354.50 678Q347 678 347 685.50M133.50 456.50Q133.50 456.50 160.75 491.75Q188 527 280.50 527Q373 527 426.50 457Q480 387 480 262Q480 133 426 62Q372-9 279-9Q186-9 132.50 62Q79 133 79 258Q79 386 133.50 456.50M424 454Q424 454 398 488.50Q372 523 281 523Q190 523 136.50 453.50Q83 384 83 258Q83 134 135 64.50Q187-5 279-5Q371-5 423.50 65Q476 135 476 262Q476 385 424 454Z"  horiz-adv-x="559" vert-adv-y="1000"  />

      
      <glyph glyph-name="unif7" unicode="&#xf7;" d="M231 529.50Q231 529.50 231 533.75Q231 538 239.50 538Q248 538 248 529.50Q248 521 239.50 521Q231 521 231 529.50M84 329L84 333L394 333L394 329L84 329M231 132Q231 132 231 136.50Q231 141 239.50 141Q248 141 248 132Q248 123 239.50 123Q231 123 231 132Z"  horiz-adv-x="479" vert-adv-y="1000"  />

      
      <glyph glyph-name="unif8" unicode="&#xf8;" d="M363 509Q419 483 449.50 419Q480 355 480 262Q480 133 426 62Q372-9 279-9Q235-9 199 8L159-113L155-112L195 9Q158 27 132.50 61.50Q107 96 93 146Q79 196 79 258Q79 386 133.50 456.50Q188 527 281 527Q324 527 360 511L400 631L403 630L363 509M83 258Q83 166 112.50 103Q142 40 196 13L359 507Q324 523 281 523Q190 523 136.50 453.50Q83 384 83 258M279-5Q340-5 384 26Q428 57 452 117.50Q476 178 476 262Q476 354 446.50 416.50Q417 479 362 506L200 11Q235-5 279-5Z"  horiz-adv-x="559" vert-adv-y="1000"  />

      
      <glyph glyph-name="unif9" unicode="&#xf9;" d="M211 748L379 665L378 661L209 743L211 748M451 517L451 0L447 0L447 115Q379-9 261-9Q217-9 185.50 9Q154 27 136.50 63Q119 99 119 150L119 517L123 517L123 150Q123 75 159.50 35Q196-5 261-5Q377-5 447 121L447 517L451 517Z"  horiz-adv-x="575" vert-adv-y="1000"  />

      
      <glyph glyph-name="unifa" unicode="&#xfa;" d="M367 748L369 743L201 661L199 665L367 748M451 517L451 0L447 0L447 115Q379-9 261-9Q217-9 185.50 9Q154 27 136.50 63Q119 99 119 150L119 517L123 517L123 150Q123 75 159.50 35Q196-5 261-5Q377-5 447 121L447 517L451 517Z"  horiz-adv-x="575" vert-adv-y="1000"  />

      
      <glyph glyph-name="unifb" unicode="&#xfb;" d="M182 659L179 662L289 747L292 747L400 662L397 659L291 742L182 659M451 517L451 0L447 0L447 115Q379-9 261-9Q217-9 185.50 9Q154 27 136.50 63Q119 99 119 150L119 517L123 517L123 150Q123 75 159.50 35Q196-5 261-5Q377-5 447 121L447 517L451 517Z"  horiz-adv-x="575" vert-adv-y="1000"  />

      
      <glyph glyph-name="unifc" unicode="&#xfc;" d="M206 685.50Q206 685.50 206 689.25Q206 693 213.50 693Q221 693 221 685.50Q221 678 213.50 678Q206 678 206 685.50M357 685.50Q357 685.50 357 689.25Q357 693 364.50 693Q372 693 372 685.50Q372 678 364.50 678Q357 678 357 685.50M451 517L451 0L447 0L447 115Q379-9 261-9Q217-9 185.50 9Q154 27 136.50 63Q119 99 119 150L119 517L123 517L123 150Q123 75 159.50 35Q196-5 261-5Q377-5 447 121L447 517L451 517Z"  horiz-adv-x="575" vert-adv-y="1000"  />

      
      <glyph glyph-name="unifd" unicode="&#xfd;" d="M295 748L297 743L129 661L127 665L295 748M406 517L227 0Q211-48 199.50-74Q188-100 169-125Q150-150 125-164Q100-178 61-190L61-186Q99-175 123.50-161Q148-147 166-122.50Q184-98 195.50-72.50Q207-47 224 0L221 0L29 517L34 517L224 2L401 517L406 517Z"  horiz-adv-x="435" vert-adv-y="1000"  />

      
      <glyph glyph-name="unife" unicode="&#xfe;" d="M306 527Q392 527 437.50 458.50Q483 390 483 264Q483 135 436.50 63Q390-9 302-9Q195-9 128 96L128-190L124-191L124 730L128 731L128 423Q151 455 175 477Q199 499 233 513Q267 527 306 527M302-5Q388-5 433.50 66Q479 137 479 264Q479 388 434.50 455.50Q390 523 306 523Q249 523 207.50 496.50Q166 470 128 418L128 102Q197-5 302-5Z"  horiz-adv-x="567" vert-adv-y="1000"  />

      
      <glyph glyph-name="uniff" unicode="&#xff;" d="M134 685.50Q134 685.50 134 689.25Q134 693 141.50 693Q149 693 149 685.50Q149 678 141.50 678Q134 678 134 685.50M285 685.50Q285 685.50 285 689.25Q285 693 292.50 693Q300 693 300 685.50Q300 678 292.50 678Q285 678 285 685.50M406 517L227 0Q211-48 199.50-74Q188-100 169-125Q150-150 125-164Q100-178 61-190L61-186Q99-175 123.50-161Q148-147 166-122.50Q184-98 195.50-72.50Q207-47 224 0L221 0L29 517L34 517L224 2L401 517L406 517Z"  horiz-adv-x="435" vert-adv-y="1000"  />

      
      <glyph glyph-name="uni0100" unicode="&#x0100;" d="M374 818L374 815L182 815L182 818L374 818M518 0L442 212L113 212L38 0L34 0L275 680L279 680L522 0L518 0M115 216L441 216L277 676L115 216Z"  horiz-adv-x="556" vert-adv-y="1000"  />

      
      <glyph glyph-name="uni0101" unicode="&#x0101;" d="M346 692L346 689L155 689L155 692L346 692M396 110Q396 54 407 29Q418 4 449-6L447-9Q416 1 404.50 25.50Q393 50 393 103Q338-9 220-9Q173-9 138.50 11Q104 31 87 65.50Q70 100 70 145Q70 220 123 262Q176 304 269 304L392 304L392 372Q392 446 360 484.50Q328 523 254 523Q189 523 108 490L106 493Q187 527 254 527Q305 527 337 508Q369 489 382.50 455.50Q396 422 396 372L396 110M220-5Q283-5 324 23.50Q365 52 392 110L392 301L269 301Q178 301 126 259.50Q74 218 74 145Q74 78 112.50 36.50Q151-5 220-5Z"  horiz-adv-x="524" vert-adv-y="1000"  />

      
      <glyph glyph-name="uni0102" unicode="&#x0102;" d="M341.50 792Q341.50 792 329.25 783Q317 774 278.50 774Q240 774 215 792Q190 810 181 836L184 837Q194 810 218.50 794Q243 778 278 778Q313 778 337.50 794Q362 810 372 837L375 836Q366 810 341.50 792M518 0L442 212L113 212L38 0L34 0L275 680L279 680L522 0L518 0M115 216L441 216L277 676L115 216Z"  horiz-adv-x="556" vert-adv-y="1000"  />

      
      <glyph glyph-name="uni0103" unicode="&#x0103;" d="M314.50 686Q314.50 686 302.25 676Q290 666 250.50 666Q211 666 186.50 686Q162 706 153 738L157 738Q177 670 250.50 670Q324 670 344 738L348 738Q339 706 314.50 686M397 110Q397 54 407.50 29Q418 4 449-6L447-9Q416 1 404.50 25.50Q393 50 393 103Q338-9 220-9Q149-9 109.50 33.50Q70 76 70 145Q70 220 123 262Q176 304 269 304L393 304L393 372Q393 446 360.50 484.50Q328 523 254 523Q189 523 108 490L106 493Q187 527 254 527Q305 527 337 508Q369 489 383 455.50Q397 422 397 372L397 110M220-5Q283-5 324 23.50Q365 52 393 110L393 301L270 301Q178 301 126 259.50Q74 218 74 145Q74 78 112.50 36.50Q151-5 220-5Z"  horiz-adv-x="524" vert-adv-y="1000"  />

      
      <glyph glyph-name="uni0104" unicode="&#x0104;" d="M388-124Q388-145 397-160Q406-175 422.50-183Q439-191 462-191Q486-191 516-183L515-187Q486-195 462-195Q426-195 405-176Q384-157 384-124Q384-49 517 1L442 212L113 212L38 0L34 0L275 680L279 680L522 0Q388-49 388-124M115 216L441 216L277 676L115 216Z"  horiz-adv-x="556" vert-adv-y="1000"  />

      
      <glyph glyph-name="uni0105" unicode="&#x0105;" d="M447-9Q313-58 313-133Q313-165 333-182.50Q353-200 388-200Q412-200 441-192L441-196Q412-204 388-204Q351-204 330-185.50Q309-167 309-133Q309-109 320.50-89Q332-69 353-54Q374-39 395-28.50Q416-18 443-8Q414 3 403.50 27.50Q393 52 393 103Q338-9 220-9Q149-9 109.50 33.50Q70 76 70 145Q70 220 123 262Q176 304 269 304L392 304L392 372Q392 446 360 484.50Q328 523 254 523Q189 523 107 489L106 493Q187 527 254 527Q305 527 337 508Q369 489 382.50 455.50Q396 422 396 372L396 110Q396 54 407 29Q418 4 449-6L447-9M220-5Q283-5 324 23.50Q365 52 392 110L392 301L269 301Q178 301 126 259.50Q74 218 74 145Q74 78 112.50 36.50Q151-5 220-5Z"  horiz-adv-x="524" vert-adv-y="1000"  />

      
      <glyph glyph-name="uni0106" unicode="&#x0106;" d="M423 844L425 840L258 770L256 774L423 844M342 690Q430 690 495 633L493 630Q428 686 342 686Q226 686 157 598.50Q88 511 88 339Q88 175 157 85Q226-5 341-5Q432-5 502 54L504 50Q434-9 341-9Q224-9 154 82Q84 173 84 339Q84 512 154.50 601Q225 690 342 690Z"  horiz-adv-x="530" vert-adv-y="1000"  />

      
      <glyph glyph-name="uni0107" unicode="&#x0107;" d="M353 748L355 743L187 661L185 665L353 748M282 527Q357 527 411 477L408 475Q356 523 282 523Q190 523 136.50 452.50Q83 382 83 256Q83 134 138 64.50Q193-5 280-5Q357-5 412 46L415 44Q358-9 280-9Q191-9 135 61.50Q79 132 79 256Q79 383 133 455Q187 527 282 527Z"  horiz-adv-x="469" vert-adv-y="1000"  />

      
      <glyph glyph-name="uni0108" unicode="&#x0108;" d="M235 770L232 772L340 852L343 852L454 772L451 770L342 848L235 770M342 690Q430 690 495 633L493 630Q428 686 342 686Q226 686 157 598.50Q88 511 88 339Q88 175 157 85Q226-5 341-5Q432-5 502 54L504 50Q434-9 341-9Q224-9 154 82Q84 173 84 339Q84 512 154.50 601Q225 690 342 690Z"  horiz-adv-x="530" vert-adv-y="1000"  />

      
      <glyph glyph-name="uni0109" unicode="&#x0109;" d="M168 659L165 662L275 747L278 747L386 662L383 659L276 742L168 659M282 527Q357 527 411 477L408 475Q356 523 282 523Q190 523 136.50 452.50Q83 382 83 256Q83 134 138 64.50Q193-5 280-5Q357-5 412 46L415 44Q358-9 280-9Q191-9 135 61.50Q79 132 79 256Q79 383 133 455Q187 527 282 527Z"  horiz-adv-x="469" vert-adv-y="1000"  />

      
      <glyph glyph-name="uni010A" unicode="&#x010A;" d="M335 826.50Q335 826.50 335 830.25Q335 834 342.50 834Q350 834 350 826.50Q350 819 342.50 819Q335 819 335 826.50M342 690Q430 690 495 633L493 630Q428 686 342 686Q226 686 157 598.50Q88 511 88 339Q88 175 157 85Q226-5 341-5Q432-5 502 54L504 50Q434-9 341-9Q224-9 154 82Q84 173 84 339Q84 512 154.50 601Q225 690 342 690Z"  horiz-adv-x="530" vert-adv-y="1000"  />

      
      <glyph glyph-name="uni010B" unicode="&#x010B;" d="M268 700.50Q268 700.50 268 704.25Q268 708 275.50 708Q283 708 283 700.50Q283 693 275.50 693Q268 693 268 700.50M282 527Q357 527 411 477L408 475Q356 523 282 523Q190 523 136.50 452.50Q83 382 83 256Q83 134 138 64.50Q193-5 280-5Q357-5 412 46L415 44Q358-9 280-9Q191-9 135 61.50Q79 132 79 256Q79 383 133 455Q187 527 282 527Z"  horiz-adv-x="469" vert-adv-y="1000"  />

      
      <glyph glyph-name="uni010C" unicode="&#x010C;" d="M451 847L454 845L344 764L340 764L232 845L235 847L342 769L451 847M342 690Q430 690 495 633L493 630Q428 686 342 686Q226 686 157 598.50Q88 511 88 339Q88 175 157 85Q226-5 341-5Q432-5 502 54L504 50Q434-9 341-9Q224-9 154 82Q84 173 84 339Q84 512 154.50 601Q225 690 342 690Z"  horiz-adv-x="530" vert-adv-y="1000"  />

      
      <glyph glyph-name="uni010D" unicode="&#x010D;" d="M384 735L387 732L277 647L274 647L166 732L169 735L276 652L384 735M282 527Q357 527 411 477L408 475Q356 523 282 523Q190 523 136.50 452.50Q83 382 83 256Q83 134 138 64.50Q193-5 280-5Q357-5 412 46L415 44Q358-9 280-9Q191-9 135 61.50Q79 132 79 256Q79 383 133 455Q187 527 282 527Z"  horiz-adv-x="469" vert-adv-y="1000"  />

      
      <glyph glyph-name="uni010E" unicode="&#x010E;" d="M397 847L400 845L290 764L287 764L179 845L182 847L289 769L397 847M235 680Q282 680 321.50 672.50Q361 665 400.50 643Q440 621 467.50 585.50Q495 550 512 489Q529 428 529 348Q529 267 512.50 204.50Q496 142 468.50 104Q441 66 402.50 42Q364 18 325 9Q286 0 242 0L129 0L129 680L235 680M235 676L133 676L133 4L242 4Q278 4 311 10.50Q344 17 376.50 31.50Q409 46 435.50 72.50Q462 99 482.50 136Q503 173 514 227Q525 281 525 348Q525 428 508 487.50Q491 547 464 582.50Q437 618 398 639.50Q359 661 320 668.50Q281 676 235 676Z"  horiz-adv-x="614" vert-adv-y="1000"  />

      
      <glyph glyph-name="uni010F" unicode="&#x010F;" d="M444 426L444 731L448 730L448 0L444 0L444 99Q416 48 376 19.50Q336-9 275-9Q187-9 135.50 61Q84 131 84 257Q84 378 137 452.50Q190 527 282 527Q341 527 381.50 498Q422 469 444 426M549 731L553 730L533 593L530 593L549 731M276-5Q317-5 350 10Q383 25 404 48Q425 71 444 106L444 421Q421 465 380.50 494Q340 523 282 523Q192 523 140 450Q88 377 88 257Q88 133 138.50 64Q189-5 276-5Z"  horiz-adv-x="572" vert-adv-y="1000"  />

      
      <glyph glyph-name="uni0110" unicode="&#x0110;" d="M229 680Q277 680 316 672.50Q355 665 395 643Q435 621 462 585.50Q489 550 506.50 489Q524 428 524 348Q524 280 512.50 225.50Q501 171 480 133.50Q459 96 432.50 69.50Q406 43 372.50 28Q339 13 306 6.50Q273 0 236 0L124 0L124 351L30 351L30 355L124 355L124 680L229 680M236 4Q281 4 319 13Q357 22 395 46Q433 70 460 107.50Q487 145 503.50 206.50Q520 268 520 348Q520 428 503 487.50Q486 547 459 582.50Q432 618 392.50 639.50Q353 661 314.50 668.50Q276 676 229 676L128 676L128 355L323 355L323 351L128 351L128 4L236 4Z"  horiz-adv-x="608" vert-adv-y="1000"  />

      
      <glyph glyph-name="uni0111" unicode="&#x0111;" d="M448 641L523 641L523 637L448 637L448 0L444 0L444 99Q416 48 376 19.50Q336-9 275-9Q187-9 135.50 61Q84 131 84 257Q84 378 137 452.50Q190 527 282 527Q341 527 381.50 498Q422 469 444 426L444 637L265 637L265 641L444 641L444 731L448 730L448 641M276-5Q336-5 375.50 24Q415 53 444 106L444 421Q421 465 380.50 494Q340 523 282 523Q192 523 140 450Q88 377 88 257Q88 133 138.50 64Q189-5 276-5Z"  horiz-adv-x="577" vert-adv-y="1000"  />

      
      <glyph glyph-name="uni0112" unicode="&#x0112;" d="M380 815L188 815L188 818L380 818L380 815M436 680L436 676L133 676L133 363L393 363L393 359L133 359L133 4L446 4L446 0L129 0L129 680L436 680Z"  horiz-adv-x="495" vert-adv-y="1000"  />

      
      <glyph glyph-name="uni0113" unicode="&#x0113;" d="M372 692L372 689L180 689L180 692L372 692M454 288Q454 266 453 251L83 251Q84 129 136 62Q188-5 276-5Q323-5 358 9Q393 23 429 54L431 50Q394 20 359 5.50Q324-9 276-9Q185-9 132 60Q79 129 79 253Q79 382 132 454.50Q185 527 276 527Q364 527 409 461.50Q454 396 454 288M449 255Q450 268 450 288Q450 394 406.50 458.50Q363 523 276 523Q187 523 135.50 452Q84 381 83 255L449 255Z"  horiz-adv-x="528" vert-adv-y="1000"  />

      
      <glyph glyph-name="uni0114" unicode="&#x0114;" d="M347.50 792Q347.50 792 335.25 783Q323 774 284.50 774Q246 774 221 792Q196 810 187 836L191 837Q201 810 225.50 794Q250 778 284.50 778Q319 778 343.50 794Q368 810 378 837L382 836Q372 810 347.50 792M436 680L436 676L133 676L133 363L393 363L393 359L133 359L133 4L446 4L446 0L129 0L129 680L436 680Z"  horiz-adv-x="495" vert-adv-y="1000"  />

      
      <glyph glyph-name="uni0115" unicode="&#x0115;" d="M339.50 686Q339.50 686 327.25 676Q315 666 275.50 666Q236 666 211.50 686Q187 706 179 738L182 738Q202 670 275.50 670Q349 670 370 738L373 738Q364 706 339.50 686M454 288Q454 266 453 251L83 251Q84 129 136 62Q188-5 276-5Q308-5 335 2Q362 9 383.50 21.50Q405 34 429 54L431 50Q394 20 359 5.50Q324-9 276-9Q185-9 132 60Q79 129 79 253Q79 382 132 454.50Q185 527 276 527Q364 527 409 461.50Q454 396 454 288M449 255Q450 268 450 288Q450 394 406.50 458.50Q363 523 276 523Q187 523 135.50 452Q84 381 83 255L449 255Z"  horiz-adv-x="528" vert-adv-y="1000"  />

      
      <glyph glyph-name="uni0116" unicode="&#x0116;" d="M277 826.50Q277 826.50 277 830.25Q277 834 284.50 834Q292 834 292 826.50Q292 819 284.50 819Q277 819 277 826.50M436 680L436 676L133 676L133 363L393 363L393 359L133 359L133 4L446 4L446 0L129 0L129 680L436 680Z"  horiz-adv-x="495" vert-adv-y="1000"  />

      
      <glyph glyph-name="uni0117" unicode="&#x0117;" d="M283 700.50Q283 700.50 283 696.75Q283 693 275.50 693Q268 693 268 700.50Q268 708 275.50 708Q283 708 283 700.50M454 288Q454 266 453 251L83 251Q84 129 136 62Q188-5 276-5Q323-5 358 9Q393 23 429 54L431 50Q394 20 359 5.50Q324-9 276-9Q185-9 132 60Q79 129 79 253Q79 382 132 454.50Q185 527 276 527Q364 527 409 461.50Q454 396 454 288M449 255Q450 268 450 288Q450 394 406.50 458.50Q363 523 276 523Q187 523 135.50 452Q84 381 83 255L449 255Z"  horiz-adv-x="528" vert-adv-y="1000"  />

      
      <glyph glyph-name="uni0118" unicode="&#x0118;" d="M133 4L446 4L446 0L416 0Q282-49 282-124Q282-156 302-173.50Q322-191 356-191Q380-191 410-183L409-187Q380-195 356-195Q320-195 299-176Q278-157 278-124Q278-49 408 0L129 0L129 680L436 680L436 676L133 676L133 363L393 363L393 359L133 359L133 4Z"  horiz-adv-x="495" vert-adv-y="1000"  />

      
      <glyph glyph-name="uni0119" unicode="&#x0119;" d="M454 288Q454 266 453 251L83 251Q84 129 136 62Q188-5 276-5Q323-5 358 9Q393 23 429 54L431 50Q387 14 347 1Q221-47 221-116Q221-150 241-168.50Q261-187 295-187Q319-187 348-179L348-183Q319-191 295.50-191Q272-191 254.50-182.50Q237-174 227-157Q217-140 217-116Q217-50 327-4Q304-9 276-9Q185-9 132 60Q79 129 79 253Q79 382 132 454.50Q185 527 276 527Q364 527 409 461.50Q454 396 454 288M449 255Q450 268 450 288Q450 394 406.50 458.50Q363 523 276 523Q187 523 135.50 452Q84 381 83 255L449 255Z"  horiz-adv-x="528" vert-adv-y="1000"  />

      
      <glyph glyph-name="uni011A" unicode="&#x011A;" d="M392 847L395 845L285 764L282 764L174 845L176 847L283 769L392 847M436 680L436 676L133 676L133 363L393 363L393 359L133 359L133 4L446 4L446 0L129 0L129 680L436 680Z"  horiz-adv-x="495" vert-adv-y="1000"  />

      
      <glyph glyph-name="uni011B" unicode="&#x011B;" d="M277 647L274 647L166 732L169 735L276 652L384 735L387 732L277 647M454 288Q454 266 453 251L83 251Q84 129 136 62Q188-5 276-5Q323-5 358 9Q393 23 429 54L431 50Q394 20 359 5.50Q324-9 276-9Q185-9 132 60Q79 129 79 253Q79 382 132 454.50Q185 527 276 527Q364 527 409 461.50Q454 396 454 288M449 255Q450 268 450 288Q450 394 406.50 458.50Q363 523 276 523Q187 523 135.50 452Q84 381 83 255L449 255Z"  horiz-adv-x="528" vert-adv-y="1000"  />

      
      <glyph glyph-name="uni011C" unicode="&#x011C;" d="M230 770L227 772L335 852L338 852L448 772L446 770L337 848L230 770M344 690Q428 690 502 635L499 631Q428 686 344 686Q295 686 250.50 665Q206 644 169.50 604Q133 564 110.50 497Q88 430 88 345Q88 176 159 85.50Q230-5 353-5Q439-5 516 41L516 339L366 339L366 343L520 343L520 39Q440-9 353-9Q228-9 156 82.50Q84 174 84 345Q84 431 106.50 498.50Q129 566 166.50 607Q204 648 249.50 669Q295 690 344 690Z"  horiz-adv-x="600" vert-adv-y="1000"  />

      
      <glyph glyph-name="uni011D" unicode="&#x011D;" d="M136 659L133 662L243 747L246 747L355 662L352 659L245 742L136 659M462 545L463 540Q406 524 277 524Q347 513 383 469Q419 425 419 356Q419 279 373 236.50Q327 194 249 194Q206 194 165 213Q109 179 109 128Q109 94 136.50 75.50Q164 57 217 57L308 57Q376 57 414.50 25.50Q453-6 453-59Q453-192 252-192Q182-192 139-179.50Q96-167 75-138Q54-109 54-60L58-60Q58-131 103-160Q148-189 252-189Q449-189 449-59Q449-42 444.50-27Q440-12 431.50 0.50Q423 13 411 22.50Q399 32 383.50 39Q368 46 348.50 49.50Q329 53 308 53L217 53Q162 53 133.50 72.50Q105 92 105 128Q105 177 161 215Q74 260 74 357Q74 434 121 480.50Q168 527 241 527Q314 527 360.50 530Q407 533 422 535.50Q437 538 462 545M241 523Q168 523 123 476.50Q78 430 78 357Q78 282 129.50 239.50Q181 197 249 197Q325 197 370 239Q415 281 415 356Q415 442 365 482.50Q315 523 241 523Z"  horiz-adv-x="487" vert-adv-y="1000"  />

      
      <glyph glyph-name="uni011E" unicode="&#x011E;" d="M401 792Q401 792 388.50 783Q376 774 337.50 774Q299 774 274.50 792Q250 810 241 836L244 837Q249 824 257.50 813Q266 802 277.50 794Q289 786 304.50 782Q320 778 338 778Q373 778 397.50 794Q422 810 432 837L435 836Q426 810 401 792M344 690Q428 690 502 635L499 631Q428 686 344 686Q295 686 250.50 665Q206 644 169.50 604Q133 564 110.50 497Q88 430 88 345Q88 176 159 85.50Q230-5 353-5Q439-5 516 41L516 339L366 339L366 343L520 343L520 39Q440-9 353-9Q228-9 156 82.50Q84 174 84 345Q84 431 106.50 498.50Q129 566 166.50 607Q204 648 249.50 669Q295 690 344 690Z"  horiz-adv-x="600" vert-adv-y="1000"  />

      
      <glyph glyph-name="uni011F" unicode="&#x011F;" d="M308 686Q308 686 295.50 676Q283 666 244 666Q205 666 180.50 686Q156 706 147 738L150 738Q171 670 244.50 670Q318 670 338 738L341 738Q333 706 308 686M462 545L463 540Q406 524 277 524Q347 513 383 469Q419 425 419 356Q419 279 373 236.50Q327 194 249 194Q206 194 165 213Q109 179 109 128Q109 94 136.50 75.50Q164 57 217 57L308 57Q376 57 414.50 25.50Q453-6 453-59Q453-192 252-192Q147-192 100.50-162Q54-132 54-60L58-60Q58-131 103-160Q148-189 252-189Q449-189 449-59Q449-42 444.50-27Q440-12 431.50 0.50Q423 13 411 22.50Q399 32 383.50 39Q368 46 348.50 49.50Q329 53 308 53L217 53Q162 53 133.50 72.50Q105 92 105 128Q105 177 161 215Q74 260 74 357Q74 434 121 480.50Q168 527 241 527Q314 527 360.50 530Q407 533 422 535.50Q437 538 462 545M241 523Q168 523 123 476.50Q78 430 78 357Q78 282 129.50 239.50Q181 197 249 197Q325 197 370 239Q415 281 415 356Q415 442 365 482.50Q315 523 241 523Z"  horiz-adv-x="487" vert-adv-y="1000"  />

      
      <glyph glyph-name="uni0120" unicode="&#x0120;" d="M330 826.50Q330 826.50 330 830.25Q330 834 337.50 834Q345 834 345 826.50Q345 819 337.50 819Q330 819 330 826.50M344 690Q428 690 502 635L499 631Q428 686 344 686Q295 686 250.50 665Q206 644 169.50 604Q133 564 110.50 497Q88 430 88 345Q88 176 159 85.50Q230-5 353-5Q439-5 516 41L516 339L366 339L366 343L520 343L520 39Q440-9 353-9Q228-9 156 82.50Q84 174 84 345Q84 431 106.50 498.50Q129 566 166.50 607Q204 648 249.50 669Q295 690 344 690Z"  horiz-adv-x="600" vert-adv-y="1000"  />

      
      <glyph glyph-name="uni0121" unicode="&#x0121;" d="M237 700.50Q237 700.50 237 704.25Q237 708 244.50 708Q252 708 252 700.50Q252 693 244.50 693Q237 693 237 700.50M462 545L463 540Q406 524 277 524Q347 513 383 469Q419 425 419 356Q419 279 373 236.50Q327 194 249 194Q206 194 165 213Q109 179 109 128Q109 94 136.50 75.50Q164 57 217 57L308 57Q376 57 414.50 25.50Q453-6 453-59Q453-192 252-192Q147-192 100.50-162Q54-132 54-60L58-60Q58-131 103-160Q148-189 252-189Q449-189 449-59Q449-42 444.50-27Q440-12 431.50 0.50Q423 13 411 22.50Q399 32 383.50 39Q368 46 348.50 49.50Q329 53 308 53L217 53Q162 53 133.50 72.50Q105 92 105 128Q105 177 161 215Q74 260 74 357Q74 434 121 480.50Q168 527 241 527Q297 527 334.50 528.50Q372 530 397 533Q422 536 432.50 538Q443 540 462 545M241 523Q168 523 123 476.50Q78 430 78 357Q78 282 129.50 239.50Q181 197 249 197Q325 197 370 239Q415 281 415 356Q415 442 365 482.50Q315 523 241 523Z"  horiz-adv-x="487" vert-adv-y="1000"  />

      
      <glyph glyph-name="uni0122" unicode="&#x0122;" d="M344 690Q428 690 502 635L499 631Q428 686 344 686Q295 686 250.50 665Q206 644 169.50 604Q133 564 110.50 497Q88 430 88 345Q88 176 159 85.50Q230-5 353-5Q439-5 516 41L516 339L366 339L366 343L520 343L520 39Q440-9 353-9Q228-9 156 82.50Q84 174 84 345Q84 431 106.50 498.50Q129 566 166.50 607Q204 648 249.50 669Q295 690 344 690M331-113Q331-106 338-106Q345-106 345-113Q345-116 342-124L316-241L314-241L338-119Q331-119 331-113Z"  horiz-adv-x="600" vert-adv-y="1000"  />

      
      <glyph glyph-name="uni0123" unicode="&#x0123;" d="M243 604Q243 597 236 597Q229 597 229 604Q229 607 232 615L258 732L260 732L236 610Q243 610 243 604M462 545L463 540Q406 524 277 524Q347 513 383 469Q419 425 419 356Q419 279 373 236.50Q327 194 249 194Q206 194 165 213Q109 179 109 128Q109 94 136.50 75.50Q164 57 217 57L308 57Q376 57 414.50 25.50Q453-6 453-59Q453-192 252-192Q182-192 139-179.50Q96-167 75-138Q54-109 54-60L58-60Q58-131 103-160Q148-189 252-189Q449-189 449-59Q449-42 444.50-27Q440-12 431.50 0.50Q423 13 411 22.50Q399 32 383.50 39Q368 46 348.50 49.50Q329 53 308 53L217 53Q162 53 133.50 72.50Q105 92 105 128Q105 177 161 215Q74 260 74 357Q74 434 121 480.50Q168 527 241 527Q314 527 360.50 530Q407 533 422 535.50Q437 538 462 545M241 523Q168 523 123 476.50Q78 430 78 357Q78 282 129.50 239.50Q181 197 249 197Q325 197 370 239Q415 281 415 356Q415 442 365 482.50Q315 523 241 523Z"  horiz-adv-x="487" vert-adv-y="1000"  />

      
      <glyph glyph-name="uni0124" unicode="&#x0124;" d="M218 770L215 772L324 852L327 852L437 772L434 770L325 848L218 770M521 0L521 359L133 359L133 0L129 0L129 680L133 680L133 363L521 363L521 680L525 680L525 0L521 0Z"  horiz-adv-x="655" vert-adv-y="1000"  />

      
      <glyph glyph-name="uni0125" unicode="&#x0125;" d="M292 895L185 817L182 819L291 899L294 899L404 819L401 817L292 895M326 527Q395 527 428 485.50Q461 444 461 368L461 0L457 0L457 368Q457 523 326 523Q206 523 128 387L128 0L124 0L124 730L128 731L128 393Q205 527 326 527Z"  horiz-adv-x="580" vert-adv-y="1000"  />

      
      <glyph glyph-name="uni0126" unicode="&#x0126;" d="M585 529L585 525L533 525L533 0L529 0L529 359L141 359L141 0L137 0L137 525L83 525L83 529L137 529L137 680L141 680L141 529L529 529L529 680L533 680L533 529L585 529M529 363L529 525L141 525L141 363L529 363Z"  horiz-adv-x="668" vert-adv-y="1000"  />

      
      <glyph glyph-name="uni0127" unicode="&#x0127;" d="M331 527Q400 527 433 485.50Q466 444 466 368L466 0L462 0L462 368Q462 523 331 523Q211 523 133 387L133 0L129 0L129 637L54 637L54 641L129 641L129 730L133 731L133 641L323 641L323 637L133 637L133 393Q210 527 331 527Z"  horiz-adv-x="585" vert-adv-y="1000"  />

      
      <glyph glyph-name="uni0128" unicode="&#x0128;" d="M187 811Q164 811 127.50 833Q91 855 73 855Q55 855 42 847Q29 839 11 820L8 822Q26 842 40 850.50Q54 859 73 859Q93 859 129 837Q165 815 187 815Q207 815 221 823.50Q235 832 250 852L253 851Q237 829 222.50 820Q208 811 187 811M133 680L133 0L129 0L129 680L133 680Z"  horiz-adv-x="263" vert-adv-y="1000"  />

      
      <glyph glyph-name="uni0129" unicode="&#x0129;" d="M184 685Q162 685 125.50 707Q89 729 71 729Q53 729 40 721Q27 713 9 694L6 696Q24 716 38 724.50Q52 733 71 733Q91 733 127 711Q163 689 184 689Q204 689 218 697.50Q232 706 248 726L251 725Q235 703 220.50 694Q206 685 184 685M128 517L128 0L124 0L124 517L128 517Z"  horiz-adv-x="253" vert-adv-y="1000"  />

      
      <glyph glyph-name="uni012A" unicode="&#x012A;" d="M227 815L35 815L35 818L227 818L227 815M133 680L133 0L129 0L129 680L133 680Z"  horiz-adv-x="263" vert-adv-y="1000"  />

      
      <glyph glyph-name="uni012B" unicode="&#x012B;" d="M222 689L30 689L30 692L222 692L222 689M128 517L128 0L124 0L124 517L128 517Z"  horiz-adv-x="253" vert-adv-y="1000"  />

      
      <glyph glyph-name="uni012C" unicode="&#x012C;" d="M194.50 792Q194.50 792 182.25 783Q170 774 131.50 774Q93 774 68 792Q43 810 34 836L38 837Q48 810 72.50 794Q97 778 131.50 778Q166 778 190.50 794Q215 810 225 837L229 836Q219 810 194.50 792M133 680L133 0L129 0L129 680L133 680Z"  horiz-adv-x="263" vert-adv-y="1000"  />

      
      <glyph glyph-name="uni012D" unicode="&#x012D;" d="M190.50 686Q190.50 686 178.25 676Q166 666 126.50 666Q87 666 62.50 686Q38 706 29 738L33 738Q53 670 126.50 670Q200 670 220 738L224 738Q215 706 190.50 686M128 517L128 0L124 0L124 517L128 517Z"  horiz-adv-x="253" vert-adv-y="1000"  />

      
      <glyph glyph-name="uni012E" unicode="&#x012E;" d="M133 0Q-1-49-1-124Q-1-156 19-173.50Q39-191 74-191Q98-191 127-183L127-187Q98-195 74-195Q37-195 16-176Q-5-157-5-124Q-5-100 6.50-80Q18-60 39-45Q60-30 81-19.50Q102-9 129 1L129 680L133 680L133 0Z"  horiz-adv-x="263" vert-adv-y="1000"  />

      
      <glyph glyph-name="uni012F" unicode="&#x012F;" d="M119 700.50Q119 700.50 119 704.25Q119 708 126.50 708Q134 708 134 700.50Q134 693 126.50 693Q119 693 119 700.50M124 1L124 517L128 517L128 0Q-6-49-6-124Q-6-156 14-173.50Q34-191 69-191Q93-191 122-183L122-187Q92-195 69-195Q44-195 26.50-186.50Q9-178-0.50-162Q-10-146-10-124Q-10-100 1.50-80Q13-60 34-45Q55-30 76-19.50Q97-9 124 1Z"  horiz-adv-x="253" vert-adv-y="1000"  />

      
      <glyph glyph-name="uni0130" unicode="&#x0130;" d="M124 826.50Q124 826.50 124 830.25Q124 834 131.50 834Q139 834 139 826.50Q139 819 131.50 819Q124 819 124 826.50M133 680L133 0L129 0L129 680L133 680Z"  horiz-adv-x="263" vert-adv-y="1000"  />

      
      <glyph glyph-name="uni0131" unicode="&#x0131;" d="M128 517L128 0L124 0L124 517L128 517Z"  horiz-adv-x="253" vert-adv-y="1000"  />

      
      <glyph glyph-name="uni0132" unicode="&#x0132;" d="M133 680L133 0L129 0L129 680L133 680M414 680L414 85Q414 13 390.50-24.50Q367-62 294-92L292-88Q363-59 386.50-22.50Q410 14 410 85L410 680L414 680Z"  horiz-adv-x="537" vert-adv-y="1000"  />

      
      <glyph glyph-name="uni0133" unicode="&#x0133;" d="M119 700.50Q119 700.50 119 704.25Q119 708 126.50 708Q134 708 134 700.50Q134 693 126.50 693Q119 693 119 700.50M371 700.50Q371 700.50 371 704.25Q371 708 378.50 708Q386 708 386 700.50Q386 693 378.50 693Q371 693 371 700.50M128 517L128 0L124 0L124 517L128 517M381 517L381 2Q381-58 370-94.50Q359-131 339-151Q319-171 282-191L280-188Q307-173 324-159.50Q341-146 353.50-124.50Q366-103 371.50-72.50Q377-42 377 2L377 517L381 517Z"  horiz-adv-x="505" vert-adv-y="1000"  />

      
      <glyph glyph-name="uni0134" unicode="&#x0134;" d="M42 770L39 772L147 852L150 852L260 772L258 770L149 848L42 770M151 680L151 85Q151 13 127.50-24.50Q104-62 31-92L29-88Q101-59 124-22.50Q147 14 147 85L147 680L151 680Z"  horiz-adv-x="274" vert-adv-y="1000"  />

      
      <glyph glyph-name="uni0135" unicode="&#x0135;" d="M18 659L16 662L126 747L129 747L237 662L234 659L127 742L18 659M128 517L128 1Q128-58 117-94.50Q106-131 86.50-151Q67-171 29-191L27-188Q64-169 83.50-148.50Q103-128 113.50-92.50Q124-57 124 2L124 517L128 517Z"  horiz-adv-x="253" vert-adv-y="1000"  />

      
      <glyph glyph-name="uni0136" unicode="&#x0136;" d="M133 680L133 1L129 1L129 680L133 680M475 680L142 366L491 0L485 0L136 366L469 680L475 680M278-113Q278-106 285-106Q292-106 292-113Q292-116 290-124L264-241L261-241L285-120Q278-119 278-113Z"  horiz-adv-x="505" vert-adv-y="1000"  />

      
      <glyph glyph-name="uni0137" unicode="&#x0137;" d="M128 731L128 0L124 0L124 730L128 731M398 517L140 283L425 0L420 0L134 283L393 517L398 517M262-113Q262-106 269-106Q276-106 276-113Q276-116 274-124L248-241L245-241L269-120Q262-119 262-113Z"  horiz-adv-x="450" vert-adv-y="1000"  />

      
      <glyph glyph-name="uni0138" unicode="&#x0138;" d="M128 517L128 0L124 0L124 517L128 517M397 517L138 273L423 0L418 0L132 273L391 517L397 517Z"  horiz-adv-x="448" vert-adv-y="1000"  />

      
      <glyph glyph-name="uni0139" unicode="&#x0139;" d="M211 844L213 840L46 770L45 774L211 844M133 680L133 4L421 4L421 0L129 0L129 680L133 680Z"  horiz-adv-x="446" vert-adv-y="1000"  />

      
      <glyph glyph-name="uni013A" unicode="&#x013A;" d="M201 894L203 890L36 820L34 824L201 894M180-9Q150-9 134.50 10.50Q119 30 119 65L119 730L123 731L123 65Q123-5 180-5Q201-5 221 3L221-1Q202-9 180-9Z"  horiz-adv-x="275" vert-adv-y="1000"  />

      
      <glyph glyph-name="uni013B" unicode="&#x013B;" d="M133 680L133 4L421 4L421 0L129 0L129 680L133 680M268-113Q268-106 275-106Q282-106 282-113Q282-116 280-124L254-241L251-241L275-120Q268-119 268-113Z"  horiz-adv-x="446" vert-adv-y="1000"  />

      
      <glyph glyph-name="uni013C" unicode="&#x013C;" d="M180-9Q150-9 134.50 10.50Q119 30 119 65L119 730L123 731L123 65Q123-5 180-5Q201-5 221 3L221-1Q202-9 180-9M167-113Q167-106 174-106Q181-106 181-113Q181-116 179-124L153-241L151-241L174-120Q167-119 167-113Z"  horiz-adv-x="275" vert-adv-y="1000"  />

      
      <glyph glyph-name="uni013D" unicode="&#x013D;" d="M219 545L239 683L234 683L216 545L219 545M133 680L133 4L421 4L421 0L129 0L129 680L133 680Z"  horiz-adv-x="446" vert-adv-y="1000"  />

      
      <glyph glyph-name="uni013E" unicode="&#x013E;" d="M180-9Q150-9 134.50 10.50Q119 30 119 65L119 730L123 731L123 65Q123-5 180-5Q201-5 221 3L221-1Q202-9 180-9M218 592L238 730L234 730L215 593L218 592Z"  horiz-adv-x="275" vert-adv-y="1000"  />

      
      <glyph glyph-name="uni013F" unicode="&#x013F;" d="M133 680L133 4L421 4L421 0L129 0L129 680L133 680M343 355Q343 355 343 358.50Q343 362 350.50 362Q358 362 358 355Q358 348 350.50 348Q343 348 343 355Z"  horiz-adv-x="446" vert-adv-y="1000"  />

      
      <glyph glyph-name="uni0140" unicode="&#x0140;" d="M180-9Q150-9 134.50 10.50Q119 30 119 65L119 730L123 731L123 65Q123-5 180-5Q201-5 221 3L221-1Q202-9 180-9M249 375Q249 375 249 378.50Q249 382 256.50 382Q264 382 264 375Q264 368 256.50 368Q249 368 249 375Z"  horiz-adv-x="275" vert-adv-y="1000"  />

      
      <glyph glyph-name="uni0141" unicode="&#x0141;" d="M136 4L424 4L423 0L132 0L132 323L53 275L51 278L132 327L132 680L136 680L136 330L342 457L344 454L136 326L136 4Z"  horiz-adv-x="448" vert-adv-y="1000"  />

      
      <glyph glyph-name="uni0142" unicode="&#x0142;" d="M186-5Q207-5 227 3L227-1Q208-9 186-9Q156-9 140.50 10.50Q125 30 125 65L125 360L56 316L54 319L125 364L125 730L129 731L129 367L238 435L240 432L129 362L129 65Q129-5 186-5Z"  horiz-adv-x="288" vert-adv-y="1000"  />

      
      <glyph glyph-name="uni0143" unicode="&#x0143;" d="M412 844L414 840L246 770L245 774L412 844M525 680L525 0L520 0L133 676Q133 644 133 565L133 0L129 0L129 680L135 680L522 4Q521 86 521 143L521 680L525 680Z"  horiz-adv-x="655" vert-adv-y="1000"  />

      
      <glyph glyph-name="uni0144" unicode="&#x0144;" d="M375 743L207 661L205 665L373 748L375 743M326 527Q461 527 461 368L461 0L457 0L457 368Q457 523 326 523Q206 523 128 387L128 0L124 0L124 517L128 517L128 393Q205 527 326 527Z"  horiz-adv-x="580" vert-adv-y="1000"  />

      
      <glyph glyph-name="uni0145" unicode="&#x0145;" d="M525 680L525 0L520 0L133 676Q133 644 133 565L133 0L129 0L129 680L135 680L522 4Q521 86 521 143L521 680L525 680M315-113Q315-106 322-106Q329-106 329-113Q329-116 326-124L300-241L298-241L322-120Q315-119 315-113Z"  horiz-adv-x="655" vert-adv-y="1000"  />

      
      <glyph glyph-name="uni0146" unicode="&#x0146;" d="M326 527Q461 527 461 368L461 0L457 0L457 368Q457 523 326 523Q206 523 128 387L128 0L124 0L124 517L128 517L128 393Q205 527 326 527M280-113Q280-106 287-106Q294-106 294-113Q294-116 292-124L266-241L263-241L287-119Q280-119 280-113Z"  horiz-adv-x="580" vert-adv-y="1000"  />

      
      <glyph glyph-name="uni0147" unicode="&#x0147;" d="M439 847L442 845L332 764L329 764L221 845L224 847L331 769L439 847M525 680L525 0L520 0L133 676Q133 644 133 565L133 0L129 0L129 680L135 680L522 4Q521 86 521 143L521 680L525 680Z"  horiz-adv-x="655" vert-adv-y="1000"  />

      
      <glyph glyph-name="uni0148" unicode="&#x0148;" d="M297 647L294 647L185 732L188 735L295 652L404 735L407 732L297 647M326 527Q461 527 461 368L461 0L457 0L457 368Q457 523 326 523Q206 523 128 387L128 0L124 0L124 517L128 517L128 393Q205 527 326 527Z"  horiz-adv-x="580" vert-adv-y="1000"  />

      
      <glyph glyph-name="uni0149" unicode="&#x0149;" d="M87 726Q87 733 94 733Q101 733 101 726Q101 724 99 715L73 598L71 598L94 720Q87 720 87 726M379 527Q514 527 514 368L514 0L510 0L510 368Q510 523 379 523Q258 523 181 387L181 0L177 0L177 517L181 517L181 393Q258 527 379 527Z"  horiz-adv-x="633" vert-adv-y="1000"  />

      
      <glyph glyph-name="uni014A" unicode="&#x014A;" d="M521 680L525 680L525-96Q525-127 514.50-149Q504-171 485-182Q466-193 440-193Q394-193 360-164L362-161Q395-189 440-189Q477-189 499-165Q521-141 521-96L521 0L520 0L133 676Q133 644 133 565L133 0L129 0L129 680L135 680L522 4Q521 86 521 143L521 680Z"  horiz-adv-x="655" vert-adv-y="1000"  />

      
      </font>
</defs>
</svg>
