<?xml version="1.0" standalone="no"?>
  <!DOCTYPE svg PUBLIC "-//W3C//DTD SVG 1.1//EN" "http://www.w3.org/Graphics/SVG/1.1/DTD/svg11.dtd" >
  <svg>
  <metadata>
  Created by font-carrier
  </metadata>
  <defs>
  <font id="FiraSans-TwoItalic" horiz-adv-x="1504" vert-adv-y="1504" >
    <font-face
      
      font-family="Fira Sans Two"
      
      font-weight="400"
      
      font-stretch="normal"
      
      units-per-em="1000"
      
      ascent="935"
      
      descent="-265"
      
    />
      <missing-glyph />

      

      
      <glyph glyph-name="uni21" unicode="&#x21;" d="M107 188L175 680L177 680L109 188L107 188M91 3Q91 3 91-0.50Q91-4 84-4Q77-4 77 3Q77 10 84 10Q91 10 91 3Z"  horiz-adv-x="234" vert-adv-y="1000"  />

      
      <glyph glyph-name="uni22" unicode="&#x22;" d="M117 446L149 680L151 680L119 446L117 446M251 446L283 680L285 680L253 446L251 446Z"  horiz-adv-x="316" vert-adv-y="1000"  />

      
      <glyph glyph-name="uni23" unicode="&#x23;" d="M493 466L406 466L338 216L422 216L420 214L338 214L280 0L278 0L336 214L104 214L46 0L44 0L102 214L8 214L10 216L102 216L170 466L81 466L81 468L171 468L223 662L225 662L173 468L405 468L457 662L459 662L407 468L493 468L493 466M336 216L404 466L172 466L104 216L336 216Z"  horiz-adv-x="479" vert-adv-y="1000"  />

      
      <glyph glyph-name="uni24" unicode="&#x24;" d="M337 805L318 669L316 669L335 805L337 805M313 667Q263 667 225 653Q187 639 165.50 614.50Q144 590 134 562.50Q124 535 124 504Q124 470 139 445Q154 420 188 399Q222 378 279 359Q359 331 398.50 290Q438 249 438 188Q438 150 426.50 117Q415 84 390.50 55Q366 26 322 8.50Q278-9 219-9L200-144L198-144L217-9Q107-9 38 67L39 69Q108-7 217-7Q330-7 383 50Q436 107 436 188Q436 248 397 288.50Q358 329 278 357Q193 386 157.50 419Q122 452 122 504Q122 572 169 620.50Q216 669 313 669Q366 669 401.50 653.50Q437 638 473 607L471 605Q402 667 313 667Z"  horiz-adv-x="529" vert-adv-y="1000"  />

      
      <glyph glyph-name="uni25" unicode="&#x25;" d="M661 690L108-9L110-9L663 690L661 690M209 366Q159 366 131.50 397.50Q104 429 104 485Q104 515 111.50 545Q119 575 135 604Q151 633 181 651.50Q211 670 251 670Q301 670 328.50 640Q356 610 356 554Q356 524 348.50 493.50Q341 463 325 433.50Q309 404 279 385Q249 366 209 366M209 368Q248 368 278 386.50Q308 405 323.50 434.50Q339 464 346.50 494.50Q354 525 354 554Q354 609 327 638.50Q300 668 251 668Q211 668 181.50 649.50Q152 631 136.50 602Q121 573 113.50 543.50Q106 514 106 485Q106 430 132.50 399Q159 368 209 368M514-9Q464-9 436.50 22.50Q409 54 409 110Q409 140 416.50 170Q424 200 440 229Q456 258 486 276.50Q516 295 556 295Q606 295 633.50 265Q661 235 661 179Q661 149 653.50 118.50Q646 88 630 58.50Q614 29 584 10Q554-9 514-9M514-7Q553-7 583 11.50Q613 30 628.50 59.50Q644 89 651.50 119.50Q659 150 659 179Q659 234 632.50 263.50Q606 293 556 293Q516 293 486.50 274.50Q457 256 441.50 227Q426 198 418.50 168.50Q411 139 411 110Q411 55 437.50 24Q464-7 514-7Z"  horiz-adv-x="745" vert-adv-y="1000"  />

      
      <glyph glyph-name="uni26" unicode="&#x26;" d="M357 691Q413 691 450 657Q487 623 487 569Q487 507 446.50 464.50Q406 422 289 361L512 116Q537 149 557 188.50Q577 228 587 256.50Q597 285 612 334L614 334Q569 189 513 115L618 0L616-1L512 114Q418-9 284-9Q205-9 158.50 35.50Q112 80 112 145Q112 209 148.50 260.50Q185 312 285 361Q201 451 201 535Q201 594 241.50 642.50Q282 691 357 691M357 689Q282 689 242.50 641.50Q203 594 203 535Q203 452 287 362Q405 423 445 465.50Q485 508 485 569Q485 622 448.50 655.50Q412 689 357 689M287 360Q186 310 150 259.50Q114 209 114 145Q114 80 160 36.50Q206-7 284-7Q416-7 511 115L287 360Z"  horiz-adv-x="724" vert-adv-y="1000"  />

      
      <glyph glyph-name="uni27" unicode="&#x27;" d="M117 446L149 680L151 680L119 446L117 446Z"  horiz-adv-x="182" vert-adv-y="1000"  />

      
      <glyph glyph-name="uni28" unicode="&#x28;" d="M327 825L328 824Q242 719 193.50 639Q145 559 115.50 457Q86 355 86 233Q86 161 103.50 92.50Q121 24 139.50-15Q158-54 196-124L194-125Q156-56 137.50-16Q119 24 101.50 92.50Q84 161 84 233Q84 411 141.50 540.50Q199 670 327 825Z"  horiz-adv-x="329" vert-adv-y="1000"  />

      
      <glyph glyph-name="uni29" unicode="&#x29;" d="M160 825Q197 756 215.50 715.50Q234 675 251 607Q268 539 268 466Q268 373 253 295Q238 217 205.50 146Q173 75 132 13.50Q91-48 27-125L25-124Q154 33 210 160.50Q266 288 266 466Q266 539 249 606.50Q232 674 213.50 715Q195 756 158 824L160 825Z"  horiz-adv-x="327" vert-adv-y="1000"  />

      
      <glyph glyph-name="uni2a" unicode="&#x2a;" d="M417 616L417 614L259 565L334 436L332 435L257 564L145 435L143 436L255 565L109 614L110 616L256 567L278 727L280 727L258 567L417 616Z"  horiz-adv-x="428" vert-adv-y="1000"  />

      
      <glyph glyph-name="uni2b" unicode="&#x2b;" d="M272 488L251 332L404 332L403 330L250 330L228 174L226 174L248 330L95 330L96 332L249 332L270 488L272 488Z"  horiz-adv-x="479" vert-adv-y="1000"  />

      
      <glyph glyph-name="uni2c" unicode="&#x2c;" d="M16 3Q16 10 23 10Q30 10 30 3Q30 0 27-6L-23-109L-26-109L22-4Q16-2 16 3Z"  horiz-adv-x="119" vert-adv-y="1000"  />

      
      <glyph glyph-name="uni2d" unicode="&#x2d;" d="M93 311L93 313L323 313L323 311L93 311Z"  horiz-adv-x="400" vert-adv-y="1000"  />

      
      <glyph glyph-name="uni2e" unicode="&#x2e;" d="M31 3Q31 3 31-0.50Q31-4 24-4Q17-4 17 3Q17 10 24 10Q31 10 31 3Z"  horiz-adv-x="120" vert-adv-y="1000"  />

      
      <glyph glyph-name="uni2f" unicode="&#x2f;" d="M450 794L452 793L96-92L94-91L450 794Z"  horiz-adv-x="520" vert-adv-y="1000"  />

      
      <glyph glyph-name="uni30" unicode="&#x30;" d="M329 670Q266 670 216.50 628.50Q167 587 138.50 518.50Q110 450 95.50 370Q81 290 81 205Q81-9 227-9Q290-9 339.50 32.50Q389 74 417.50 142.50Q446 211 461 290Q476 369 476 453Q476 670 329 670M329 668Q474 668 474 453Q474 370 459.50 291Q445 212 416.50 144Q388 76 338.50 34.50Q289-7 227-7Q83-7 83 205Q83 289 97.50 369Q112 449 140.50 517Q169 585 218 626.50Q267 668 329 668Z"  horiz-adv-x="536" vert-adv-y="1000"  />

      
      <glyph glyph-name="uni31" unicode="&#x31;" d="M301 660L209 0L207 0L299 658L101 541L100 543L299 660L301 660Z"  horiz-adv-x="385" vert-adv-y="1000"  />

      
      <glyph glyph-name="uni32" unicode="&#x32;" d="M278 670Q344 670 384 629.50Q424 589 424 528Q424 439 357.50 355.50Q291 272 18 2L358 2L358 0L15 0L15 2Q117 103 168 154Q219 205 274.50 264Q330 323 351 351Q372 379 392.50 414Q413 449 417.50 472.50Q422 496 422 528Q422 589 382.50 628.50Q343 668 278 668Q225 668 183.50 648Q142 628 99 587L97 588Q184 670 278 670Z"  horiz-adv-x="463" vert-adv-y="1000"  />

      
      <glyph glyph-name="uni33" unicode="&#x33;" d="M273 670Q339 670 376 633.50Q413 597 413 536Q413 467 369 413Q325 359 244 353Q309 348 347 312Q385 276 385 211Q385 172 372.50 135Q360 98 336 65Q312 32 270 11.50Q228-9 175-9Q117-9 78.50 10Q40 29 8 72L10 73Q42 30 80 11.50Q118-7 175-7Q277-7 330 60.50Q383 128 383 211Q383 278 341 315Q299 352 225 352L191 352L191 354L228 354Q316 354 363.50 409.50Q411 465 411 536Q411 596 374.50 632Q338 668 273 668Q181 668 104 598L102 599Q180 670 273 670Z"  horiz-adv-x="469" vert-adv-y="1000"  />

      
      <glyph glyph-name="uni34" unicode="&#x34;" d="M445 198L444 196L350 196L322 0L320 0L348 196L46 196L47 199L321 670L323 669L49 198L348 198L379 418L381 418L350 198L445 198Z"  horiz-adv-x="493" vert-adv-y="1000"  />

      
      <glyph glyph-name="uni35" unicode="&#x35;" d="M435 660L435 658L149 658L108 362Q173 409 249 409Q319 409 357.50 368.50Q396 328 396 255Q396 209 384 165Q372 121 347.50 80.50Q323 40 278 15.50Q233-9 174-9Q75-9 22 63L24 64Q74-7 174-7Q233-7 277.50 17.50Q322 42 346.50 82Q371 122 382.50 165.50Q394 209 394 255Q394 328 356 367.50Q318 407 249 407Q175 407 108 360L106 360L147 660L435 660Z"  horiz-adv-x="470" vert-adv-y="1000"  />

      
      <glyph glyph-name="uni36" unicode="&#x36;" d="M357 668Q287 668 228.50 615Q170 562 134.50 477.50Q99 393 85 289Q185 423 300 423Q365 423 401.50 384Q438 345 438 269Q438 236 432 200.50Q426 165 411 127Q396 89 374 59Q352 29 315.50 10Q279-9 233-9Q154-9 116 48Q78 105 78 201Q78 312 109.50 417.50Q141 523 207 596.50Q273 670 357 670Q414 670 452 634L450 633Q413 668 357 668M300 421Q185 421 85 286Q80 249 80 201Q80 105 117 49Q154-7 233-7Q289-7 331 21.50Q373 50 394.50 94.50Q416 139 426 183Q436 227 436 269Q436 344 400 382.50Q364 421 300 421Z"  horiz-adv-x="505" vert-adv-y="1000"  />

      
      <glyph glyph-name="uni37" unicode="&#x37;" d="M441 660L441 658L64-5L62-4L439 658L101 658L101 660L441 660Z"  horiz-adv-x="435" vert-adv-y="1000"  />

      
      <glyph glyph-name="uni38" unicode="&#x38;" d="M308 339Q381 308 411.50 274Q442 240 442 183Q442 102 381 46.50Q320-9 227-9Q146-9 101 30.50Q56 70 56 137Q56 209 97 265.50Q138 322 242 365Q183 390 158.50 422Q134 454 134 504Q134 574 190 622Q246 670 319 670Q382 670 422.50 635Q463 600 463 538Q463 478 430.50 430.50Q398 383 308 339M136 504Q136 450 163 419Q190 388 253 362L306 340Q397 384 429 431.50Q461 479 461 538Q461 600 421 634Q381 668 319 668Q247 668 191.50 620.50Q136 573 136 504M227-7Q319-7 379.50 48Q440 103 440 183Q440 245 404 279Q368 313 282 348L244 364Q138 321 98 264Q58 207 58 137Q58 70 102.50 31.50Q147-7 227-7Z"  horiz-adv-x="523" vert-adv-y="1000"  />

      
      <glyph glyph-name="uni39" unicode="&#x39;" d="M301 670Q450 670 450 484Q450 424 441.50 370Q433 316 408.50 256.50Q384 197 344.50 148.50Q305 100 239.50 57.50Q174 15 88-11L87-9Q154 11 210 42Q266 73 315 120Q364 167 397 235Q430 303 442 387Q362 261 233 261Q168 261 129 304Q90 347 90 422Q90 462 102.50 504Q115 546 139 584Q163 622 205.50 646Q248 670 301 670M233 263Q364 263 442 391Q448 441 448 483Q448 668 301 668Q265 668 234 657Q203 646 180.50 626.50Q158 607 140.50 582.50Q123 558 113 530.50Q103 503 97.50 475.50Q92 448 92 422Q92 348 130.50 305.50Q169 263 233 263Z"  horiz-adv-x="499" vert-adv-y="1000"  />

      
      <glyph glyph-name="uni3a" unicode="&#x3a;" d="M91 432Q91 432 91 428.50Q91 425 84 425Q77 425 77 432Q77 439 84 439Q91 439 91 432M31 3Q31 3 31-0.50Q31-4 24-4Q17-4 17 3Q17 10 24 10Q31 10 31 3Z"  horiz-adv-x="120" vert-adv-y="1000"  />

      
      <glyph glyph-name="uni3b" unicode="&#x3b;" d="M91 432Q91 432 91 428.50Q91 425 84 425Q77 425 77 432Q77 439 84 439Q91 439 91 432M16 3Q16 10 23 10Q30 10 30 3Q30 0 27-6L-23-109L-26-109L22-4Q16-2 16 3Z"  horiz-adv-x="120" vert-adv-y="1000"  />

      
      <glyph glyph-name="uni3c" unicode="&#x3c;" d="M436 487L437 485L102 333L393 177L392 175L100 332L100 334L436 487Z"  horiz-adv-x="494" vert-adv-y="1000"  />

      
      <glyph glyph-name="uni3d" unicode="&#x3d;" d="M107 405L107 407L415 407L415 405L107 405M85 255L85 257L393 257L393 255L85 255Z"  horiz-adv-x="479" vert-adv-y="1000"  />

      
      <glyph glyph-name="uni3e" unicode="&#x3e;" d="M123 487L417 334L417 332L79 175L78 177L415 333L122 485L123 487Z"  horiz-adv-x="496" vert-adv-y="1000"  />

      
      <glyph glyph-name="uni3f" unicode="&#x3f;" d="M296 690Q352 690 384 657.50Q416 625 416 581Q416 538 399.50 504.50Q383 471 357.50 451.50Q332 432 303 411.50Q274 391 249 374Q224 357 208 329.50Q192 302 192 267Q192 241 202 209L200 209Q190 241 190 267Q189 308 212 339Q235 370 268 391Q301 412 334 434.50Q367 457 390.50 494Q414 531 414 581Q414 625 383 656.50Q352 688 296 688Q246 688 207 669.50Q168 651 125 611L123 612Q166 653 205.50 671.50Q245 690 296 690M197 2Q197 2 197-1.50Q197-5 190-5Q183-5 183 2Q183 9 190 9Q197 9 197 2Z"  horiz-adv-x="448" vert-adv-y="1000"  />

      
      <glyph glyph-name="uni40" unicode="&#x40;" d="M586 691Q751 691 837.50 599Q924 507 924 363Q924 283 904 206.50Q884 130 836 72Q788 14 720 14Q670 14 645.50 52.50Q621 91 627 161Q562 16 456 16Q398 16 362 58Q326 100 326 178Q326 227 339 276.50Q352 326 377.50 371.50Q403 417 449.50 445.50Q496 474 556 474Q617 474 668 442L631 175Q621 99 645 57.50Q669 16 720 16Q787 16 835 73.50Q883 131 902.50 207Q922 283 922 363Q922 506 836 597.50Q750 689 586 689Q487 689 404 655.50Q321 622 266.50 568Q212 514 173.50 445.50Q135 377 118 309Q101 241 101 177Q101 9 205.50-90.50Q310-190 473-190Q573-190 656-159L656-161Q573-192 473-192Q310-192 204.50-92Q99 8 99 177Q99 241 116 309.50Q133 378 171.50 447Q210 516 265 569.50Q320 623 403.50 657Q487 691 586 691M456 18Q561 18 628 167L666 441Q617 472 556 472Q497 472 450.50 443.50Q404 415 378.50 370Q353 325 340.50 276Q328 227 328 178Q328 100 363 59Q398 18 456 18Z"  horiz-adv-x="1020" vert-adv-y="1000"  />

      
      <glyph glyph-name="uni41" unicode="&#x41;" d="M483 0L437 213L107 213L1 0L-1 0L336 680L337 680L485 0L483 0M108 215L436 215L336 676L108 215Z"  horiz-adv-x="556" vert-adv-y="1000"  />

      
      <glyph glyph-name="uni42" unicode="&#x42;" d="M351 360Q419 356 463 317.50Q507 279 507 212Q507 118 445.50 59Q384 0 251 0L94 0L189 680L323 680Q418 680 467 644Q516 608 516 541Q516 467 468 418Q420 369 351 360M191 678L146 361L336 361Q374 361 413.50 379.50Q453 398 483.50 441Q514 484 514 541Q514 607 465.50 642.50Q417 678 324 678L191 678M252 2Q384 2 444.50 60.50Q505 119 505 212Q505 280 457.50 319.50Q410 359 332 359L146 359L96 2L252 2Z"  horiz-adv-x="581" vert-adv-y="1000"  />

      
      <glyph glyph-name="uni43" unicode="&#x43;" d="M403 690Q492 690 547 633L546 631Q518 659 486.50 673.50Q455 688 403 688Q319 688 255.50 645Q192 602 158.50 533.50Q125 465 109 394Q93 323 93 253Q93 128 149.50 60.50Q206-7 305-7Q395-7 474 52L475 50Q396-9 305-9Q205-9 148 59Q91 127 91 253Q91 309 100.50 366Q110 423 133 482.50Q156 542 190.50 587Q225 632 280 661Q335 690 403 690Z"  horiz-adv-x="530" vert-adv-y="1000"  />

      
      <glyph glyph-name="uni44" unicode="&#x44;" d="M293 680Q346 680 387.50 669.50Q429 659 467 634Q505 609 526 559Q547 509 547 436Q547 372 536.50 312.50Q526 253 500 195Q474 137 436 94.50Q398 52 338.50 26Q279 0 205 0L94 0L189 680L293 680M293 678L191 678L96 2L205 2Q278 2 337.50 28Q397 54 435 96.50Q473 139 498.50 196.50Q524 254 534.50 313.50Q545 373 545 436Q545 508 524.50 557.50Q504 607 466 632.50Q428 658 386.50 668Q345 678 293 678Z"  horiz-adv-x="613" vert-adv-y="1000"  />

      
      <glyph glyph-name="uni45" unicode="&#x45;" d="M494 680L494 678L191 678L147 362L407 362L407 360L147 360L96 2L409 2L409 0L94 0L189 680L494 680Z"  horiz-adv-x="495" vert-adv-y="1000"  />

      
      <glyph glyph-name="uni46" unicode="&#x46;" d="M489 680L489 678L191 678L144 347L402 347L402 345L144 345L96 0L94 0L189 680L489 680Z"  horiz-adv-x="470" vert-adv-y="1000"  />

      
      <glyph glyph-name="uni47" unicode="&#x47;" d="M404 690Q487 690 554 635L553 633Q486 688 404 688Q327 688 265 647.50Q203 607 167 542Q131 477 112 403.50Q93 330 93 256Q93 128 152 60.50Q211-7 317-7Q399-7 487 40L530 340L379 340L379 342L532 342L489 39Q401-9 317-9Q210-9 150.50 59.50Q91 128 91 256Q91 332 110.50 406.50Q130 481 166.50 545.50Q203 610 265 650Q327 690 404 690Z"  horiz-adv-x="600" vert-adv-y="1000"  />

      
      <glyph glyph-name="uni48" unicode="&#x48;" d="M96 0L94 0L189 680L191 680L147 367L537 367L581 680L583 680L488 0L486 0L537 365L147 365L96 0Z"  horiz-adv-x="654" vert-adv-y="1000"  />

      
      <glyph glyph-name="uni49" unicode="&#x49;" d="M191 680L96 0L94 0L189 680L191 680Z"  horiz-adv-x="262" vert-adv-y="1000"  />

      
      <glyph glyph-name="uni4a" unicode="&#x4a;" d="M209 680L126 85Q116 13 87.50-24Q59-61-18-91L-19-89Q57-60 85.50-23.50Q114 13 124 85L207 680L209 680Z"  horiz-adv-x="274" vert-adv-y="1000"  />

      
      <glyph glyph-name="uni4b" unicode="&#x4b;" d="M94 1L189 680L191 680L96 1L94 1M450 0L150 366L529 680L532 680L153 366L453 0L450 0Z"  horiz-adv-x="504" vert-adv-y="1000"  />

      
      <glyph glyph-name="uni4c" unicode="&#x4c;" d="M191 680L96 2L384 2L384 0L94 0L189 680L191 680Z"  horiz-adv-x="445" vert-adv-y="1000"  />

      
      <glyph glyph-name="uni4d" unicode="&#x4d;" d="M651 680L636 0L634 0L641 354Q642 410 645 525.50Q648 641 649 677L355 85L352 85L225 678Q212 625 144 361L51 0L49 0L223 680L227 680L354 88L648 680L651 680Z"  horiz-adv-x="757" vert-adv-y="1000"  />

      
      <glyph glyph-name="uni4e" unicode="&#x4e;" d="M583 680L488 0L485 0L191 677Q186 640 176 572L96 0L94 0L189 680L192 680L486 3Q489 23 495.50 69Q502 115 505 136L581 680L583 680Z"  horiz-adv-x="654" vert-adv-y="1000"  />

      
      <glyph glyph-name="uni4f" unicode="&#x4f;" d="M403 690Q507 690 564 622Q621 554 621 429Q621 384 614.50 338Q608 292 594 241.50Q580 191 555 147Q530 103 496.50 67.50Q463 32 414 11.50Q365-9 306-9Q203-9 146.50 59Q90 127 90 251Q90 304 99.50 361Q109 418 133 477.50Q157 537 191.50 583.50Q226 630 281 660Q336 690 403 690M403 688Q336 688 281.50 658.50Q227 629 192.50 582.50Q158 536 134.50 476.50Q111 417 101.50 360.50Q92 304 92 251Q92 128 148 60.50Q204-7 306-7Q376-7 432 22.50Q488 52 522 98Q556 144 578.50 204Q601 264 610 319.50Q619 375 619 429Q619 553 562.50 620.50Q506 688 403 688Z"  horiz-adv-x="687" vert-adv-y="1000"  />

      
      <glyph glyph-name="uni50" unicode="&#x50;" d="M311 680Q419 680 470.50 643Q522 606 522 525Q522 479 509 440Q496 401 466.50 366Q437 331 382.50 311Q328 291 253 291L137 291L96 0L94 0L189 680L311 680M254 293Q328 293 382 313Q436 333 465 367.50Q494 402 507 441Q520 480 520 525Q520 605 469 641.50Q418 678 311 678L191 678L137 293L254 293Z"  horiz-adv-x="552" vert-adv-y="1000"  />

      
      <glyph glyph-name="uni51" unicode="&#x51;" d="M621 429Q621 377 613 324Q605 271 584.50 213Q564 155 533 109.50Q502 64 451.50 31.50Q401-1 338-7Q394-8 433.50-13.50Q473-19 507.50-33Q542-47 569-72L567-73Q527-37 471-22.50Q415-8 314-9Q311-9 306-9Q203-9 146.50 59Q90 127 90 251Q90 304 99.50 361Q109 418 133 477.50Q157 537 191.50 583.50Q226 630 281 660Q336 690 403 690Q507 690 564 622Q621 554 621 429M92 253Q92 129 148 61Q204-7 306-7Q365-7 414 13.50Q463 34 496 69.50Q529 105 554 149Q579 193 592.50 243.50Q606 294 612.50 339.50Q619 385 619 429Q619 553 562.50 620.50Q506 688 403 688Q336 688 281.50 658Q227 628 192.50 581.50Q158 535 134.50 475.50Q111 416 101.50 360.50Q92 305 92 253Z"  horiz-adv-x="674" vert-adv-y="1000"  />

      
      <glyph glyph-name="uni52" unicode="&#x52;" d="M519 533Q519 452 467 394.50Q415 337 324 334L470 0L467 0L322 334Q319 334 317 334L143 334L96 0L94 0L189 680L326 680Q519 680 519 533M143 336L317 336Q411 336 464 393.50Q517 451 517 533Q517 603 472 640.50Q427 678 326 678L191 678L143 336Z"  horiz-adv-x="561" vert-adv-y="1000"  />

      
      <glyph glyph-name="uni53" unicode="&#x53;" d="M324 690Q425 690 489 626L487 625Q424 688 324 688Q272 688 232 672Q192 656 170 630.50Q148 605 137.50 578Q127 551 127 524Q127 463 161 431.50Q195 400 286 370Q374 340 412.50 303Q451 266 451 198Q451 166 438 131.50Q425 97 399.50 64.50Q374 32 328 11.50Q282-9 223-9Q158-9 115.50 10.50Q73 30 38 69L39 71Q74 32 116 12.50Q158-7 223-7Q281-7 327 14Q373 35 398.50 67Q424 99 436.50 132.50Q449 166 449 197Q449 265 410.50 301.50Q372 338 285 368Q194 398 159.50 430Q125 462 125 524Q125 585 174.50 637.50Q224 690 324 690Z"  horiz-adv-x="540" vert-adv-y="1000"  />

      
      <glyph glyph-name="uni54" unicode="&#x54;" d="M511 680L511 678L296 678L201 0L199 0L294 678L79 678L79 680L511 680Z"  horiz-adv-x="472" vert-adv-y="1000"  />

      
      <glyph glyph-name="uni55" unicode="&#x55;" d="M574 680L507 206Q494 107 439 49Q384-9 281-9Q85-9 113 206L180 680L182 680L115 206Q87-7 281-7Q383-7 437.50 50.50Q492 108 505 206L572 680L574 680Z"  horiz-adv-x="635" vert-adv-y="1000"  />

      
      <glyph glyph-name="uni56" unicode="&#x56;" d="M547 680L228 0L226 0L94 680L96 680L227 2L545 680L547 680Z"  horiz-adv-x="523" vert-adv-y="1000"  />

      
      <glyph glyph-name="uni57" unicode="&#x57;" d="M790 680L535 0L533 0L447 678L171 0L169 0L104 680L106 680L170 2L446 680L448 680L534 3L788 680L790 680Z"  horiz-adv-x="776" vert-adv-y="1000"  />

      
      <glyph glyph-name="uni58" unicode="&#x58;" d="M475 680L251 370L411 0L409 0L249 369L-14 0L-16 0L247 370L110 680L112 680L249 371L473 680L475 680Z"  horiz-adv-x="467" vert-adv-y="1000"  />

      
      <glyph glyph-name="uni59" unicode="&#x59;" d="M513 680L242 271L205 0L203 0L240 271L84 680L86 680L241 273L511 680L513 680Z"  horiz-adv-x="479" vert-adv-y="1000"  />

      
      <glyph glyph-name="uni5a" unicode="&#x5a;" d="M9 0L9 2L510 678L141 678L141 680L513 680L513 678L12 2L401 2L401 0L9 0Z"  horiz-adv-x="504" vert-adv-y="1000"  />

      
      <glyph glyph-name="uni5b" unicode="&#x5b;" d="M295 790L295 788L187 788L61-98L169-98L169-100L59-100L185 790L295 790Z"  horiz-adv-x="310" vert-adv-y="1000"  />

      
      <glyph glyph-name="uni5c" unicode="&#x5c;" d="M220 794L328-91L326-92L218 793L220 794Z"  horiz-adv-x="520" vert-adv-y="1000"  />

      
      <glyph glyph-name="uni5d" unicode="&#x5d;" d="M275 790L150-100L39-100L39-98L148-98L272 788L164 788L164 790L275 790Z"  horiz-adv-x="309" vert-adv-y="1000"  />

      
      <glyph glyph-name="uni5e" unicode="&#x5e;" d="M338 817L465 527L463 527L337 816L129 527L127 527L336 817L338 817Z"  horiz-adv-x="528" vert-adv-y="1000"  />

      
      <glyph glyph-name="uni5f" unicode="&#x5f;" d="M5-87L5-85L419-85L419-87L5-87Z"  horiz-adv-x="520" vert-adv-y="1000"  />

      
      <glyph glyph-name="uni60" unicode="&#x60;" d="M99 746L254 663L253 662L98 744L99 746Z"  horiz-adv-x="227" vert-adv-y="1000"  />

      
      <glyph glyph-name="uni61" unicode="&#x61;" d="M337 527Q405 527 462 487L411 121Q401 74 408.50 40Q416 6 448-7L447-9Q432-3 422.50 8.50Q413 20 409 30Q405 40 404.50 59.50Q404 79 405 86.50Q406 94 408 116Q375 54 327.50 22.50Q280-9 229-9Q156-9 115 44Q74 97 74 183Q74 228 82.50 273.50Q91 319 110.50 365.50Q130 412 159.50 447.50Q189 483 235 505Q281 527 337 527M337 525Q268 525 215 492Q162 459 133 406.50Q104 354 90 297Q76 240 76 183Q76 98 116.50 45.50Q157-7 229-7Q280-7 327.50 25.50Q375 58 409 121L460 486Q405 525 337 525Z"  horiz-adv-x="539" vert-adv-y="1000"  />

      
      <glyph glyph-name="uni62" unicode="&#x62;" d="M341 527Q414 527 451.50 478.50Q489 430 489 339Q489 286 475.50 228.50Q462 171 435.50 116Q409 61 361 26Q313-9 251-9Q175-9 94 27L191 730L193 730L150 420Q238 527 341 527M341 525Q284 525 239 498Q194 471 150 418L96 28Q176-7 251-7Q312-7 360 28Q408 63 434.50 117.50Q461 172 474 229Q487 286 487 339Q487 429 450 477Q413 525 341 525Z"  horiz-adv-x="562" vert-adv-y="1000"  />

      
      <glyph glyph-name="uni63" unicode="&#x63;" d="M319 527Q394 527 441 477L439 476Q393 525 319 525Q243 525 187 477Q131 429 104.50 355Q78 281 78 194Q78 98 122.50 45.50Q167-7 243-7Q318-7 383 45L384 44Q319-9 243-9Q166-9 121 44Q76 97 76 194Q76 330 141 428.50Q206 527 319 527Z"  horiz-adv-x="469" vert-adv-y="1000"  />

      
      <glyph glyph-name="uni64" unicode="&#x64;" d="M505 730L507 730L405 0L403 0L424 149Q382 75 336 33Q290-9 225-9Q155-9 114.50 41.50Q74 92 74 182Q74 224 81.50 269Q89 314 107.50 361Q126 408 152.50 444.50Q179 481 220.50 504Q262 527 312 527Q371 527 408.50 497Q446 467 462 424L505 730M312 525Q250 525 202 490.50Q154 456 128 402Q102 348 89 292Q76 236 76 182Q76 93 116 43Q156-7 225-7Q290-7 336 35Q382 77 424 152L462 420Q446 465 408.50 495Q371 525 312 525Z"  horiz-adv-x="566" vert-adv-y="1000"  />

      
      <glyph glyph-name="uni65" unicode="&#x65;" d="M464 414Q464 330 369 279Q274 228 77 218Q76 204 76 190Q76 95 118.50 44Q161-7 238-7Q318-7 399 52L400 50Q319-9 238-9Q161-9 117.50 42.50Q74 94 74 190Q74 240 87.50 294Q101 348 128.50 402.50Q156 457 208 492Q260 527 327 527Q388 527 426 497.50Q464 468 464 414M327 525Q277 525 235.50 505Q194 485 166.50 453.50Q139 422 119 380.50Q99 339 89.50 299Q80 259 77 220Q273 230 367.50 280.50Q462 331 462 414Q462 467 424.50 496Q387 525 327 525Z"  horiz-adv-x="508" vert-adv-y="1000"  />

      
      <glyph glyph-name="uni66" unicode="&#x66;" d="M305 732Q256 732 222 702.50Q188 673 180 618L166 517L316 517L316 515L165 515L93 1Q81-85 54-123.50Q27-162-32-191L-33-190Q26-161 53-122.50Q80-84 91 1L163 515L71 515L71 517L164 517L178 618Q186 674 220.50 704Q255 734 305 734Q366 734 415 696L413 695Q365 732 305 732Z"  horiz-adv-x="299" vert-adv-y="1000"  />

      
      <glyph glyph-name="uni67" unicode="&#x67;" d="M337 527Q405 527 462 487L388-11Q373-110 327.50-150.50Q282-191 211-191Q119-191 52-145L53-143Q120-189 211-189Q281-189 326-149Q371-109 386-11L407 132Q373 67 325.50 33.50Q278 0 228 0Q157 0 116.50 54.50Q76 109 76 195Q76 240 84 284.50Q92 329 111 373.50Q130 418 159 451.50Q188 485 234 506Q280 527 337 527M337 525Q267 525 214 494Q161 463 133 412.50Q105 362 91.50 307Q78 252 78 195Q78 110 117.50 56Q157 2 228 2Q280 2 327 37Q374 72 408 138L460 486Q405 525 337 525Z"  horiz-adv-x="549" vert-adv-y="1000"  />

      
      <glyph glyph-name="uni68" unicode="&#x68;" d="M365 527Q497 527 476 368L424 0L422 0L474 368Q495 525 365 525Q299 525 244 479Q189 433 137 329L91 0L89 0L191 730L193 730L138 335Q189 436 244 481.50Q299 527 365 527Z"  horiz-adv-x="580" vert-adv-y="1000"  />

      
      <glyph glyph-name="uni69" unicode="&#x69;" d="M194 700Q194 700 194 697Q194 694 188 694Q182 694 182 700Q182 706 188 706Q194 706 194 700M163 517L91 0L89 0L161 517L163 517Z"  horiz-adv-x="252" vert-adv-y="1000"  />

      
      <glyph glyph-name="uni6a" unicode="&#x6a;" d="M194 700Q194 700 194 697Q194 694 188 694Q182 694 182 700Q182 706 188 706Q194 706 194 700M-34-191L-35-189Q23-160 50.50-121.50Q78-83 89 1L161 517L163 517L91 1Q79-85 52-123.50Q25-162-34-191Z"  horiz-adv-x="252" vert-adv-y="1000"  />

      
      <glyph glyph-name="uni6b" unicode="&#x6b;" d="M193 730L134 308Q181 414 241 470.50Q301 527 367 527Q416 527 443.50 499.50Q471 472 471 425Q471 360 422.50 316.50Q374 273 282 243L410 0L408 0L279 244Q372 275 420.50 317.50Q469 360 469 424Q469 471 442.50 498Q416 525 367 525Q301 525 241 467.50Q181 410 133 302L91 0L89 0L191 730L193 730Z"  horiz-adv-x="509" vert-adv-y="1000"  />

      
      <glyph glyph-name="uni6c" unicode="&#x6c;" d="M188 730L95 64Q85-7 145-7Q166-7 187 1L187-1Q166-9 145-9Q83-9 93 64L186 730L188 730Z"  horiz-adv-x="275" vert-adv-y="1000"  />

      
      <glyph glyph-name="uni6d" unicode="&#x6d;" d="M643 527Q701 527 725 485Q749 443 738 368L687 0L685 0L736 368Q747 443 723.50 484Q700 525 643 525Q521 525 435 334L389 0L387 0L438 368Q449 443 425.50 484Q402 525 345 525Q225 525 137 329L91 0L89 0L161 517L163 517L138 335Q224 527 345 527Q383 527 407 508Q431 489 439 453.50Q447 418 440 368L436 339Q521 527 643 527Z"  horiz-adv-x="842" vert-adv-y="1000"  />

      
      <glyph glyph-name="uni6e" unicode="&#x6e;" d="M368 527Q432 527 459 485.50Q486 444 476 368L424 0L422 0L474 368Q484 443 457.50 484Q431 525 368 525Q300 525 244.50 479Q189 433 137 329L91 0L89 0L161 517L163 517L138 335Q189 437 244.50 482Q300 527 368 527Z"  horiz-adv-x="580" vert-adv-y="1000"  />

      
      <glyph glyph-name="uni6f" unicode="&#x6f;" d="M242-9Q163-9 119 44Q75 97 75 192Q75 246 88 301Q101 356 127.50 408.50Q154 461 203.50 494Q253 527 318 527Q397 527 440.50 475Q484 423 484 328Q484 275 471.50 220Q459 165 432.50 111.50Q406 58 356.50 24.50Q307-9 242-9M242-7Q307-7 356 26.50Q405 60 431 113Q457 166 469.50 220.50Q482 275 482 328Q482 422 439 473.50Q396 525 318 525Q254 525 204.50 492Q155 459 129 407Q103 355 90 300.50Q77 246 77 192Q77 97 120 45Q163-7 242-7Z"  horiz-adv-x="559" vert-adv-y="1000"  />

      
      <glyph glyph-name="uni70" unicode="&#x70;" d="M63-191L161 517L163 517L150 420Q235 527 343 527Q414 527 451.50 478.50Q489 430 489 339Q489 286 475.50 228.50Q462 171 435.50 116Q409 61 361 26Q313-9 251-9Q163-9 95 26L65-191L63-191M251-7Q312-7 360 28Q408 63 434.50 117.50Q461 172 474 229Q487 286 487 339Q487 429 450.50 477Q414 525 343 525Q285 525 239.50 498Q194 471 150 418L95 28Q163-7 251-7Z"  horiz-adv-x="562" vert-adv-y="1000"  />

      
      <glyph glyph-name="uni71" unicode="&#x71;" d="M365-191L408 117Q337-9 228-9Q156-9 115 44Q74 97 74 183Q74 228 82 273.50Q90 319 110 365.50Q130 412 159 447.50Q188 483 234 505Q280 527 337 527Q408 527 462 487L367-191L365-191M228-7Q336-7 408 121L460 486Q407 525 337 525Q267 525 214 492Q161 459 132.50 406.50Q104 354 90 297Q76 240 76 183Q76 98 116 45.50Q156-7 228-7Z"  horiz-adv-x="549" vert-adv-y="1000"  />

      
      <glyph glyph-name="uni72" unicode="&#x72;" d="M327 527Q350 527 373 520L372 518Q351 525 327 525Q263 525 219.50 486Q176 447 140 349L91 0L89 0L161 517L163 517L141 357Q176 451 219.50 489Q263 527 327 527Z"  horiz-adv-x="361" vert-adv-y="1000"  />

      
      <glyph glyph-name="uni73" unicode="&#x73;" d="M259 527Q348 527 403 475L401 474Q347 525 259 525Q192 525 145 490.50Q98 456 98 399Q98 356 127.50 329Q157 302 234 277Q311 252 341 222.50Q371 193 371 141Q371 71 320 31Q269-9 193-9Q95-9 29 57L30 59Q96-7 193-7Q269-7 319 32.50Q369 72 369 141Q369 192 339.50 221Q310 250 233 275Q156 300 126 327.50Q96 355 96 399Q96 457 143.50 492Q191 527 259 527Z"  horiz-adv-x="457" vert-adv-y="1000"  />

      
      <glyph glyph-name="uni74" unicode="&#x74;" d="M155 515L99 113Q91 56 113 24.50Q135-7 183-7Q231-7 280 21L281 19Q231-9 183-9Q134-9 111.50 23Q89 55 97 113L153 515L66 515L66 517L153 517L172 651L174 651L155 517L301 517L301 515L155 515Z"  horiz-adv-x="322" vert-adv-y="1000"  />

      
      <glyph glyph-name="uni75" unicode="&#x75;" d="M223-9Q157-9 125.50 32Q94 73 104 150L155 517L157 517L106 150Q96 74 127 33.50Q158-7 223-7Q288-7 343 38.50Q398 84 435 171L483 517L485 517L413 0L411 0L435 167Q398 81 343 36Q288-9 223-9Z"  horiz-adv-x="574" vert-adv-y="1000"  />

      
      <glyph glyph-name="uni76" unicode="&#x76;" d="M441 517L188 0L186 0L66 517L68 517L187 2L439 517L441 517Z"  horiz-adv-x="435" vert-adv-y="1000"  />

      
      <glyph glyph-name="uni77" unicode="&#x77;" d="M668 517L455 0L453 0L372 514L147 0L145 0L76 517L78 517L146 2L371 517L373 517L454 2L666 517L668 517Z"  horiz-adv-x="672" vert-adv-y="1000"  />

      
      <glyph glyph-name="uni78" unicode="&#x78;" d="M408 517L214 278L363 0L361 0L213 277L-9 0L-11 0L212 278L88 517L90 517L213 279L406 517L408 517Z"  horiz-adv-x="424" vert-adv-y="1000"  />

      
      <glyph glyph-name="uni79" unicode="&#x79;" d="M440 517L190 0Q145-92 109.50-130Q74-168-2-189L-2-187Q73-166 108-128.50Q143-91 188 0L186 0L66 517L68 517L188 1L438 517L440 517Z"  horiz-adv-x="434" vert-adv-y="1000"  />

      
      <glyph glyph-name="uni7a" unicode="&#x7a;" d="M406 517L406 515L2 2L323 2L323 0L-1 0L-1 2L403 515L102 515L102 517L406 517Z"  horiz-adv-x="410" vert-adv-y="1000"  />

      
      <glyph glyph-name="uni7b" unicode="&#x7b;" d="M308 808L308 806Q229 806 217 713L177 427Q172 390 149 369.50Q126 349 90 349Q125 349 142 328.50Q159 308 154 271L114-15Q102-108 179-108L179-110Q100-110 112-16L152 271Q158 309 140 328.50Q122 348 87 348L88 350Q163 350 175 427L215 714Q227 808 308 808Z"  horiz-adv-x="326" vert-adv-y="1000"  />

      
      <glyph glyph-name="uni7c" unicode="&#x7c;" d="M287 800L162-97L160-97L285 800L287 800Z"  horiz-adv-x="420" vert-adv-y="1000"  />

      
      <glyph glyph-name="uni7d" unicode="&#x7d;" d="M43-110L43-108Q122-108 134-15L174 271Q179 308 202 328.50Q225 349 261 349Q226 349 209 369.50Q192 390 197 427L237 713Q249 806 172 806L172 808Q251 808 239 714L199 427Q193 389 211 369.50Q229 350 264 350L263 348Q188 348 176 271L136-16Q124-110 43-110Z"  horiz-adv-x="325" vert-adv-y="1000"  />

      
      <glyph glyph-name="uni7e" unicode="&#x7e;" d="M303 291Q280 291 236.50 318.50Q193 346 169 346Q128 346 94 302L92 303Q127 348 169 348Q194 348 237 320.50Q280 293 303 293Q344 293 378 337L380 336Q345 291 303 291Z"  horiz-adv-x="454" vert-adv-y="1000"  />

      
      <glyph glyph-name="unia1" unicode="&#xa1;" d="M151 431Q151 431 151 427.50Q151 424 144 424Q137 424 137 431Q137 438 144 438Q151 438 151 431M119 254L56-188L54-188L117 254L119 254Z"  horiz-adv-x="234" vert-adv-y="1000"  />

      
      <glyph glyph-name="unia2" unicode="&#xa2;" d="M319 527Q394 527 441 477L439 476Q393 525 319 525Q243 525 187 477Q131 429 104.50 355Q78 281 78 194Q78 98 122.50 45.50Q167-7 243-7Q318-7 383 45L384 44Q319-9 243-9Q239-9 235-9L216-144L214-144L233-9Q185-6 150 17.50Q115 41 95.50 86Q76 131 76 194Q76 280 102 354Q128 428 183.50 476.50Q239 525 313 527L333 672L335 672L315 527Q316 527 319 527Z"  horiz-adv-x="469" vert-adv-y="1000"  />

      
      <glyph glyph-name="unia3" unicode="&#xa3;" d="M352 670Q434 670 476 609L474 608Q433 668 352 668Q282 668 239 623Q196 578 186 506L165 356L374 356L374 354L165 354L132 118Q125 70 103.50 44Q82 18 39 2L387 2L387 0L34 0L34 2Q79 18 101 43.50Q123 69 130 118L163 354L106 354L106 356L163 356L184 506Q194 579 237.50 624.50Q281 670 352 670Z"  horiz-adv-x="492" vert-adv-y="1000"  />

      
      <glyph glyph-name="unia4" unicode="&#xa4;" d="M444 339Q444 262 391 213L470 136L468 135L389 212Q343 170 279 170Q215 170 170 211L92 135L90 136L168 212Q114 261 114 339Q114 414 164 463L90 540L92 541L165 465Q212 510 279 510Q348 510 394 464L468 541L470 540L396 463Q444 414 444 339M116 339Q116 266 163.50 219Q211 172 279 172Q324 172 361 193Q398 214 420 252.50Q442 291 442 339Q442 386 421.50 424.50Q401 463 363.50 485.50Q326 508 279 508Q209 508 162.50 459.50Q116 411 116 339Z"  horiz-adv-x="560" vert-adv-y="1000"  />

      
      <glyph glyph-name="unia5" unicode="&#xa5;" d="M500 660L244 319L376 319L376 317L244 317L226 186L357 186L357 184L225 184L200 0L198 0L223 184L95 184L95 186L224 186L242 317L114 317L114 319L242 319L81 660L84 660L243 321L497 660L500 660Z"  horiz-adv-x="469" vert-adv-y="1000"  />

      
      <glyph glyph-name="unia6" unicode="&#xa6;" d="M288 800L237 443L235 443L286 800L288 800M212 262L163-97L161-97L210 262L212 262Z"  horiz-adv-x="421" vert-adv-y="1000"  />

      
      <glyph glyph-name="unia7" unicode="&#xa7;" d="M329 668Q257 668 217 632Q177 596 177 548Q177 526 183 510Q189 494 204 479Q219 464 243 451.50Q267 439 304 426Q369 402 397.50 372Q426 342 426 298Q426 253 402.50 219Q379 185 321 155Q371 124 371 68Q371 13 331-23Q291-59 217-59Q132-59 76-18L77-16Q130-57 217-57Q290-57 329.50-21.50Q369 14 369 68Q369 89 363 105.50Q357 122 342.50 136Q328 150 304 162Q280 174 245 186Q176 210 146.50 237Q117 264 117 309Q117 329 122 346Q127 363 139.50 381Q152 399 175 417.50Q198 436 232 456Q201 474 188 496Q175 518 175 548Q175 597 215.50 633.50Q256 670 329 670Q403 670 462 630L461 628Q403 668 329 668M424 298Q424 341 396 370.50Q368 400 303 424Q260 439 234 455Q188 428 162.50 403Q137 378 128 357Q119 336 119 309Q119 265 148.50 238Q178 211 247 187Q292 172 319 156Q358 177 382 199.50Q406 222 415 245.50Q424 269 424 298Z"  horiz-adv-x="530" vert-adv-y="1000"  />

      
      <glyph glyph-name="unia8" unicode="&#xa8;" d="M102 685Q102 685 102 682Q102 679 96 679Q90 679 90 685Q90 691 96 691Q102 691 102 685M251 685Q251 685 251 682Q251 679 245 679Q239 679 239 685Q239 691 245 691Q251 691 251 685Z"  horiz-adv-x="221" vert-adv-y="1000"  />

      
      <glyph glyph-name="unia9" unicode="&#xa9;" d="M430 711Q547 711 622 634Q697 557 697 435Q697 314 621.50 236.50Q546 159 430 159Q313 159 238 236Q163 313 163 435Q163 556 238.50 633.50Q314 711 430 711M620.50 633Q620.50 633 583.25 671Q546 709 430 709Q314 709 239.50 632Q165 555 165 435Q165 313 239.50 237Q314 161 430 161Q546 161 620.50 238Q695 315 695 435Q695 557 620.50 633M428 602Q473 602 505 576L504 574Q472 600 428 600Q380 600 342 559.50Q304 519 304 437Q304 356 338 314.50Q372 273 426 273Q479 273 515 303L516 301Q482 271 426 271Q372 271 337 313Q302 355 302 437Q302 520 340.50 561Q379 602 428 602Z"  horiz-adv-x="810" vert-adv-y="1000"  />

      
      <glyph glyph-name="uniaa" unicode="&#xaa;" d="M221 278Q170 278 142.50 304.50Q115 331 115 376Q115 440 162 476.50Q209 513 290 513L392 513L399 564Q407 622 385 650Q363 678 304 678Q251 678 183 653L183 655Q249 680 304 680Q364 680 386.50 651Q409 622 401 564L374 368Q366 337 370.50 312.50Q375 288 404 280L403 278Q390 281 382.50 288.50Q375 296 371.50 302.50Q368 309 367.50 322Q367 335 368 341Q369 347 371 363Q315 278 221 278M221 280Q314 280 372 368L392 511L290 511Q210 511 163.50 475Q117 439 117 376Q117 332 144 306Q171 280 221 280M57 0L57 2L365 2L365 0L57 0Z"  horiz-adv-x="494" vert-adv-y="1000"  />

      
      <glyph glyph-name="uniab" unicode="&#xab;" d="M276 494L278 493L106 288L222 84L220 83L104 287L104 289L276 494M449 494L451 493L279 288L395 84L393 83L277 287L277 289L449 494Z"  horiz-adv-x="519" vert-adv-y="1000"  />

      
      <glyph glyph-name="uniac" unicode="&#xac;" d="M413 322L397 215L395 215L410 320L94 320L95 322L413 322Z"  horiz-adv-x="489" vert-adv-y="1000"  />

      
      <glyph glyph-name="uniad" unicode="&#xad;" d="M93 311L93 313L323 313L323 311L93 311Z"  horiz-adv-x="400" vert-adv-y="1000"  />

      
      <glyph glyph-name="uniae" unicode="&#xae;" d="M351 709Q444 709 501 650.50Q558 592 558 504Q558 413 503.50 353.50Q449 294 351 294Q258 294 201 352.50Q144 411 144 499Q144 590 198.50 649.50Q253 709 351 709M351 296Q449 296 502.50 355.50Q556 415 556 504Q556 591 499.50 649Q443 707 351 707Q253 707 199.50 647.50Q146 588 146 499Q146 412 202.50 354Q259 296 351 296M431 566Q431 532 411.50 513.50Q392 495 366 495L440 371L438 371L364 495L286 495L286 372L284 372L284 639L340 639Q431 639 431 566M286 637L286 497L364 497Q391 497 410 515Q429 533 429 566Q429 637 340 637L286 637Z"  horiz-adv-x="634" vert-adv-y="1000"  />

      
      <glyph glyph-name="uniaf" unicode="&#xaf;" d="M281 689L91 689L91 691L281 691L281 689Z"  horiz-adv-x="250" vert-adv-y="1000"  />

      
      <glyph glyph-name="unib0" unicode="&#xb0;" d="M243 421Q194 421 164.50 451.50Q135 482 135 534Q135 598 177.50 644Q220 690 280 690Q332 690 360.50 660Q389 630 389 580Q389 513 349 467Q309 421 243 421M243 423Q309 423 348 468Q387 513 387 580Q387 629 359 658.50Q331 688 280 688Q220 688 178.50 642.50Q137 597 137 534Q137 483 166 453Q195 423 243 423Z"  horiz-adv-x="521" vert-adv-y="1000"  />

      
      <glyph glyph-name="unib1" unicode="&#xb1;" d="M274 488L253 332L406 332L405 330L252 330L230 174L228 174L250 330L97 330L98 332L251 332L272 488L274 488M49 0L49 2L357 2L357 0L49 0Z"  horiz-adv-x="481" vert-adv-y="1000"  />

      
      <glyph glyph-name="unib2" unicode="&#xb2;" d="M265 734Q309 734 332 711Q355 688 355 649Q355 626 348.50 603.50Q342 581 325.50 555.50Q309 530 294 510.50Q279 491 248 460Q217 429 197 410Q177 391 135 353Q112 331 100 320L321 320L321 318L97 318L97 320Q110 332 135 355Q177 394 197 413Q217 432 248 463Q279 494 293.50 513Q308 532 324 557Q340 582 346.50 604Q353 626 353 649Q353 687 331 709.50Q309 732 265 732Q204 732 151 679L149 680Q203 734 265 734Z"  horiz-adv-x="400" vert-adv-y="1000"  />

      
      <glyph glyph-name="unib3" unicode="&#xb3;" d="M269 734Q312 734 335.50 711.50Q359 689 359 651Q359 599 326 569.50Q293 540 251 537Q293 535 318 513Q343 491 343 451Q343 392 305.50 352Q268 312 206 312Q168 312 143 324Q118 336 99 363L101 364Q120 337 144.50 325.50Q169 314 206 314Q268 314 304.50 353.50Q341 393 341 451Q341 471 334 487Q327 503 313.50 514Q300 525 281 530.50Q262 536 238 536L216 536L216 538L240 538Q286 538 321.50 568Q357 598 357 651Q357 688 334 710Q311 732 269 732Q207 732 158 688L157 690Q208 734 269 734Z"  horiz-adv-x="400" vert-adv-y="1000"  />

      
      <glyph glyph-name="unib4" unicode="&#xb4;" d="M265 746L266 744L87 662L87 664L265 746Z"  horiz-adv-x="228" vert-adv-y="1000"  />

      
      <glyph glyph-name="unib5" unicode="&#xb5;" d="M436 160Q424 84 440 0L438 0Q423 76 432 148Q394 76 339 33.50Q284-9 218-9Q107-9 105 98Q100 65 93 15Q86-35 83-57L64-190L62-190L161 517L163 517L110 134Q99 60 129.50 26.50Q160-7 218-7Q283-7 338 36Q393 79 432 152L483 517L485 517L436 160Z"  horiz-adv-x="581" vert-adv-y="1000"  />

      
      <glyph glyph-name="unib6" unicode="&#xb6;" d="M401 680L552 680L430-190L428-190L550 678L402 678L280-190L278-190L349 312Q253 312 207 355Q161 398 161 468Q161 565 227.50 622.50Q294 680 401 680Z"  horiz-adv-x="683" vert-adv-y="1000"  />

      
      <glyph glyph-name="unib7" unicode="&#xb7;" d="M77 329Q77 329 77 325.50Q77 322 70 322Q63 322 63 329Q63 336 70 336Q77 336 77 329Z"  horiz-adv-x="120" vert-adv-y="1000"  />

      
      <glyph glyph-name="unib8" unicode="&#xb8;" d="M37-7L21-83Q63-84 84-96.50Q105-109 105-139Q105-166 85.50-184Q66-202 28-202Q-8-202-32-186L-31-184Q-9-200 28-200Q65-200 84-182.50Q103-165 103-139Q103-110 82.50-98Q62-86 19-85L35-7L37-7Z"  horiz-adv-x="192" vert-adv-y="1000"  />

      
      <glyph glyph-name="unib9" unicode="&#xb9;" d="M296 727L239 318L237 318L294 725L166 653L165 655L294 727L296 727Z"  horiz-adv-x="400" vert-adv-y="1000"  />

      
      <glyph glyph-name="uniba" unicode="&#xba;" d="M310 680Q374 680 409.50 640.50Q445 601 445 529Q445 425 393.50 351.50Q342 278 252 278Q188 278 152.50 318Q117 358 117 431Q117 535 168.50 607.50Q220 680 310 680M310 678Q221 678 170 606Q119 534 119 431Q119 359 153.50 319.50Q188 280 252 280Q341 280 392 353Q443 426 443 529Q443 600 408 639Q373 678 310 678M60 0L60 2L368 2L368 0L60 0Z"  horiz-adv-x="500" vert-adv-y="1000"  />

      
      <glyph glyph-name="unibb" unicode="&#xbb;" d="M135 494L249 289L249 287L77 83L75 84L247 288L133 493L135 494M308 494L422 289L422 287L250 83L248 84L420 288L306 493L308 494Z"  horiz-adv-x="517" vert-adv-y="1000"  />

      
      <glyph glyph-name="unibc" unicode="&#xbc;" d="M704 733L706 733L190-67L188-67L704 733M230 271L287 678L159 606L158 608L287 680L289 680L232 271L230 271M782 123L782 121L721 121L704 0L702 0L719 121L523 121L523 124L701 416L703 415L525 123L719 123L738 259L740 259L721 123L782 123Z"  horiz-adv-x="872" vert-adv-y="1000"  />

      
      <glyph glyph-name="unibd" unicode="&#xbd;" d="M704 733L706 733L190-67L188-67L704 733M289 680L232 271L230 271L287 678L159 606L158 608L287 680L289 680M692 416Q737 416 759.50 393Q782 370 782 331Q782 297 767.50 263.50Q753 230 718.50 190Q684 150 653 119.50Q622 89 563 35Q555 28 550.50 24Q546 20 539.50 13.50Q533 7 527 2L748 2L748 0L524 0L524 2Q537 14 562 37Q625 95 653.50 123Q682 151 717.50 192Q753 233 766.50 265Q780 297 780 331Q780 369 758 391.50Q736 414 692 414Q631 414 578 361L576 362Q630 416 692 416Z"  horiz-adv-x="872" vert-adv-y="1000"  />

      
      <glyph glyph-name="unibe" unicode="&#xbe;" d="M704 733L706 733L190-67L188-67L704 733M336 404Q336 345 299 305Q262 265 199 265Q162 265 137 277Q112 289 92 316L94 317Q114 290 138 278.50Q162 267 199 267Q261 267 297.50 306.50Q334 346 334 404Q334 445 307 467Q280 489 231 489L209 489L209 491L233 491Q279 491 314.50 521Q350 551 350 604Q350 641 327 663Q304 685 262 685Q201 685 151 641L150 643Q201 687 262 687Q305 687 328.50 664.50Q352 642 352 604Q352 552 319.50 522.50Q287 493 244 490Q286 488 311 466Q336 444 336 404M782 123L782 121L721 121L704 0L702 0L719 121L523 121L523 124L701 416L703 415L525 123L719 123L738 259L740 259L721 123L782 123Z"  horiz-adv-x="872" vert-adv-y="1000"  />

      
      <glyph glyph-name="unibf" unicode="&#xbf;" d="M246 494Q246 494 246 497.50Q246 501 253 501Q260 501 260 494Q260 487 253 487Q246 487 246 494M147-194Q91-194 59-161.50Q27-129 27-85Q27-42 43.50-8.50Q60 25 85.50 44.50Q111 64 140 84.50Q169 105 194 122Q219 139 235 166.50Q251 194 251 229Q251 255 241 287L243 287Q253 255 253 229Q254 188 231 157Q208 126 175 105Q142 84 109 61.50Q76 39 52.50 2Q29-35 29-85Q29-129 60-160.50Q91-192 147-192Q197-192 236-173.50Q275-155 318-115L320-116Q277-157 237.50-175.50Q198-194 147-194Z"  horiz-adv-x="448" vert-adv-y="1000"  />

      
      <glyph glyph-name="unic0" unicode="&#xc0;" d="M434 773L433 771L276 840L277 842L434 773M483 0L437 213L107 213L1 0L-1 0L336 680L337 680L485 0L483 0M108 215L436 215L336 676L108 215Z"  horiz-adv-x="556" vert-adv-y="1000"  />

      
      <glyph glyph-name="unic1" unicode="&#xc1;" d="M443 840L268 771L267 773L442 842L443 840M483 0L437 213L107 213L1 0L-1 0L336 680L337 680L485 0L483 0M108 215L436 215L336 676L108 215Z"  horiz-adv-x="556" vert-adv-y="1000"  />

      
      <glyph glyph-name="unic2" unicode="&#xc2;" d="M358 848L241 770L239 771L357 850L359 850L457 771L455 770L358 848M483 0L437 213L107 213L1 0L-1 0L336 680L337 680L485 0L483 0M108 215L436 215L336 676L108 215Z"  horiz-adv-x="556" vert-adv-y="1000"  />

      
      <glyph glyph-name="unic3" unicode="&#xc3;" d="M304 856Q273 856 237 821L235 822Q274 858 304 858Q322 858 356.50 836Q391 814 413 814Q446 814 480 851L482 850Q447 812 413 812Q390 812 356 834Q322 856 304 856M483 0L437 213L107 213L1 0L-1 0L336 680L337 680L485 0L483 0M108 215L436 215L336 676L108 215Z"  horiz-adv-x="556" vert-adv-y="1000"  />

      
      <glyph glyph-name="unic4" unicode="&#xc4;" d="M287 811Q287 811 287 808Q287 805 281 805Q275 805 275 811Q275 817 281 817Q287 817 287 811M436 811Q436 811 436 808Q436 805 430 805Q424 805 424 811Q424 817 430 817Q436 817 436 811M483 0L437 213L107 213L1 0L-1 0L336 680L337 680L485 0L483 0M108 215L436 215L336 676L108 215Z"  horiz-adv-x="556" vert-adv-y="1000"  />

      
      <glyph glyph-name="unic5" unicode="&#xc5;" d="M353 781Q323 781 308.50 798.50Q294 816 298 844Q302 873 321.50 890.50Q341 908 370 908Q400 908 414 891Q428 874 424 845Q420 816 401 798.50Q382 781 353 781M323 889Q323 889 313.50 880.50Q304 872 300 844Q296 816 310 799.50Q324 783 353 783Q381 783 400 800.50Q419 818 422 845Q426 873 412.50 889.50Q399 906 370 906Q342 906 323 889M483 0L437 213L107 213L1 0L-1 0L336 680L337 680L485 0L483 0M108 215L436 215L336 676L108 215Z"  horiz-adv-x="556" vert-adv-y="1000"  />

      
      <glyph glyph-name="unic6" unicode="&#xc6;" d="M704 678L346 678L385 362L650 362L650 360L385 360L429 2L664 2L664 0L427 0L402 205L95 205L-13 0L-15 0L343 680L704 680L704 678M402 207L344 678L96 207L402 207Z"  horiz-adv-x="750" vert-adv-y="1000"  />

      
      <glyph glyph-name="unic7" unicode="&#xc7;" d="M403 688Q319 688 255.50 645Q192 602 158.50 533.50Q125 465 109 394Q93 323 93 253Q93 128 149.50 60.50Q206-7 305-7Q395-7 474 52L475 50Q397-9 306-9L290-83Q332-84 353-96.50Q374-109 374-139Q374-166 354.50-184Q335-202 297-202Q261-202 237-186L238-184Q260-200 297-200Q322-200 339.50-191Q357-182 364.50-169Q372-156 372-139Q372-120 362.50-108Q353-96 335-91Q317-86 288-85L304-9Q204-9 147.50 59Q91 127 91 253Q91 309 100.50 366Q110 423 133 482.50Q156 542 190.50 587Q225 632 280 661Q335 690 403 690Q492 690 547 633L546 631Q518 659 486.50 673.50Q455 688 403 688Z"  horiz-adv-x="530" vert-adv-y="1000"  />

      
      <glyph glyph-name="unic8" unicode="&#xc8;" d="M283 842L440 773L439 771L282 840L283 842M494 680L494 678L191 678L147 362L407 362L407 360L147 360L96 2L409 2L409 0L94 0L189 680L494 680Z"  horiz-adv-x="495" vert-adv-y="1000"  />

      
      <glyph glyph-name="unic9" unicode="&#xc9;" d="M448 842L449 840L274 771L273 773L448 842M494 680L494 678L191 678L147 362L407 362L407 360L147 360L96 2L409 2L409 0L94 0L189 680L494 680Z"  horiz-adv-x="495" vert-adv-y="1000"  />

      
      <glyph glyph-name="unica" unicode="&#xca;" d="M247 770L245 771L363 850L365 850L463 771L461 770L364 848L247 770M494 680L494 678L191 678L147 362L407 362L407 360L147 360L96 2L409 2L409 0L94 0L189 680L494 680Z"  horiz-adv-x="495" vert-adv-y="1000"  />

      
      <glyph glyph-name="unicb" unicode="&#xcb;" d="M293 811Q293 811 293 808Q293 805 287 805Q281 805 281 811Q281 817 287 817Q293 817 293 811M442 811Q442 811 442 808Q442 805 436 805Q430 805 430 811Q430 817 436 817Q442 817 442 811M494 680L494 678L191 678L147 362L407 362L407 360L147 360L96 2L409 2L409 0L94 0L189 680L494 680Z"  horiz-adv-x="495" vert-adv-y="1000"  />

      
      <glyph glyph-name="unicc" unicode="&#xcc;" d="M130 842L287 773L286 771L129 840L130 842M191 680L96 0L94 0L189 680L191 680Z"  horiz-adv-x="262" vert-adv-y="1000"  />

      
      <glyph glyph-name="unicd" unicode="&#xcd;" d="M295 842L296 840L121 771L120 773L295 842M191 680L96 0L94 0L189 680L191 680Z"  horiz-adv-x="262" vert-adv-y="1000"  />

      
      <glyph glyph-name="unice" unicode="&#xce;" d="M94 770L92 771L210 850L212 850L310 771L308 770L211 848L94 770M191 680L96 0L94 0L189 680L191 680Z"  horiz-adv-x="262" vert-adv-y="1000"  />

      
      <glyph glyph-name="unicf" unicode="&#xcf;" d="M140 811Q140 811 140 808Q140 805 134 805Q128 805 128 811Q128 817 134 817Q140 817 140 811M289 811Q289 811 289 808Q289 805 283 805Q277 805 277 811Q277 817 283 817Q289 817 289 811M191 680L96 0L94 0L189 680L191 680Z"  horiz-adv-x="262" vert-adv-y="1000"  />

      
      <glyph glyph-name="unid0" unicode="&#xd0;" d="M295 680Q348 680 389.50 669.50Q431 659 469 634Q507 609 528 559Q549 509 549 436Q549 372 538.50 312.50Q528 253 502 195Q476 137 438 94.50Q400 52 340.50 26Q281 0 207 0L96 0L145 352L53 352L53 354L145 354L191 680L295 680M207 2Q280 2 339.50 28Q399 54 437 96.50Q475 139 500.50 196.50Q526 254 536.50 313.50Q547 373 547 436Q547 508 526.50 557.50Q506 607 468 632.50Q430 658 388.50 668Q347 678 295 678L193 678L147 354L345 354L345 352L147 352L98 2L207 2Z"  horiz-adv-x="615" vert-adv-y="1000"  />

      
      <glyph glyph-name="unid1" unicode="&#xd1;" d="M466 812Q443 812 409 834Q375 856 357 856Q326 856 290 821L288 822Q327 858 357 858Q375 858 409.50 836Q444 814 466 814Q499 814 533 851L535 850Q500 812 466 812M583 680L488 0L485 0L191 677Q186 640 176 572L96 0L94 0L189 680L192 680L486 3Q489 23 495.50 69Q502 115 505 136L581 680L583 680Z"  horiz-adv-x="654" vert-adv-y="1000"  />

      
      <glyph glyph-name="unid2" unicode="&#xd2;" d="M341 842L498 773L497 771L340 840L341 842M403 690Q507 690 564 622Q621 554 621 429Q621 384 614.50 338Q608 292 594 241.50Q580 191 555 147Q530 103 496.50 67.50Q463 32 414 11.50Q365-9 306-9Q203-9 146.50 59Q90 127 90 251Q90 304 99.50 361Q109 418 133 477.50Q157 537 191.50 583.50Q226 630 281 660Q336 690 403 690M403 688Q336 688 281.50 658.50Q227 629 192.50 582.50Q158 536 134.50 476.50Q111 417 101.50 360.50Q92 304 92 251Q92 128 148 60.50Q204-7 306-7Q376-7 432 22.50Q488 52 522 98Q556 144 578.50 204Q601 264 610 319.50Q619 375 619 429Q619 553 562.50 620.50Q506 688 403 688Z"  horiz-adv-x="687" vert-adv-y="1000"  />

      
      <glyph glyph-name="unid3" unicode="&#xd3;" d="M506 842L507 840L332 771L331 773L506 842M403 690Q507 690 564 622Q621 554 621 429Q621 384 614.50 338Q608 292 594 241.50Q580 191 555 147Q530 103 496.50 67.50Q463 32 414 11.50Q365-9 306-9Q203-9 146.50 59Q90 127 90 251Q90 304 99.50 361Q109 418 133 477.50Q157 537 191.50 583.50Q226 630 281 660Q336 690 403 690M403 688Q336 688 281.50 658.50Q227 629 192.50 582.50Q158 536 134.50 476.50Q111 417 101.50 360.50Q92 304 92 251Q92 128 148 60.50Q204-7 306-7Q376-7 432 22.50Q488 52 522 98Q556 144 578.50 204Q601 264 610 319.50Q619 375 619 429Q619 553 562.50 620.50Q506 688 403 688Z"  horiz-adv-x="687" vert-adv-y="1000"  />

      
      <glyph glyph-name="unid4" unicode="&#xd4;" d="M305 770L303 771L421 850L423 850L521 771L519 770L422 848L305 770M403 690Q507 690 564 622Q621 554 621 429Q621 384 614.50 338Q608 292 594 241.50Q580 191 555 147Q530 103 496.50 67.50Q463 32 414 11.50Q365-9 306-9Q203-9 146.50 59Q90 127 90 251Q90 304 99.50 361Q109 418 133 477.50Q157 537 191.50 583.50Q226 630 281 660Q336 690 403 690M403 688Q336 688 281.50 658.50Q227 629 192.50 582.50Q158 536 134.50 476.50Q111 417 101.50 360.50Q92 304 92 251Q92 128 148 60.50Q204-7 306-7Q376-7 432 22.50Q488 52 522 98Q556 144 578.50 204Q601 264 610 319.50Q619 375 619 429Q619 553 562.50 620.50Q506 688 403 688Z"  horiz-adv-x="687" vert-adv-y="1000"  />

      
      <glyph glyph-name="unid5" unicode="&#xd5;" d="M477 812Q454 812 420 834Q386 856 368 856Q337 856 301 821L299 822Q338 858 368 858Q386 858 420.50 836Q455 814 477 814Q510 814 544 851L546 850Q511 812 477 812M403 690Q507 690 564 622Q621 554 621 429Q621 384 614.50 338Q608 292 594 241.50Q580 191 555 147Q530 103 496.50 67.50Q463 32 414 11.50Q365-9 306-9Q203-9 146.50 59Q90 127 90 251Q90 304 99.50 361Q109 418 133 477.50Q157 537 191.50 583.50Q226 630 281 660Q336 690 403 690M403 688Q336 688 281.50 658.50Q227 629 192.50 582.50Q158 536 134.50 476.50Q111 417 101.50 360.50Q92 304 92 251Q92 128 148 60.50Q204-7 306-7Q376-7 432 22.50Q488 52 522 98Q556 144 578.50 204Q601 264 610 319.50Q619 375 619 429Q619 553 562.50 620.50Q506 688 403 688Z"  horiz-adv-x="687" vert-adv-y="1000"  />

      
      <glyph glyph-name="unid6" unicode="&#xd6;" d="M351 811Q351 811 351 808Q351 805 345 805Q339 805 339 811Q339 817 345 817Q351 817 351 811M500 811Q500 811 500 808Q500 805 494 805Q488 805 488 811Q488 817 494 817Q500 817 500 811M403 690Q507 690 564 622Q621 554 621 429Q621 384 614.50 338Q608 292 594 241.50Q580 191 555 147Q530 103 496.50 67.50Q463 32 414 11.50Q365-9 306-9Q203-9 146.50 59Q90 127 90 251Q90 304 99.50 361Q109 418 133 477.50Q157 537 191.50 583.50Q226 630 281 660Q336 690 403 690M403 688Q336 688 281.50 658.50Q227 629 192.50 582.50Q158 536 134.50 476.50Q111 417 101.50 360.50Q92 304 92 251Q92 128 148 60.50Q204-7 306-7Q376-7 432 22.50Q488 52 522 98Q556 144 578.50 204Q601 264 610 319.50Q619 375 619 429Q619 553 562.50 620.50Q506 688 403 688Z"  horiz-adv-x="687" vert-adv-y="1000"  />

      
      <glyph glyph-name="unid7" unicode="&#xd7;" d="M397 444L399 443L249 308L362 172L360 171L247 307L96 171L94 172L245 308L131 443L133 444L247 309L397 444Z"  horiz-adv-x="479" vert-adv-y="1000"  />

      
      <glyph glyph-name="unid8" unicode="&#xd8;" d="M497 672Q557 646 589 584Q621 522 621 429Q621 384 614.50 338Q608 292 594 241.50Q580 191 555 147Q530 103 496.50 67.50Q463 32 414 11.50Q365-9 306-9Q255-9 214 9L164-103L162-102L212 10Q173 27 145.50 60.50Q118 94 104 142Q90 190 90 251Q90 304 99.50 361Q109 418 133 477.50Q157 537 191.50 583.50Q226 630 281 660Q336 690 403 690Q455 690 495 673L547 787L549 786L497 672M92 253Q92 162 123 100Q154 38 212 12L495 671Q454 688 403 688Q336 688 281.50 658Q227 628 192.50 581.50Q158 535 134.50 475.50Q111 416 101.50 360.50Q92 305 92 253M306-7Q350-7 389 5Q428 17 457.50 38.50Q487 60 512 88Q537 116 554 149.50Q571 183 584 218.50Q597 254 604.50 291.50Q612 329 615.50 363Q619 397 619 429Q619 521 587.50 582.50Q556 644 497 670L214 11Q255-7 306-7Z"  horiz-adv-x="687" vert-adv-y="1000"  />

      
      <glyph glyph-name="unid9" unicode="&#xd9;" d="M317 842L474 773L473 771L316 840L317 842M574 680L507 206Q494 107 439 49Q384-9 281-9Q85-9 113 206L180 680L182 680L115 206Q87-7 281-7Q383-7 437.50 50.50Q492 108 505 206L572 680L574 680Z"  horiz-adv-x="635" vert-adv-y="1000"  />

      
      <glyph glyph-name="unida" unicode="&#xda;" d="M482 842L483 840L308 771L307 773L482 842M574 680L507 206Q494 107 439 49Q384-9 281-9Q85-9 113 206L180 680L182 680L115 206Q87-7 281-7Q383-7 437.50 50.50Q492 108 505 206L572 680L574 680Z"  horiz-adv-x="635" vert-adv-y="1000"  />

      
      <glyph glyph-name="unidb" unicode="&#xdb;" d="M281 770L279 771L397 850L399 850L497 771L495 770L398 848L281 770M574 680L507 206Q494 107 439 49Q384-9 281-9Q85-9 113 206L180 680L182 680L115 206Q87-7 281-7Q383-7 437.50 50.50Q492 108 505 206L572 680L574 680Z"  horiz-adv-x="635" vert-adv-y="1000"  />

      
      <glyph glyph-name="unidc" unicode="&#xdc;" d="M327 811Q327 811 327 808Q327 805 321 805Q315 805 315 811Q315 817 321 817Q327 817 327 811M476 811Q476 811 476 808Q476 805 470 805Q464 805 464 811Q464 817 470 817Q476 817 476 811M574 680L507 206Q494 107 439 49Q384-9 281-9Q85-9 113 206L180 680L182 680L115 206Q87-7 281-7Q383-7 437.50 50.50Q492 108 505 206L572 680L574 680Z"  horiz-adv-x="635" vert-adv-y="1000"  />

      
      <glyph glyph-name="unidd" unicode="&#xdd;" d="M404 842L405 840L230 771L229 773L404 842M513 680L242 271L205 0L203 0L240 271L84 680L86 680L241 273L511 680L513 680Z"  horiz-adv-x="479" vert-adv-y="1000"  />

      
      <glyph glyph-name="unide" unicode="&#xde;" d="M293 550Q401 550 452 511.50Q503 473 503 383Q503 338 490 300Q477 262 448 227.50Q419 193 364.50 173.50Q310 154 234 154L118 154L96 0L94 0L189 680L191 680L173 550L293 550M234 156Q310 156 365 176Q420 196 448 230Q476 264 488.50 301.50Q501 339 501 383Q501 471 450.50 509.50Q400 548 292 548L173 548L118 156L234 156Z"  horiz-adv-x="552" vert-adv-y="1000"  />

      
      <glyph glyph-name="unidf" unicode="&#xdf;" d="M-34-191L-35-190Q24-161 50.50-122.50Q77-84 89 1L165 541Q178 631 231 682Q284 733 359 733Q415 733 447 704.50Q479 676 479 631Q479 595 464 566.50Q449 538 427 520.50Q405 503 383 487.50Q361 472 346 453Q331 434 331 411Q331 389 347.50 368.50Q364 348 387.50 329.50Q411 311 435 288.50Q459 266 475 230Q491 194 491 150Q491 92 451.50 41Q412-10 333-10Q269-10 226 18L227 20Q269-8 333-8Q411-8 450 42.50Q489 93 489 150Q489 194 472.50 229.50Q456 265 432.50 287.50Q409 310 385.50 329Q362 348 345.50 368.50Q329 389 329 411Q329 439 352 463Q375 487 403 504Q431 521 454 554Q477 587 477 631Q477 675 445.50 703Q414 731 359 731Q285 731 232 680.50Q179 630 167 541L91 0Q79-85 52-123.50Q25-162-34-191Z"  horiz-adv-x="570" vert-adv-y="1000"  />

      
      <glyph glyph-name="unie0" unicode="&#xe0;" d="M295 746L450 663L449 662L294 744L295 746M337 527Q405 527 462 487L411 121Q401 74 408.50 40Q416 6 448-7L447-9Q432-3 422.50 8.50Q413 20 409 30Q405 40 404.50 59.50Q404 79 405 86.50Q406 94 408 116Q375 54 327.50 22.50Q280-9 229-9Q156-9 115 44Q74 97 74 183Q74 228 82.50 273.50Q91 319 110.50 365.50Q130 412 159.50 447.50Q189 483 235 505Q281 527 337 527M337 525Q268 525 215 492Q162 459 133 406.50Q104 354 90 297Q76 240 76 183Q76 98 116.50 45.50Q157-7 229-7Q280-7 327.50 25.50Q375 58 409 121L460 486Q405 525 337 525Z"  horiz-adv-x="539" vert-adv-y="1000"  />

      
      <glyph glyph-name="unie1" unicode="&#xe1;" d="M451 746L452 744L273 662L273 664L451 746M337 527Q405 527 462 487L411 121Q401 74 408.50 40Q416 6 448-7L447-9Q432-3 422.50 8.50Q413 20 409 30Q405 40 404.50 59.50Q404 79 405 86.50Q406 94 408 116Q375 54 327.50 22.50Q280-9 229-9Q156-9 115 44Q74 97 74 183Q74 228 82.50 273.50Q91 319 110.50 365.50Q130 412 159.50 447.50Q189 483 235 505Q281 527 337 527M337 525Q268 525 215 492Q162 459 133 406.50Q104 354 90 297Q76 240 76 183Q76 98 116.50 45.50Q157-7 229-7Q280-7 327.50 25.50Q375 58 409 121L460 486Q405 525 337 525Z"  horiz-adv-x="539" vert-adv-y="1000"  />

      
      <glyph glyph-name="unie2" unicode="&#xe2;" d="M249 660L247 661L368 745L370 745L465 661L463 660L369 743L249 660M337 527Q405 527 462 487L411 121Q401 74 408.50 40Q416 6 448-7L447-9Q432-3 422.50 8.50Q413 20 409 30Q405 40 404.50 59.50Q404 79 405 86.50Q406 94 408 116Q375 54 327.50 22.50Q280-9 229-9Q156-9 115 44Q74 97 74 183Q74 228 82.50 273.50Q91 319 110.50 365.50Q130 412 159.50 447.50Q189 483 235 505Q281 527 337 527M337 525Q268 525 215 492Q162 459 133 406.50Q104 354 90 297Q76 240 76 183Q76 98 116.50 45.50Q157-7 229-7Q280-7 327.50 25.50Q375 58 409 121L460 486Q405 525 337 525Z"  horiz-adv-x="539" vert-adv-y="1000"  />

      
      <glyph glyph-name="unie3" unicode="&#xe3;" d="M417 686Q394 686 360 708Q326 730 308 730Q277 730 241 695L239 696Q278 732 308 732Q326 732 360.50 710Q395 688 417 688Q450 688 484 725L486 724Q451 686 417 686M337 527Q405 527 462 487L411 121Q401 74 408.50 40Q416 6 448-7L447-9Q432-3 422.50 8.50Q413 20 409 30Q405 40 404.50 59.50Q404 79 405 86.50Q406 94 408 116Q375 54 327.50 22.50Q280-9 229-9Q156-9 115 44Q74 97 74 183Q74 228 82.50 273.50Q91 319 110.50 365.50Q130 412 159.50 447.50Q189 483 235 505Q281 527 337 527M337 525Q268 525 215 492Q162 459 133 406.50Q104 354 90 297Q76 240 76 183Q76 98 116.50 45.50Q157-7 229-7Q280-7 327.50 25.50Q375 58 409 121L460 486Q405 525 337 525Z"  horiz-adv-x="539" vert-adv-y="1000"  />

      
      <glyph glyph-name="unie4" unicode="&#xe4;" d="M291 685Q291 685 291 682Q291 679 285 679Q279 679 279 685Q279 691 285 691Q291 691 291 685M440 685Q440 685 440 682Q440 679 434 679Q428 679 428 685Q428 691 434 691Q440 691 440 685M337 527Q405 527 462 487L411 121Q401 74 408.50 40Q416 6 448-7L447-9Q432-3 422.50 8.50Q413 20 409 30Q405 40 404.50 59.50Q404 79 405 86.50Q406 94 408 116Q375 54 327.50 22.50Q280-9 229-9Q156-9 115 44Q74 97 74 183Q74 228 82.50 273.50Q91 319 110.50 365.50Q130 412 159.50 447.50Q189 483 235 505Q281 527 337 527M337 525Q268 525 215 492Q162 459 133 406.50Q104 354 90 297Q76 240 76 183Q76 98 116.50 45.50Q157-7 229-7Q280-7 327.50 25.50Q375 58 409 121L460 486Q405 525 337 525Z"  horiz-adv-x="539" vert-adv-y="1000"  />

      
      <glyph glyph-name="unie5" unicode="&#xe5;" d="M373 782Q403 782 417 765Q431 748 427 719Q423 690 404 672.50Q385 655 356 655Q326 655 311.50 672.50Q297 690 301 718Q305 747 324.50 764.50Q344 782 373 782M373 780Q345 780 326 763Q307 746 303 718Q299 690 313 673.50Q327 657 356 657Q384 657 403 674.50Q422 692 425 719Q429 747 415.50 763.50Q402 780 373 780M337 527Q405 527 462 487L411 121Q401 74 408.50 40Q416 6 448-7L447-9Q432-3 422.50 8.50Q413 20 409 30Q405 40 404.50 59.50Q404 79 405 86.50Q406 94 408 116Q375 54 327.50 22.50Q280-9 229-9Q156-9 115 44Q74 97 74 183Q74 228 82.50 273.50Q91 319 110.50 365.50Q130 412 159.50 447.50Q189 483 235 505Q281 527 337 527M337 525Q268 525 215 492Q162 459 133 406.50Q104 354 90 297Q76 240 76 183Q76 98 116.50 45.50Q157-7 229-7Q280-7 327.50 25.50Q375 58 409 121L460 486Q405 525 337 525Z"  horiz-adv-x="539" vert-adv-y="1000"  />

      
      <glyph glyph-name="unie6" unicode="&#xe6;" d="M285 527Q341 527 381.50 490.50Q422 454 424 382Q496 527 634 527Q695 527 733 497.50Q771 468 771 414Q771 330 675.50 278.50Q580 227 384 218Q381 182 387 146Q393 110 408.50 74Q424 38 459.50 15.50Q495-7 545-7Q625-7 706 52L707 50Q626-9 545-9Q419-9 389 123Q337 53 288.50 22Q240-9 177-9Q114-9 80 26Q46 61 46 119Q46 196 101 245.50Q156 295 270 295L394 295Q406 343 422 378Q421 451 381.50 488Q342 525 285 525Q220 525 133 491L133 493Q219 527 285 527M634 525Q578 525 533 500.50Q488 476 462 441.50Q436 407 418 361.50Q400 316 393.50 283Q387 250 384 220Q580 229 674.50 280Q769 331 769 414Q769 467 731.50 496Q694 525 634 525M393 293L270 293Q157 293 102.50 244.50Q48 196 48 119Q48 62 81 27.50Q114-7 177-7Q240-7 287.50 24Q335 55 388 125Q372 196 393 293Z"  horiz-adv-x="815" vert-adv-y="1000"  />

      
      <glyph glyph-name="unie7" unicode="&#xe7;" d="M319 527Q394 527 441 477L439 476Q393 525 319 525Q243 525 187 477Q131 429 104.50 355Q78 281 78 194Q78 98 122.50 45.50Q167-7 243-7Q318-7 383 45L384 44Q319-9 243-9L241-9L225-84Q267-85 288-97.50Q309-110 309-140Q309-167 289.50-185Q270-203 232-203Q196-203 172-187L173-185Q195-201 232-201Q269-201 288-183.50Q307-166 307-140Q307-112 286.50-99.50Q266-87 223-86L239-9Q202-8 172 5.50Q142 19 120.50 44.50Q99 70 87.50 108Q76 146 76 194Q76 330 141 428.50Q206 527 319 527Z"  horiz-adv-x="469" vert-adv-y="1000"  />

      
      <glyph glyph-name="unie8" unicode="&#xe8;" d="M421 663L420 662L265 744L266 746L421 663M464 414Q464 330 369 279Q274 228 77 218Q76 204 76 190Q76 95 118.50 44Q161-7 238-7Q318-7 399 52L400 50Q319-9 238-9Q161-9 117.50 42.50Q74 94 74 190Q74 240 87.50 294Q101 348 128.50 402.50Q156 457 208 492Q260 527 327 527Q388 527 426 497.50Q464 468 464 414M327 525Q277 525 235.50 505Q194 485 166.50 453.50Q139 422 119 380.50Q99 339 89.50 299Q80 259 77 220Q273 230 367.50 280.50Q462 331 462 414Q462 467 424.50 496Q387 525 327 525Z"  horiz-adv-x="508" vert-adv-y="1000"  />

      
      <glyph glyph-name="unie9" unicode="&#xe9;" d="M422 746L423 744L244 662L244 664L422 746M464 414Q464 330 369 279Q274 228 77 218Q76 204 76 190Q76 95 118.50 44Q161-7 238-7Q318-7 399 52L400 50Q319-9 238-9Q161-9 117.50 42.50Q74 94 74 190Q74 240 87.50 294Q101 348 128.50 402.50Q156 457 208 492Q260 527 327 527Q388 527 426 497.50Q464 468 464 414M327 525Q277 525 235.50 505Q194 485 166.50 453.50Q139 422 119 380.50Q99 339 89.50 299Q80 259 77 220Q273 230 367.50 280.50Q462 331 462 414Q462 467 424.50 496Q387 525 327 525Z"  horiz-adv-x="508" vert-adv-y="1000"  />

      
      <glyph glyph-name="uniea" unicode="&#xea;" d="M340 743L220 660L218 661L339 745L341 745L436 661L434 660L340 743M464 414Q464 330 369 279Q274 228 77 218Q76 204 76 190Q76 95 118.50 44Q161-7 238-7Q318-7 399 52L400 50Q319-9 238-9Q161-9 117.50 42.50Q74 94 74 190Q74 240 87.50 294Q101 348 128.50 402.50Q156 457 208 492Q260 527 327 527Q388 527 426 497.50Q464 468 464 414M327 525Q277 525 235.50 505Q194 485 166.50 453.50Q139 422 119 380.50Q99 339 89.50 299Q80 259 77 220Q273 230 367.50 280.50Q462 331 462 414Q462 467 424.50 496Q387 525 327 525Z"  horiz-adv-x="508" vert-adv-y="1000"  />

      
      <glyph glyph-name="unieb" unicode="&#xeb;" d="M262 685Q262 685 262 682Q262 679 256 679Q250 679 250 685Q250 691 256 691Q262 691 262 685M411 685Q411 685 411 682Q411 679 405 679Q399 679 399 685Q399 691 405 691Q411 691 411 685M464 414Q464 330 369 279Q274 228 77 218Q76 204 76 190Q76 95 118.50 44Q161-7 238-7Q318-7 399 52L400 50Q319-9 238-9Q161-9 117.50 42.50Q74 94 74 190Q74 240 87.50 294Q101 348 128.50 402.50Q156 457 208 492Q260 527 327 527Q388 527 426 497.50Q464 468 464 414M327 525Q277 525 235.50 505Q194 485 166.50 453.50Q139 422 119 380.50Q99 339 89.50 299Q80 259 77 220Q273 230 367.50 280.50Q462 331 462 414Q462 467 424.50 496Q387 525 327 525Z"  horiz-adv-x="508" vert-adv-y="1000"  />

      
      <glyph glyph-name="uniec" unicode="&#xec;" d="M121 746L276 663L275 662L120 744L121 746M163 517L91 0L89 0L161 517L163 517Z"  horiz-adv-x="252" vert-adv-y="1000"  />

      
      <glyph glyph-name="unied" unicode="&#xed;" d="M277 746L278 744L99 662L99 664L277 746M163 517L91 0L89 0L161 517L163 517Z"  horiz-adv-x="252" vert-adv-y="1000"  />

      
      <glyph glyph-name="uniee" unicode="&#xee;" d="M75 660L73 661L194 745L196 745L291 661L289 660L195 743L75 660M163 517L91 0L89 0L161 517L163 517Z"  horiz-adv-x="252" vert-adv-y="1000"  />

      
      <glyph glyph-name="unief" unicode="&#xef;" d="M117 685Q117 685 117 682Q117 679 111 679Q105 679 105 685Q105 691 111 691Q117 691 117 685M266 685Q266 685 266 682Q266 679 260 679Q254 679 254 685Q254 691 260 691Q266 691 266 685M163 517L91 0L89 0L161 517L163 517Z"  horiz-adv-x="252" vert-adv-y="1000"  />

      
      <glyph glyph-name="unif0" unicode="&#xf0;" d="M355 670Q469 582 469 409Q469 345 460 285Q451 225 431 171Q411 117 383 76.50Q355 36 314.50 12.50Q274-11 226-11Q177-11 142 12Q107 35 89 76.50Q71 118 71 174Q71 197 74.50 222.50Q78 248 86 276Q94 304 106 329.50Q118 355 135.50 378.50Q153 402 174.50 419.50Q196 437 225 447Q254 457 287 457Q400 457 464 337Q469 381 466 427.50Q463 474 453.50 515.50Q444 557 418.50 597Q393 637 353 668L252 576L250 577L351 669Q296 712 218 732L218 734Q298 714 353 671L425 737L427 736L355 670M226-9Q273-9 312 13.50Q351 36 377 71.50Q403 107 422 154Q441 201 450.50 245Q460 289 464 334Q397 455 287 455Q242 455 204.50 435.50Q167 416 143.50 386Q120 356 103.50 317.50Q87 279 80 243Q73 207 73 174Q73 90 113.50 40.50Q154-9 226-9Z"  horiz-adv-x="551" vert-adv-y="1000"  />

      
      <glyph glyph-name="unif1" unicode="&#xf1;" d="M411 686Q388 686 354 708Q320 730 302 730Q271 730 235 695L233 696Q272 732 302 732Q320 732 354.50 710Q389 688 411 688Q444 688 478 725L480 724Q445 686 411 686M368 527Q432 527 459 485.50Q486 444 476 368L424 0L422 0L474 368Q484 443 457.50 484Q431 525 368 525Q300 525 244.50 479Q189 433 137 329L91 0L89 0L161 517L163 517L138 335Q189 437 244.50 482Q300 527 368 527Z"  horiz-adv-x="580" vert-adv-y="1000"  />

      
      <glyph glyph-name="unif2" unicode="&#xf2;" d="M275 746L430 663L429 662L274 744L275 746M242-9Q163-9 119 44Q75 97 75 192Q75 246 88 301Q101 356 127.50 408.50Q154 461 203.50 494Q253 527 318 527Q397 527 440.50 475Q484 423 484 328Q484 275 471.50 220Q459 165 432.50 111.50Q406 58 356.50 24.50Q307-9 242-9M242-7Q307-7 356 26.50Q405 60 431 113Q457 166 469.50 220.50Q482 275 482 328Q482 422 439 473.50Q396 525 318 525Q254 525 204.50 492Q155 459 129 407Q103 355 90 300.50Q77 246 77 192Q77 97 120 45Q163-7 242-7Z"  horiz-adv-x="559" vert-adv-y="1000"  />

      
      <glyph glyph-name="unif3" unicode="&#xf3;" d="M431 746L432 744L253 662L253 664L431 746M242-9Q163-9 119 44Q75 97 75 192Q75 246 88 301Q101 356 127.50 408.50Q154 461 203.50 494Q253 527 318 527Q397 527 440.50 475Q484 423 484 328Q484 275 471.50 220Q459 165 432.50 111.50Q406 58 356.50 24.50Q307-9 242-9M242-7Q307-7 356 26.50Q405 60 431 113Q457 166 469.50 220.50Q482 275 482 328Q482 422 439 473.50Q396 525 318 525Q254 525 204.50 492Q155 459 129 407Q103 355 90 300.50Q77 246 77 192Q77 97 120 45Q163-7 242-7Z"  horiz-adv-x="559" vert-adv-y="1000"  />

      
      <glyph glyph-name="unif4" unicode="&#xf4;" d="M229 660L227 661L348 745L350 745L445 661L443 660L349 743L229 660M242-9Q163-9 119 44Q75 97 75 192Q75 246 88 301Q101 356 127.50 408.50Q154 461 203.50 494Q253 527 318 527Q397 527 440.50 475Q484 423 484 328Q484 275 471.50 220Q459 165 432.50 111.50Q406 58 356.50 24.50Q307-9 242-9M242-7Q307-7 356 26.50Q405 60 431 113Q457 166 469.50 220.50Q482 275 482 328Q482 422 439 473.50Q396 525 318 525Q254 525 204.50 492Q155 459 129 407Q103 355 90 300.50Q77 246 77 192Q77 97 120 45Q163-7 242-7Z"  horiz-adv-x="559" vert-adv-y="1000"  />

      
      <glyph glyph-name="unif5" unicode="&#xf5;" d="M397 686Q374 686 340 708Q306 730 288 730Q257 730 221 695L219 696Q258 732 288 732Q306 732 340.50 710Q375 688 397 688Q430 688 464 725L466 724Q431 686 397 686M242-9Q163-9 119 44Q75 97 75 192Q75 246 88 301Q101 356 127.50 408.50Q154 461 203.50 494Q253 527 318 527Q397 527 440.50 475Q484 423 484 328Q484 275 471.50 220Q459 165 432.50 111.50Q406 58 356.50 24.50Q307-9 242-9M242-7Q307-7 356 26.50Q405 60 431 113Q457 166 469.50 220.50Q482 275 482 328Q482 422 439 473.50Q396 525 318 525Q254 525 204.50 492Q155 459 129 407Q103 355 90 300.50Q77 246 77 192Q77 97 120 45Q163-7 242-7Z"  horiz-adv-x="559" vert-adv-y="1000"  />

      
      <glyph glyph-name="unif6" unicode="&#xf6;" d="M271 685Q271 685 271 682Q271 679 265 679Q259 679 259 685Q259 691 265 691Q271 691 271 685M420 685Q420 685 420 682Q420 679 414 679Q408 679 408 685Q408 691 414 691Q420 691 420 685M242-9Q163-9 119 44Q75 97 75 192Q75 246 88 301Q101 356 127.50 408.50Q154 461 203.50 494Q253 527 318 527Q397 527 440.50 475Q484 423 484 328Q484 275 471.50 220Q459 165 432.50 111.50Q406 58 356.50 24.50Q307-9 242-9M242-7Q307-7 356 26.50Q405 60 431 113Q457 166 469.50 220.50Q482 275 482 328Q482 422 439 473.50Q396 525 318 525Q254 525 204.50 492Q155 459 129 407Q103 355 90 300.50Q77 246 77 192Q77 97 120 45Q163-7 242-7Z"  horiz-adv-x="559" vert-adv-y="1000"  />

      
      <glyph glyph-name="unif7" unicode="&#xf7;" d="M283 529Q283 529 283 525.50Q283 522 276 522Q269 522 269 529Q269 536 276 536Q283 536 283 529M95 330L95 332L403 332L403 330L95 330M228 133Q228 133 228 129.50Q228 126 221 126Q214 126 214 133Q214 140 221 140Q228 140 228 133Z"  horiz-adv-x="478" vert-adv-y="1000"  />

      
      <glyph glyph-name="unif8" unicode="&#xf8;" d="M398 509Q484 465 484 328Q484 275 471.50 220Q459 165 432.50 111.50Q406 58 356.50 24.50Q307-9 242-9Q197-9 163 8L106-112L104-112L161 9Q75 55 75 192Q75 246 88 301Q101 356 127.50 408.50Q154 461 203.50 494Q253 527 318 527Q362 527 396 510L396 511L452 630L454 630L398 510L398 509M77 192Q77 56 162 11L395 509Q362 525 318 525Q254 525 204.50 492Q155 459 129 407Q103 355 90 300.50Q77 246 77 192M242-7Q286-7 323 8.50Q360 24 385.50 51Q411 78 430.50 112Q450 146 461 184Q472 222 477 258Q482 294 482 328Q482 464 397 508L164 10Q198-7 242-7Z"  horiz-adv-x="559" vert-adv-y="1000"  />

      
      <glyph glyph-name="unif9" unicode="&#xf9;" d="M279 746L434 663L433 662L278 744L279 746M223-9Q157-9 125.50 32Q94 73 104 150L155 517L157 517L106 150Q96 74 127 33.50Q158-7 223-7Q288-7 343 38.50Q398 84 435 171L483 517L485 517L413 0L411 0L435 167Q398 81 343 36Q288-9 223-9Z"  horiz-adv-x="574" vert-adv-y="1000"  />

      
      <glyph glyph-name="unifa" unicode="&#xfa;" d="M435 746L436 744L257 662L257 664L435 746M223-9Q157-9 125.50 32Q94 73 104 150L155 517L157 517L106 150Q96 74 127 33.50Q158-7 223-7Q288-7 343 38.50Q398 84 435 171L483 517L485 517L413 0L411 0L435 167Q398 81 343 36Q288-9 223-9Z"  horiz-adv-x="574" vert-adv-y="1000"  />

      
      <glyph glyph-name="unifb" unicode="&#xfb;" d="M233 660L231 661L352 745L354 745L449 661L447 660L353 743L233 660M223-9Q157-9 125.50 32Q94 73 104 150L155 517L157 517L106 150Q96 74 127 33.50Q158-7 223-7Q288-7 343 38.50Q398 84 435 171L483 517L485 517L413 0L411 0L435 167Q398 81 343 36Q288-9 223-9Z"  horiz-adv-x="574" vert-adv-y="1000"  />

      
      <glyph glyph-name="unifc" unicode="&#xfc;" d="M275 685Q275 685 275 682Q275 679 269 679Q263 679 263 685Q263 691 269 691Q275 691 275 685M424 685Q424 685 424 682Q424 679 418 679Q412 679 412 685Q412 691 418 691Q424 691 424 685M223-9Q157-9 125.50 32Q94 73 104 150L155 517L157 517L106 150Q96 74 127 33.50Q158-7 223-7Q288-7 343 38.50Q398 84 435 171L483 517L485 517L413 0L411 0L435 167Q398 81 343 36Q288-9 223-9Z"  horiz-adv-x="574" vert-adv-y="1000"  />

      
      <glyph glyph-name="unifd" unicode="&#xfd;" d="M368 746L369 744L190 662L190 664L368 746M440 517L190 0Q145-92 109.50-130Q74-168-2-189L-2-187Q73-166 108-128.50Q143-91 188 0L186 0L66 517L68 517L188 1L438 517L440 517Z"  horiz-adv-x="434" vert-adv-y="1000"  />

      
      <glyph glyph-name="unife" unicode="&#xfe;" d="M341 527Q412 527 449.50 478.50Q487 430 487 339Q487 285 473.50 228Q460 171 433.50 116Q407 61 358 26Q309-9 247-9Q173-9 94 26L64-189L62-190L191 730L193 730L150 422Q237 527 341 527M247-7Q297-7 338.50 16.50Q380 40 406.50 77Q433 114 451.50 161Q470 208 477.50 252.50Q485 297 485 339Q485 429 448.50 477Q412 525 341 525Q302 525 267 511.50Q232 498 205.50 476Q179 454 149 420L94 28Q174-7 247-7Z"  horiz-adv-x="560" vert-adv-y="1000"  />

      
      <glyph glyph-name="uniff" unicode="&#xff;" d="M208 685Q208 685 208 682Q208 679 202 679Q196 679 196 685Q196 691 202 691Q208 691 208 685M357 685Q357 685 357 682Q357 679 351 679Q345 679 345 685Q345 691 351 691Q357 691 357 685M440 517L190 0Q145-92 109.50-130Q74-168-2-189L-2-187Q73-166 108-128.50Q143-91 188 0L186 0L66 517L68 517L188 1L438 517L440 517Z"  horiz-adv-x="434" vert-adv-y="1000"  />

      
      <glyph glyph-name="uni0100" unicode="&#x0100;" d="M452 817L452 815L262 815L262 817L452 817M483 0L437 213L107 213L1 0L-1 0L336 680L337 680L485 0L483 0M108 215L436 215L336 676L108 215Z"  horiz-adv-x="556" vert-adv-y="1000"  />

      
      <glyph glyph-name="uni0101" unicode="&#x0101;" d="M455 689L265 689L265 691L455 691L455 689M337 527Q405 527 462 487L411 121Q401 74 408.50 40Q416 6 448-7L447-9Q432-3 422.50 8.50Q413 20 409 30Q405 40 404.50 59.50Q404 79 405 86.50Q406 94 408 116Q375 54 327.50 22.50Q280-9 229-9Q156-9 115 44Q74 97 74 183Q74 228 82.50 273.50Q91 319 110.50 365.50Q130 412 159.50 447.50Q189 483 235 505Q281 527 337 527M337 525Q268 525 215 492Q162 459 133 406.50Q104 354 90 297Q76 240 76 183Q76 98 116.50 45.50Q157-7 229-7Q280-7 327.50 25.50Q375 58 409 121L460 486Q405 525 337 525Z"  horiz-adv-x="539" vert-adv-y="1000"  />

      
      <glyph glyph-name="uni0102" unicode="&#x0102;" d="M347 774Q309 774 287 791.50Q265 809 259 834L261 835Q267 809 289.50 792.50Q312 776 347 776Q418 776 449 835L451 834Q420 774 347 774M483 0L437 213L107 213L1 0L-1 0L336 680L337 680L485 0L483 0M108 215L436 215L336 676L108 215Z"  horiz-adv-x="556" vert-adv-y="1000"  />

      
      <glyph glyph-name="uni0103" unicode="&#x0103;" d="M355 666Q316 666 294.50 685.50Q273 705 269 736L271 737Q276 704 297.50 686Q319 668 355 668Q429 668 459 737L461 736Q430 666 355 666M337 527Q405 527 462 487L411 121Q401 74 408.50 40Q416 6 448-7L447-9Q432-3 422.50 8.50Q413 20 409 30Q405 40 404.50 59.50Q404 79 405 86.50Q406 94 408 116Q375 54 327.50 22.50Q280-9 229-9Q156-9 115 44Q74 97 74 183Q74 228 82.50 273.50Q91 319 110.50 365.50Q130 412 159.50 447.50Q189 483 235 505Q281 527 337 527M337 525Q268 525 215 492Q162 459 133 406.50Q104 354 90 297Q76 240 76 183Q76 98 116.50 45.50Q157-7 229-7Q280-7 327.50 25.50Q375 58 409 121L460 486Q405 525 337 525Z"  horiz-adv-x="539" vert-adv-y="1000"  />

      
      <glyph glyph-name="uni0104" unicode="&#x0104;" d="M332-134Q332-192 397-192Q422-192 451-184L451-186Q422-194 397-194Q330-194 330-134Q330-52 483 1L437 213L107 213L1 0L-1 0L336 680L337 680L485 0Q332-54 332-134M108 215L436 215L336 676L108 215Z"  horiz-adv-x="556" vert-adv-y="1000"  />

      
      <glyph glyph-name="uni0105" unicode="&#x0105;" d="M411 121Q401 74 408.50 40Q416 6 448-7L447-9Q294-63 294-143Q294-172 311.50-186.50Q329-201 359-201Q384-201 413-193L413-195Q384-203 359-203Q328-203 310-188Q292-173 292-143Q292-61 445-8Q433-3 424.50 4.50Q416 12 412 24.50Q408 37 405.50 44.50Q403 52 404 69.50Q405 87 405.50 92Q406 97 408 116Q375 54 327.50 22.50Q280-9 229-9Q156-9 115 44Q74 97 74 183Q74 228 82.50 273.50Q91 319 110.50 365.50Q130 412 159.50 447.50Q189 483 235 505Q281 527 337 527Q405 527 462 487L411 121M229-7Q280-7 327.50 25.50Q375 58 409 121L460 486Q405 525 337 525Q281 525 235.50 503Q190 481 161 446Q132 411 112 365Q92 319 84 273.50Q76 228 76 183Q76 98 116.50 45.50Q157-7 229-7Z"  horiz-adv-x="539" vert-adv-y="1000"  />

      
      <glyph glyph-name="uni0106" unicode="&#x0106;" d="M508 842L509 840L334 771L333 773L508 842M403 690Q492 690 547 633L546 631Q518 659 486.50 673.50Q455 688 403 688Q319 688 255.50 645Q192 602 158.50 533.50Q125 465 109 394Q93 323 93 253Q93 128 149.50 60.50Q206-7 305-7Q395-7 474 52L475 50Q396-9 305-9Q205-9 148 59Q91 127 91 253Q91 309 100.50 366Q110 423 133 482.50Q156 542 190.50 587Q225 632 280 661Q335 690 403 690Z"  horiz-adv-x="530" vert-adv-y="1000"  />

      
      <glyph glyph-name="uni0107" unicode="&#x0107;" d="M420 746L421 744L242 662L242 664L420 746M319 527Q394 527 441 477L439 476Q393 525 319 525Q243 525 187 477Q131 429 104.50 355Q78 281 78 194Q78 98 122.50 45.50Q167-7 243-7Q318-7 383 45L384 44Q319-9 243-9Q166-9 121 44Q76 97 76 194Q76 330 141 428.50Q206 527 319 527Z"  horiz-adv-x="469" vert-adv-y="1000"  />

      
      <glyph glyph-name="uni0108" unicode="&#x0108;" d="M307 770L305 771L423 850L425 850L523 771L521 770L424 848L307 770M403 690Q492 690 547 633L546 631Q518 659 486.50 673.50Q455 688 403 688Q319 688 255.50 645Q192 602 158.50 533.50Q125 465 109 394Q93 323 93 253Q93 128 149.50 60.50Q206-7 305-7Q395-7 474 52L475 50Q396-9 305-9Q205-9 148 59Q91 127 91 253Q91 309 100.50 366Q110 423 133 482.50Q156 542 190.50 587Q225 632 280 661Q335 690 403 690Z"  horiz-adv-x="530" vert-adv-y="1000"  />

      
      <glyph glyph-name="uni0109" unicode="&#x0109;" d="M218 660L216 661L337 745L339 745L434 661L432 660L338 743L218 660M319 527Q394 527 441 477L439 476Q393 525 319 525Q243 525 187 477Q131 429 104.50 355Q78 281 78 194Q78 98 122.50 45.50Q167-7 243-7Q318-7 383 45L384 44Q319-9 243-9Q166-9 121 44Q76 97 76 194Q76 330 141 428.50Q206 527 319 527Z"  horiz-adv-x="469" vert-adv-y="1000"  />

      
      <glyph glyph-name="uni010A" unicode="&#x010A;" d="M431 826Q431 826 431 823Q431 820 425 820Q419 820 419 826Q419 832 425 832Q431 832 431 826M403 690Q492 690 547 633L546 631Q518 659 486.50 673.50Q455 688 403 688Q319 688 255.50 645Q192 602 158.50 533.50Q125 465 109 394Q93 323 93 253Q93 128 149.50 60.50Q206-7 305-7Q395-7 474 52L475 50Q396-9 305-9Q205-9 148 59Q91 127 91 253Q91 309 100.50 366Q110 423 133 482.50Q156 542 190.50 587Q225 632 280 661Q335 690 403 690Z"  horiz-adv-x="530" vert-adv-y="1000"  />

      
      <glyph glyph-name="uni010B" unicode="&#x010B;" d="M337 700Q337 700 337 697Q337 694 331 694Q325 694 325 700Q325 706 331 706Q337 706 337 700M319 527Q394 527 441 477L439 476Q393 525 319 525Q243 525 187 477Q131 429 104.50 355Q78 281 78 194Q78 98 122.50 45.50Q167-7 243-7Q318-7 383 45L384 44Q319-9 243-9Q166-9 121 44Q76 97 76 194Q76 330 141 428.50Q206 527 319 527Z"  horiz-adv-x="469" vert-adv-y="1000"  />

      
      <glyph glyph-name="uni010C" unicode="&#x010C;" d="M534 845L536 844L416 765L414 765L318 844L320 845L415 767L534 845M403 690Q492 690 547 633L546 631Q518 659 486.50 673.50Q455 688 403 688Q319 688 255.50 645Q192 602 158.50 533.50Q125 465 109 394Q93 323 93 253Q93 128 149.50 60.50Q206-7 305-7Q395-7 474 52L475 50Q396-9 305-9Q205-9 148 59Q91 127 91 253Q91 309 100.50 366Q110 423 133 482.50Q156 542 190.50 587Q225 632 280 661Q335 690 403 690Z"  horiz-adv-x="530" vert-adv-y="1000"  />

      
      <glyph glyph-name="uni010D" unicode="&#x010D;" d="M443 733L445 732L324 648L322 648L227 732L229 733L323 650L443 733M319 527Q394 527 441 477L439 476Q393 525 319 525Q243 525 187 477Q131 429 104.50 355Q78 281 78 194Q78 98 122.50 45.50Q167-7 243-7Q318-7 383 45L384 44Q319-9 243-9Q166-9 121 44Q76 97 76 194Q76 330 141 428.50Q206 527 319 527Z"  horiz-adv-x="469" vert-adv-y="1000"  />

      
      <glyph glyph-name="uni010E" unicode="&#x010E;" d="M479 845L481 844L361 765L359 765L263 844L265 845L360 767L479 845M293 680Q346 680 387.50 669.50Q429 659 467 634Q505 609 526 559Q547 509 547 436Q547 372 536.50 312.50Q526 253 500 195Q474 137 436 94.50Q398 52 338.50 26Q279 0 205 0L94 0L189 680L293 680M293 678L191 678L96 2L205 2Q278 2 337.50 28Q397 54 435 96.50Q473 139 498.50 196.50Q524 254 534.50 313.50Q545 373 545 436Q545 508 524.50 557.50Q504 607 466 632.50Q428 658 386.50 668Q345 678 293 678Z"  horiz-adv-x="613" vert-adv-y="1000"  />

      
      <glyph glyph-name="uni010F" unicode="&#x010F;" d="M619 737L621 737L583 600L581 600L619 737M505 730L507 730L405 0L403 0L424 149Q382 75 336 33Q290-9 225-9Q155-9 114.50 41.50Q74 92 74 182Q74 224 81.50 269Q89 314 107.50 361Q126 408 152.50 444.50Q179 481 220.50 504Q262 527 312 527Q371 527 408.50 497Q446 467 462 424L505 730M312 525Q250 525 202 490.50Q154 456 128 402Q102 348 89 292Q76 236 76 182Q76 93 116 43Q156-7 225-7Q290-7 336 35Q382 77 424 152L462 420Q446 465 408.50 495Q371 525 312 525Z"  horiz-adv-x="566" vert-adv-y="1000"  />

      
      <glyph glyph-name="uni0110" unicode="&#x0110;" d="M295 680Q348 680 389.50 669.50Q431 659 469 634Q507 609 528 559Q549 509 549 436Q549 372 538.50 312.50Q528 253 502 195Q476 137 438 94.50Q400 52 340.50 26Q281 0 207 0L96 0L145 352L53 352L53 354L145 354L191 680L295 680M207 2Q280 2 339.50 28Q399 54 437 96.50Q475 139 500.50 196.50Q526 254 536.50 313.50Q547 373 547 436Q547 508 526.50 557.50Q506 607 468 632.50Q430 658 388.50 668Q347 678 295 678L193 678L147 354L345 354L345 352L147 352L98 2L207 2Z"  horiz-adv-x="615" vert-adv-y="1000"  />

      
      <glyph glyph-name="uni0111" unicode="&#x0111;" d="M569 640L569 638L494 638L405 0L403 0L424 149Q382 75 336 33Q290-9 225-9Q155-9 114.50 41.50Q74 92 74 182Q74 224 81.50 269Q89 314 107.50 361Q126 408 152.50 444.50Q179 481 220.50 504Q262 527 312 527Q371 527 408.50 497Q446 467 462 424L492 638L312 638L312 640L492 640L505 730L507 730L494 640L569 640M424 152L462 420Q446 465 408.50 495Q371 525 312 525Q250 525 202 490.50Q154 456 128 402Q102 348 89 292Q76 236 76 182Q76 93 116 43Q156-7 225-7Q290-7 336 35Q382 77 424 152Z"  horiz-adv-x="567" vert-adv-y="1000"  />

      
      <glyph glyph-name="uni0112" unicode="&#x0112;" d="M458 815L268 815L268 817L458 817L458 815M494 680L494 678L191 678L147 362L407 362L407 360L147 360L96 2L409 2L409 0L94 0L189 680L494 680Z"  horiz-adv-x="495" vert-adv-y="1000"  />

      
      <glyph glyph-name="uni0113" unicode="&#x0113;" d="M426 691L426 689L236 689L236 691L426 691M464 414Q464 330 369 279Q274 228 77 218Q76 204 76 190Q76 95 118.50 44Q161-7 238-7Q318-7 399 52L400 50Q319-9 238-9Q161-9 117.50 42.50Q74 94 74 190Q74 240 87.50 294Q101 348 128.50 402.50Q156 457 208 492Q260 527 327 527Q388 527 426 497.50Q464 468 464 414M327 525Q277 525 235.50 505Q194 485 166.50 453.50Q139 422 119 380.50Q99 339 89.50 299Q80 259 77 220Q273 230 367.50 280.50Q462 331 462 414Q462 467 424.50 496Q387 525 327 525Z"  horiz-adv-x="508" vert-adv-y="1000"  />

      
      <glyph glyph-name="uni0114" unicode="&#x0114;" d="M353 774Q315 774 293 791.50Q271 809 265 834L267 835Q273 809 295.50 792.50Q318 776 353 776Q424 776 455 835L457 834Q426 774 353 774M494 680L494 678L191 678L147 362L407 362L407 360L147 360L96 2L409 2L409 0L94 0L189 680L494 680Z"  horiz-adv-x="495" vert-adv-y="1000"  />

      
      <glyph glyph-name="uni0115" unicode="&#x0115;" d="M326 666Q287 666 265.50 685.50Q244 705 240 736L242 737Q247 704 268.50 686Q290 668 326 668Q400 668 430 737L432 736Q401 666 326 666M464 414Q464 330 369 279Q274 228 77 218Q76 204 76 190Q76 95 118.50 44Q161-7 238-7Q318-7 399 52L400 50Q319-9 238-9Q161-9 117.50 42.50Q74 94 74 190Q74 240 87.50 294Q101 348 128.50 402.50Q156 457 208 492Q260 527 327 527Q388 527 426 497.50Q464 468 464 414M327 525Q277 525 235.50 505Q194 485 166.50 453.50Q139 422 119 380.50Q99 339 89.50 299Q80 259 77 220Q273 230 367.50 280.50Q462 331 462 414Q462 467 424.50 496Q387 525 327 525Z"  horiz-adv-x="508" vert-adv-y="1000"  />

      
      <glyph glyph-name="uni0116" unicode="&#x0116;" d="M371 826Q371 826 371 823Q371 820 365 820Q359 820 359 826Q359 832 365 832Q371 832 371 826M494 680L494 678L191 678L147 362L407 362L407 360L147 360L96 2L409 2L409 0L94 0L189 680L494 680Z"  horiz-adv-x="495" vert-adv-y="1000"  />

      
      <glyph glyph-name="uni0117" unicode="&#x0117;" d="M339 700Q339 700 339 697Q339 694 333 694Q327 694 327 700Q327 706 333 706Q339 706 339 700M464 414Q464 330 369 279Q274 228 77 218Q76 204 76 190Q76 95 118.50 44Q161-7 238-7Q318-7 399 52L400 50Q319-9 238-9Q161-9 117.50 42.50Q74 94 74 190Q74 240 87.50 294Q101 348 128.50 402.50Q156 457 208 492Q260 527 327 527Q388 527 426 497.50Q464 468 464 414M327 525Q277 525 235.50 505Q194 485 166.50 453.50Q139 422 119 380.50Q99 339 89.50 299Q80 259 77 220Q273 230 367.50 280.50Q462 331 462 414Q462 467 424.50 496Q387 525 327 525Z"  horiz-adv-x="508" vert-adv-y="1000"  />

      
      <glyph glyph-name="uni0118" unicode="&#x0118;" d="M494 678L191 678L147 362L407 362L407 360L147 360L96 2L409 2L409 0L379 0Q226-54 226-134Q226-163 243.50-177.50Q261-192 291-192Q316-192 345-184L345-186Q316-194 291-194Q276-194 263.50-190.50Q251-187 242.50-179.50Q234-172 229-160.50Q224-149 224-134Q224-52 375 0L94 0L189 680L494 680L494 678Z"  horiz-adv-x="495" vert-adv-y="1000"  />

      
      <glyph glyph-name="uni0119" unicode="&#x0119;" d="M464 414Q464 330 368.50 279Q273 228 77 218Q76 203 76 190Q76 95 118.50 44Q161-7 238-7Q284-7 320.50 7Q357 21 399 52L400 50Q363 23 333 10Q323 5 312 2Q198-44 198-110Q198-145 218.50-163.50Q239-182 273-182Q297-182 326-174L326-176Q297-184 273-184Q238-184 217-165Q196-146 196-110Q196-46 300-1Q271-9 238-9Q161-9 117.50 42.50Q74 94 74 190Q74 240 87.50 294Q101 348 128.50 402.50Q156 457 208 492Q260 527 327 527Q388 527 426 497.50Q464 468 464 414M327 525Q277 525 235.50 505Q194 485 166.50 453.50Q139 422 119 380.50Q99 339 89.50 299Q80 259 77 220Q273 230 367.50 280.50Q462 331 462 414Q462 467 424.50 496Q387 525 327 525Z"  horiz-adv-x="508" vert-adv-y="1000"  />

      
      <glyph glyph-name="uni011A" unicode="&#x011A;" d="M474 845L476 844L356 765L354 765L258 844L260 845L355 767L474 845M494 680L494 678L191 678L147 362L407 362L407 360L147 360L96 2L409 2L409 0L94 0L189 680L494 680Z"  horiz-adv-x="495" vert-adv-y="1000"  />

      
      <glyph glyph-name="uni011B" unicode="&#x011B;" d="M326 648L324 648L229 732L231 733L325 650L445 733L447 732L326 648M464 414Q464 330 369 279Q274 228 77 218Q76 204 76 190Q76 95 118.50 44Q161-7 238-7Q318-7 399 52L400 50Q319-9 238-9Q161-9 117.50 42.50Q74 94 74 190Q74 240 87.50 294Q101 348 128.50 402.50Q156 457 208 492Q260 527 327 527Q388 527 426 497.50Q464 468 464 414M327 525Q277 525 235.50 505Q194 485 166.50 453.50Q139 422 119 380.50Q99 339 89.50 299Q80 259 77 220Q273 230 367.50 280.50Q462 331 462 414Q462 467 424.50 496Q387 525 327 525Z"  horiz-adv-x="508" vert-adv-y="1000"  />

      
      <glyph glyph-name="uni011C" unicode="&#x011C;" d="M301 770L299 771L417 850L419 850L517 771L515 770L418 848L301 770M404 690Q487 690 554 635L553 633Q486 688 404 688Q327 688 265 647.50Q203 607 167 542Q131 477 112 403.50Q93 330 93 256Q93 128 152 60.50Q211-7 317-7Q399-7 487 40L530 340L379 340L379 342L532 342L489 39Q401-9 317-9Q210-9 150.50 59.50Q91 128 91 256Q91 332 110.50 406.50Q130 481 166.50 545.50Q203 610 265 650Q327 690 404 690Z"  horiz-adv-x="600" vert-adv-y="1000"  />

      
      <glyph glyph-name="uni011D" unicode="&#x011D;" d="M229 660L227 661L348 745L350 745L445 661L443 660L349 743L229 660M337 527Q405 527 462 487L388-11Q373-110 327.50-150.50Q282-191 211-191Q119-191 52-145L53-143Q120-189 211-189Q281-189 326-149Q371-109 386-11L407 132Q373 67 325.50 33.50Q278 0 228 0Q157 0 116.50 54.50Q76 109 76 195Q76 240 84 284.50Q92 329 111 373.50Q130 418 159 451.50Q188 485 234 506Q280 527 337 527M337 525Q267 525 214 494Q161 463 133 412.50Q105 362 91.50 307Q78 252 78 195Q78 110 117.50 56Q157 2 228 2Q280 2 327 37Q374 72 408 138L460 486Q405 525 337 525Z"  horiz-adv-x="549" vert-adv-y="1000"  />

      
      <glyph glyph-name="uni011E" unicode="&#x011E;" d="M407 774Q369 774 347 791.50Q325 809 319 834L321 835Q327 809 349.50 792.50Q372 776 407 776Q478 776 509 835L511 834Q480 774 407 774M404 690Q487 690 554 635L553 633Q486 688 404 688Q327 688 265 647.50Q203 607 167 542Q131 477 112 403.50Q93 330 93 256Q93 128 152 60.50Q211-7 317-7Q399-7 487 40L530 340L379 340L379 342L532 342L489 39Q401-9 317-9Q210-9 150.50 59.50Q91 128 91 256Q91 332 110.50 406.50Q130 481 166.50 545.50Q203 610 265 650Q327 690 404 690Z"  horiz-adv-x="600" vert-adv-y="1000"  />

      
      <glyph glyph-name="uni011F" unicode="&#x011F;" d="M335 666Q296 666 274.50 685.50Q253 705 249 736L251 737Q256 704 277.50 686Q299 668 335 668Q409 668 439 737L441 736Q410 666 335 666M337 527Q405 527 462 487L388-11Q373-110 327.50-150.50Q282-191 211-191Q119-191 52-145L53-143Q120-189 211-189Q281-189 326-149Q371-109 386-11L407 132Q373 67 325.50 33.50Q278 0 228 0Q157 0 116.50 54.50Q76 109 76 195Q76 240 84 284.50Q92 329 111 373.50Q130 418 159 451.50Q188 485 234 506Q280 527 337 527M337 525Q267 525 214 494Q161 463 133 412.50Q105 362 91.50 307Q78 252 78 195Q78 110 117.50 56Q157 2 228 2Q280 2 327 37Q374 72 408 138L460 486Q405 525 337 525Z"  horiz-adv-x="549" vert-adv-y="1000"  />

      
      <glyph glyph-name="uni0120" unicode="&#x0120;" d="M425 826Q425 826 425 823Q425 820 419 820Q413 820 413 826Q413 832 419 832Q425 832 425 826M404 690Q487 690 554 635L553 633Q486 688 404 688Q327 688 265 647.50Q203 607 167 542Q131 477 112 403.50Q93 330 93 256Q93 128 152 60.50Q211-7 317-7Q399-7 487 40L530 340L379 340L379 342L532 342L489 39Q401-9 317-9Q210-9 150.50 59.50Q91 128 91 256Q91 332 110.50 406.50Q130 481 166.50 545.50Q203 610 265 650Q327 690 404 690Z"  horiz-adv-x="600" vert-adv-y="1000"  />

      
      <glyph glyph-name="uni0121" unicode="&#x0121;" d="M348 700Q348 700 348 697Q348 694 342 694Q336 694 336 700Q336 706 342 706Q348 706 348 700M337 527Q405 527 462 487L388-11Q373-110 327.50-150.50Q282-191 211-191Q119-191 52-145L53-143Q120-189 211-189Q281-189 326-149Q371-109 386-11L407 132Q373 67 325.50 33.50Q278 0 228 0Q157 0 116.50 54.50Q76 109 76 195Q76 240 84 284.50Q92 329 111 373.50Q130 418 159 451.50Q188 485 234 506Q280 527 337 527M337 525Q267 525 214 494Q161 463 133 412.50Q105 362 91.50 307Q78 252 78 195Q78 110 117.50 56Q157 2 228 2Q280 2 327 37Q374 72 408 138L460 486Q405 525 337 525Z"  horiz-adv-x="549" vert-adv-y="1000"  />

      
      <glyph glyph-name="uni0122" unicode="&#x0122;" d="M404 690Q487 690 554 635L553 633Q486 688 404 688Q327 688 265 647.50Q203 607 167 542Q131 477 112 403.50Q93 330 93 256Q93 128 152 60.50Q211-7 317-7Q399-7 487 40L530 340L379 340L379 342L532 342L489 39Q401-9 317-9Q210-9 150.50 59.50Q91 128 91 256Q91 332 110.50 406.50Q130 481 166.50 545.50Q203 610 265 650Q327 690 404 690M288-112Q288-112 288-109.50Q288-107 293-107Q298-107 298-112Q298-114 295-123L255-239L254-239L294-117Q288-117 288-112Z"  horiz-adv-x="600" vert-adv-y="1000"  />

      
      <glyph glyph-name="uni0123" unicode="&#x0123;" d="M328 602Q328 602 328 599.50Q328 597 323 597Q318 597 318 602Q318 604 321 613L361 729L362 729L322 607Q328 607 328 602M337 527Q405 527 462 487L388-11Q373-110 327.50-150.50Q282-191 211-191Q119-191 52-145L53-143Q120-189 211-189Q281-189 326-149Q371-109 386-11L407 132Q373 67 325.50 33.50Q278 0 228 0Q157 0 116.50 54.50Q76 109 76 195Q76 240 84 284.50Q92 329 111 373.50Q130 418 159 451.50Q188 485 234 506Q280 527 337 527M337 525Q267 525 214 494Q161 463 133 412.50Q105 362 91.50 307Q78 252 78 195Q78 110 117.50 56Q157 2 228 2Q280 2 327 37Q374 72 408 138L460 486Q405 525 337 525Z"  horiz-adv-x="549" vert-adv-y="1000"  />

      
      <glyph glyph-name="uni0124" unicode="&#x0124;" d="M289 770L287 771L405 850L407 850L505 771L503 770L406 848L289 770M96 0L94 0L189 680L191 680L147 367L537 367L581 680L583 680L488 0L486 0L537 365L147 365L96 0Z"  horiz-adv-x="654" vert-adv-y="1000"  />

      
      <glyph glyph-name="uni0125" unicode="&#x0125;" d="M225 817L223 818L341 897L343 897L441 818L439 817L342 895L225 817M365 527Q497 527 476 368L424 0L422 0L474 368Q495 525 365 525Q299 525 244 479Q189 433 137 329L91 0L89 0L191 730L193 730L138 335Q189 436 244 481.50Q299 527 365 527Z"  horiz-adv-x="580" vert-adv-y="1000"  />

      
      <glyph glyph-name="uni0126" unicode="&#x0126;" d="M620 528L620 526L568 526L495 0L493 0L544 365L154 365L103 0L101 0L174 526L122 526L122 528L175 528L196 680L198 680L177 528L567 528L588 680L590 680L569 528L620 528M544 367L566 526L176 526L154 367L544 367Z"  horiz-adv-x="668" vert-adv-y="1000"  />

      
      <glyph glyph-name="uni0127" unicode="&#x0127;" d="M365 527Q497 527 476 368L424 0L422 0L474 368Q495 525 365 525Q299 525 244 479Q189 433 137 329L91 0L89 0L178 638L105 638L105 640L178 640L191 730L193 730L180 640L373 640L373 638L180 638L138 335Q189 436 244 481.50Q299 527 365 527Z"  horiz-adv-x="580" vert-adv-y="1000"  />

      
      <glyph glyph-name="uni0128" unicode="&#x0128;" d="M266 812Q243 812 209 834Q175 856 157 856Q126 856 90 821L88 822Q127 858 157 858Q175 858 209.50 836Q244 814 266 814Q299 814 333 851L335 850Q300 812 266 812M191 680L96 0L94 0L189 680L191 680Z"  horiz-adv-x="262" vert-adv-y="1000"  />

      
      <glyph glyph-name="uni0129" unicode="&#x0129;" d="M243 686Q220 686 186 708Q152 730 134 730Q103 730 67 695L65 696Q104 732 134 732Q152 732 186.50 710Q221 688 243 688Q276 688 310 725L312 724Q277 686 243 686M163 517L91 0L89 0L161 517L163 517Z"  horiz-adv-x="252" vert-adv-y="1000"  />

      
      <glyph glyph-name="uni012A" unicode="&#x012A;" d="M305 815L115 815L115 817L305 817L305 815M191 680L96 0L94 0L189 680L191 680Z"  horiz-adv-x="262" vert-adv-y="1000"  />

      
      <glyph glyph-name="uni012B" unicode="&#x012B;" d="M281 689L91 689L91 691L281 691L281 689M163 517L91 0L89 0L161 517L163 517Z"  horiz-adv-x="252" vert-adv-y="1000"  />

      
      <glyph glyph-name="uni012C" unicode="&#x012C;" d="M200 774Q162 774 140 791.50Q118 809 112 834L114 835Q120 809 142.50 792.50Q165 776 200 776Q271 776 302 835L304 834Q273 774 200 774M191 680L96 0L94 0L189 680L191 680Z"  horiz-adv-x="262" vert-adv-y="1000"  />

      
      <glyph glyph-name="uni012D" unicode="&#x012D;" d="M181 666Q142 666 120.50 685.50Q99 705 95 736L97 737Q102 704 123.50 686Q145 668 181 668Q255 668 285 737L287 736Q256 666 181 666M163 517L91 0L89 0L161 517L163 517Z"  horiz-adv-x="252" vert-adv-y="1000"  />

      
      <glyph glyph-name="uni012E" unicode="&#x012E;" d="M96 0Q-57-54-57-134Q-57-192 8-192Q33-192 62-184L62-186Q33-194 8-194Q-59-194-59-134Q-59-52 94 1L189 680L191 680L96 0Z"  horiz-adv-x="262" vert-adv-y="1000"  />

      
      <glyph glyph-name="uni012F" unicode="&#x012F;" d="M182 700Q182 700 182 703Q182 706 188 706Q194 706 194 700Q194 694 188 694Q182 694 182 700M89 1L161 517L163 517L91 0Q-62-54-62-134Q-62-192 3-192Q28-192 57-184L57-186Q28-194 3-194Q-64-194-64-134Q-64-52 89 1Z"  horiz-adv-x="252" vert-adv-y="1000"  />

      
      <glyph glyph-name="uni0130" unicode="&#x0130;" d="M218 826Q218 826 218 823Q218 820 212 820Q206 820 206 826Q206 832 212 832Q218 832 218 826M191 680L96 0L94 0L189 680L191 680Z"  horiz-adv-x="262" vert-adv-y="1000"  />

      
      <glyph glyph-name="uni0131" unicode="&#x0131;" d="M163 517L91 0L89 0L161 517L163 517Z"  horiz-adv-x="252" vert-adv-y="1000"  />

      
      <glyph glyph-name="uni0132" unicode="&#x0132;" d="M191 680L96 0L94 0L189 680L191 680M471 680L388 85Q378 13 349.50-24Q321-61 244-91L243-89Q319-60 347.50-23.50Q376 13 386 85L469 680L471 680Z"  horiz-adv-x="536" vert-adv-y="1000"  />

      
      <glyph glyph-name="uni0133" unicode="&#x0133;" d="M194 700Q194 700 194 697Q194 694 188 694Q182 694 182 700Q182 706 188 706Q194 706 194 700M446 700Q446 700 446 697Q446 694 440 694Q434 694 434 700Q434 706 440 706Q446 706 446 700M163 517L91 0L89 0L161 517L163 517M218-191L217-189Q275-160 302.50-121.50Q330-83 341 1L413 517L415 517L343 1Q331-85 304-123.50Q277-162 218-191Z"  horiz-adv-x="504" vert-adv-y="1000"  />

      
      <glyph glyph-name="uni0134" unicode="&#x0134;" d="M113 770L111 771L229 850L231 850L329 771L327 770L230 848L113 770M209 680L126 85Q116 13 87.50-24Q59-61-18-91L-19-89Q57-60 85.50-23.50Q114 13 124 85L207 680L209 680Z"  horiz-adv-x="274" vert-adv-y="1000"  />

      
      <glyph glyph-name="uni0135" unicode="&#x0135;" d="M75 660L73 661L194 745L196 745L291 661L289 660L195 743L75 660M-34-191L-35-189Q23-160 50.50-121.50Q78-83 89 1L161 517L163 517L91 1Q79-85 52-123.50Q25-162-34-191Z"  horiz-adv-x="252" vert-adv-y="1000"  />

      
      <glyph glyph-name="uni0136" unicode="&#x0136;" d="M94 1L189 680L191 680L96 1L94 1M450 0L150 366L529 680L532 680L153 366L453 0L450 0M233-112Q233-112 233-109.50Q233-107 238-107Q243-107 243-112Q243-114 240-123L200-239L199-239L239-117Q233-117 233-112Z"  horiz-adv-x="504" vert-adv-y="1000"  />

      
      <glyph glyph-name="uni0137" unicode="&#x0137;" d="M193 730L134 308Q181 414 241 470.50Q301 527 367 527Q416 527 443.50 499.50Q471 472 471 425Q471 360 422.50 316.50Q374 273 282 243L410 0L408 0L279 244Q372 275 420.50 317.50Q469 360 469 424Q469 471 442.50 498Q416 525 367 525Q301 525 241 467.50Q181 410 133 302L91 0L89 0L191 730L193 730M216-112Q216-112 216-109.50Q216-107 221-107Q226-107 226-112Q226-114 223-123L183-239L182-239L222-117Q216-117 216-112Z"  horiz-adv-x="509" vert-adv-y="1000"  />

      
      <glyph glyph-name="uni0138" unicode="&#x0138;" d="M163 517L91 0L89 0L161 517L163 517M430 517L137 273L385 0L382 0L134 273L427 517L430 517Z"  horiz-adv-x="446" vert-adv-y="1000"  />

      
      <glyph glyph-name="uni0139" unicode="&#x0139;" d="M295 842L296 840L121 771L120 773L295 842M191 680L96 2L384 2L384 0L94 0L189 680L191 680Z"  horiz-adv-x="445" vert-adv-y="1000"  />

      
      <glyph glyph-name="uni013A" unicode="&#x013A;" d="M292 892L293 890L118 821L117 823L292 892M188 730L95 64Q85-7 145-7Q166-7 187 1L187-1Q166-9 145-9Q83-9 93 64L186 730L188 730Z"  horiz-adv-x="275" vert-adv-y="1000"  />

      
      <glyph glyph-name="uni013B" unicode="&#x013B;" d="M191 680L96 2L384 2L384 0L94 0L189 680L191 680M224-112Q224-112 224-109.50Q224-107 229-107Q234-107 234-112Q234-114 231-123L191-239L190-239L230-117Q224-117 224-112Z"  horiz-adv-x="445" vert-adv-y="1000"  />

      
      <glyph glyph-name="uni013C" unicode="&#x013C;" d="M188 730L95 64Q85-7 145-7Q166-7 187 1L187-1Q166-9 145-9Q83-9 93 64L186 730L188 730M126-112Q126-112 126-109.50Q126-107 131-107Q136-107 136-112Q136-114 133-123L93-239L92-239L132-117Q126-117 126-112Z"  horiz-adv-x="275" vert-adv-y="1000"  />

      
      <glyph glyph-name="uni013D" unicode="&#x013D;" d="M314 690L316 690L278 553L276 553L314 690M191 680L96 2L384 2L384 0L94 0L189 680L191 680Z"  horiz-adv-x="445" vert-adv-y="1000"  />

      
      <glyph glyph-name="uni013E" unicode="&#x013E;" d="M300 737L302 737L264 600L262 600L300 737M188 730L95 64Q85-7 145-7Q166-7 187 1L187-1Q166-9 145-9Q83-9 93 64L186 730L188 730Z"  horiz-adv-x="275" vert-adv-y="1000"  />

      
      <glyph glyph-name="uni013F" unicode="&#x013F;" d="M191 680L96 2L384 2L384 0L94 0L189 680L191 680M369 355Q369 355 369 352Q369 349 363 349Q357 349 357 355Q357 361 363 361Q369 361 369 355Z"  horiz-adv-x="445" vert-adv-y="1000"  />

      
      <glyph glyph-name="uni0140" unicode="&#x0140;" d="M188 730L95 64Q85-7 145-7Q166-7 187 1L187-1Q166-9 145-9Q83-9 93 64L186 730L188 730M278 375Q278 375 278 372Q278 369 272 369Q266 369 266 375Q266 381 272 381Q278 381 278 375Z"  horiz-adv-x="277" vert-adv-y="1000"  />

      
      <glyph glyph-name="uni0141" unicode="&#x0141;" d="M106 2L394 2L394 0L104 0L149 324L65 276L64 278L150 327L199 680L201 680L152 328L378 456L379 454L151 325L106 2Z"  horiz-adv-x="455" vert-adv-y="1000"  />

      
      <glyph glyph-name="uni0142" unicode="&#x0142;" d="M95 64Q85-7 145-7Q166-7 187 1L187-1Q166-9 145-9Q83-9 93 64L136 370L62 327L61 329L136 373L186 730L188 730L138 374L259 444L260 442L138 371L95 64Z"  horiz-adv-x="275" vert-adv-y="1000"  />

      
      <glyph glyph-name="uni0143" unicode="&#x0143;" d="M495 842L496 840L321 771L320 773L495 842M583 680L488 0L485 0L191 677Q186 640 176 572L96 0L94 0L189 680L192 680L486 3Q489 23 495.50 69Q502 115 505 136L581 680L583 680Z"  horiz-adv-x="654" vert-adv-y="1000"  />

      
      <glyph glyph-name="uni0144" unicode="&#x0144;" d="M445 746L446 744L267 662L267 664L445 746M368 527Q432 527 459 485.50Q486 444 476 368L424 0L422 0L474 368Q484 443 457.50 484Q431 525 368 525Q300 525 244.50 479Q189 433 137 329L91 0L89 0L161 517L163 517L138 335Q189 437 244.50 482Q300 527 368 527Z"  horiz-adv-x="580" vert-adv-y="1000"  />

      
      <glyph glyph-name="uni0145" unicode="&#x0145;" d="M583 680L488 0L485 0L191 677Q186 640 176 572L96 0L94 0L189 680L192 680L486 3Q489 23 495.50 69Q502 115 505 136L581 680L583 680M270-112Q270-112 270-109.50Q270-107 275-107Q280-107 280-112Q280-114 277-123L237-239L236-239L276-117Q270-117 270-112Z"  horiz-adv-x="654" vert-adv-y="1000"  />

      
      </font>
</defs>
</svg>
