<?xml version="1.0" standalone="no"?>
  <!DOCTYPE svg PUBLIC "-//W3C//DTD SVG 1.1//EN" "http://www.w3.org/Graphics/SVG/1.1/DTD/svg11.dtd" >
  <svg>
  <metadata>
  Created by font-carrier
  </metadata>
  <defs>
  <font id="FiraSans-BookItalic" horiz-adv-x="1505" vert-adv-y="1505" >
    <font-face
      
      font-family="Fira Sans Book"
      
      font-weight="400"
      
      font-stretch="normal"
      
      units-per-em="1000"
      
      ascent="935"
      
      descent="-265"
      
    />
      <missing-glyph />

      

      
      <glyph glyph-name="uni21" unicode="&#x21;" d="M75 227L131 688L223 688L149 227L75 227M85-12Q60-12 43.50 5Q27 22 27 47Q27 76 47 96.50Q67 117 96 117Q122 117 138 100Q154 83 154 58Q154 29 134 8.50Q114-12 85-12Z"  horiz-adv-x="236" vert-adv-y="1000"  />

      
      <glyph glyph-name="uni22" unicode="&#x22;" d="M97 429L121 688L210 688L160 429L97 429M272 429L296 688L385 688L335 429L272 429Z"  horiz-adv-x="385" vert-adv-y="1000"  />

      
      <glyph glyph-name="uni23" unicode="&#x23;" d="M521 448L444 448L386 231L454 231L445 167L368 167L323 0L251 0L297 167L139 167L93 0L21 0L66 167L1 167L10 231L84 231L142 448L77 448L86 513L160 513L202 668L275 668L233 513L391 513L433 668L504 668L462 513L530 513L521 448M314 231L373 448L215 448L156 231L314 231Z"  horiz-adv-x="509" vert-adv-y="1000"  />

      
      <glyph glyph-name="uni24" unicode="&#x24;" d="M300 385Q381 359 427 316Q473 273 473 201Q473 120 418.50 60.50Q364 1 257-10L238-154L165-154L185-11Q72-3 2 76L55 125Q117 58 223 58Q295 58 341 93.50Q387 129 387 196Q387 239 358.50 266.50Q330 294 260 318Q173 347 130 389Q87 431 87 495Q87 575 140 624Q193 673 282 678L303 823L375 823L354 675Q442 662 507 600L457 550Q391 609 304 609Q244 609 208 582.50Q172 556 172 501Q172 459 199.50 433.50Q227 408 300 385Z"  horiz-adv-x="524" vert-adv-y="1000"  />

      
      <glyph glyph-name="uni25" unicode="&#x25;" d="M670 709L113 9L167-29L724 671L670 709M220 343Q158 343 119.50 382Q81 421 81 484Q81 517 91 549.50Q101 582 121.50 611.50Q142 641 177.50 659.50Q213 678 259 678Q322 678 360.50 640Q399 602 399 540Q399 508 389.50 475Q380 442 360 411.50Q340 381 303.50 362Q267 343 220 343M221 401Q252 401 274 416Q296 431 306.50 455Q317 479 321.50 500Q326 521 326 540Q326 621 259 621Q219 621 193.50 594.50Q168 568 161 540Q154 512 154 484Q154 401 221 401M573-12Q511-12 472 27Q433 66 433 129Q433 202 478.50 262.50Q524 323 612 323Q675 323 713.50 285Q752 247 752 185Q752 160 746 134Q740 108 726.50 81.50Q713 55 693 34.50Q673 14 642 1Q611-12 573-12M574 46Q605 46 627 61Q649 76 659.50 100Q670 124 674.50 145Q679 166 679 185Q679 266 612 266Q581 266 558.50 251.50Q536 237 525.50 214Q515 191 510.50 170Q506 149 506 129Q506 46 574 46Z"  horiz-adv-x="813" vert-adv-y="1000"  />

      
      <glyph glyph-name="uni26" unicode="&#x26;" d="M348 700Q424 700 471.50 660.50Q519 621 519 558Q519 495 476.50 454Q434 413 346 366L505 193Q558 278 586 353L661 325Q611 220 552 142L649 36L585-12L499 85Q402-12 272-12Q183-12 130 36.50Q77 85 77 160Q77 225 111.50 275Q146 325 235 378Q160 465 160 534Q160 604 210 652Q260 700 348 700M348 637Q297 637 269.50 608Q242 579 242 534Q242 475 301 412Q372 450 404.50 482Q437 514 437 558Q437 595 412.50 616Q388 637 348 637M278 329Q209 289 185.50 249.50Q162 210 162 162Q162 112 193 83.50Q224 55 279 55Q372 55 454 135L278 329Z"  horiz-adv-x="722" vert-adv-y="1000"  />

      
      <glyph glyph-name="uni27" unicode="&#x27;" d="M97 429L121 688L210 688L160 429L97 429Z"  horiz-adv-x="210" vert-adv-y="1000"  />

      
      <glyph glyph-name="uni28" unicode="&#x28;" d="M305 845L354 805Q236 660 183 529Q130 398 130 230Q130 130 153 55.50Q176-19 224-110L169-141Q138-87 121.50-55.50Q105-24 84.50 26Q64 76 55 128Q46 180 46 239Q46 365 78.50 471Q111 577 162.50 657Q214 737 305 845Z"  horiz-adv-x="319" vert-adv-y="1000"  />

      
      <glyph glyph-name="uni29" unicode="&#x29;" d="M174 841Q216 768 236.50 726.50Q257 685 277 611.50Q297 538 297 461Q297 335 264.50 229Q232 123 180.50 43Q129-37 38-145L-11-105Q107 40 160.50 172Q214 304 214 472Q214 572 190.50 645.50Q167 719 119 810L174 841Z"  horiz-adv-x="319" vert-adv-y="1000"  />

      
      <glyph glyph-name="uni2a" unicode="&#x2a;" d="M453 566L296 531L382 414L312 365L250 499L152 365L93 413L211 531L64 566L97 639L233 579L241 738L326 738L290 581L437 642L453 566Z"  horiz-adv-x="433" vert-adv-y="1000"  />

      
      <glyph glyph-name="uni2b" unicode="&#x2b;" d="M320 516L299 366L444 366L434 296L289 296L268 146L191 146L212 296L67 296L77 366L222 366L243 516L320 516Z"  horiz-adv-x="492" vert-adv-y="1000"  />

      
      <glyph glyph-name="uni2c" unicode="&#x2c;" d="M92 117Q118 117 134.50 100Q151 83 151 58Q151 28 126-16L41-162L-20-162L44 1Q24 18 24 47Q24 76 44 96.50Q64 117 92 117Z"  horiz-adv-x="233" vert-adv-y="1000"  />

      
      <glyph glyph-name="uni2d" unicode="&#x2d;" d="M62 277L72 349L349 349L339 277L62 277Z"  horiz-adv-x="397" vert-adv-y="1000"  />

      
      <glyph glyph-name="uni2e" unicode="&#x2e;" d="M81-12Q56-12 39.50 5Q23 22 23 47Q23 76 43 96.50Q63 117 92 117Q118 117 134 100Q150 83 150 58Q150 29 130 8.50Q110-12 81-12Z"  horiz-adv-x="232" vert-adv-y="1000"  />

      
      <glyph glyph-name="uni2f" unicode="&#x2f;" d="M412 808L482 789L127-103L57-84L412 808Z"  horiz-adv-x="515" vert-adv-y="1000"  />

      
      <glyph glyph-name="uni30" unicode="&#x30;" d="M333 678Q259 678 203 634.50Q147 591 117 520.50Q87 450 73 376Q59 302 59 228Q59 111 104.50 49.50Q150-12 237-12Q297-12 345 17.50Q393 47 423.50 93.50Q454 140 474.50 201.50Q495 263 503 322Q511 381 511 439Q511 555 465.50 616.50Q420 678 333 678M330 611Q427 611 427 454Q427 387 416.50 320.50Q406 254 385 192.50Q364 131 326.50 93Q289 55 241 55Q143 55 143 213Q143 279 153.50 346Q164 413 185.50 474Q207 535 244.50 573Q282 611 330 611Z"  horiz-adv-x="551" vert-adv-y="1000"  />

      
      <glyph glyph-name="uni31" unicode="&#x31;" d="M369 668L275 0L191 0L272 570L103 474L74 541L295 668L369 668Z"  horiz-adv-x="423" vert-adv-y="1000"  />

      
      <glyph glyph-name="uni32" unicode="&#x32;" d="M278 678Q361 678 409.50 632.50Q458 587 458 513Q458 432 389.50 343.50Q321 255 109 69L409 71L389 0L2 0L11 69Q174 219 246 294Q318 369 344.50 415Q371 461 371 510Q371 558 344.50 583.50Q318 609 272 609Q194 609 122 533L68 582Q163 678 278 678Z"  horiz-adv-x="486" vert-adv-y="1000"  />

      
      <glyph glyph-name="uni33" unicode="&#x33;" d="M276 678Q359 678 404.50 634Q450 590 450 522Q450 462 411.50 416.50Q373 371 297 354Q354 349 390 313Q426 277 426 215Q426 161 400.50 111Q375 61 316.50 24.50Q258-12 177-12Q54-12-10 79L45 125Q97 57 180 57Q254 57 297.50 105Q341 153 341 225Q341 275 310 296Q279 317 221 317L171 317L190 382L222 382Q290 382 328 421.50Q366 461 366 519Q366 563 340.50 587Q315 611 270 611Q195 611 120 548L79 601Q172 678 276 678Z"  horiz-adv-x="491" vert-adv-y="1000"  />

      
      <glyph glyph-name="uni34" unicode="&#x34;" d="M489 234L479 167L393 167L369 0L288 0L312 167L27 167L35 228L294 678L365 649L127 234L322 234L355 418L428 418L402 234L489 234Z"  horiz-adv-x="524" vert-adv-y="1000"  />

      
      <glyph glyph-name="uni35" unicode="&#x35;" d="M481 668L461 602L199 602L170 398Q221 425 278 425Q355 425 398.50 377.50Q442 330 442 245Q442 203 427.50 160Q413 117 384.50 77.50Q356 38 304.50 13Q253-12 187-12Q73-12 2 74L57 121Q106 57 189 57Q234 57 268.50 76Q303 95 321 125Q339 155 348 186Q357 217 357 247Q357 360 254 360Q203 360 148 334L82 334L129 668L481 668Z"  horiz-adv-x="492" vert-adv-y="1000"  />

      
      <glyph glyph-name="uni36" unicode="&#x36;" d="M323 438Q391 438 435.50 392.50Q480 347 480 263Q480 219 466 172.50Q452 126 424.50 84Q397 42 349.50 15Q302-12 242-12Q56-12 56 219Q56 335 89.50 437.50Q123 540 193.50 609Q264 678 358 678Q432 678 488 637L450 582Q409 611 356 611Q282 611 226.50 539.50Q171 468 150 349Q225 438 323 438M164 92Q164 92 176.50 73.50Q189 55 244 55Q299 55 335.50 93Q372 131 384.50 175Q397 219 397 263Q397 371 307 371Q213 371 142 271Q139 236 139 209Q139 129 164 92Z"  horiz-adv-x="525" vert-adv-y="1000"  />

      
      <glyph glyph-name="uni37" unicode="&#x37;" d="M464 668L455 605L120-9L44 16L368 599L72 599L82 668L464 668Z"  horiz-adv-x="437" vert-adv-y="1000"  />

      
      <glyph glyph-name="uni38" unicode="&#x38;" d="M369 355Q486 303 486 201Q486 108 414.50 48Q343-12 235-12Q142-12 87.50 35.50Q33 83 33 160Q33 291 192 355Q107 402 107 494Q107 575 168.50 626.50Q230 678 322 678Q398 678 451.50 638Q505 598 505 526Q505 467 473 427.50Q441 388 369 355M319 615Q253 615 220.50 580Q188 545 188 495Q188 452 213 428.50Q238 405 294 385L312 379Q377 412 400.50 447Q424 482 424 525Q424 568 397.50 591.50Q371 615 319 615M238 55Q310 55 355.50 96.50Q401 138 401 204Q401 245 372.50 270.50Q344 296 274 322L249 330Q119 275 119 161Q119 112 150.50 83.50Q182 55 238 55Z"  horiz-adv-x="543" vert-adv-y="1000"  />

      
      <glyph glyph-name="uni39" unicode="&#x39;" d="M304 678Q396 678 444 622Q492 566 492 468Q492 405 483.50 351.50Q475 298 448.50 238.50Q422 179 378 132.50Q334 86 258.50 44.50Q183 3 81-22L67 43Q207 82 289 150.50Q371 219 395 332Q366 292 324 268Q282 244 232 244Q161 244 116 293.50Q71 343 71 425Q71 471 85 514.50Q99 558 126.50 595Q154 632 200 655Q246 678 304 678M248 311Q334 311 405 405Q409 440 409 469Q409 543 382.50 577Q356 611 302 611Q260 611 229.50 592.50Q199 574 183 544Q167 514 160 483.50Q153 453 153 421Q153 368 178.50 339.50Q204 311 248 311Z"  horiz-adv-x="517" vert-adv-y="1000"  />

      
      <glyph glyph-name="uni3a" unicode="&#x3a;" d="M134 361Q109 361 92.50 378Q76 395 76 420Q76 449 96 469.50Q116 490 145 490Q171 490 187 473Q203 456 203 431Q203 402 183 381.50Q163 361 134 361M81-12Q56-12 39.50 5Q23 22 23 47Q23 76 43 96.50Q63 117 92 117Q118 117 134 100Q150 83 150 58Q150 29 130 8.50Q110-12 81-12Z"  horiz-adv-x="232" vert-adv-y="1000"  />

      
      <glyph glyph-name="uni3b" unicode="&#x3b;" d="M137 361Q112 361 95.50 378Q79 395 79 420Q79 449 99 469.50Q119 490 148 490Q174 490 190 473Q206 456 206 431Q206 402 186 381.50Q166 361 137 361M92 117Q118 117 134.50 100Q151 83 151 58Q151 28 126-16L41-162L-20-162L44 1Q24 18 24 47Q24 76 44 96.50Q64 117 92 117Z"  horiz-adv-x="236" vert-adv-y="1000"  />

      
      <glyph glyph-name="uni3c" unicode="&#x3c;" d="M450 546L475 474L129 331L431 187L392 120L56 291L68 375L450 546Z"  horiz-adv-x="496" vert-adv-y="1000"  />

      
      <glyph glyph-name="uni3d" unicode="&#x3d;" d="M81 390L91 461L459 461L449 390L81 390M54 201L64 272L432 272L422 201L54 201Z"  horiz-adv-x="494" vert-adv-y="1000"  />

      
      <glyph glyph-name="uni3e" unicode="&#x3e;" d="M121 546L457 375L445 291L63 120L40 189L385 337L83 476L121 546Z"  horiz-adv-x="494" vert-adv-y="1000"  />

      
      <glyph glyph-name="uni3f" unicode="&#x3f;" d="M292 700Q372 700 416 660.50Q460 621 460 562Q460 509 435 471.50Q410 434 374 413.50Q338 393 302.50 374.50Q267 356 242 329Q217 302 217 263Q217 248 221 231L146 218Q136 245 136 269Q136 318 160.50 352.50Q185 387 220 407Q255 427 289.50 445.50Q324 464 348.50 492.50Q373 521 373 560Q373 594 350 612Q327 630 285 630Q202 630 131 556L79 604Q172 700 292 700M176-12Q151-12 134.50 5Q118 22 118 47Q118 76 138 96.50Q158 117 187 117Q213 117 229 100Q245 83 245 58Q245 29 225 8.50Q205-12 176-12Z"  horiz-adv-x="451" vert-adv-y="1000"  />

      
      <glyph glyph-name="uni40" unicode="&#x40;" d="M571 700Q751 700 850.50 602.50Q950 505 950 352Q950 310 943 265.50Q936 221 918.50 174.50Q901 128 875.50 92Q850 56 808.50 33Q767 10 717 10Q663 10 634.50 40Q606 70 602 112Q546 12 451 12Q383 12 342 58.50Q301 105 301 186Q301 227 309 268Q317 309 336 349.50Q355 390 383 421Q411 452 454.50 471Q498 490 551 490Q631 490 701 449L663 170Q658 126 668 100.50Q678 75 716 75Q756 75 787 103Q818 131 834.50 175.50Q851 220 859 266Q867 312 867 357Q867 486 790 558Q713 630 569 630Q478 630 404.50 601Q331 572 284.50 526Q238 480 206.50 419.50Q175 359 162 300Q149 241 149 182Q149 40 236-50.50Q323-141 473-141Q570-141 668-107L686-174Q572-211 469-211Q290-211 177.50-101Q65 9 65 184Q65 251 81.50 319.50Q98 388 137 457.50Q176 527 232.50 580Q289 633 376.50 666.50Q464 700 571 700M462 74Q509 74 541 105.50Q573 137 589 172L623 415Q592 429 553 429Q505 429 469.50 405.50Q434 382 415.50 343.50Q397 305 389 264.50Q381 224 381 181Q381 74 462 74Z"  horiz-adv-x="1015" vert-adv-y="1000"  />

      
      <glyph glyph-name="uni41" unicode="&#x41;" d="M432 0L403 176L137 176L59 0L-29 0L289 688L397 688L520 0L432 0M168 247L392 247L332 616L168 247Z"  horiz-adv-x="566" vert-adv-y="1000"  />

      
      <glyph glyph-name="uni42" unicode="&#x42;" d="M407 364Q546 339 546 219Q546 121 477.50 60.50Q409 0 254 0L65 0L162 688L347 688Q445 688 503 649.50Q561 611 561 535Q561 466 517.50 421.50Q474 377 407 364M350 619L237 619L206 394L314 394Q384 394 428.50 429.50Q473 465 473 532Q473 619 350 619M258 70Q457 70 457 221Q457 327 318 327L197 327L161 70L258 70Z"  horiz-adv-x="600" vert-adv-y="1000"  />

      
      <glyph glyph-name="uni43" unicode="&#x43;" d="M395 700Q502 700 577 630L527 582Q468 628 399 628Q333 628 283.50 593Q234 558 207 501.50Q180 445 167 384Q154 323 154 260Q154 159 196.50 110.50Q239 62 311 62Q387 62 467 121L506 62Q418-12 306-12Q195-12 129 61Q63 134 63 267Q63 324 74.50 382.50Q86 441 111.50 498.50Q137 556 174.50 600.50Q212 645 269 672.50Q326 700 395 700Z"  horiz-adv-x="553" vert-adv-y="1000"  />

      
      <glyph glyph-name="uni44" unicode="&#x44;" d="M301 688Q350 688 390.50 681.50Q431 675 470.50 657.50Q510 640 536.50 612Q563 584 579.50 537Q596 490 596 428Q596 342 575.50 268Q555 194 513 132.50Q471 71 397.50 35.50Q324 0 226 0L65 0L162 688L301 688M312 618L237 618L161 69L239 69Q298 69 345.50 90.50Q393 112 423 147.50Q453 183 473 230.50Q493 278 501 327.50Q509 377 509 430Q509 489 493 528.50Q477 568 446.50 586.50Q416 605 385 611.50Q354 618 312 618Z"  horiz-adv-x="637" vert-adv-y="1000"  />

      
      <glyph glyph-name="uni45" unicode="&#x45;" d="M525 688L506 618L237 618L204 386L437 386L428 316L195 316L161 70L446 70L436 0L65 0L162 688L525 688Z"  horiz-adv-x="524" vert-adv-y="1000"  />

      
      <glyph glyph-name="uni46" unicode="&#x46;" d="M518 688L499 618L237 618L203 376L430 376L420 307L194 307L150 0L65 0L162 688L518 688Z"  horiz-adv-x="483" vert-adv-y="1000"  />

      
      <glyph glyph-name="uni47" unicode="&#x47;" d="M405 700Q521 700 603 623L549 576Q484 628 406 628Q341 628 290.50 593Q240 558 211 501Q182 444 167.50 379.50Q153 315 153 248Q153 60 315 60Q389 60 450 94L481 308L358 308L358 379L576 379L531 52Q428-12 304-12Q191-12 127 57Q63 126 63 259Q63 320 75.50 381Q88 442 115 500Q142 558 181 602Q220 646 278 673Q336 700 405 700Z"  horiz-adv-x="623" vert-adv-y="1000"  />

      
      <glyph glyph-name="uni48" unicode="&#x48;" d="M150 0L65 0L162 688L247 688L206 397L504 397L545 688L631 688L534 0L448 0L493 326L196 326L150 0Z"  horiz-adv-x="672" vert-adv-y="1000"  />

      
      <glyph glyph-name="uni49" unicode="&#x49;" d="M247 688L150 0L65 0L162 688L247 688Z"  horiz-adv-x="289" vert-adv-y="1000"  />

      
      <glyph glyph-name="uni4a" unicode="&#x4a;" d="M260 688L177 92Q163-6 115-55Q67-104-25-134L-43-69Q27-42 55-5.50Q83 31 92 102L175 688L260 688Z"  horiz-adv-x="297" vert-adv-y="1000"  />

      
      <glyph glyph-name="uni4b" unicode="&#x4b;" d="M65 0L162 688L248 688L151 0L65 0M435 0L207 368L515 688L617 688L304 365L537 0L435 0Z"  horiz-adv-x="574" vert-adv-y="1000"  />

      
      <glyph glyph-name="uni4c" unicode="&#x4c;" d="M247 688L162 76L443 76L422 0L65 0L162 688L247 688Z"  horiz-adv-x="487" vert-adv-y="1000"  />

      
      <glyph glyph-name="uni4d" unicode="&#x4d;" d="M708 688L670 0L587 0L606 318Q617 519 626 600L401 79L319 79L231 599Q221 514 176 307L109 0L27 0L182 688L292 688L374 181L586 688L708 688Z"  horiz-adv-x="771" vert-adv-y="1000"  />

      
      <glyph glyph-name="uni4e" unicode="&#x4e;" d="M633 688L537 0L425 0L218 613Q217 503 192 329L146 0L65 0L162 688L274 688L482 75Q482 181 498 305L552 688L633 688Z"  horiz-adv-x="675" vert-adv-y="1000"  />

      
      <glyph glyph-name="uni4f" unicode="&#x4f;" d="M402 700Q516 700 581 628Q646 556 646 422Q646 349 628 277Q610 205 572.50 138Q535 71 466.50 29.50Q398-12 308-12Q194-12 128.50 60Q63 132 63 264Q63 320 73.50 377Q84 434 109.50 493Q135 552 173 597.50Q211 643 270 671.50Q329 700 402 700M399 628Q331 628 280.50 592Q230 556 203.50 497.50Q177 439 165 380Q153 321 153 261Q153 60 311 60Q380 60 430.50 96.50Q481 133 507 191.50Q533 250 545 309.50Q557 369 557 428Q557 628 399 628Z"  horiz-adv-x="687" vert-adv-y="1000"  />

      
      <glyph glyph-name="uni50" unicode="&#x50;" d="M334 688Q448 688 509.50 643Q571 598 571 508Q571 401 500.50 328.50Q430 256 278 256L186 256L150 0L65 0L162 688L334 688M280 325Q480 325 480 508Q480 568 441 594Q402 620 328 620L237 620L196 325L280 325Z"  horiz-adv-x="573" vert-adv-y="1000"  />

      
      <glyph glyph-name="uni51" unicode="&#x51;" d="M646 422Q646 344 628 270.50Q610 197 562.50 129.50Q515 62 444 33Q541 30 618-31L554-101Q505-49 453-30.50Q401-12 308-12Q194-12 128.50 60Q63 132 63 264Q63 320 73.50 377Q84 434 109.50 493Q135 552 173 597.50Q211 643 270 671.50Q329 700 402 700Q516 700 581 628Q646 556 646 422M153 255Q153 60 311 60Q380 60 430.50 96.50Q481 133 507 192.50Q533 252 545 313Q557 374 557 437Q557 628 399 628Q331 628 280.50 592Q230 556 203.50 497Q177 438 165 377.50Q153 317 153 255Z"  horiz-adv-x="682" vert-adv-y="1000"  />

      
      <glyph glyph-name="uni52" unicode="&#x52;" d="M568 520Q568 449 526 391Q484 333 392 309L532 0L437 0L308 296L192 296L150 0L65 0L162 688L337 688Q568 688 568 520M237 620L201 363L306 363Q398 363 437.50 409.50Q477 456 477 519Q477 573 442.50 596.50Q408 620 332 620L237 620Z"  horiz-adv-x="596" vert-adv-y="1000"  />

      
      <glyph glyph-name="uni53" unicode="&#x53;" d="M324 700Q444 700 523 618L469 568Q409 628 324 628Q260 628 219 597Q178 566 178 512Q178 471 206 446Q234 421 309 396Q396 369 442 328Q488 287 488 208Q488 120 420 54Q352-12 222-12Q83-12 2 79L57 130Q121 60 223 60Q304 60 351.50 100Q399 140 399 204Q399 250 370.50 276.50Q342 303 269 328Q175 361 133 400Q91 439 91 508Q91 583 154 641.50Q217 700 324 700Z"  horiz-adv-x="538" vert-adv-y="1000"  />

      
      <glyph glyph-name="uni54" unicode="&#x54;" d="M557 688L537 614L345 614L259 0L173 0L259 614L63 614L74 688L557 688Z"  horiz-adv-x="507" vert-adv-y="1000"  />

      
      <glyph glyph-name="uni55" unicode="&#x55;" d="M622 688L556 217Q542 113 472 50.50Q402-12 291-12Q177-12 124 52.50Q71 117 86 222L152 688L237 688L172 223Q161 141 190.50 101.50Q220 62 295 62Q449 62 472 229L537 688L622 688Z"  horiz-adv-x="654" vert-adv-y="1000"  />

      
      <glyph glyph-name="uni56" unicode="&#x56;" d="M600 688L284 0L191 0L67 688L157 688L249 93L510 688L600 688Z"  horiz-adv-x="549" vert-adv-y="1000"  />

      
      <glyph glyph-name="uni57" unicode="&#x57;" d="M850 688L612 0L502 0L454 587L239 0L132 0L87 688L169 688L198 77L420 688L513 688L566 76L771 688L850 688Z"  horiz-adv-x="817" vert-adv-y="1000"  />

      
      <glyph glyph-name="uni58" unicode="&#x58;" d="M559 688L327 371L485 0L391 0L273 310L64 0L-32 0L227 367L85 688L179 688L282 425L464 688L559 688Z"  horiz-adv-x="529" vert-adv-y="1000"  />

      
      <glyph glyph-name="uni59" unicode="&#x59;" d="M592 688L313 266L276 0L189 0L227 265L67 688L157 688L278 342L498 688L592 688Z"  horiz-adv-x="538" vert-adv-y="1000"  />

      
      <glyph glyph-name="uni5a" unicode="&#x5a;" d="M-7 0L3 70L424 615L116 615L127 688L530 688L521 618L102 73L442 74L422 0L-7 0Z"  horiz-adv-x="515" vert-adv-y="1000"  />

      
      <glyph glyph-name="uni5b" unicode="&#x5b;" d="M341 814L331 744L214 744L102-46L220-46L211-115L15-115L146 814L341 814Z"  horiz-adv-x="316" vert-adv-y="1000"  />

      
      <glyph glyph-name="uni5c" unicode="&#x5c;" d="M252 804L357-87L286-103L182 789L252 804Z"  horiz-adv-x="515" vert-adv-y="1000"  />

      
      <glyph glyph-name="uni5d" unicode="&#x5d;" d="M325 814L195-115L-1-115L8-46L126-46L237 744L120 744L130 814L325 814Z"  horiz-adv-x="316" vert-adv-y="1000"  />

      
      <glyph glyph-name="uni5e" unicode="&#x5e;" d="M384 838L527 527L438 527L339 764L170 527L80 527L311 838L384 838Z"  horiz-adv-x="533" vert-adv-y="1000"  />

      
      <glyph glyph-name="uni5f" unicode="&#x5f;" d="M-37-137L-27-65L450-65L440-137L-37-137Z"  horiz-adv-x="515" vert-adv-y="1000"  />

      
      <glyph glyph-name="uni60" unicode="&#x60;" d="M137 797L317 685L290 640L95 725L137 797Z"  horiz-adv-x="287" vert-adv-y="1000"  />

      
      <glyph glyph-name="uni61" unicode="&#x61;" d="M330 538Q418 538 511 493L457 119Q452 88 458 71.50Q464 55 488 46L465-12Q425-6 403 15Q381 36 377 78Q310-12 219-12Q140-12 96 42.50Q52 97 52 190Q52 235 61 281.50Q70 328 91.50 374.50Q113 421 144 457Q175 493 223.50 515.50Q272 538 330 538M332 471Q282 471 243.50 444Q205 417 183.50 374Q162 331 151.50 284Q141 237 141 190Q141 55 236 55Q310 55 380 156L422 452Q381 471 332 471Z"  horiz-adv-x="567" vert-adv-y="1000"  />

      
      <glyph glyph-name="uni62" unicode="&#x62;" d="M364 538Q439 538 482 484.50Q525 431 525 333Q525 274 509.50 216.50Q494 159 463 106Q432 53 375.50 20.50Q319-12 245-12Q167-12 63 23L164 738L248 748L209 471Q284 538 364 538M342 471Q273 471 198 392L154 73Q200 55 251 55Q300 55 338 82.50Q376 110 397 153.50Q418 197 428 244.50Q438 292 438 339Q438 471 342 471Z"  horiz-adv-x="577" vert-adv-y="1000"  />

      
      <glyph glyph-name="uni63" unicode="&#x63;" d="M319 538Q409 538 469 481L424 429Q379 468 320 468Q271 468 234.50 441.50Q198 415 178.50 373Q159 331 150 286Q141 241 141 196Q141 60 254 60Q312 60 378 101L412 43Q334-12 249-12Q157-12 105.50 44.50Q54 101 54 202Q54 257 68.50 313Q83 369 113 421Q143 473 196.50 505.50Q250 538 319 538Z"  horiz-adv-x="471" vert-adv-y="1000"  />

      
      <glyph glyph-name="uni64" unicode="&#x64;" d="M473 747L555 737L451 0L378 0L381 92Q319-12 218-12Q139-12 96 43.50Q53 99 53 196Q53 239 61 284Q69 329 87.50 375Q106 421 133.50 457Q161 493 203.50 515.50Q246 538 298 538Q383 538 434 470L473 747M313 471Q266 471 231 443Q196 415 177.50 370.50Q159 326 150 280.50Q141 235 141 191Q141 55 234 55Q281 55 317.50 86.50Q354 118 394 182L425 404Q383 471 313 471Z"  horiz-adv-x="585" vert-adv-y="1000"  />

      
      <glyph glyph-name="uni65" unicode="&#x65;" d="M488 406Q488 363 469.50 330Q451 297 421.50 275.50Q392 254 345.50 238Q299 222 251 213.50Q203 205 141 198Q142 59 260 59Q333 59 402 109L438 52Q351-12 252-12Q157-12 105.50 44.50Q54 101 54 201Q54 247 63 292Q72 337 92.50 382Q113 427 143 461Q173 495 220 516.50Q267 538 324 538Q402 538 445 500Q488 462 488 406M145 263Q275 276 337.50 307Q400 338 400 403Q400 429 381.50 450Q363 471 323 471Q269 471 229.50 438.50Q190 406 171.50 362Q153 318 145 263Z"  horiz-adv-x="516" vert-adv-y="1000"  />

      
      <glyph glyph-name="uni66" unicode="&#x66;" d="M330 681Q246 681 234 599L224 526L353 526L335 461L215 461L154 26Q139-78 98-124.50Q57-171-36-211L-60-148Q2-120 31-86Q60-52 71 27L132 461L39 461L49 526L141 526L152 604Q161 671 207 709.50Q253 748 327 748Q390 748 450 711L417 655Q379 681 330 681Z"  horiz-adv-x="327" vert-adv-y="1000"  />

      
      <glyph glyph-name="uni67" unicode="&#x67;" d="M335 538Q425 538 517 493L445 10Q411-214 209-214Q112-214 29-163L61-100Q136-142 205-142Q268-142 309.50-109.50Q351-77 363 11L373 82Q306 0 221 0Q143 0 98 54Q53 108 53 199Q53 259 69 317Q85 375 117 425.50Q149 476 205.50 507Q262 538 335 538M336 471Q270 471 224.50 428Q179 385 160.50 325.50Q142 266 142 198Q142 132 167.50 99.50Q193 67 238 67Q313 67 385 169L429 452Q385 471 336 471Z"  horiz-adv-x="577" vert-adv-y="1000"  />

      
      <glyph glyph-name="uni68" unicode="&#x68;" d="M380 538Q449 538 482 493.50Q515 449 504 372L452 0L369 0L421 368Q434 468 363 468Q270 468 186 315L143 0L60 0L164 737L248 747L201 420Q276 538 380 538Z"  horiz-adv-x="581" vert-adv-y="1000"  />

      
      <glyph glyph-name="uni69" unicode="&#x69;" d="M197 658Q173 658 158 673Q143 688 143 711Q143 738 161 756Q179 774 206 774Q231 774 246 759Q261 744 261 721Q261 694 242.50 676Q224 658 197 658M217 526L143 0L60 0L134 526L217 526Z"  horiz-adv-x="277" vert-adv-y="1000"  />

      
      <glyph glyph-name="uni6a" unicode="&#x6a;" d="M198 658Q174 658 159 673Q144 688 144 711Q144 738 162 756Q180 774 207 774Q232 774 247 759Q262 744 262 721Q262 694 243.50 676Q225 658 198 658M-44-211L-67-149Q-5-120 23.50-86Q52-52 64 27L134 526L217 526L146 26Q132-77 90.50-124Q49-171-44-211Z"  horiz-adv-x="277" vert-adv-y="1000"  />

      
      <glyph glyph-name="uni6b" unicode="&#x6b;" d="M248 748L202 425Q277 538 386 538Q441 538 476.50 505Q512 472 512 420Q512 356 470.50 308Q429 260 347 234L466 0L373 0L247 256Q340 282 382 319Q424 356 424 411Q424 471 363 471Q316 471 268.50 430.50Q221 390 187 313L143 0L60 0L164 738L248 748Z"  horiz-adv-x="540" vert-adv-y="1000"  />

      
      <glyph glyph-name="uni6c" unicode="&#x6c;" d="M243 748L152 99Q150 77 155.50 67.50Q161 58 178 58Q194 58 215 65L232 4Q196-12 162-12Q111-12 86.50 19.50Q62 51 71 113L160 738L243 748Z"  horiz-adv-x="287" vert-adv-y="1000"  />

      
      <glyph glyph-name="uni6d" unicode="&#x6d;" d="M660 538Q720 538 751 493Q782 448 772 374L719 0L636 0L688 368Q696 424 680.50 446Q665 468 631 468Q561 468 475 317L430 0L347 0L399 368Q413 468 342 468Q270 468 186 315L143 0L60 0L134 526L205 526L195 418Q276 538 371 538Q417 538 448.50 508.50Q480 479 485 426Q566 538 660 538Z"  horiz-adv-x="848" vert-adv-y="1000"  />

      
      <glyph glyph-name="uni6e" unicode="&#x6e;" d="M382 538Q448 538 481.50 492.50Q515 447 504 370L452 0L369 0L421 368Q434 468 360 468Q271 468 187 315L143 0L60 0L134 526L205 526L195 417Q278 538 382 538Z"  horiz-adv-x="580" vert-adv-y="1000"  />

      
      <glyph glyph-name="uni6f" unicode="&#x6f;" d="M253-12Q157-12 105.50 45.50Q54 103 54 205Q54 247 62 290Q70 333 90.50 378Q111 423 140.50 458Q170 493 217.50 515.50Q265 538 324 538Q420 538 471 481Q522 424 522 322Q522 269 508 215Q494 161 465 108Q436 55 381 21.50Q326-12 253-12M255 56Q305 56 342 83.50Q379 111 398 155Q417 199 426 243Q435 287 435 330Q435 470 321 470Q271 470 234 442.50Q197 415 178 371Q159 327 150 283Q141 239 141 196Q141 56 255 56Z"  horiz-adv-x="576" vert-adv-y="1000"  />

      
      <glyph glyph-name="uni70" unicode="&#x70;" d="M30-214L134 526L205 526L202 459Q274 538 364 538Q439 538 481.50 484.50Q524 431 524 333Q524 287 515 240.50Q506 194 485 148Q464 102 433 67Q402 32 354 10Q306-12 247-12Q194-12 143 6L113-203L30-214M251 55Q300 55 338 82.50Q376 110 397 153.50Q418 197 428 244.50Q438 292 438 339Q438 471 342 471Q273 471 198 392L154 73Q200 55 251 55Z"  horiz-adv-x="577" vert-adv-y="1000"  />

      
      <glyph glyph-name="uni71" unicode="&#x71;" d="M331-214L370 67Q309-12 219-12Q140-12 96 42.50Q52 97 52 190Q52 235 61 281.50Q70 328 91.50 374.50Q113 421 144 457Q175 493 223.50 515.50Q272 538 330 538Q424 538 514 493L414-203L331-214M236 55Q278 55 312 81Q346 107 381 156L424 452Q382 471 332 471Q282 471 243.50 444Q205 417 183.50 374Q162 331 151.50 284Q141 237 141 190Q141 55 236 55Z"  horiz-adv-x="574" vert-adv-y="1000"  />

      
      <glyph glyph-name="uni72" unicode="&#x72;" d="M353 538Q380 538 406 531L381 450Q364 455 339 455Q288 455 251 412Q214 369 183 284L143 0L60 0L134 526L205 526L197 413Q257 538 353 538Z"  horiz-adv-x="379" vert-adv-y="1000"  />

      
      <glyph glyph-name="uni73" unicode="&#x73;" d="M262 538Q362 538 432 474L391 424Q332 471 261 471Q211 471 181.50 450.50Q152 430 152 395Q152 365 176 347.50Q200 330 260 312Q337 287 372.50 251Q408 215 408 155Q408 75 346 31.50Q284-12 193-12Q78-12 1 63L48 111Q115 56 196 56Q260 56 290.50 83Q321 110 321 147Q321 187 297.50 207Q274 227 208 247Q132 271 99.50 304Q67 337 67 390Q67 449 118 493.50Q169 538 262 538Z"  horiz-adv-x="461" vert-adv-y="1000"  />

      
      <glyph glyph-name="uni74" unicode="&#x74;" d="M211 461L166 137Q160 96 171.50 77.50Q183 59 215 59Q249 59 293 81L320 23Q266-12 205-12Q138-12 105.50 27.50Q73 67 83 138L129 461L38 461L47 526L141 526L173 649L238 656L220 526L347 526L328 461L211 461Z"  horiz-adv-x="351" vert-adv-y="1000"  />

      
      <glyph glyph-name="uni75" unicode="&#x75;" d="M202-12Q132-12 98.50 32Q65 76 76 153L129 526L212 526L160 156Q145 54 219 54Q303 54 386 189L433 526L516 526L442 0L372 0L381 106Q300-12 202-12Z"  horiz-adv-x="576" vert-adv-y="1000"  />

      
      <glyph glyph-name="uni76" unicode="&#x76;" d="M508 526L256 0L156 0L48 526L139 526L215 76L417 526L508 526Z"  horiz-adv-x="482" vert-adv-y="1000"  />

      
      <glyph glyph-name="uni77" unicode="&#x77;" d="M723 526L530 0L416 0L383 450L220 0L109 0L59 526L141 526L174 59L346 526L441 526L478 59L642 526L723 526Z"  horiz-adv-x="707" vert-adv-y="1000"  />

      
      <glyph glyph-name="uni78" unicode="&#x78;" d="M485 526L289 275L431 0L338 0L234 227L67 0L-31 0L191 283L66 526L158 526L246 328L388 526L485 526Z"  horiz-adv-x="474" vert-adv-y="1000"  />

      
      <glyph glyph-name="uni79" unicode="&#x79;" d="M508 526L262-5Q221-95 158.50-146.50Q96-198-5-211L-9-145Q69-131 107.50-99.50Q146-68 182 0L151 0L48 526L136 526L214 64L421 526L508 526Z"  horiz-adv-x="481" vert-adv-y="1000"  />

      
      <glyph glyph-name="uni7a" unicode="&#x7a;" d="M433 526L425 462L100 71L371 71L352 0L-12 0L-4 63L320 455L75 455L85 526L433 526Z"  horiz-adv-x="428" vert-adv-y="1000"  />

      
      <glyph glyph-name="uni7b" unicode="&#x7b;" d="M348 834L343 769Q293 769 268.50 751.50Q244 734 239 696L204 454Q198 403 177.50 381.50Q157 360 115 347Q152 335 167 313Q182 291 175 241L140-2Q135-40 153-55Q171-70 221-70L216-134Q130-134 91.50-98Q53-62 64 12L96 242Q102 283 88.50 298.50Q75 314 33 314L43 384Q82 384 102 403Q122 422 128 464L160 694Q171 770 213 802Q255 834 348 834Z"  horiz-adv-x="318" vert-adv-y="1000"  />

      
      <glyph glyph-name="uni7c" unicode="&#x7c;" d="M313 806L187-102L110-102L237 806L313 806Z"  horiz-adv-x="399" vert-adv-y="1000"  />

      
      <glyph glyph-name="uni7d" unicode="&#x7d;" d="M-6-134L-1-70Q49-70 73.50-52.50Q98-35 103 4L137 246Q144 296 164.50 317.50Q185 339 227 352Q190 365 175 387Q160 409 167 459L202 702Q207 740 189 754.50Q171 769 121 769L126 834Q211 834 249.50 798Q288 762 278 688L246 458Q240 417 253 401.50Q266 386 309 386L299 316Q260 316 240 297Q220 278 214 236L182 6Q171-70 129-102Q87-134-6-134Z"  horiz-adv-x="317" vert-adv-y="1000"  />

      
      <glyph glyph-name="uni7e" unicode="&#x7e;" d="M316 253Q279 253 236.50 283.50Q194 314 174 314Q130 314 91 260L41 291Q102 381 181 381Q217 381 259 351Q301 321 323 321Q368 321 404 370L453 338Q393 253 316 253Z"  horiz-adv-x="479" vert-adv-y="1000"  />

      
      <glyph glyph-name="unia1" unicode="&#xa1;" d="M138 361Q113 361 96.50 378Q80 395 80 420Q80 449 100 469.50Q120 490 149 490Q175 490 191 473Q207 456 207 431Q207 402 187 381.50Q167 361 138 361M157 248L103-201L11-201L83 248L157 248Z"  horiz-adv-x="236" vert-adv-y="1000"  />

      
      <glyph glyph-name="unia2" unicode="&#xa2;" d="M320 468Q271 468 234.50 441.50Q198 415 178.50 373Q159 331 150 286Q141 241 141 196Q141 60 254 60Q312 60 378 101L412 43Q344-5 269-11L249-153L177-153L197-7Q128 8 91 62Q54 116 54 202Q54 271 74.50 338.50Q95 406 147 463.50Q199 521 274 534L295 683L367 683L347 537Q419 529 469 481L424 429Q379 468 320 468Z"  horiz-adv-x="471" vert-adv-y="1000"  />

      
      <glyph glyph-name="unia3" unicode="&#xa3;" d="M361 678Q468 678 526 595L469 556Q431 610 363 610Q312 610 279 579Q246 548 238 493L222 380L430 380L421 324L214 324L196 193Q189 143 172.50 116Q156 89 119 70L436 70L416 0L5 0L12 68Q65 87 85.50 113.50Q106 140 114 199L132 324L67 324L75 380L140 380L156 497Q168 578 222 628Q276 678 361 678Z"  horiz-adv-x="512" vert-adv-y="1000"  />

      
      <glyph glyph-name="unia4" unicode="&#xa4;" d="M487 341Q487 270 449 218L526 142L476 91L397 168Q347 135 278 135Q213 135 162 170L84 91L34 142L112 220Q75 272 75 341Q75 408 111 461L34 541L84 591L162 511Q213 546 278 546Q346 546 398 513L476 591L526 541L449 464Q487 411 487 341M187.50 239Q187.50 239 203.75 220.50Q220 202 281 202Q342 202 374 239Q406 276 406 342Q406 407 374 444Q342 481 281 481Q220 481 187.50 444Q155 407 155 342Q155 276 187.50 239Z"  horiz-adv-x="560" vert-adv-y="1000"  />

      
      <glyph glyph-name="unia5" unicode="&#xa5;" d="M576 668L340 344L453 344L445 287L309 287L296 194L431 194L424 137L288 137L269 0L183 0L203 137L66 137L73 194L211 194L225 287L87 287L95 344L209 344L64 668L155 668L279 369L487 668L576 668Z"  horiz-adv-x="525" vert-adv-y="1000"  />

      
      <glyph glyph-name="unia6" unicode="&#xa6;" d="M313 806L263 443L186 443L237 806L313 806M237 262L187-102L110-102L161 262L237 262Z"  horiz-adv-x="399" vert-adv-y="1000"  />

      
      <glyph glyph-name="unia7" unicode="&#xa7;" d="M323 442Q460 394 460 305Q460 262 437 229.50Q414 197 365 168Q407 133 407 78Q407 17 356.50-26.50Q306-70 205-70Q112-70 41-20L78 35Q132-4 209-4Q270-4 297 18Q324 40 324 74Q324 106 302 124Q280 142 216 164Q142 189 110.50 220Q79 251 79 299Q79 387 177 438Q134 475 134 527Q134 597 188.50 636.50Q243 676 325 676Q421 676 494 622L457 571Q395 611 325 611Q216 611 216 534Q216 502 238.50 482.50Q261 463 323 442M316 199Q351 223 365.50 245Q380 267 380 294Q380 323 360 343Q340 363 286 382Q259 391 223 408Q188 383 174.50 361Q161 339 161 309Q161 279 178.50 260Q196 241 244 226Q284 212 316 199Z"  horiz-adv-x="528" vert-adv-y="1000"  />

      
      <glyph glyph-name="unia8" unicode="&#xa8;" d="M142 656Q120 656 106.50 669.50Q93 683 93 703Q93 728 109.50 744.50Q126 761 151 761Q173 761 186.50 747.50Q200 734 200 714Q200 689 183.50 672.50Q167 656 142 656M345 656Q323 656 309.50 669.50Q296 683 296 703Q296 728 312.50 744.50Q329 761 354 761Q376 761 389.50 747.50Q403 734 403 714Q403 688 386.50 672Q370 656 345 656Z"  horiz-adv-x="371" vert-adv-y="1000"  />

      
      <glyph glyph-name="unia9" unicode="&#xa9;" d="M209.50 657Q209.50 657 254.25 701Q299 745 430 745Q561 745 649.50 657.50Q738 570 738 434Q738 300 649 212Q560 124 430 124Q299 124 209.50 212Q120 300 120 434Q120 569 209.50 657M430 696Q320 696 248.50 622.50Q177 549 177 434Q177 319 248.50 246.50Q320 174 430 174Q539 174 610.50 246.50Q682 319 682 434Q682 550 610.50 623Q539 696 430 696M432 623Q493 623 545 584L513 540Q476 567 435 567Q394 567 368.50 535Q343 503 343 435Q343 371 368 338.50Q393 306 435 306Q479 306 519 336L549 292Q498 247 433 247Q361 247 316.50 296.50Q272 346 272 435Q272 524 318 573.50Q364 623 432 623Z"  horiz-adv-x="810" vert-adv-y="1000"  />

      
      <glyph glyph-name="uniaa" unicode="&#xaa;" d="M204 272Q147 272 115 303.50Q83 335 83 385Q83 444 130 484Q177 524 285 524L348 524L352 547Q359 590 342.50 607Q326 624 282 624Q234 624 165 602L149 661Q226 688 297 688Q448 688 433 552L409 379Q406 358 410.50 346Q415 334 433 327L410 273Q347 279 336 332Q286 272 204 272M223 333Q287 333 330 392L342 473L285 473Q222 473 194.50 449Q167 425 167 388Q167 333 223 333M28 0L38 71L406 71L396 0L28 0Z"  horiz-adv-x="496" vert-adv-y="1000"  />

      
      <glyph glyph-name="uniab" unicode="&#xab;" d="M261 531L311 497L147 287L252 78L200 43L58 258L64 315L261 531M491 531L541 497L377 287L482 78L430 43L288 258L294 315L491 531Z"  horiz-adv-x="565" vert-adv-y="1000"  />

      
      <glyph glyph-name="uniac" unicode="&#xac;" d="M445 357L416 148L336 148L355 287L66 287L76 357L445 357Z"  horiz-adv-x="495" vert-adv-y="1000"  />

      
      <glyph glyph-name="uniad" unicode="&#xad;" d="M62 277L72 349L349 349L339 277L62 277Z"  horiz-adv-x="397" vert-adv-y="1000"  />

      
      <glyph glyph-name="uniae" unicode="&#xae;" d="M352 747Q459 747 531.50 673.50Q604 600 604 494Q604 388 531.50 315Q459 242 352 242Q248 242 175.50 315Q103 388 103 494Q103 599 175.50 673Q248 747 352 747M352 288Q439 288 495.50 346Q552 404 552 494Q552 584 495.50 642.50Q439 701 352 701Q267 701 211 642Q155 583 155 494Q155 404 211 346Q267 288 352 288M459 552Q459 495 394 476L468 360L405 360L344 467L317 467L317 360L263 360L263 635L339 635Q459 635 459 552M317 593L317 509L349 509Q404 509 404 552Q404 593 346 593L317 593Z"  horiz-adv-x="641" vert-adv-y="1000"  />

      
      <glyph glyph-name="uniaf" unicode="&#xaf;" d="M351 669L87 669L96 733L359 733L351 669Z"  horiz-adv-x="324" vert-adv-y="1000"  />

      
      <glyph glyph-name="unib0" unicode="&#xb0;" d="M236 384Q174 384 135 420Q96 456 96 520Q96 596 146.50 648Q197 700 271 700Q333 700 372.50 664Q412 628 412 564Q412 488 361 436Q310 384 236 384M238 443Q286 443 314 476.50Q342 510 342 565Q342 641 270 641Q222 641 193.50 607.50Q165 574 165 519Q165 443 238 443Z"  horiz-adv-x="517" vert-adv-y="1000"  />

      
      <glyph glyph-name="unib1" unicode="&#xb1;" d="M323 536L302 386L447 386L437 316L292 316L271 166L194 166L215 316L70 316L80 386L225 386L246 536L323 536M26 0L36 71L404 71L394 0L26 0Z"  horiz-adv-x="493" vert-adv-y="1000"  />

      
      <glyph glyph-name="unib2" unicode="&#xb2;" d="M259 745Q316 745 348 715.50Q380 686 380 638Q380 598 351.50 555Q323 512 287.50 480Q252 448 186 395Q173 385 167 380L355 380L339 322L76 322L84 378Q97 390 123 412Q149 434 161.50 445Q174 456 195 474.50Q216 493 227 504.50Q238 516 253.50 532Q269 548 276.50 559.50Q284 571 292.50 585Q301 599 304 612Q307 625 307 637Q307 661 292 674.50Q277 688 251 688Q203 688 157 640L114 680Q177 745 259 745Z"  horiz-adv-x="395" vert-adv-y="1000"  />

      
      <glyph glyph-name="unib3" unicode="&#xb3;" d="M261 745Q318 745 349.50 717.50Q381 690 381 648Q381 564 281 542Q319 538 343 516Q367 494 367 457Q367 396 319.50 354.50Q272 313 202 313Q116 313 69 374L114 409Q149 370 202 370Q244 370 269.50 394.50Q295 419 295 460Q295 490 277.50 502Q260 514 223 514L188 514L204 566L224 566Q262 566 286.50 588Q311 610 311 643Q311 691 253 691Q207 691 156 654L124 695Q186 745 261 745Z"  horiz-adv-x="395" vert-adv-y="1000"  />

      
      <glyph glyph-name="unib4" unicode="&#xb4;" d="M298 797L326 725L109 640L89 685L298 797Z"  horiz-adv-x="289" vert-adv-y="1000"  />

      
      <glyph glyph-name="unib5" unicode="&#xb5;" d="M467 176Q453 76 467-2L391-9Q378 33 380 89Q309-12 219-12Q164-12 135 26Q141-4 129-95L114-201L30-211L134 526L217 526L164 152Q150 58 232 58Q319 58 383 162L433 526L516 526L467 176Z"  horiz-adv-x="582" vert-adv-y="1000"  />

      
      <glyph glyph-name="unib6" unicode="&#xb6;" d="M391 688L641 688L516-201L441-213L557 620L435 620L322-201L246-213L316 286Q217 290 169 335.50Q121 381 121 455Q121 565 195 626.50Q269 688 391 688Z"  horiz-adv-x="723" vert-adv-y="1000"  />

      
      <glyph glyph-name="unib7" unicode="&#xb7;" d="M117 248Q92 248 75.50 265Q59 282 59 307Q59 336 79 356.50Q99 377 128 377Q154 377 170 360Q186 343 186 318Q186 289 166 268.50Q146 248 117 248Z"  horiz-adv-x="231" vert-adv-y="1000"  />

      
      <glyph glyph-name="unib8" unicode="&#xb8;" d="M109 16L96-58Q137-62 158-83Q179-104 179-137Q179-180 144.50-209Q110-238 53-238Q0-238-37-212L-8-166Q20-182 53-182Q78-182 93.50-170.50Q109-159 109-138Q109-116 91.50-107Q74-98 27-98L54 16L109 16Z"  horiz-adv-x="266" vert-adv-y="1000"  />

      
      <glyph glyph-name="unib9" unicode="&#xb9;" d="M334 738L275 322L205 322L253 665L147 607L122 656L271 738L334 738Z"  horiz-adv-x="395" vert-adv-y="1000"  />

      
      <glyph glyph-name="uniba" unicode="&#xba;" d="M304 688Q384 688 427 643.50Q470 599 470 520Q470 413 410.50 342.50Q351 272 252 272Q172 272 129 316.50Q86 361 86 440Q86 547 146 617.50Q206 688 304 688M303 624Q237 624 204 570Q171 516 171 436Q171 335 254 335Q319 335 352 390Q385 445 385 525Q385 624 303 624M26 0L36 71L404 71L394 0L26 0Z"  horiz-adv-x="495" vert-adv-y="1000"  />

      
      <glyph glyph-name="unibb" unicode="&#xbb;" d="M141 531L284 315L278 258L79 43L30 78L194 287L89 497L141 531M371 531L514 315L508 258L309 43L260 78L424 287L319 497L371 531Z"  horiz-adv-x="565" vert-adv-y="1000"  />

      
      <glyph glyph-name="unibc" unicode="&#xbc;" d="M698 749L750 723L236-76L183-50L698 749M198 272L246 615L140 557L115 606L264 688L327 688L268 272L198 272M854 153L845 98L793 98L779 0L710 0L724 98L539 98L545 148L711 423L769 400L621 153L732 153L754 261L816 261L801 153L854 153Z"  horiz-adv-x="913" vert-adv-y="1000"  />

      
      <glyph glyph-name="unibd" unicode="&#xbd;" d="M698 749L750 723L236-76L183-50L698 749M327 688L268 272L198 272L246 615L140 557L115 606L264 688L327 688M732 423Q789 423 821 393.50Q853 364 853 316Q853 276 824.50 233Q796 190 760.50 158Q725 126 659 73Q646 63 640 58L828 58L812 0L549 0L557 56Q570 68 596 90Q622 112 634.50 123Q647 134 668 152.50Q689 171 700 182.50Q711 194 726.50 210Q742 226 749.50 237.50Q757 249 765.50 263Q774 277 777 290Q780 303 780 315Q780 339 765 352.50Q750 366 724 366Q676 366 630 318L587 358Q650 423 732 423Z"  horiz-adv-x="913" vert-adv-y="1000"  />

      
      <glyph glyph-name="unibe" unicode="&#xbe;" d="M698 749L750 723L236-76L183-50L698 749M360 407Q360 346 312.50 304.50Q265 263 195 263Q109 263 62 324L107 359Q142 320 195 320Q237 320 262.50 344.50Q288 369 288 410Q288 440 270.50 452Q253 464 216 464L181 464L197 516L217 516Q255 516 279.50 538Q304 560 304 593Q304 641 246 641Q200 641 149 604L117 645Q179 695 254 695Q311 695 342.50 667.50Q374 640 374 598Q374 514 274 492Q312 488 336 466Q360 444 360 407M854 153L845 98L793 98L779 0L710 0L724 98L539 98L545 148L711 423L769 400L621 153L732 153L754 261L816 261L801 153L854 153Z"  horiz-adv-x="913" vert-adv-y="1000"  />

      
      <glyph glyph-name="unibf" unicode="&#xbf;" d="M269 507Q294 507 310.50 490Q327 473 327 448Q327 419 307 398.50Q287 378 258 378Q232 378 216 395Q200 412 200 437Q200 466 220 486.50Q240 507 269 507M154-214Q73-214 29.50-174.50Q-14-135-14-76Q-14-22 11 15.50Q36 53 71.50 73.50Q107 94 142.50 112Q178 130 203 157Q228 184 228 223Q228 242 225 255L300 268Q310 241 310 217Q310 168 285.50 133.50Q261 99 226 79Q191 59 156 40.50Q121 22 96.50-6.50Q72-35 72-74Q72-107 95.50-125.50Q119-144 161-144Q243-144 314-70L366-118Q273-214 154-214Z"  horiz-adv-x="452" vert-adv-y="1000"  />

      
      <glyph glyph-name="unic0" unicode="&#xc0;" d="M476 800L449 755L254 831L293 902L476 800M432 0L403 176L137 176L59 0L-29 0L289 688L397 688L520 0L432 0M168 247L392 247L332 616L168 247Z"  horiz-adv-x="566" vert-adv-y="1000"  />

      
      <glyph glyph-name="unic1" unicode="&#xc1;" d="M476 832L259 756L242 801L448 903L476 832M432 0L403 176L137 176L59 0L-29 0L289 688L397 688L520 0L432 0M168 247L392 247L332 616L168 247Z"  horiz-adv-x="566" vert-adv-y="1000"  />

      
      <glyph glyph-name="unic2" unicode="&#xc2;" d="M363 841L229 760L195 801L342 909L396 909L514 801L477 760L363 841M432 0L403 176L137 176L59 0L-29 0L289 688L397 688L520 0L432 0M168 247L392 247L332 616L168 247Z"  horiz-adv-x="566" vert-adv-y="1000"  />

      
      <glyph glyph-name="unic3" unicode="&#xc3;" d="M310 832Q278 832 247 785L199 815Q251 896 311 896Q342 896 373.50 872.50Q405 849 419 849Q448 849 481 894L530 865Q481 784 421 784Q389 784 356 808Q323 832 310 832M289 688L397 688L520 0L432 0L403 176L137 176L59 0L-29 0L289 688M168 247L392 247L332 616L168 247Z"  horiz-adv-x="566" vert-adv-y="1000"  />

      
      <glyph glyph-name="unic4" unicode="&#xc4;" d="M259 782Q237 782 223.50 795.50Q210 809 210 829Q210 854 226.50 870.50Q243 887 268 887Q290 887 303.50 873.50Q317 860 317 840Q317 815 300.50 798.50Q284 782 259 782M462 782Q440 782 426.50 795.50Q413 809 413 829Q413 854 429.50 870.50Q446 887 471 887Q493 887 506.50 873.50Q520 860 520 840Q520 814 504 798Q488 782 462 782M289 688L397 688L520 0L432 0L403 176L137 176L59 0L-29 0L289 688M168 247L392 247L332 616L168 247Z"  horiz-adv-x="566" vert-adv-y="1000"  />

      
      <glyph glyph-name="unic5" unicode="&#xc5;" d="M359 752Q315 752 287 778.50Q259 805 259 845Q259 892 294 925Q329 958 379 958Q423 958 451 931.50Q479 905 479 865Q479 818 444 785Q409 752 359 752M378 912Q349 912 332.50 893Q316 874 316 846Q316 799 360 799Q390 799 406.50 819Q423 839 423 865Q423 912 378 912M432 0L403 176L137 176L59 0L-29 0L289 688L397 688L520 0L432 0M168 247L392 247L332 616L168 247Z"  horiz-adv-x="566" vert-adv-y="1000"  />

      
      <glyph glyph-name="unic6" unicode="&#xc6;" d="M748 618L437 618L463 385L716 385L707 315L471 315L498 70L723 70L713 0L422 0L405 176L135 176L45 0L-46 0L319 688L768 688L748 618M171 246L398 246L362 619L171 246Z"  horiz-adv-x="801" vert-adv-y="1000"  />

      
      <glyph glyph-name="unic7" unicode="&#xc7;" d="M399 628Q333 628 283.50 593Q234 558 207 501.50Q180 445 167 384Q154 323 154 260Q154 159 196.50 110.50Q239 62 311 62Q387 62 467 121L506 62Q429-3 332-11L324-58Q365-62 386-83Q407-104 407-137Q407-180 372.50-209Q338-238 281-238Q228-238 191-212L220-166Q248-182 281-182Q306-182 321.50-170.50Q337-159 337-138Q337-116 319.50-107Q302-98 255-98L276-11Q178-1 120.50 71Q63 143 63 267Q63 324 74.50 382.50Q86 441 111.50 498.50Q137 556 174.50 600.50Q212 645 269 672.50Q326 700 395 700Q502 700 577 630L527 582Q468 628 399 628Z"  horiz-adv-x="553" vert-adv-y="1000"  />

      
      <glyph glyph-name="unic8" unicode="&#xc8;" d="M297 902L480 800L453 755L258 831L297 902M525 688L506 618L237 618L204 386L437 386L428 316L195 316L161 70L446 70L436 0L65 0L162 688L525 688Z"  horiz-adv-x="524" vert-adv-y="1000"  />

      
      <glyph glyph-name="unic9" unicode="&#xc9;" d="M452 903L480 832L263 756L246 801L452 903M525 688L506 618L237 618L204 386L437 386L428 316L195 316L161 70L446 70L436 0L65 0L162 688L525 688Z"  horiz-adv-x="524" vert-adv-y="1000"  />

      
      <glyph glyph-name="unica" unicode="&#xca;" d="M233 760L199 801L346 909L400 909L518 801L481 760L367 841L233 760M525 688L506 618L237 618L204 386L437 386L428 316L195 316L161 70L446 70L436 0L65 0L162 688L525 688Z"  horiz-adv-x="524" vert-adv-y="1000"  />

      
      <glyph glyph-name="unicb" unicode="&#xcb;" d="M263 782Q241 782 227.50 795.50Q214 809 214 829Q214 854 230.50 870.50Q247 887 272 887Q294 887 307.50 873.50Q321 860 321 840Q321 815 304.50 798.50Q288 782 263 782M466 782Q444 782 430.50 795.50Q417 809 417 829Q417 854 433.50 870.50Q450 887 475 887Q497 887 510.50 873.50Q524 860 524 840Q524 814 508 798Q492 782 466 782M525 688L506 618L237 618L204 386L437 386L428 316L195 316L161 70L446 70L436 0L65 0L162 688L525 688Z"  horiz-adv-x="524" vert-adv-y="1000"  />

      
      <glyph glyph-name="unicc" unicode="&#xcc;" d="M155 902L338 800L311 755L116 831L155 902M247 688L150 0L65 0L162 688L247 688Z"  horiz-adv-x="289" vert-adv-y="1000"  />

      
      <glyph glyph-name="unicd" unicode="&#xcd;" d="M310 903L338 832L121 756L104 801L310 903M247 688L150 0L65 0L162 688L247 688Z"  horiz-adv-x="289" vert-adv-y="1000"  />

      
      <glyph glyph-name="unice" unicode="&#xce;" d="M91 760L57 801L204 909L258 909L376 801L339 760L225 841L91 760M247 688L150 0L65 0L162 688L247 688Z"  horiz-adv-x="289" vert-adv-y="1000"  />

      
      <glyph glyph-name="unicf" unicode="&#xcf;" d="M121 782Q99 782 85.50 795.50Q72 809 72 829Q72 854 88.50 870.50Q105 887 130 887Q152 887 165.50 873.50Q179 860 179 840Q179 815 162.50 798.50Q146 782 121 782M324 782Q302 782 288.50 795.50Q275 809 275 829Q275 854 291.50 870.50Q308 887 333 887Q355 887 368.50 873.50Q382 860 382 840Q382 814 366 798Q350 782 324 782M247 688L150 0L65 0L162 688L247 688Z"  horiz-adv-x="289" vert-adv-y="1000"  />

      
      <glyph glyph-name="unid0" unicode="&#xd0;" d="M310 688Q359 688 399.50 681.50Q440 675 479.50 657.50Q519 640 545.50 612Q572 584 588.50 537Q605 490 605 428Q605 342 584.50 268Q564 194 522 132.50Q480 71 406.50 35.50Q333 0 235 0L74 0L119 321L31 321L40 385L128 385L171 688L310 688M248 69Q307 69 354.50 90.50Q402 112 432 147.50Q462 183 482 230.50Q502 278 510 327.50Q518 377 518 430Q518 489 502 528.50Q486 568 455.50 586.50Q425 605 394 611.50Q363 618 321 618L246 618L214 385L376 385L368 321L205 321L170 69L248 69Z"  horiz-adv-x="646" vert-adv-y="1000"  />

      
      <glyph glyph-name="unid1" unicode="&#xd1;" d="M486 784Q454 784 421 808Q388 832 375 832Q343 832 312 785L264 815Q316 896 376 896Q407 896 438.50 872.50Q470 849 484 849Q513 849 546 894L595 865Q546 784 486 784M633 688L537 0L425 0L218 613Q217 503 192 329L146 0L65 0L162 688L274 688L482 75Q482 181 498 305L552 688L633 688Z"  horiz-adv-x="675" vert-adv-y="1000"  />

      
      <glyph glyph-name="unid2" unicode="&#xd2;" d="M357 902L540 800L513 755L318 831L357 902M402 700Q516 700 581 628Q646 556 646 422Q646 349 628 277Q610 205 572.50 138Q535 71 466.50 29.50Q398-12 308-12Q194-12 128.50 60Q63 132 63 264Q63 320 73.50 377Q84 434 109.50 493Q135 552 173 597.50Q211 643 270 671.50Q329 700 402 700M399 628Q331 628 280.50 592Q230 556 203.50 497.50Q177 439 165 380Q153 321 153 261Q153 60 311 60Q380 60 430.50 96.50Q481 133 507 191.50Q533 250 545 309.50Q557 369 557 428Q557 628 399 628Z"  horiz-adv-x="687" vert-adv-y="1000"  />

      
      <glyph glyph-name="unid3" unicode="&#xd3;" d="M512 903L540 832L323 756L306 801L512 903M402 700Q516 700 581 628Q646 556 646 422Q646 349 628 277Q610 205 572.50 138Q535 71 466.50 29.50Q398-12 308-12Q194-12 128.50 60Q63 132 63 264Q63 320 73.50 377Q84 434 109.50 493Q135 552 173 597.50Q211 643 270 671.50Q329 700 402 700M399 628Q331 628 280.50 592Q230 556 203.50 497.50Q177 439 165 380Q153 321 153 261Q153 60 311 60Q380 60 430.50 96.50Q481 133 507 191.50Q533 250 545 309.50Q557 369 557 428Q557 628 399 628Z"  horiz-adv-x="687" vert-adv-y="1000"  />

      
      <glyph glyph-name="unid4" unicode="&#xd4;" d="M293 760L259 801L406 909L460 909L578 801L541 760L427 841L293 760M402 700Q516 700 581 628Q646 556 646 422Q646 349 628 277Q610 205 572.50 138Q535 71 466.50 29.50Q398-12 308-12Q194-12 128.50 60Q63 132 63 264Q63 320 73.50 377Q84 434 109.50 493Q135 552 173 597.50Q211 643 270 671.50Q329 700 402 700M399 628Q331 628 280.50 592Q230 556 203.50 497.50Q177 439 165 380Q153 321 153 261Q153 60 311 60Q380 60 430.50 96.50Q481 133 507 191.50Q533 250 545 309.50Q557 369 557 428Q557 628 399 628Z"  horiz-adv-x="687" vert-adv-y="1000"  />

      
      <glyph glyph-name="unid5" unicode="&#xd5;" d="M485 784Q453 784 420 808Q387 832 374 832Q342 832 311 785L263 815Q315 896 375 896Q406 896 437.50 872.50Q469 849 483 849Q512 849 545 894L594 865Q545 784 485 784M402 700Q516 700 581 628Q646 556 646 422Q646 349 628 277Q610 205 572.50 138Q535 71 466.50 29.50Q398-12 308-12Q194-12 128.50 60Q63 132 63 264Q63 320 73.50 377Q84 434 109.50 493Q135 552 173 597.50Q211 643 270 671.50Q329 700 402 700M399 628Q331 628 280.50 592Q230 556 203.50 497.50Q177 439 165 380Q153 321 153 261Q153 60 311 60Q380 60 430.50 96.50Q481 133 507 191.50Q533 250 545 309.50Q557 369 557 428Q557 628 399 628Z"  horiz-adv-x="687" vert-adv-y="1000"  />

      
      <glyph glyph-name="unid6" unicode="&#xd6;" d="M323 782Q301 782 287.50 795.50Q274 809 274 829Q274 854 290.50 870.50Q307 887 332 887Q354 887 367.50 873.50Q381 860 381 840Q381 815 364.50 798.50Q348 782 323 782M526 782Q504 782 490.50 795.50Q477 809 477 829Q477 854 493.50 870.50Q510 887 535 887Q557 887 570.50 873.50Q584 860 584 840Q584 814 568 798Q552 782 526 782M402 700Q516 700 581 628Q646 556 646 422Q646 349 628 277Q610 205 572.50 138Q535 71 466.50 29.50Q398-12 308-12Q194-12 128.50 60Q63 132 63 264Q63 320 73.50 377Q84 434 109.50 493Q135 552 173 597.50Q211 643 270 671.50Q329 700 402 700M399 628Q331 628 280.50 592Q230 556 203.50 497.50Q177 439 165 380Q153 321 153 261Q153 60 311 60Q380 60 430.50 96.50Q481 133 507 191.50Q533 250 545 309.50Q557 369 557 428Q557 628 399 628Z"  horiz-adv-x="687" vert-adv-y="1000"  />

      
      <glyph glyph-name="unid7" unicode="&#xd7;" d="M397 482L443 430L306 308L411 183L353 133L250 257L110 133L64 185L201 306L97 432L154 482L257 357L397 482Z"  horiz-adv-x="494" vert-adv-y="1000"  />

      
      <glyph glyph-name="unid8" unicode="&#xd8;" d="M536 666Q646 597 646 422Q646 349 628 277Q610 205 572.50 138Q535 71 466.50 29.50Q398-12 308-12Q273-12 239-4L186-125L115-106L173 23Q63 92 63 264Q63 320 73.50 377Q84 434 109.50 493Q135 552 173 597.50Q211 643 270 671.50Q329 700 402 700Q436 700 470 692L524 817L595 797L536 666M399 628Q331 628 280.50 592Q230 556 203.50 497Q177 438 165 377.50Q153 317 153 255Q153 133 211 89L447 623Q422 628 399 628M311 60Q380 60 430.50 96.50Q481 133 507 192.50Q533 252 545 313Q557 374 557 437Q557 558 497 602L262 65Q287 60 311 60Z"  horiz-adv-x="687" vert-adv-y="1000"  />

      
      <glyph glyph-name="unid9" unicode="&#xd9;" d="M337 902L520 800L493 755L298 831L337 902M622 688L556 217Q542 113 472 50.50Q402-12 291-12Q177-12 124 52.50Q71 117 86 222L152 688L237 688L172 223Q161 141 190.50 101.50Q220 62 295 62Q449 62 472 229L537 688L622 688Z"  horiz-adv-x="654" vert-adv-y="1000"  />

      
      <glyph glyph-name="unida" unicode="&#xda;" d="M492 903L520 832L303 756L286 801L492 903M622 688L556 217Q542 113 472 50.50Q402-12 291-12Q177-12 124 52.50Q71 117 86 222L152 688L237 688L172 223Q161 141 190.50 101.50Q220 62 295 62Q449 62 472 229L537 688L622 688Z"  horiz-adv-x="654" vert-adv-y="1000"  />

      
      <glyph glyph-name="unidb" unicode="&#xdb;" d="M273 760L239 801L386 909L440 909L558 801L521 760L407 841L273 760M622 688L556 217Q542 113 472 50.50Q402-12 291-12Q177-12 124 52.50Q71 117 86 222L152 688L237 688L172 223Q161 141 190.50 101.50Q220 62 295 62Q449 62 472 229L537 688L622 688Z"  horiz-adv-x="654" vert-adv-y="1000"  />

      
      <glyph glyph-name="unidc" unicode="&#xdc;" d="M303 782Q281 782 267.50 795.50Q254 809 254 829Q254 854 270.50 870.50Q287 887 312 887Q334 887 347.50 873.50Q361 860 361 840Q361 815 344.50 798.50Q328 782 303 782M506 782Q484 782 470.50 795.50Q457 809 457 829Q457 854 473.50 870.50Q490 887 515 887Q537 887 550.50 873.50Q564 860 564 840Q564 814 548 798Q532 782 506 782M622 688L556 217Q542 113 472 50.50Q402-12 291-12Q177-12 124 52.50Q71 117 86 222L152 688L237 688L172 223Q161 141 190.50 101.50Q220 62 295 62Q449 62 472 229L537 688L622 688Z"  horiz-adv-x="654" vert-adv-y="1000"  />

      
      <glyph glyph-name="unidd" unicode="&#xdd;" d="M436 903L464 832L247 756L230 801L436 903M592 688L313 266L276 0L189 0L227 265L67 688L157 688L278 342L498 688L592 688Z"  horiz-adv-x="538" vert-adv-y="1000"  />

      
      <glyph glyph-name="unide" unicode="&#xde;" d="M317 569Q554 569 554 385Q554 337 539 294Q524 251 492 212.50Q460 174 400.50 151.50Q341 129 260 129L168 129L150 0L65 0L162 688L247 688L230 569L317 569M262 198Q370 198 416.50 251Q463 304 463 385Q463 448 425 474.50Q387 501 312 501L221 501L178 198L262 198Z"  horiz-adv-x="573" vert-adv-y="1000"  />

      
      <glyph glyph-name="unidf" unicode="&#xdf;" d="M-44-211L-67-148Q-5-120 24-86Q53-52 64 27L136 542Q149 640 207.50 694Q266 748 357 748Q431 748 474 712.50Q517 677 517 622Q517 588 503 561Q489 534 468.50 518Q448 502 427.50 487.50Q407 473 393 456.50Q379 440 379 421Q379 400 394.50 381Q410 362 432.50 344.50Q455 327 477.50 306Q500 285 515.50 251Q531 217 531 174Q531 104 479 46Q427-12 334-12Q267-12 215 19L246 75Q284 56 328 56Q388 56 417.50 92Q447 128 447 171Q447 204 432 231.50Q417 259 395 278Q373 297 351 315.50Q329 334 314 357.50Q299 381 299 409Q299 440 313 464Q327 488 347.50 503.50Q368 519 388.50 534Q409 549 423 570.50Q437 592 437 619Q437 650 414.50 666Q392 682 356 682Q300 682 264 645Q228 608 218 536L147 26Q132-77 90.50-124Q49-171-44-211Z"  horiz-adv-x="585" vert-adv-y="1000"  />

      
      <glyph glyph-name="unie0" unicode="&#xe0;" d="M304 797L484 685L457 640L262 725L304 797M330 538Q418 538 511 493L457 119Q452 88 458 71.50Q464 55 488 46L465-12Q425-6 403 15Q381 36 377 78Q310-12 219-12Q140-12 96 42.50Q52 97 52 190Q52 235 61 281.50Q70 328 91.50 374.50Q113 421 144 457Q175 493 223.50 515.50Q272 538 330 538M332 471Q282 471 243.50 444Q205 417 183.50 374Q162 331 151.50 284Q141 237 141 190Q141 55 236 55Q310 55 380 156L422 452Q381 471 332 471Z"  horiz-adv-x="567" vert-adv-y="1000"  />

      
      <glyph glyph-name="unie1" unicode="&#xe1;" d="M456 797L484 725L267 640L247 685L456 797M330 538Q418 538 511 493L457 119Q452 88 458 71.50Q464 55 488 46L465-12Q425-6 403 15Q381 36 377 78Q310-12 219-12Q140-12 96 42.50Q52 97 52 190Q52 235 61 281.50Q70 328 91.50 374.50Q113 421 144 457Q175 493 223.50 515.50Q272 538 330 538M332 471Q282 471 243.50 444Q205 417 183.50 374Q162 331 151.50 284Q141 237 141 190Q141 55 236 55Q310 55 380 156L422 452Q381 471 332 471Z"  horiz-adv-x="567" vert-adv-y="1000"  />

      
      <glyph glyph-name="unie2" unicode="&#xe2;" d="M231 636L197 678L345 789L399 789L517 678L476 636L364 720L231 636M330 538Q418 538 511 493L457 119Q452 88 458 71.50Q464 55 488 46L465-12Q425-6 403 15Q381 36 377 78Q310-12 219-12Q140-12 96 42.50Q52 97 52 190Q52 235 61 281.50Q70 328 91.50 374.50Q113 421 144 457Q175 493 223.50 515.50Q272 538 330 538M332 471Q282 471 243.50 444Q205 417 183.50 374Q162 331 151.50 284Q141 237 141 190Q141 55 236 55Q310 55 380 156L422 452Q381 471 332 471Z"  horiz-adv-x="567" vert-adv-y="1000"  />

      
      <glyph glyph-name="unie3" unicode="&#xe3;" d="M421 658Q389 658 356 682Q323 706 310 706Q278 706 247 659L199 689Q251 770 311 770Q342 770 373.50 746.50Q405 723 419 723Q448 723 481 768L530 739Q481 658 421 658M330 538Q418 538 511 493L457 119Q452 88 458 71.50Q464 55 488 46L465-12Q425-6 403 15Q381 36 377 78Q310-12 219-12Q140-12 96 42.50Q52 97 52 190Q52 235 61 281.50Q70 328 91.50 374.50Q113 421 144 457Q175 493 223.50 515.50Q272 538 330 538M332 471Q282 471 243.50 444Q205 417 183.50 374Q162 331 151.50 284Q141 237 141 190Q141 55 236 55Q310 55 380 156L422 452Q381 471 332 471Z"  horiz-adv-x="567" vert-adv-y="1000"  />

      
      <glyph glyph-name="unie4" unicode="&#xe4;" d="M257 656Q235 656 221.50 669.50Q208 683 208 703Q208 728 224.50 744.50Q241 761 266 761Q288 761 301.50 747.50Q315 734 315 714Q315 689 298.50 672.50Q282 656 257 656M460 656Q438 656 424.50 669.50Q411 683 411 703Q411 728 427.50 744.50Q444 761 469 761Q491 761 504.50 747.50Q518 734 518 714Q518 688 502 672Q486 656 460 656M330 538Q418 538 511 493L457 119Q452 88 458 71.50Q464 55 488 46L465-12Q425-6 403 15Q381 36 377 78Q310-12 219-12Q140-12 96 42.50Q52 97 52 190Q52 235 61 281.50Q70 328 91.50 374.50Q113 421 144 457Q175 493 223.50 515.50Q272 538 330 538M332 471Q282 471 243.50 444Q205 417 183.50 374Q162 331 151.50 284Q141 237 141 190Q141 55 236 55Q310 55 380 156L422 452Q381 471 332 471Z"  horiz-adv-x="567" vert-adv-y="1000"  />

      
      <glyph glyph-name="unie5" unicode="&#xe5;" d="M377 832Q421 832 449 805.50Q477 779 477 739Q477 692 442 659Q407 626 357 626Q313 626 285 652.50Q257 679 257 719Q257 766 292 799Q327 832 377 832M376 786Q347 786 330.50 767Q314 748 314 720Q314 673 358 673Q388 673 404.50 693Q421 713 421 739Q421 786 376 786M330 538Q418 538 511 493L457 119Q452 88 458 71.50Q464 55 488 46L465-12Q425-6 403 15Q381 36 377 78Q310-12 219-12Q140-12 96 42.50Q52 97 52 190Q52 235 61 281.50Q70 328 91.50 374.50Q113 421 144 457Q175 493 223.50 515.50Q272 538 330 538M332 471Q282 471 243.50 444Q205 417 183.50 374Q162 331 151.50 284Q141 237 141 190Q141 55 236 55Q310 55 380 156L422 452Q381 471 332 471Z"  horiz-adv-x="567" vert-adv-y="1000"  />

      
      <glyph glyph-name="unie6" unicode="&#xe6;" d="M285 538Q406 538 442 450Q508 538 624 538Q702 538 745.50 500Q789 462 789 406Q789 353 762.50 315Q736 277 684.50 255Q633 233 575.50 221Q518 209 438 202Q439 59 561 59Q634 59 704 109L740 52Q651-12 553-12Q427-12 380 84Q300-12 185-12Q112-12 70.50 26Q29 64 29 127Q29 205 89.50 256Q150 307 282 307L368 307Q376 345 389 384Q387 422 355.50 445.50Q324 469 273 469Q213 469 133 442L116 506Q202 538 285 538M624 471Q570 471 530 439Q490 407 470.50 363.50Q451 320 443 266Q577 280 639 309Q701 338 701 403Q701 429 682.50 450Q664 471 624 471M359 249L289 249Q120 249 120 126Q120 52 199 52Q288 52 360 149Q357 163 357 199Q357 235 359 249Z"  horiz-adv-x="817" vert-adv-y="1000"  />

      
      <glyph glyph-name="unie7" unicode="&#xe7;" d="M320 468Q271 468 234.50 441.50Q198 415 178.50 373Q159 331 150 286Q141 241 141 196Q141 60 254 60Q312 60 378 101L412 43Q340-8 263-12L255-58Q296-62 317-83Q338-104 338-137Q338-180 303.50-209Q269-238 212-238Q159-238 122-212L151-166Q179-182 212-182Q237-182 252.50-170.50Q268-159 268-138Q268-116 250.50-107Q233-98 186-98L207-9Q134 4 94 58.50Q54 113 54 202Q54 257 68.50 313Q83 369 113 421Q143 473 196.50 505.50Q250 538 319 538Q409 538 469 481L424 429Q379 468 320 468Z"  horiz-adv-x="471" vert-adv-y="1000"  />

      
      <glyph glyph-name="unie8" unicode="&#xe8;" d="M460 685L433 640L238 725L280 797L460 685M488 406Q488 363 469.50 330Q451 297 421.50 275.50Q392 254 345.50 238Q299 222 251 213.50Q203 205 141 198Q142 59 260 59Q333 59 402 109L438 52Q351-12 252-12Q157-12 105.50 44.50Q54 101 54 201Q54 247 63 292Q72 337 92.50 382Q113 427 143 461Q173 495 220 516.50Q267 538 324 538Q402 538 445 500Q488 462 488 406M145 263Q275 276 337.50 307Q400 338 400 403Q400 429 381.50 450Q363 471 323 471Q269 471 229.50 438.50Q190 406 171.50 362Q153 318 145 263Z"  horiz-adv-x="516" vert-adv-y="1000"  />

      
      <glyph glyph-name="unie9" unicode="&#xe9;" d="M460 725L243 640L223 685L432 797L460 725M488 406Q488 363 469.50 330Q451 297 421.50 275.50Q392 254 345.50 238Q299 222 251 213.50Q203 205 141 198Q142 59 260 59Q333 59 402 109L438 52Q351-12 252-12Q157-12 105.50 44.50Q54 101 54 201Q54 247 63 292Q72 337 92.50 382Q113 427 143 461Q173 495 220 516.50Q267 538 324 538Q402 538 445 500Q488 462 488 406M145 263Q275 276 337.50 307Q400 338 400 403Q400 429 381.50 450Q363 471 323 471Q269 471 229.50 438.50Q190 406 171.50 362Q153 318 145 263Z"  horiz-adv-x="516" vert-adv-y="1000"  />

      
      <glyph glyph-name="uniea" unicode="&#xea;" d="M340 720L207 636L173 678L321 789L375 789L493 678L452 636L340 720M324 538Q402 538 445 500Q488 462 488 406Q488 363 469.50 330Q451 297 421.50 275.50Q392 254 345.50 238Q299 222 251 213.50Q203 205 141 198Q142 59 260 59Q333 59 402 109L438 52Q351-12 252-12Q157-12 105.50 44.50Q54 101 54 201Q54 247 63 292Q72 337 92.50 382Q113 427 143 461Q173 495 220 516.50Q267 538 324 538M145 263Q275 276 337.50 307Q400 338 400 403Q400 429 381.50 450Q363 471 323 471Q269 471 229.50 438.50Q190 406 171.50 362Q153 318 145 263Z"  horiz-adv-x="516" vert-adv-y="1000"  />

      
      <glyph glyph-name="unieb" unicode="&#xeb;" d="M233 656Q211 656 197.50 669.50Q184 683 184 703Q184 728 200.50 744.50Q217 761 242 761Q264 761 277.50 747.50Q291 734 291 714Q291 689 274.50 672.50Q258 656 233 656M436 656Q414 656 400.50 669.50Q387 683 387 703Q387 728 403.50 744.50Q420 761 445 761Q467 761 480.50 747.50Q494 734 494 714Q494 688 478 672Q462 656 436 656M324 538Q402 538 445 500Q488 462 488 406Q488 363 469.50 330Q451 297 421.50 275.50Q392 254 345.50 238Q299 222 251 213.50Q203 205 141 198Q142 59 260 59Q333 59 402 109L438 52Q351-12 252-12Q157-12 105.50 44.50Q54 101 54 201Q54 247 63 292Q72 337 92.50 382Q113 427 143 461Q173 495 220 516.50Q267 538 324 538M145 263Q275 276 337.50 307Q400 338 400 403Q400 429 381.50 450Q363 471 323 471Q269 471 229.50 438.50Q190 406 171.50 362Q153 318 145 263Z"  horiz-adv-x="516" vert-adv-y="1000"  />

      
      <glyph glyph-name="uniec" unicode="&#xec;" d="M141 797L321 685L294 640L99 725L141 797M217 526L143 0L60 0L134 526L217 526Z"  horiz-adv-x="277" vert-adv-y="1000"  />

      
      <glyph glyph-name="unied" unicode="&#xed;" d="M293 797L321 725L104 640L84 685L293 797M217 526L143 0L60 0L134 526L217 526Z"  horiz-adv-x="277" vert-adv-y="1000"  />

      
      <glyph glyph-name="uniee" unicode="&#xee;" d="M68 636L34 678L182 789L236 789L354 678L313 636L201 720L68 636M217 526L143 0L60 0L134 526L217 526Z"  horiz-adv-x="277" vert-adv-y="1000"  />

      
      <glyph glyph-name="unief" unicode="&#xef;" d="M94 656Q72 656 58.50 669.50Q45 683 45 703Q45 728 61.50 744.50Q78 761 103 761Q125 761 138.50 747.50Q152 734 152 714Q152 689 135.50 672.50Q119 656 94 656M297 656Q275 656 261.50 669.50Q248 683 248 703Q248 728 264.50 744.50Q281 761 306 761Q328 761 341.50 747.50Q355 734 355 714Q355 688 338.50 672Q322 656 297 656M217 526L143 0L60 0L134 526L217 526Z"  horiz-adv-x="277" vert-adv-y="1000"  />

      
      <glyph glyph-name="unif0" unicode="&#xf0;" d="M388 660Q508 561 508 379Q508 209 439.50 98.50Q371-12 239-12Q155-12 103 41.50Q51 95 51 188Q51 236 64.50 284.50Q78 333 104.50 376Q131 419 177.50 446Q224 473 282 473Q375 473 426 408Q420 537 336 615L252 542L197 571L285 649Q234 672 176 684L198 748Q282 731 337 697L419 773L463 730L388 660M241 55Q298 55 338.50 95.50Q379 136 397.50 194.50Q416 253 422 329Q380 407 293 407Q249 407 216.50 386.50Q184 366 167.50 331.50Q151 297 143.50 261.50Q136 226 136 187Q136 122 163.50 88.50Q191 55 241 55Z"  horiz-adv-x="572" vert-adv-y="1000"  />

      
      <glyph glyph-name="unif1" unicode="&#xf1;" d="M410 658Q378 658 345 682Q312 706 299 706Q267 706 236 659L188 689Q240 770 300 770Q331 770 362.50 746.50Q394 723 408 723Q437 723 470 768L519 739Q470 658 410 658M382 538Q448 538 481.50 492.50Q515 447 504 370L452 0L369 0L421 368Q434 468 360 468Q271 468 187 315L143 0L60 0L134 526L205 526L195 417Q278 538 382 538Z"  horiz-adv-x="580" vert-adv-y="1000"  />

      
      <glyph glyph-name="unif2" unicode="&#xf2;" d="M291 797L471 685L444 640L249 725L291 797M253-12Q157-12 105.50 45.50Q54 103 54 205Q54 247 62 290Q70 333 90.50 378Q111 423 140.50 458Q170 493 217.50 515.50Q265 538 324 538Q420 538 471 481Q522 424 522 322Q522 269 508 215Q494 161 465 108Q436 55 381 21.50Q326-12 253-12M255 56Q305 56 342 83.50Q379 111 398 155Q417 199 426 243Q435 287 435 330Q435 470 321 470Q271 470 234 442.50Q197 415 178 371Q159 327 150 283Q141 239 141 196Q141 56 255 56Z"  horiz-adv-x="576" vert-adv-y="1000"  />

      
      <glyph glyph-name="unif3" unicode="&#xf3;" d="M443 797L471 725L254 640L234 685L443 797M253-12Q157-12 105.50 45.50Q54 103 54 205Q54 247 62 290Q70 333 90.50 378Q111 423 140.50 458Q170 493 217.50 515.50Q265 538 324 538Q420 538 471 481Q522 424 522 322Q522 269 508 215Q494 161 465 108Q436 55 381 21.50Q326-12 253-12M255 56Q305 56 342 83.50Q379 111 398 155Q417 199 426 243Q435 287 435 330Q435 470 321 470Q271 470 234 442.50Q197 415 178 371Q159 327 150 283Q141 239 141 196Q141 56 255 56Z"  horiz-adv-x="576" vert-adv-y="1000"  />

      
      <glyph glyph-name="unif4" unicode="&#xf4;" d="M218 636L184 678L332 789L386 789L504 678L463 636L351 720L218 636M253-12Q157-12 105.50 45.50Q54 103 54 205Q54 247 62 290Q70 333 90.50 378Q111 423 140.50 458Q170 493 217.50 515.50Q265 538 324 538Q420 538 471 481Q522 424 522 322Q522 269 508 215Q494 161 465 108Q436 55 381 21.50Q326-12 253-12M255 56Q305 56 342 83.50Q379 111 398 155Q417 199 426 243Q435 287 435 330Q435 470 321 470Q271 470 234 442.50Q197 415 178 371Q159 327 150 283Q141 239 141 196Q141 56 255 56Z"  horiz-adv-x="576" vert-adv-y="1000"  />

      
      <glyph glyph-name="unif5" unicode="&#xf5;" d="M408 658Q376 658 343 682Q310 706 297 706Q265 706 234 659L186 689Q238 770 298 770Q329 770 360.50 746.50Q392 723 406 723Q435 723 468 768L517 739Q468 658 408 658M253-12Q157-12 105.50 45.50Q54 103 54 205Q54 247 62 290Q70 333 90.50 378Q111 423 140.50 458Q170 493 217.50 515.50Q265 538 324 538Q420 538 471 481Q522 424 522 322Q522 269 508 215Q494 161 465 108Q436 55 381 21.50Q326-12 253-12M255 56Q305 56 342 83.50Q379 111 398 155Q417 199 426 243Q435 287 435 330Q435 470 321 470Q271 470 234 442.50Q197 415 178 371Q159 327 150 283Q141 239 141 196Q141 56 255 56Z"  horiz-adv-x="576" vert-adv-y="1000"  />

      
      <glyph glyph-name="unif6" unicode="&#xf6;" d="M244 656Q222 656 208.50 669.50Q195 683 195 703Q195 728 211.50 744.50Q228 761 253 761Q275 761 288.50 747.50Q302 734 302 714Q302 689 285.50 672.50Q269 656 244 656M447 656Q425 656 411.50 669.50Q398 683 398 703Q398 728 414.50 744.50Q431 761 456 761Q478 761 491.50 747.50Q505 734 505 714Q505 688 488.50 672Q472 656 447 656M253-12Q157-12 105.50 45.50Q54 103 54 205Q54 247 62 290Q70 333 90.50 378Q111 423 140.50 458Q170 493 217.50 515.50Q265 538 324 538Q420 538 471 481Q522 424 522 322Q522 269 508 215Q494 161 465 108Q436 55 381 21.50Q326-12 253-12M255 56Q305 56 342 83.50Q379 111 398 155Q417 199 426 243Q435 287 435 330Q435 470 321 470Q271 470 234 442.50Q197 415 178 371Q159 327 150 283Q141 239 141 196Q141 56 255 56Z"  horiz-adv-x="576" vert-adv-y="1000"  />

      
      <glyph glyph-name="unif7" unicode="&#xf7;" d="M286 494Q261 494 244.50 511Q228 528 228 553Q228 582 248 602.50Q268 623 297 623Q323 623 339 606Q355 589 355 564Q355 535 335 514.50Q315 494 286 494M67 297L77 368L445 368L435 297L67 297M222 42Q197 42 180.50 59Q164 76 164 101Q164 130 184 150.50Q204 171 233 171Q259 171 275 154Q291 137 291 112Q291 83 271 62.50Q251 42 222 42Z"  horiz-adv-x="493" vert-adv-y="1000"  />

      
      <glyph glyph-name="unif8" unicode="&#xf8;" d="M442 506Q522 452 522 322Q522 269 508 215Q494 161 465 108Q436 55 381 21.50Q326-12 253-12Q224-12 197-6L142-129L75-109L135 20Q54 75 54 205Q54 247 62 290Q70 333 90.50 378Q111 423 140.50 458Q170 493 217.50 515.50Q265 538 324 538Q353 538 380 532L435 654L502 634L443 507L442 506M321 470Q271 470 234 442.50Q197 415 178 371Q159 327 150 283Q141 239 141 196Q141 114 176 81L356 467Q340 470 321 470M255 56Q305 56 342 83.50Q379 111 398 155Q417 199 426 243Q435 287 435 330Q435 412 402 443L221 59Q236 56 255 56Z"  horiz-adv-x="576" vert-adv-y="1000"  />

      
      <glyph glyph-name="unif9" unicode="&#xf9;" d="M289 797L469 685L442 640L247 725L289 797M202-12Q132-12 98.50 32Q65 76 76 153L129 526L212 526L160 156Q145 54 219 54Q303 54 386 189L433 526L516 526L442 0L372 0L381 106Q300-12 202-12Z"  horiz-adv-x="576" vert-adv-y="1000"  />

      
      <glyph glyph-name="unifa" unicode="&#xfa;" d="M441 797L469 725L252 640L232 685L441 797M202-12Q132-12 98.50 32Q65 76 76 153L129 526L212 526L160 156Q145 54 219 54Q303 54 386 189L433 526L516 526L442 0L372 0L381 106Q300-12 202-12Z"  horiz-adv-x="576" vert-adv-y="1000"  />

      
      <glyph glyph-name="unifb" unicode="&#xfb;" d="M216 636L182 678L330 789L384 789L502 678L461 636L349 720L216 636M202-12Q132-12 98.50 32Q65 76 76 153L129 526L212 526L160 156Q145 54 219 54Q303 54 386 189L433 526L516 526L442 0L372 0L381 106Q300-12 202-12Z"  horiz-adv-x="576" vert-adv-y="1000"  />

      
      <glyph glyph-name="unifc" unicode="&#xfc;" d="M242 656Q220 656 206.50 669.50Q193 683 193 703Q193 728 209.50 744.50Q226 761 251 761Q273 761 286.50 747.50Q300 734 300 714Q300 689 283.50 672.50Q267 656 242 656M445 656Q423 656 409.50 669.50Q396 683 396 703Q396 728 412.50 744.50Q429 761 454 761Q476 761 489.50 747.50Q503 734 503 714Q503 688 486.50 672Q470 656 445 656M202-12Q132-12 98.50 32Q65 76 76 153L129 526L212 526L160 156Q145 54 219 54Q303 54 386 189L433 526L516 526L442 0L372 0L381 106Q300-12 202-12Z"  horiz-adv-x="576" vert-adv-y="1000"  />

      
      <glyph glyph-name="unifd" unicode="&#xfd;" d="M394 797L422 725L205 640L185 685L394 797M508 526L262-5Q221-95 158.50-146.50Q96-198-5-211L-9-145Q69-131 107.50-99.50Q146-68 182 0L151 0L48 526L136 526L214 64L421 526L508 526Z"  horiz-adv-x="481" vert-adv-y="1000"  />

      
      <glyph glyph-name="unife" unicode="&#xfe;" d="M365 538Q440 538 482 484.50Q524 431 524 333Q524 287 515 240.50Q506 194 485 148Q464 102 433 67Q402 32 353.50 10Q305-12 246-12Q192-12 143 9L114-203L29-215L164 738L248 748L209 470Q283 538 365 538M252 55Q301 55 338.50 82.50Q376 110 397 153.50Q418 197 428 244.50Q438 292 438 339Q438 471 340 471Q273 471 198 392L154 73Q204 55 252 55Z"  horiz-adv-x="577" vert-adv-y="1000"  />

      
      <glyph glyph-name="uniff" unicode="&#xff;" d="M195 656Q173 656 159.50 669.50Q146 683 146 703Q146 728 162.50 744.50Q179 761 204 761Q226 761 239.50 747.50Q253 734 253 714Q253 689 236.50 672.50Q220 656 195 656M398 656Q376 656 362.50 669.50Q349 683 349 703Q349 728 365.50 744.50Q382 761 407 761Q429 761 442.50 747.50Q456 734 456 714Q456 688 440 672Q424 656 398 656M508 526L262-5Q221-95 158.50-146.50Q96-198-5-211L-9-145Q69-131 107.50-99.50Q146-68 182 0L151 0L48 526L136 526L214 64L421 526L508 526Z"  horiz-adv-x="481" vert-adv-y="1000"  />

      
      <glyph glyph-name="uni0100" unicode="&#x0100;" d="M500 859L492 795L228 795L237 859L500 859M432 0L403 176L137 176L59 0L-29 0L289 688L397 688L520 0L432 0M168 247L392 247L332 616L168 247Z"  horiz-adv-x="566" vert-adv-y="1000"  />

      
      <glyph glyph-name="uni0101" unicode="&#x0101;" d="M491 669L227 669L236 733L499 733L491 669M330 538Q418 538 511 493L457 119Q452 88 458 71.50Q464 55 488 46L465-12Q425-6 403 15Q381 36 377 78Q310-12 219-12Q140-12 96 42.50Q52 97 52 190Q52 235 61 281.50Q70 328 91.50 374.50Q113 421 144 457Q175 493 223.50 515.50Q272 538 330 538M332 471Q282 471 243.50 444Q205 417 183.50 374Q162 331 151.50 284Q141 237 141 190Q141 55 236 55Q310 55 380 156L422 452Q381 471 332 471Z"  horiz-adv-x="567" vert-adv-y="1000"  />

      
      <glyph glyph-name="uni0102" unicode="&#x0102;" d="M353 760Q294 760 257.50 793.50Q221 827 222 880L277 887Q290 824 354 824Q424 824 457 891L512 874Q499 822 454.50 791Q410 760 353 760M432 0L403 176L137 176L59 0L-29 0L289 688L397 688L520 0L432 0M168 247L392 247L332 616L168 247Z"  horiz-adv-x="566" vert-adv-y="1000"  />

      
      <glyph glyph-name="uni0103" unicode="&#x0103;" d="M352 645Q292 645 256.50 680.50Q221 716 223 776L279 783Q289 710 353 710Q427 710 458 787L513 770Q498 711 454 678Q410 645 352 645M330 538Q418 538 511 493L457 119Q452 88 458 71.50Q464 55 488 46L465-12Q425-6 403 15Q381 36 377 78Q310-12 219-12Q140-12 96 42.50Q52 97 52 190Q52 235 61 281.50Q70 328 91.50 374.50Q113 421 144 457Q175 493 223.50 515.50Q272 538 330 538M332 471Q282 471 243.50 444Q205 417 183.50 374Q162 331 151.50 284Q141 237 141 190Q141 55 236 55Q310 55 380 156L422 452Q381 471 332 471Z"  horiz-adv-x="567" vert-adv-y="1000"  />

      
      <glyph glyph-name="uni0104" unicode="&#x0104;" d="M488 0Q405-34 375.50-64.50Q346-95 346-126Q346-163 395-163Q419-163 457-155L443-222Q413-228 383-228Q331-228 301.50-202.50Q272-177 272-137Q272-38 429 19L403 176L137 176L59 0L-29 0L289 688L397 688L520 0L488 0M168 247L392 247L332 616L168 247Z"  horiz-adv-x="566" vert-adv-y="1000"  />

      
      <glyph glyph-name="uni0105" unicode="&#x0105;" d="M457 119Q452 88 458 71.50Q464 55 488 46L465-12Q382-46 352.50-76.50Q323-107 323-138Q323-175 372-175Q396-175 434-167L420-234Q390-240 360-240Q308-240 278.50-214.50Q249-189 249-149Q249-48 411 8Q381 32 377 78Q310-12 219-12Q140-12 96 42.50Q52 97 52 190Q52 235 61 281.50Q70 328 91.50 374.50Q113 421 144 457Q175 493 223.50 515.50Q272 538 330 538Q418 538 511 493L457 119M380 156L422 452Q381 471 332 471Q282 471 243.50 444Q205 417 183.50 374Q162 331 151.50 284Q141 237 141 190Q141 55 236 55Q310 55 380 156Z"  horiz-adv-x="567" vert-adv-y="1000"  />

      
      <glyph glyph-name="uni0106" unicode="&#x0106;" d="M509 903L537 832L320 756L303 801L509 903M395 700Q502 700 577 630L527 582Q468 628 399 628Q333 628 283.50 593Q234 558 207 501.50Q180 445 167 384Q154 323 154 260Q154 159 196.50 110.50Q239 62 311 62Q387 62 467 121L506 62Q418-12 306-12Q195-12 129 61Q63 134 63 267Q63 324 74.50 382.50Q86 441 111.50 498.50Q137 556 174.50 600.50Q212 645 269 672.50Q326 700 395 700Z"  horiz-adv-x="553" vert-adv-y="1000"  />

      
      <glyph glyph-name="uni0107" unicode="&#x0107;" d="M441 797L469 725L252 640L232 685L441 797M319 538Q409 538 469 481L424 429Q379 468 320 468Q271 468 234.50 441.50Q198 415 178.50 373Q159 331 150 286Q141 241 141 196Q141 60 254 60Q312 60 378 101L412 43Q334-12 249-12Q157-12 105.50 44.50Q54 101 54 202Q54 257 68.50 313Q83 369 113 421Q143 473 196.50 505.50Q250 538 319 538Z"  horiz-adv-x="471" vert-adv-y="1000"  />

      
      <glyph glyph-name="uni0108" unicode="&#x0108;" d="M290 760L256 801L403 909L457 909L575 801L538 760L424 841L290 760M395 700Q502 700 577 630L527 582Q468 628 399 628Q333 628 283.50 593Q234 558 207 501.50Q180 445 167 384Q154 323 154 260Q154 159 196.50 110.50Q239 62 311 62Q387 62 467 121L506 62Q418-12 306-12Q195-12 129 61Q63 134 63 267Q63 324 74.50 382.50Q86 441 111.50 498.50Q137 556 174.50 600.50Q212 645 269 672.50Q326 700 395 700Z"  horiz-adv-x="553" vert-adv-y="1000"  />

      
      <glyph glyph-name="uni0109" unicode="&#x0109;" d="M216 636L182 678L330 789L384 789L502 678L461 636L349 720L216 636M319 538Q409 538 469 481L424 429Q379 468 320 468Q271 468 234.50 441.50Q198 415 178.50 373Q159 331 150 286Q141 241 141 196Q141 60 254 60Q312 60 378 101L412 43Q334-12 249-12Q157-12 105.50 44.50Q54 101 54 202Q54 257 68.50 313Q83 369 113 421Q143 473 196.50 505.50Q250 538 319 538Z"  horiz-adv-x="471" vert-adv-y="1000"  />

      
      <glyph glyph-name="uni010A" unicode="&#x010A;" d="M424 784Q400 784 385 799Q370 814 370 837Q370 864 388 882Q406 900 433 900Q458 900 473 885Q488 870 488 847Q488 820 469.50 802Q451 784 424 784M395 700Q502 700 577 630L527 582Q468 628 399 628Q333 628 283.50 593Q234 558 207 501.50Q180 445 167 384Q154 323 154 260Q154 159 196.50 110.50Q239 62 311 62Q387 62 467 121L506 62Q418-12 306-12Q195-12 129 61Q63 134 63 267Q63 324 74.50 382.50Q86 441 111.50 498.50Q137 556 174.50 600.50Q212 645 269 672.50Q326 700 395 700Z"  horiz-adv-x="553" vert-adv-y="1000"  />

      
      <glyph glyph-name="uni010B" unicode="&#x010B;" d="M345 658Q321 658 306 673Q291 688 291 711Q291 738 309 756Q327 774 354 774Q379 774 394 759Q409 744 409 721Q409 694 390.50 676Q372 658 345 658M319 538Q409 538 469 481L424 429Q379 468 320 468Q271 468 234.50 441.50Q198 415 178.50 373Q159 331 150 286Q141 241 141 196Q141 60 254 60Q312 60 378 101L412 43Q334-12 249-12Q157-12 105.50 44.50Q54 101 54 202Q54 257 68.50 313Q83 369 113 421Q143 473 196.50 505.50Q250 538 319 538Z"  horiz-adv-x="471" vert-adv-y="1000"  />

      
      <glyph glyph-name="uni010C" unicode="&#x010C;" d="M554 904L587 862L440 755L386 755L267 862L306 904L419 823L554 904M395 700Q502 700 577 630L527 582Q468 628 399 628Q333 628 283.50 593Q234 558 207 501.50Q180 445 167 384Q154 323 154 260Q154 159 196.50 110.50Q239 62 311 62Q387 62 467 121L506 62Q418-12 306-12Q195-12 129 61Q63 134 63 267Q63 324 74.50 382.50Q86 441 111.50 498.50Q137 556 174.50 600.50Q212 645 269 672.50Q326 700 395 700Z"  horiz-adv-x="553" vert-adv-y="1000"  />

      
      <glyph glyph-name="uni010D" unicode="&#x010D;" d="M477 781L509 740L361 628L307 628L189 740L227 781L339 697L477 781M319 538Q409 538 469 481L424 429Q379 468 320 468Q271 468 234.50 441.50Q198 415 178.50 373Q159 331 150 286Q141 241 141 196Q141 60 254 60Q312 60 378 101L412 43Q334-12 249-12Q157-12 105.50 44.50Q54 101 54 202Q54 257 68.50 313Q83 369 113 421Q143 473 196.50 505.50Q250 538 319 538Z"  horiz-adv-x="471" vert-adv-y="1000"  />

      
      <glyph glyph-name="uni010E" unicode="&#x010E;" d="M509 904L542 862L395 755L341 755L222 862L261 904L374 823L509 904M301 688Q350 688 390.50 681.50Q431 675 470.50 657.50Q510 640 536.50 612Q563 584 579.50 537Q596 490 596 428Q596 342 575.50 268Q555 194 513 132.50Q471 71 397.50 35.50Q324 0 226 0L65 0L162 688L301 688M312 618L237 618L161 69L239 69Q298 69 345.50 90.50Q393 112 423 147.50Q453 183 473 230.50Q493 278 501 327.50Q509 377 509 430Q509 489 493 528.50Q477 568 446.50 586.50Q416 605 385 611.50Q354 618 312 618Z"  horiz-adv-x="637" vert-adv-y="1000"  />

      
      <glyph glyph-name="uni010F" unicode="&#x010F;" d="M473 747L555 737L451 0L378 0L381 92Q319-12 218-12Q139-12 96 43.50Q53 99 53 196Q53 239 61 284Q69 329 87.50 375Q106 421 133.50 457Q161 493 203.50 515.50Q246 538 298 538Q383 538 434 470L473 747M618 747L693 738L624 559L576 566L618 747M313 471Q266 471 231 443Q196 415 177.50 370.50Q159 326 150 280.50Q141 235 141 191Q141 55 234 55Q281 55 317.50 86.50Q354 118 394 182L425 404Q383 471 313 471Z"  horiz-adv-x="585" vert-adv-y="1000"  />

      
      <glyph glyph-name="uni0110" unicode="&#x0110;" d="M310 688Q359 688 399.50 681.50Q440 675 479.50 657.50Q519 640 545.50 612Q572 584 588.50 537Q605 490 605 428Q605 342 584.50 268Q564 194 522 132.50Q480 71 406.50 35.50Q333 0 235 0L74 0L119 321L31 321L40 385L128 385L171 688L310 688M248 69Q307 69 354.50 90.50Q402 112 432 147.50Q462 183 482 230.50Q502 278 510 327.50Q518 377 518 430Q518 489 502 528.50Q486 568 455.50 586.50Q425 605 394 611.50Q363 618 321 618L246 618L214 385L376 385L368 321L205 321L170 69L248 69Z"  horiz-adv-x="646" vert-adv-y="1000"  />

      
      <glyph glyph-name="uni0111" unicode="&#x0111;" d="M623 673L614 608L537 608L451 0L378 0L381 92Q319-12 218-12Q139-12 96 43.50Q53 99 53 196Q53 239 61 284Q69 329 87.50 375Q106 421 133.50 457Q161 493 203.50 515.50Q246 538 298 538Q383 538 434 470L453 608L300 608L300 673L463 673L473 747L555 737L546 673L623 673M394 182L425 404Q383 471 313 471Q266 471 231 443Q196 415 177.50 370.50Q159 326 150 280.50Q141 235 141 191Q141 55 234 55Q281 55 317.50 86.50Q354 118 394 182Z"  horiz-adv-x="593" vert-adv-y="1000"  />

      
      <glyph glyph-name="uni0112" unicode="&#x0112;" d="M496 795L232 795L241 859L504 859L496 795M525 688L506 618L237 618L204 386L437 386L428 316L195 316L161 70L446 70L436 0L65 0L162 688L525 688Z"  horiz-adv-x="524" vert-adv-y="1000"  />

      
      <glyph glyph-name="uni0113" unicode="&#x0113;" d="M475 733L467 669L203 669L212 733L475 733M488 406Q488 363 469.50 330Q451 297 421.50 275.50Q392 254 345.50 238Q299 222 251 213.50Q203 205 141 198Q142 59 260 59Q333 59 402 109L438 52Q351-12 252-12Q157-12 105.50 44.50Q54 101 54 201Q54 247 63 292Q72 337 92.50 382Q113 427 143 461Q173 495 220 516.50Q267 538 324 538Q402 538 445 500Q488 462 488 406M145 263Q275 276 337.50 307Q400 338 400 403Q400 429 381.50 450Q363 471 323 471Q269 471 229.50 438.50Q190 406 171.50 362Q153 318 145 263Z"  horiz-adv-x="516" vert-adv-y="1000"  />

      
      <glyph glyph-name="uni0114" unicode="&#x0114;" d="M357 760Q298 760 261.50 793.50Q225 827 226 880L281 887Q294 824 358 824Q428 824 461 891L516 874Q503 822 458.50 791Q414 760 357 760M525 688L506 618L237 618L204 386L437 386L428 316L195 316L161 70L446 70L436 0L65 0L162 688L525 688Z"  horiz-adv-x="524" vert-adv-y="1000"  />

      
      <glyph glyph-name="uni0115" unicode="&#x0115;" d="M328 645Q268 645 232.50 680.50Q197 716 199 776L255 783Q265 710 329 710Q403 710 434 787L489 770Q474 711 430 678Q386 645 328 645M324 538Q402 538 445 500Q488 462 488 406Q488 363 469.50 330Q451 297 421.50 275.50Q392 254 345.50 238Q299 222 251 213.50Q203 205 141 198Q142 59 260 59Q333 59 402 109L438 52Q351-12 252-12Q157-12 105.50 44.50Q54 101 54 201Q54 247 63 292Q72 337 92.50 382Q113 427 143 461Q173 495 220 516.50Q267 538 324 538M145 263Q275 276 337.50 307Q400 338 400 403Q400 429 381.50 450Q363 471 323 471Q269 471 229.50 438.50Q190 406 171.50 362Q153 318 145 263Z"  horiz-adv-x="516" vert-adv-y="1000"  />

      
      <glyph glyph-name="uni0116" unicode="&#x0116;" d="M367 784Q343 784 328 799Q313 814 313 837Q313 864 331 882Q349 900 376 900Q401 900 416 885Q431 870 431 847Q431 820 412.50 802Q394 784 367 784M525 688L506 618L237 618L204 386L437 386L428 316L195 316L161 70L446 70L436 0L65 0L162 688L525 688Z"  horiz-adv-x="524" vert-adv-y="1000"  />

      
      <glyph glyph-name="uni0117" unicode="&#x0117;" d="M336 658Q312 658 297 673Q282 688 282 711Q282 738 300 756Q318 774 345 774Q370 774 385 759Q400 744 400 721Q400 694 381.50 676Q363 658 336 658M488 406Q488 363 469.50 330Q451 297 421.50 275.50Q392 254 345.50 238Q299 222 251 213.50Q203 205 141 198Q142 59 260 59Q333 59 402 109L438 52Q351-12 252-12Q157-12 105.50 44.50Q54 101 54 201Q54 247 63 292Q72 337 92.50 382Q113 427 143 461Q173 495 220 516.50Q267 538 324 538Q402 538 445 500Q488 462 488 406M145 263Q275 276 337.50 307Q400 338 400 403Q400 429 381.50 450Q363 471 323 471Q269 471 229.50 438.50Q190 406 171.50 362Q153 318 145 263Z"  horiz-adv-x="516" vert-adv-y="1000"  />

      
      <glyph glyph-name="uni0118" unicode="&#x0118;" d="M506 618L237 618L204 386L437 386L428 316L195 316L161 70L446 70L436 0L400 0Q317-34 287.50-64.50Q258-95 258-126Q258-163 307-163Q331-163 369-155L355-222Q325-228 295-228Q243-228 213.50-202.50Q184-177 184-137Q184-53 296 0L65 0L162 688L525 688L506 618Z"  horiz-adv-x="524" vert-adv-y="1000"  />

      
      <glyph glyph-name="uni0119" unicode="&#x0119;" d="M488 406Q488 363 469.50 330Q451 297 421.50 275.50Q392 254 345.50 238Q299 222 251 213.50Q203 205 141 198Q142 59 260 59Q333 59 402 109L438 52Q387 14 332-1Q271-29 248-54Q225-79 225-109Q225-158 283-158Q311-158 343-151L335-216Q300-223 273-223Q217-223 184-195Q151-167 151-124Q151-54 233-11Q147-6 100.50 50Q54 106 54 201Q54 247 63 292Q72 337 92.50 382Q113 427 143 461Q173 495 220 516.50Q267 538 324 538Q402 538 445 500Q488 462 488 406M145 263Q275 276 337.50 307Q400 338 400 403Q400 429 381.50 450Q363 471 323 471Q269 471 229.50 438.50Q190 406 171.50 362Q153 318 145 263Z"  horiz-adv-x="516" vert-adv-y="1000"  />

      
      <glyph glyph-name="uni011A" unicode="&#x011A;" d="M497 904L530 862L383 755L329 755L210 862L249 904L362 823L497 904M525 688L506 618L237 618L204 386L437 386L428 316L195 316L161 70L446 70L436 0L65 0L162 688L525 688Z"  horiz-adv-x="524" vert-adv-y="1000"  />

      
      <glyph glyph-name="uni011B" unicode="&#x011B;" d="M352 628L298 628L180 740L218 781L330 697L468 781L500 740L352 628M324 538Q402 538 445 500Q488 462 488 406Q488 363 469.50 330Q451 297 421.50 275.50Q392 254 345.50 238Q299 222 251 213.50Q203 205 141 198Q142 59 260 59Q333 59 402 109L438 52Q351-12 252-12Q157-12 105.50 44.50Q54 101 54 201Q54 247 63 292Q72 337 92.50 382Q113 427 143 461Q173 495 220 516.50Q267 538 324 538M145 263Q275 276 337.50 307Q400 338 400 403Q400 429 381.50 450Q363 471 323 471Q269 471 229.50 438.50Q190 406 171.50 362Q153 318 145 263Z"  horiz-adv-x="516" vert-adv-y="1000"  />

      
      <glyph glyph-name="uni011C" unicode="&#x011C;" d="M297 760L263 801L410 909L464 909L582 801L545 760L431 841L297 760M405 700Q521 700 603 623L549 576Q484 628 406 628Q341 628 290.50 593Q240 558 211 501Q182 444 167.50 379.50Q153 315 153 248Q153 60 315 60Q389 60 450 94L481 308L358 308L358 379L576 379L531 52Q428-12 304-12Q191-12 127 57Q63 126 63 259Q63 320 75.50 381Q88 442 115 500Q142 558 181 602Q220 646 278 673Q336 700 405 700Z"  horiz-adv-x="623" vert-adv-y="1000"  />

      
      <glyph glyph-name="uni011D" unicode="&#x011D;" d="M221 636L187 678L335 789L389 789L507 678L466 636L354 720L221 636M335 538Q425 538 517 493L445 10Q411-214 209-214Q112-214 29-163L61-100Q136-142 205-142Q268-142 309.50-109.50Q351-77 363 11L373 82Q306 0 221 0Q143 0 98 54Q53 108 53 199Q53 259 69 317Q85 375 117 425.50Q149 476 205.50 507Q262 538 335 538M336 471Q270 471 224.50 428Q179 385 160.50 325.50Q142 266 142 198Q142 132 167.50 99.50Q193 67 238 67Q313 67 385 169L429 452Q385 471 336 471Z"  horiz-adv-x="577" vert-adv-y="1000"  />

      
      <glyph glyph-name="uni011E" unicode="&#x011E;" d="M421 760Q362 760 325.50 793.50Q289 827 290 880L345 887Q358 824 422 824Q492 824 525 891L580 874Q567 822 522.50 791Q478 760 421 760M405 700Q521 700 603 623L549 576Q484 628 406 628Q341 628 290.50 593Q240 558 211 501Q182 444 167.50 379.50Q153 315 153 248Q153 60 315 60Q389 60 450 94L481 308L358 308L358 379L576 379L531 52Q428-12 304-12Q191-12 127 57Q63 126 63 259Q63 320 75.50 381Q88 442 115 500Q142 558 181 602Q220 646 278 673Q336 700 405 700Z"  horiz-adv-x="623" vert-adv-y="1000"  />

      
      <glyph glyph-name="uni011F" unicode="&#x011F;" d="M342 645Q282 645 246.50 680.50Q211 716 213 776L269 783Q279 710 343 710Q417 710 448 787L503 770Q488 711 444 678Q400 645 342 645M335 538Q425 538 517 493L445 10Q411-214 209-214Q112-214 29-163L61-100Q136-142 205-142Q268-142 309.50-109.50Q351-77 363 11L373 82Q306 0 221 0Q143 0 98 54Q53 108 53 199Q53 259 69 317Q85 375 117 425.50Q149 476 205.50 507Q262 538 335 538M336 471Q270 471 224.50 428Q179 385 160.50 325.50Q142 266 142 198Q142 132 167.50 99.50Q193 67 238 67Q313 67 385 169L429 452Q385 471 336 471Z"  horiz-adv-x="577" vert-adv-y="1000"  />

      
      <glyph glyph-name="uni0120" unicode="&#x0120;" d="M431 784Q407 784 392 799Q377 814 377 837Q377 864 395 882Q413 900 440 900Q465 900 480 885Q495 870 495 847Q495 820 476.50 802Q458 784 431 784M405 700Q521 700 603 623L549 576Q484 628 406 628Q341 628 290.50 593Q240 558 211 501Q182 444 167.50 379.50Q153 315 153 248Q153 60 315 60Q389 60 450 94L481 308L358 308L358 379L576 379L531 52Q428-12 304-12Q191-12 127 57Q63 126 63 259Q63 320 75.50 381Q88 442 115 500Q142 558 181 602Q220 646 278 673Q336 700 405 700Z"  horiz-adv-x="623" vert-adv-y="1000"  />

      
      <glyph glyph-name="uni0121" unicode="&#x0121;" d="M350 658Q326 658 311 673Q296 688 296 711Q296 738 314 756Q332 774 359 774Q384 774 399 759Q414 744 414 721Q414 694 395.50 676Q377 658 350 658M335 538Q425 538 517 493L445 10Q411-214 209-214Q112-214 29-163L61-100Q136-142 205-142Q268-142 309.50-109.50Q351-77 363 11L373 82Q306 0 221 0Q143 0 98 54Q53 108 53 199Q53 259 69 317Q85 375 117 425.50Q149 476 205.50 507Q262 538 335 538M336 471Q270 471 224.50 428Q179 385 160.50 325.50Q142 266 142 198Q142 132 167.50 99.50Q193 67 238 67Q313 67 385 169L429 452Q385 471 336 471Z"  horiz-adv-x="577" vert-adv-y="1000"  />

      
      <glyph glyph-name="uni0122" unicode="&#x0122;" d="M405 700Q521 700 603 623L549 576Q484 628 406 628Q341 628 290.50 593Q240 558 211 501Q182 444 167.50 379.50Q153 315 153 248Q153 60 315 60Q389 60 450 94L481 308L358 308L358 379L576 379L531 52Q428-12 304-12Q191-12 127 57Q63 126 63 259Q63 320 75.50 381Q88 442 115 500Q142 558 181 602Q220 646 278 673Q336 700 405 700M292-79Q315-79 328-94Q341-109 341-128Q341-153 306-210L254-292L205-292L253-175Q234-156 234-135Q234-111 251-95Q268-79 292-79Z"  horiz-adv-x="623" vert-adv-y="1000"  />

      
      <glyph glyph-name="uni0123" unicode="&#x0123;" d="M339 584Q316 584 303 599Q290 614 290 633Q290 658 325 715L377 797L426 797L378 680Q397 661 397 640Q397 616 380 600Q363 584 339 584M335 538Q425 538 517 493L445 10Q411-214 209-214Q112-214 29-163L61-100Q136-142 205-142Q268-142 309.50-109.50Q351-77 363 11L373 82Q306 0 221 0Q143 0 98 54Q53 108 53 199Q53 259 69 317Q85 375 117 425.50Q149 476 205.50 507Q262 538 335 538M336 471Q270 471 224.50 428Q179 385 160.50 325.50Q142 266 142 198Q142 132 167.50 99.50Q193 67 238 67Q313 67 385 169L429 452Q385 471 336 471Z"  horiz-adv-x="577" vert-adv-y="1000"  />

      
      <glyph glyph-name="uni0124" unicode="&#x0124;" d="M282 760L248 801L395 909L449 909L567 801L530 760L416 841L282 760M150 0L65 0L162 688L247 688L206 397L504 397L545 688L631 688L534 0L448 0L493 326L196 326L150 0Z"  horiz-adv-x="672" vert-adv-y="1000"  />

      
      <glyph glyph-name="uni0125" unicode="&#x0125;" d="M243 810L209 851L356 959L410 959L528 851L491 810L377 891L243 810M380 538Q449 538 482 493.50Q515 449 504 372L452 0L369 0L421 368Q434 468 363 468Q270 468 186 315L143 0L60 0L164 737L248 747L201 420Q276 538 380 538Z"  horiz-adv-x="581" vert-adv-y="1000"  />

      
      <glyph glyph-name="uni0126" unicode="&#x0126;" d="M684 572L675 509L609 509L537 0L451 0L496 326L199 326L153 0L68 0L140 509L72 509L81 572L149 572L165 688L250 688L234 572L532 572L548 688L634 688L618 572L684 572M507 397L523 509L225 509L209 397L507 397Z"  horiz-adv-x="678" vert-adv-y="1000"  />

      
      <glyph glyph-name="uni0127" unicode="&#x0127;" d="M388 538Q457 538 490 493.50Q523 449 512 372L460 0L377 0L429 368Q442 468 371 468Q278 468 194 315L151 0L68 0L154 608L75 608L84 673L163 673L172 737L256 747L245 673L401 673L383 608L236 608L209 420Q284 538 388 538Z"  horiz-adv-x="589" vert-adv-y="1000"  />

      
      <glyph glyph-name="uni0128" unicode="&#x0128;" d="M283 784Q251 784 218 808Q185 832 172 832Q140 832 109 785L61 815Q113 896 173 896Q204 896 235.50 872.50Q267 849 281 849Q310 849 343 894L392 865Q343 784 283 784M247 688L150 0L65 0L162 688L247 688Z"  horiz-adv-x="289" vert-adv-y="1000"  />

      
      <glyph glyph-name="uni0129" unicode="&#x0129;" d="M258 658Q226 658 193 682Q160 706 147 706Q115 706 84 659L36 689Q88 770 148 770Q179 770 210.50 746.50Q242 723 256 723Q285 723 318 768L367 739Q318 658 258 658M217 526L143 0L60 0L134 526L217 526Z"  horiz-adv-x="277" vert-adv-y="1000"  />

      
      <glyph glyph-name="uni012A" unicode="&#x012A;" d="M354 795L90 795L99 859L362 859L354 795M247 688L150 0L65 0L162 688L247 688Z"  horiz-adv-x="289" vert-adv-y="1000"  />

      
      <glyph glyph-name="uni012B" unicode="&#x012B;" d="M328 669L64 669L73 733L336 733L328 669M217 526L143 0L60 0L134 526L217 526Z"  horiz-adv-x="277" vert-adv-y="1000"  />

      
      <glyph glyph-name="uni012C" unicode="&#x012C;" d="M215 760Q156 760 119.50 793.50Q83 827 84 880L139 887Q152 824 216 824Q286 824 319 891L374 874Q361 822 316.50 791Q272 760 215 760M247 688L150 0L65 0L162 688L247 688Z"  horiz-adv-x="289" vert-adv-y="1000"  />

      
      <glyph glyph-name="uni012D" unicode="&#x012D;" d="M189 645Q129 645 93.50 680.50Q58 716 60 776L116 783Q126 710 190 710Q264 710 295 787L350 770Q335 711 291 678Q247 645 189 645M217 526L143 0L60 0L134 526L217 526Z"  horiz-adv-x="277" vert-adv-y="1000"  />

      
      <glyph glyph-name="uni012E" unicode="&#x012E;" d="M162 688L247 688L150 0L133 0Q50-34 20.50-64.50Q-9-95-9-126Q-9-163 40-163Q64-163 102-155L88-222Q58-228 28-228Q-24-228-53.50-202.50Q-83-177-83-137Q-83-40 67 16L162 688Z"  horiz-adv-x="289" vert-adv-y="1000"  />

      
      <glyph glyph-name="uni012F" unicode="&#x012F;" d="M206 774Q231 774 246 759Q261 744 261 721Q261 694 242.50 676Q224 658 197 658Q173 658 158 673Q143 688 143 711Q143 738 161 756Q179 774 206 774M63 20L134 526L217 526L143 0L118 0Q35-34 5.50-64.50Q-24-95-24-126Q-24-163 25-163Q49-163 87-155L73-222Q43-228 13-228Q-39-228-68.50-202.50Q-98-177-98-137Q-98-36 63 20Z"  horiz-adv-x="277" vert-adv-y="1000"  />

      
      <glyph glyph-name="uni0130" unicode="&#x0130;" d="M225 784Q201 784 186 799Q171 814 171 837Q171 864 189 882Q207 900 234 900Q259 900 274 885Q289 870 289 847Q289 820 270.50 802Q252 784 225 784M247 688L150 0L65 0L162 688L247 688Z"  horiz-adv-x="289" vert-adv-y="1000"  />

      
      <glyph glyph-name="uni0131" unicode="&#x0131;" d="M217 526L143 0L60 0L134 526L217 526Z"  horiz-adv-x="277" vert-adv-y="1000"  />

      
      <glyph glyph-name="uni0132" unicode="&#x0132;" d="M247 688L150 0L65 0L162 688L247 688M549 688L466 92Q452-6 404-55Q356-104 264-134L246-69Q316-42 344-5.50Q372 31 381 102L464 688L549 688Z"  horiz-adv-x="586" vert-adv-y="1000"  />

      
      <glyph glyph-name="uni0133" unicode="&#x0133;" d="M197 658Q173 658 158 673Q143 688 143 711Q143 738 161 756Q179 774 206 774Q231 774 246 759Q261 744 261 721Q261 694 242.50 676Q224 658 197 658M475 658Q451 658 436 673Q421 688 421 711Q421 738 439 756Q457 774 484 774Q509 774 524 759Q539 744 539 721Q539 694 520.50 676Q502 658 475 658M217 526L143 0L60 0L134 526L217 526M233-211L210-149Q272-120 300.50-86Q329-52 341 27L411 526L494 526L423 26Q409-77 367.50-124Q326-171 233-211Z"  horiz-adv-x="554" vert-adv-y="1000"  />

      
      <glyph glyph-name="uni0134" unicode="&#x0134;" d="M103 760L69 801L216 909L270 909L388 801L351 760L237 841L103 760M260 688L177 92Q163-6 115-55Q67-104-25-134L-43-69Q27-42 55-5.50Q83 31 92 102L175 688L260 688Z"  horiz-adv-x="297" vert-adv-y="1000"  />

      
      <glyph glyph-name="uni0135" unicode="&#x0135;" d="M69 636L35 678L183 789L237 789L355 678L314 636L202 720L69 636M-44-211L-67-149Q-5-120 23.50-86Q52-52 64 27L134 526L217 526L146 26Q132-77 90.50-124Q49-171-44-211Z"  horiz-adv-x="277" vert-adv-y="1000"  />

      
      <glyph glyph-name="uni0136" unicode="&#x0136;" d="M65 0L162 688L248 688L151 0L65 0M435 0L207 368L515 688L617 688L304 365L537 0L435 0M263-79Q286-79 299-94Q312-109 312-128Q312-153 277-210L225-292L176-292L224-175Q205-156 205-135Q205-111 222-95Q239-79 263-79Z"  horiz-adv-x="574" vert-adv-y="1000"  />

      
      <glyph glyph-name="uni0137" unicode="&#x0137;" d="M248 748L202 425Q277 538 386 538Q441 538 476.50 505Q512 472 512 420Q512 356 470.50 308Q429 260 347 234L466 0L373 0L247 256Q340 282 382 319Q424 356 424 411Q424 471 363 471Q316 471 268.50 430.50Q221 390 187 313L143 0L60 0L164 738L248 748M239-79Q262-79 275-94Q288-109 288-128Q288-153 253-210L201-292L152-292L200-175Q181-156 181-135Q181-111 198-95Q215-79 239-79Z"  horiz-adv-x="540" vert-adv-y="1000"  />

      
      <glyph glyph-name="uni0138" unicode="&#x0138;" d="M217 526L143 0L60 0L134 526L217 526M513 526L280 277L460 0L364 0L185 277L413 526L513 526Z"  horiz-adv-x="503" vert-adv-y="1000"  />

      
      <glyph glyph-name="uni0139" unicode="&#x0139;" d="M310 903L338 832L121 756L104 801L310 903M247 688L162 76L443 76L422 0L65 0L162 688L247 688Z"  horiz-adv-x="487" vert-adv-y="1000"  />

      
      <glyph glyph-name="uni013A" unicode="&#x013A;" d="M306 953L334 882L117 806L100 851L306 953M243 748L152 99Q150 77 155.50 67.50Q161 58 178 58Q194 58 215 65L232 4Q196-12 162-12Q111-12 86.50 19.50Q62 51 71 113L160 738L243 748Z"  horiz-adv-x="287" vert-adv-y="1000"  />

      
      <glyph glyph-name="uni013B" unicode="&#x013B;" d="M247 688L162 76L443 76L422 0L65 0L162 688L247 688M233-79Q256-79 269-94Q282-109 282-128Q282-153 247-210L195-292L146-292L194-175Q175-156 175-135Q175-111 192-95Q209-79 233-79Z"  horiz-adv-x="487" vert-adv-y="1000"  />

      
      <glyph glyph-name="uni013C" unicode="&#x013C;" d="M243 748L152 99Q150 77 155.50 67.50Q161 58 178 58Q194 58 215 65L232 4Q196-12 162-12Q111-12 86.50 19.50Q62 51 71 113L160 738L243 748M145-79Q168-79 181-94Q194-109 194-128Q194-153 159-210L107-292L58-292L106-175Q87-156 87-135Q87-111 104-95Q121-79 145-79Z"  horiz-adv-x="287" vert-adv-y="1000"  />

      
      <glyph glyph-name="uni013D" unicode="&#x013D;" d="M324 697L399 688L330 509L282 516L324 697M247 688L162 76L443 76L422 0L65 0L162 688L247 688Z"  horiz-adv-x="487" vert-adv-y="1000"  />

      
      <glyph glyph-name="uni013E" unicode="&#x013E;" d="M243 748L152 99Q150 77 155.50 67.50Q161 58 178 58Q194 58 215 65L232 4Q196-12 162-12Q111-12 86.50 19.50Q62 51 71 113L160 738L243 748M304 747L379 738L310 559L262 566L304 747Z"  horiz-adv-x="287" vert-adv-y="1000"  />

      
      <glyph glyph-name="uni013F" unicode="&#x013F;" d="M247 688L162 76L443 76L422 0L65 0L162 688L247 688M392 325Q368 325 353 340Q338 355 338 378Q338 405 356 423Q374 441 401 441Q426 441 441 426Q456 411 456 388Q456 361 437.50 343Q419 325 392 325Z"  horiz-adv-x="487" vert-adv-y="1000"  />

      
      <glyph glyph-name="uni0140" unicode="&#x0140;" d="M243 748L152 99Q150 77 155.50 67.50Q161 58 178 58Q194 58 215 65L232 4Q196-12 162-12Q111-12 86.50 19.50Q62 51 71 113L160 738L243 748M300 319Q276 319 261 334Q246 349 246 372Q246 399 264 417Q282 435 309 435Q334 435 349 420Q364 405 364 382Q364 355 345.50 337Q327 319 300 319Z"  horiz-adv-x="318" vert-adv-y="1000"  />

      
      <glyph glyph-name="uni0141" unicode="&#x0141;" d="M172 76L453 76L432 0L75 0L112 260L53 227L25 282L123 338L172 688L257 688L216 392L396 495L423 440L205 314L172 76Z"  horiz-adv-x="497" vert-adv-y="1000"  />

      
      <glyph glyph-name="uni0142" unicode="&#x0142;" d="M178 58Q194 58 215 65L232 4Q196-12 162-12Q111-12 86.50 19.50Q62 51 71 113L99 309L48 280L27 340L110 387L160 738L243 748L200 438L285 487L305 427L189 360L152 99Q150 77 155.50 67.50Q161 58 178 58Z"  horiz-adv-x="294" vert-adv-y="1000"  />

      
      <glyph glyph-name="uni0143" unicode="&#x0143;" d="M513 903L541 832L324 756L307 801L513 903M633 688L537 0L425 0L218 613Q217 503 192 329L146 0L65 0L162 688L274 688L482 75Q482 181 498 305L552 688L633 688Z"  horiz-adv-x="675" vert-adv-y="1000"  />

      
      <glyph glyph-name="uni0144" unicode="&#x0144;" d="M445 797L473 725L256 640L236 685L445 797M382 538Q448 538 481.50 492.50Q515 447 504 370L452 0L369 0L421 368Q434 468 360 468Q271 468 187 315L143 0L60 0L134 526L205 526L195 417Q278 538 382 538Z"  horiz-adv-x="580" vert-adv-y="1000"  />

      
      <glyph glyph-name="uni0145" unicode="&#x0145;" d="M633 688L537 0L425 0L218 613Q217 503 192 329L146 0L65 0L162 688L274 688L482 75Q482 181 498 305L552 688L633 688M292-79Q315-79 328-94Q341-109 341-128Q341-153 306-210L254-292L205-292L253-175Q234-156 234-135Q234-111 251-95Q268-79 292-79Z"  horiz-adv-x="675" vert-adv-y="1000"  />

      
      <glyph glyph-name="uni0146" unicode="&#x0146;" d="M382 538Q448 538 481.50 492.50Q515 447 504 370L452 0L369 0L421 368Q434 468 360 468Q271 468 187 315L143 0L60 0L134 526L205 526L195 417Q278 538 382 538M244-79Q267-79 280-94Q293-109 293-128Q293-153 258-210L206-292L157-292L205-175Q186-156 186-135Q186-111 203-95Q220-79 244-79Z"  horiz-adv-x="580" vert-adv-y="1000"  />

      
      <glyph glyph-name="uni0147" unicode="&#x0147;" d="M558 904L591 862L444 755L390 755L271 862L310 904L423 823L558 904M633 688L537 0L425 0L218 613Q217 503 192 329L146 0L65 0L162 688L274 688L482 75Q482 181 498 305L552 688L633 688Z"  horiz-adv-x="675" vert-adv-y="1000"  />

      
      <glyph glyph-name="uni0148" unicode="&#x0148;" d="M481 781L513 740L365 628L311 628L193 740L231 781L343 697L481 781M382 538Q448 538 481.50 492.50Q515 447 504 370L452 0L369 0L421 368Q434 468 360 468Q271 468 187 315L143 0L60 0L134 526L205 526L195 417Q278 538 382 538Z"  horiz-adv-x="580" vert-adv-y="1000"  />

      
      <glyph glyph-name="uni0149" unicode="&#x0149;" d="M165 751Q190 751 204 734.50Q218 718 214 694Q213 673 181 622L129 537L80 537L127 655Q105 675 108 702Q111 724 127 737.50Q143 751 165 751M486 538Q552 538 585.50 492.50Q619 447 608 370L556 0L473 0L525 368Q538 468 464 468Q375 468 291 315L247 0L164 0L238 526L309 526L299 417Q382 538 486 538Z"  horiz-adv-x="684" vert-adv-y="1000"  />

      
      </font>
</defs>
</svg>
